<?xml version="1.0" standalone="no"?>
<!DOCTYPE svg PUBLIC "-//W3C//DTD SVG 1.1//EN" "http://www.w3.org/Graphics/SVG/1.1/DTD/svg11.dtd" >
<svg xmlns="http://www.w3.org/2000/svg" xmlns:xlink="http://www.w3.org/1999/xlink" version="1.1">
<metadata>
Created by FontForge 20190801 at Sun Jul 31 06:41:46 2011
 By www-data
Appetite designed by Denis Serebryakov | www.dsgn.by
</metadata>
<defs>
<font id="appetite" horiz-adv-x="615" >
  <font-face 
    font-family="appetite"
    font-weight="400"
    font-stretch="normal"
    units-per-em="1000"
    panose-1="2 0 0 0 0 0 0 0 0 0"
    ascent="750"
    descent="-250"
    x-height="520"
    cap-height="746"
    bbox="-130 -343.643 2388.73 1032.25"
    underline-thickness="50"
    underline-position="-100"
    unicode-range="U+0020-FB06"
  />
<missing-glyph horiz-adv-x="249" 
 />
    <glyph glyph-name="ff" unicode="ff" horiz-adv-x="697" 
d="M595 557q-2 3 -1 7.5t3.5 11t4.5 15.5t2 22q0 19 -8.5 34.5t-31.5 12.5q-26 -3 -33.5 -23.5t-4.5 -46t12 -50t14 -37.5h138q1 0 2 -1q2 -2 2 -4v-84q0 -2 -2 -4q-1 -1 -2 -1h-133v-403q0 -3 -2 -5q-1 -1 -2 -1h-193q-1 0 -2 1q-2 2 -2 4v404h-90v-403q0 -3 -2 -5
q-1 -1 -2 -1h-193q-1 0 -2 1q-2 2 -2 4v404h-56q-1 0 -2 1q-2 2 -2 4v85q0 1 2 3q1 0 2 1h58q-3 48 12.5 85t42 62.5t61.5 39t70.5 14.5t69 -10.5t58.5 -35.5l3 -7q23 46 74 68.5t112 22.5q90 0 139 -30.5t52 -83.5q0 -18 -6.5 -34t-19.5 -28.5t-30 -19.5t-38 -7
q-26 0 -47.5 6.5t-24.5 11.5zM348 503q4 10 4.5 26.5t-4 32t-15 26.5t-28.5 11q-16 0 -26.5 -8t-15.5 -21.5t-5.5 -31t3.5 -35.5h87z" />
    <glyph glyph-name="fi" unicode="fi" horiz-adv-x="601" 
d="M336 547q-2 3 -1 7.5t3.5 11t4.5 15.5t2 22q0 29 -16.5 43.5t-36 14.5t-36 -15t-16.5 -44q0 -19 2 -30.5t5.5 -21.5t7.5 -20.5t7 -26.5h153q30 0 58 -10t50 -29t35 -46.5t13 -62.5v-349q0 -3 -2 -5q-1 -1 -2 -1h-197q-1 0 -2 1q-2 2 -2 4q1 56 2 107q1 44 1.5 88t0.5 70
q0 47 -7 75.5t-20 43t-32 18.5t-44 2v-403q0 -3 -2 -5q-1 -1 -2 -1h-193q-1 0 -2 1q-2 2 -2 4l-1 404h-55q-1 0 -2 1q-3 2 -2 4v85q0 2 1 3q1 0 2 1h57q-2 41 8.5 81t36 73t68 55.5t105.5 29.5q46 5 91 -1t79.5 -23t54.5 -45.5t16 -67.5q-3 -30 -21.5 -48t-45 -25.5
t-56.5 -5t-55 13.5q-9 3 -11 7z" />
    <glyph glyph-name="fl" unicode="fl" horiz-adv-x="619" 
d="M355 409h-89v-403q0 -3 -2 -5q-1 -1 -2 -1h-193q-1 0 -2 1q-2 2 -2 4v404h-56q-1 0 -2 1q-2 2 -2 4v85q0 1 2 3q1 0 2 1h57q-8 79 16 126.5t65.5 73t91 33t92.5 7.5q48 0 85 -8t65.5 -21.5t48.5 -30t32 -32.5q3 -3 3 -10v-440l-1 -1q0 -59 10.5 -86.5t22.5 -38.5
t20.5 -13.5t5.5 -12.5q-4 -12 -17 -24.5t-31 -23t-39 -17t-42 -6.5q-61 0 -100.5 40.5t-39.5 111.5zM357 599q0 22 -8.5 36t-21.5 20.5t-28.5 6t-28.5 -8.5t-21 -22.5t-7 -35.5q1 -17 2.5 -29t4 -21.5t6 -19.5t6.5 -22h94z" />
    <glyph glyph-name="ffi" unicode="ffi" horiz-adv-x="881" 
d="M616 547q-2 3 -1 7.5t3.5 11t4.5 15.5t2 22q0 29 -15.5 43.5t-34 14.5t-33 -15t-12.5 -44q2 -26 7.5 -49.5t14.5 -49.5h143q30 0 58 -10t50 -29t35 -46.5t13 -62.5v-349q0 -3 -2 -5q-1 -1 -2 -1h-197q-1 0 -2 1q-2 2 -2 4q1 56 2 107q1 44 1.5 88t0.5 70q0 47 -7.5 74.5
t-17.5 42t-21 18.5t-17 4h-30v-403q0 -3 -2 -5q-1 -1 -2 -1h-193q-1 0 -2 1q-2 2 -2 4v404h-90v-403q0 -3 -2 -5q-1 -1 -2 -1h-193q-1 0 -2 1q-2 2 -2 4v404h-56q-1 0 -2 1q-2 2 -2 4v85q0 1 2 3q1 0 2 1h58q-3 48 12.5 85t42 62.5t61.5 39t70.5 14.5t69 -10.5t58.5 -35.5
l12 -14q7 17 23.5 33t40 29.5t53.5 23t64 12.5q46 4 89.5 -2t76 -23t51 -45t14.5 -67q-3 -30 -21.5 -48t-45 -25.5t-56.5 -5t-55 13.5q-9 3 -11 7zM351 503q4 10 4.5 26.5t-4 32t-15 26.5t-28.5 11q-16 0 -26.5 -8t-16.5 -21.5t-7 -31t3 -35.5h90z" />
    <glyph glyph-name="ffl" unicode="ffl" horiz-adv-x="908" 
d="M853 447v-2v-96q0 -39 0.5 -80.5t0.5 -67.5q0 -40 5 -64.5t12.5 -39.5t15.5 -21.5t14.5 -10.5t10 -6.5t1.5 -9.5q-4 -12 -17 -24.5t-31 -23t-39 -17t-42 -6.5q-61 0 -100.5 40.5t-39.5 111.5h-1v279h-86v-403q0 -3 -2 -5q-1 -1 -2 -1h-193q-1 0 -2 1q-2 2 -2 4v404h-90
v-403q0 -3 -2 -5q-1 -1 -2 -1h-193q-1 0 -2 1q-2 2 -2 4v404h-56q-1 0 -2 1q-2 2 -2 4v85q0 1 2 3q1 0 2 1h58q-3 48 12.5 85t42 62.5t61.5 39t70.5 14.5t69 -10.5t58.5 -35.5l3 -7q11 16 30.5 32t48 29.5t67 22t89.5 8.5q37 0 73 -8t67 -21.5t55 -30t36 -32.5q3 -3 3 -10
v-194zM645 599q0 33 -17.5 48.5t-38.5 14t-38.5 -18.5t-15.5 -48q1 -17 2.5 -29t4 -21.5t6 -19.5t6.5 -22h89zM348 503q4 10 4.5 26.5t-4 32t-15 26.5t-28.5 11q-16 0 -26.5 -8t-15.5 -21.5t-5.5 -31t3.5 -35.5h87z" />
    <glyph glyph-name="s_t" unicode="st" horiz-adv-x="855" 
d="M848 503l1 -1q2 -2 2 -4v-84q0 -2 -2 -4q-1 -1 -2 -1h-120v-208q0 -38 9.5 -61t26 -35t37.5 -15t44 0q12 2 15 -7t-2 -18q-23 -42 -72 -65t-103 -23q-71 0 -114 41t-43 114v355q0 33 -21 49t-48 17.5t-52 -11.5t-34 -38q17 -6 34.5 -16t32 -23.5t23.5 -30t9 -34.5
t-6.5 -34t-19.5 -28.5t-30.5 -19.5t-39.5 -7q-25 0 -45.5 9.5t-34.5 25.5t-22.5 36t-9.5 41h-7q-23 -1 -35 -17t-12 -30q0 -18 10.5 -30.5t28 -21.5t40.5 -16t49 -14q30 -9 58.5 -21t51 -30.5t36.5 -43.5t14 -59q0 -45 -23.5 -76.5t-60.5 -50.5t-82 -27.5t-88 -8.5
q-33 0 -74 6.5t-77 21.5t-60 40t-24 62t26.5 64t70.5 27q25 0 48.5 -5.5t26.5 -11.5q5 -7 3.5 -17t-1.5 -24q0 -30 16.5 -45.5t42.5 -15.5q28 0 39 12.5t12 32.5q-1 18 -12.5 30t-30.5 20.5t-44 16t-53 16.5q-26 9 -50 22.5t-43 32.5t-31 42.5t-12 53.5v3q0 39 21 69.5
t53.5 51t72.5 31.5t78 11h13.5t13.5 -1q7 27 25.5 53.5t48 48t70 35t91.5 13.5q60 0 103 -15t70 -39t40 -54.5t13 -61.5h121z" />
    <glyph glyph-name="t_t" unicode="tt" horiz-adv-x="722" 
d="M710 90q14 0 16 -8t-3 -18q-10 -20 -28.5 -37t-41.5 -29t-50 -18.5t-54 -6.5q-24 1 -46.5 6.5t-42.5 16.5q-31 19 -49.5 52.5t-18.5 81.5v279h-132v-224q0 -9 0.5 -16.5t1.5 -15.5q5 -30 17 -44t27.5 -18t32.5 -2.5t32 1.5q14 0 16 -8t-3 -18q-10 -20 -27.5 -37t-40 -29
t-48.5 -18.5t-53 -6.5q-24 1 -46.5 6.5t-42.5 16.5q-31 19 -49.5 52.5t-18.5 81.5v279h-51q-1 0 -2 1q-2 2 -2 4v85q0 1 2 3q1 0 2 1h51v76q0 2 2 4q1 1 3 1l192 79q1 0 2 -1q2 -2 2 -4v-46q0 -21 0.5 -49t0.5 -60h132v136q0 2 2 4q1 1 3 1l192 79q1 0 2 -1q2 -2 2 -4v-76
q0 -32 0.5 -69.5t0.5 -69.5h122l1 -1q2 -2 2 -4v-84q0 -2 -2 -4q-1 -1 -2 -1h-121v-224q0 -9 0.5 -16.5t1.5 -15.5q5 -30 18 -44t29.5 -18t34 -2.5t32.5 1.5z" />
    <glyph glyph-name="t_y" unicode="ty" horiz-adv-x="914" 
d="M376 90q14 0 16 -8t-3 -18q-10 -20 -28.5 -37t-41.5 -29t-50 -18.5t-54 -6.5q-24 1 -46.5 6.5t-42.5 16.5q-31 19 -49.5 52.5t-18.5 81.5v279h-51q-1 0 -2 1q-2 2 -2 4v85q0 1 2 3q1 0 2 1h51v76q0 2 2 4q1 1 3 1l192 79q1 0 2 -1q2 -2 2 -4v-46q0 -21 0.5 -49t0.5 -60
l185 1q30 0 58 -10t49.5 -29.5t34 -47.5t12.5 -63l-2 -178q0 -38 14.5 -51t32.5 -4.5t33 36.5t15 72l1 268q0 2 2 4q1 1 2 1h194q1 0 2 -1q2 -2 2 -4v-172v-73t0.5 -74t0.5 -68v-57q2 -65 -14.5 -119.5t-51.5 -94t-87.5 -61.5t-121.5 -22q-55 0 -95 16t-67.5 38t-43 45
t-19.5 37q-6 18 -7.5 29.5t0 17.5t5 8t7.5 1q9 -2 20 -14t29.5 -26.5t46 -26t69.5 -11.5q30 0 53.5 11t40 28.5t25.5 39.5t10 45v100q-15 -32 -35 -54.5t-41.5 -36t-43.5 -19.5t-42 -6q-28 0 -53 11.5t-43.5 33.5t-29.5 52t-11 68v156q0 36 -8 59t-24.5 35.5t-42.5 15.5
t-61 0v-224q0 -9 0.5 -16.5t1.5 -15.5q5 -30 18 -44t29.5 -18t34 -2.5t32.5 1.5z" />
    <glyph glyph-name="t_u" unicode="tu" horiz-adv-x="943" 
d="M893 201q0 -40 5 -64.5t12.5 -39.5t15.5 -21.5t14.5 -10.5t10 -6.5t1.5 -9.5q-4 -12 -15.5 -24.5t-28 -23t-36.5 -17t-41 -6.5q-52 0 -88.5 30.5t-47.5 84.5q-32 -64 -77 -89.5t-85 -25.5q-28 0 -53 11.5t-43.5 33.5t-29.5 52t-11 68v156q0 36 -8 59t-24.5 35.5
t-42.5 15.5t-61 0v-224q0 -9 0.5 -16.5t1.5 -15.5q5 -30 18 -44t29.5 -18t34 -2.5t32.5 1.5q14 0 16 -8t-3 -18q-10 -20 -28.5 -37t-41.5 -29t-50 -18.5t-54 -6.5q-24 1 -46.5 6.5t-42.5 16.5q-31 19 -49.5 52.5t-18.5 81.5v279h-51q-1 0 -2 1q-2 2 -2 4v85q0 1 2 3q1 0 2 1
h51v76q0 2 2 4q1 1 3 1l192 79q1 0 2 -1q2 -2 2 -4v-46q0 -21 0.5 -49t0.5 -60l185 1q30 0 58 -10t49.5 -29.5t34 -47.5t12.5 -63l-1 -89v-89q0 -37 14 -50t31.5 -5.5t32 33.5t16.5 68v275q0 3 2 5q1 1 2 1h200q1 0 2 -1q2 -2 2 -4q-2 -65 -4 -123q-2 -50 -2.5 -99t-0.5 -75
z" />
    <glyph glyph-name="t_i" unicode="ti" horiz-adv-x="638" 
d="M614 6q0 -3 -2 -5q-1 -1 -2 -1h-199q-2 0 -3 1q-2 2 -2 4q0 31 1 74q1 37 1 92t2 128q0 36 -10 59t-29.5 35.5t-47.5 15.5t-63 0v-224q0 -9 0.5 -16.5t1.5 -15.5q5 -30 18 -44t29.5 -18t34 -2.5t32.5 1.5q14 0 16 -8t-3 -18q-10 -20 -28.5 -37t-41.5 -29t-50 -18.5
t-54 -6.5q-24 1 -46.5 6.5t-42.5 16.5q-31 19 -49.5 52.5t-18.5 81.5v279h-51q-1 0 -2 1q-2 2 -2 4v85q0 1 2 3q1 0 2 1h51v76q0 2 2 4q1 1 3 1l192 79q1 0 2 -1q2 -2 2 -4v-46q0 -21 0.5 -49t0.5 -60l199 1q30 0 58 -10t49.5 -29.5t34 -47.5t12.5 -63zM606 645
q0 -20 -9.5 -36.5t-25 -29.5t-37 -20t-45.5 -7t-45 7t-37 20t-25 29.5t-9 36.5q0 19 9 36t25 29.5t37 20t45 7.5t45.5 -7.5t37 -20t25 -29.5t9.5 -36z" />
    <glyph glyph-name="f_b" unicode="fb" horiz-adv-x="914" 
d="M714 525q47 0 83.5 -24t61 -62.5t37.5 -87.5t13 -99q0 -51 -13 -100t-38 -87t-62.5 -61t-86.5 -23q-52 0 -89 26.5t-60 68.5v-70q0 -2 -3 -5q-1 -1 -2 -1h-193q-1 0 -2 1q-2 2 -2 4v403l-3 1h-91v-403q0 -3 -2 -5q-1 -1 -2 -1h-193q-1 0 -2 1q-2 2 -2 4v404h-56
q-1 0 -2 1q-2 2 -2 4v85q0 1 2 3q1 0 2 1h57q-5 75 20 122t65 73.5t88.5 35.5t91.5 9q46 0 83 -8t65.5 -21.5t48.5 -30t32 -32.5q3 -3 3 -10v-221q25 46 63.5 75.5t89.5 29.5zM629 116q18 0 32 10.5t23.5 29t14.5 43.5t5 53t-5 52.5t-14.5 43t-23.5 29t-32 10.5t-32 -10.5
t-23.5 -29t-14.5 -43t-5 -52.5t5 -53t14.5 -43.5t23.5 -29t32 -10.5zM357 599q0 22 -8.5 36t-22 20.5t-29 6t-28.5 -8.5t-21.5 -22.5t-7.5 -35.5q1 -17 2.5 -29t4 -21.5t6 -19.5t6.5 -22h96z" />
    <glyph glyph-name="f_k" unicode="fk" horiz-adv-x="929" 
d="M921 66q12 -6 13 -12t-12 -21q-9 -10 -23 -19.5t-32 -17.5t-38 -13t-41 -5q-64 0 -103.5 29t-61 68.5t-29 80.5t-7.5 65q0 22 11 22q33 0 53.5 11t31 27.5t12 35.5t-4.5 35.5t-18.5 27.5t-29.5 11q-23 0 -38 -10t-24 -25.5t-13 -34.5t-5 -36v-279q0 -3 -2 -5q-1 -1 -2 -1
h-193q-1 0 -2 1q-2 2 -2 4q0 65 -1 134q-1 59 -1.5 130t-0.5 139l-1 1h-91v-403q0 -3 -2 -5q-1 -1 -2 -1h-193q-1 0 -2 1q-2 2 -2 4v404h-56q-1 0 -2 1q-2 2 -2 4v85q0 1 2 3q1 0 2 1h57q-5 50 5 87.5t29.5 64.5t47.5 44t59 27t63 13.5t61 3.5q46 0 83 -8t65.5 -21.5
t48.5 -30t32 -32.5q3 -3 3 -10v-217q31 53 76.5 77t91.5 24q42 0 73 -19t49 -48t21.5 -63.5t-8 -66t-39.5 -55.5t-74 -31v-2q14 -33 37 -65q20 -27 51.5 -56.5t79.5 -52.5zM359 599q0 22 -8.5 36t-22 20.5t-29 6t-28.5 -8.5t-21.5 -22.5t-7.5 -35.5q1 -17 2.5 -29t4 -21.5
t6 -19.5t6.5 -22h96z" />
    <glyph glyph-name="f_t" unicode="ft" horiz-adv-x="685" 
d="M673 90q14 0 16 -8t-3 -18q-10 -20 -28.5 -37t-41.5 -29t-50 -18.5t-54 -6.5q-24 1 -46.5 6.5t-42.5 16.5q-31 19 -49.5 52.5t-18.5 81.5v278l-3 1h-91v-403q0 -3 -2 -5q-1 -1 -2 -1h-193q-1 0 -2 1q-2 2 -2 4v404h-56q-1 0 -2 1q-2 2 -2 4v85q0 1 2 3q1 0 2 1h57
q-6 73 19 119.5t65.5 73.5t89 37t91.5 10q45 0 82 -8t65.5 -21.5t49 -30t32.5 -32.5q3 -3 3 -10v-138h121l1 -1q2 -2 2 -4v-84q0 -2 -2 -4q-1 -1 -2 -1h-120l1 -256q5 -30 18 -44t29.5 -18t34 -2.5t32.5 1.5zM354 599q0 22 -8.5 36t-22 20.5t-29 6t-28.5 -8.5t-21.5 -22.5
t-7.5 -35.5q1 -17 2.5 -29t4 -21.5t6 -19.5t6.5 -22h96z" />
    <glyph glyph-name="f_y" unicode="fy" horiz-adv-x="883" 
d="M308 545q-4 7 1.5 18.5t5.5 37.5q0 9 -1.5 19.5t-6 19.5t-12 15t-18.5 6q-28 0 -36.5 -20t-6 -47t11.5 -53t15 -38l148 1q30 0 58 -10t49.5 -29.5t34 -47.5t12.5 -63l-2 -178q0 -38 14.5 -51t32.5 -4.5t33 36.5t15 72l1 268q0 2 2 4q1 1 2 1h194q1 0 2 -1q2 -2 2 -4v-172
v-73t0.5 -74t0.5 -68v-57q2 -65 -14.5 -119.5t-51.5 -94t-87.5 -61.5t-121.5 -22q-55 0 -95 16t-67.5 38t-43 45t-19.5 37q-6 18 -7.5 29.5t0 17.5t5 8t7.5 1q9 -2 20 -14t29.5 -26.5t46 -26t69.5 -11.5q30 0 53.5 11t40 28.5t25.5 39.5t10 45v100q-15 -32 -35 -54.5
t-41.5 -36t-43.5 -19.5t-42 -6q-28 0 -53 11.5t-43.5 33.5t-29.5 52t-11 68v156q0 33 -5 54t-16.5 33.5t-29 18t-42.5 5.5l-1 -1v-403q0 -3 -2 -5q-1 -1 -2 -1h-193q-1 0 -2 1q-2 2 -2 4v404h-56q-1 0 -2 1q-2 2 -2 4v85q0 1 2 3q1 0 2 1h57q-7 72 11.5 118.5t52 73.5
t76.5 37.5t86 10.5q45 0 78.5 -11t56 -29t34 -40.5t11.5 -46.5q1 -36 -25 -62.5t-67 -26.5q-26 0 -47.5 6.5t-24.5 11.5z" />
    <glyph glyph-name="f_u" unicode="fu" horiz-adv-x="905" 
d="M852 201q0 -40 5 -64.5t12.5 -39.5t15.5 -21.5t14.5 -10.5t10 -6.5t1.5 -9.5q-4 -12 -15.5 -24.5t-28 -23t-36.5 -17t-41 -6.5q-52 0 -88.5 30.5t-47.5 84.5q-32 -64 -77 -89.5t-85 -25.5q-28 0 -53 11.5t-43.5 33.5t-29.5 52t-11 68v156q0 33 -5.5 54t-16.5 33.5t-29 18
t-42 5.5l-1 -1v-403q0 -3 -2 -5q-1 -1 -2 -1h-193q-1 0 -2 1q-2 2 -2 4v404h-56q-1 0 -2 1q-2 2 -2 4v85q0 1 2 3q1 0 2 1h57q-9 68 8 114t50 74t76 40t86 12q45 0 79.5 -11t58 -29t36 -40.5t12.5 -46.5q1 -36 -25 -62t-67 -26q-26 0 -47.5 6t-24.5 11q-4 7 1.5 18.5
t5.5 37.5q0 9 -1.5 19.5t-6 19.5t-12 15t-18.5 6q-29 0 -37.5 -20t-5.5 -46.5t12.5 -53t14.5 -38.5l148 1q30 0 58 -10t49.5 -29.5t34 -47.5t12.5 -63l-1 -89v-89q0 -37 14 -50t31.5 -5.5t32 33.5t16.5 68v275q0 3 2 5q1 1 2 1h200q1 0 2 -1q2 -2 2 -4q-2 -65 -4 -123
q-2 -50 -2.5 -99t-0.5 -75z" />
    <glyph glyph-name="f_j" unicode="fj" horiz-adv-x="589" 
d="M567 32q0 -80 -15.5 -136.5t-44.5 -92t-70 -51.5t-92 -16q-45 0 -78.5 11t-56 29t-33.5 40.5t-11 45.5q0 18 7 35.5t19 32t29 23t38 8.5q12 0 24.5 -2t22.5 -4.5t16.5 -5.5t7.5 -6q4 -6 -1.5 -22.5t-5.5 -42.5q0 -10 1.5 -20.5t5.5 -19.5t11 -14.5t18 -5.5q39 0 39 57
q0 24 -4.5 42.5t-10.5 36.5t-11.5 38t-6.5 48v264q-3 36 -11 57t-20.5 32.5t-30.5 14t-40 1.5v-403q0 -3 -2 -5q-1 -1 -2 -1h-193q-1 0 -2 1q-2 2 -2 4l-1 404h-55q-1 0 -2 1q-3 2 -2 4v85q0 2 1 3q1 0 2 1h57q-3 46 7 88t35.5 74.5t69 53t106.5 23.5q49 3 94 -3.5t79 -23
t53 -44t15 -66.5q-3 -30 -21.5 -48t-45 -25.5t-56.5 -5t-55 13.5q-9 3 -11 7q-2 3 -1 7.5t3.5 11t4.5 15.5t2 22q0 29 -16 43.5t-35.5 14.5t-36 -14.5t-17.5 -44.5q-1 -32 6.5 -54.5t15.5 -44.5h153q30 0 58 -10t50 -29t35 -46.5t13 -62.5v-323z" />
    <glyph glyph-name="c_t" unicode="ct" horiz-adv-x="852" 
d="M840 90q14 0 16 -8t-3 -18q-10 -20 -28.5 -37t-41.5 -29t-50 -18.5t-54 -6.5q-24 1 -46.5 6.5t-42.5 16.5q-27 16 -44.5 44t-22.5 66q-44 -55 -99.5 -85t-113 -37t-112.5 8t-98 49.5t-69 87.5t-26 123q0 55 20 103t55 85t84 59t106 25q42 0 82 -8.5t71.5 -26t51 -43.5
t19.5 -62q0 -18 -6.5 -36t-19.5 -32t-31 -23t-40 -9q-25 0 -46 6t-24 11q-4 7 -2.5 16.5t1.5 24.5q0 31 -13.5 50t-34.5 19q-20 0 -35 -14.5t-24.5 -37.5t-13 -51t-0.5 -56q4 -46 24 -73.5t48.5 -40.5t63.5 -12.5t68.5 11t63.5 29.5t49 44v369q0 3 2 5q1 1 3 1l192 78h2
q2 -2 2 -5v-46q0 -21 0.5 -49t0.5 -60h122l1 -1q2 -2 2 -4v-84q0 -2 -2 -4q-1 -1 -2 -1h-121v-224q0 -9 0.5 -16.5t1.5 -15.5q5 -30 18 -44t29.5 -18t34 -2.5t32.5 1.5z" />
    <glyph glyph-name="f_h" unicode="fh" horiz-adv-x="928" 
d="M865 204q0 -40 5.5 -64.5t14 -39.5t17.5 -21.5t16.5 -10.5t11.5 -7t2 -10q-4 -12 -15.5 -24t-28 -22.5t-36.5 -17t-41 -6.5q-30 0 -57 10.5t-47 30t-31.5 48t-11.5 63.5v194q0 37 -16 50t-35 5t-35.5 -36t-16.5 -72v-268q0 -3 -2 -5q-1 -1 -2 -1h-193q-1 0 -2 1
q-2 2 -2 4q0 64 -1 133q-1 59 -1.5 130t-0.5 140l-2 1h-91v-403q0 -3 -2 -5q-1 -1 -2 -1h-193q-1 0 -2 1q-2 2 -2 4v404h-56q-1 0 -2 1q-2 2 -2 4v85q0 1 2 3q1 0 2 1h57q-8 77 16 124.5t65.5 73t91 34t92.5 8.5q46 0 83 -8t65.5 -21.5t48.5 -30t32 -32.5q3 -3 3 -10v-228
q16 31 37 52t43.5 34.5t44.5 19.5t42 6q28 0 52.5 -11.5t43.5 -33.5t30 -52.5t11 -67.5v-156zM357 599q0 22 -8.5 36t-22 20.5t-29 6t-28.5 -8.5t-21.5 -22.5t-7.5 -35.5q1 -17 2.5 -29t4 -21.5t6 -19.5t6.5 -22h96z" />
    <glyph glyph-name="c_h" unicode="ch" horiz-adv-x="1084" 
d="M1022 204q0 -40 5.5 -64.5t14 -39.5t17.5 -21.5t16.5 -10.5t11.5 -7t2 -10q-4 -12 -15.5 -24t-28 -22.5t-36.5 -17t-41 -6.5q-30 0 -57 10.5t-47 30t-31.5 48t-11.5 63.5v194q0 37 -16 50t-35 5t-35.5 -36t-16.5 -72v-268q0 -3 -2 -5q-1 -1 -2 -1h-193q-1 0 -2 1
q-2 2 -2 4q-1 10 -1 23v60q-45 -49 -100.5 -75t-112 -30t-110.5 12t-95.5 50.5t-67 86.5t-25.5 120q0 55 20 103t55 85t84 59t106 25q42 0 82 -8.5t71.5 -26t51 -43.5t19.5 -62q0 -18 -6.5 -36t-19.5 -32t-31 -23t-40 -9q-25 0 -46 6t-24 11q-4 7 -2.5 16.5t1.5 24.5
q0 31 -13.5 50t-34.5 19q-20 0 -35 -14.5t-24.5 -37.5t-13 -51t-0.5 -56q4 -43 21.5 -71.5t43.5 -43t58 -17t65.5 5t65 24t57.5 39.5q0 70 -0.5 151.5t-1 156t-0.5 133.5v85q0 1 2 3q1 0 2 1h197h1q2 0 2 -4v-302q16 31 37 52t43.5 34.5t44.5 19.5t42 6q28 0 52.5 -11.5
t43.5 -33.5t30 -52.5t11 -67.5v-156v0z" />
    <glyph glyph-name="c_l" unicode="cl" horiz-adv-x="794" 
d="M530 714q0 2 2 4q1 1 3 1h200q1 0 2 -1q2 -2 2 -4v-231v-90t0.5 -83.5t0.5 -67v-41.5q0 -40 5 -64.5t12.5 -39.5t15.5 -21.5t14.5 -10.5t10 -6.5t1.5 -9.5q-4 -12 -17 -24.5t-31 -23t-39 -17t-42 -6.5q-56 0 -93.5 33.5t-45.5 93.5q-44 -55 -100 -84.5t-114.5 -36.5
t-114.5 8t-100 50t-70.5 88t-26.5 122q0 55 20 103t55 85t84 59t106 25q42 0 82 -8.5t71.5 -26t51 -43.5t19.5 -62q0 -18 -6.5 -36t-19.5 -32t-31 -23t-40 -9q-25 0 -46 6t-24 11q-4 7 -2.5 16.5t1.5 24.5q0 31 -13.5 50t-34.5 19q-20 0 -35 -14.5t-24.5 -37.5t-13 -51
t-0.5 -56q4 -46 23 -74.5t47 -42.5t62 -15t69 9t67.5 29.5t56.5 45.5v510v0z" />
    <glyph glyph-name="c_k" unicode="ck" horiz-adv-x="1089" 
d="M1083 66q12 -6 13 -12t-12 -21q-9 -10 -23 -19.5t-32 -17.5t-38 -13t-41 -5q-64 0 -103.5 29t-61 68.5t-29 80.5t-7.5 65q0 22 11 22q33 0 53.5 11t31 27.5t12 35.5t-4.5 35.5t-18.5 27.5t-29.5 11q-23 0 -38 -10t-24 -25.5t-13 -34.5t-5 -36v-279q0 -3 -2 -5
q-1 -1 -2 -1h-193q-1 0 -2 1q-2 2 -2 4v25q0 12 -0.5 28t-0.5 36q-45 -51 -100.5 -78.5t-113 -32.5t-112 10.5t-97 50.5t-68.5 87.5t-26 120.5q0 55 20 103t55 85t84 59t106 25q42 0 82 -8.5t71.5 -26t51 -43.5t19.5 -62q0 -18 -6.5 -36t-19.5 -32t-31 -23t-40 -9
q-25 0 -46 6t-24 11q-4 7 -2.5 16.5t1.5 24.5q0 31 -13.5 50t-34.5 19q-20 0 -35 -14.5t-24.5 -37.5t-13 -51t-0.5 -56q4 -45 22 -73t45 -42.5t60 -16.5t67 6.5t66 26t57 42.5q0 47 -0.5 98.5t-0.5 103.5t-0.5 102t-0.5 92v74.5v49.5q0 1 2 3q1 0 2 1h196h2q2 0 2 -4v-293
q31 54 77 78.5t92 24.5q42 0 73 -19t49 -48t21.5 -63.5t-8 -66t-39.5 -55.5t-74 -31v-2q14 -33 37 -65q20 -27 51.5 -56.5t79.5 -52.5z" />
    <glyph glyph-name="T_h" unicode="Th" horiz-adv-x="1135" 
d="M1073 204q0 -40 5.5 -64.5t14 -39.5t17.5 -21.5t16.5 -10.5t11.5 -7t2 -10q-4 -12 -15.5 -24t-28 -22.5t-36.5 -17t-41 -6.5q-30 0 -57 10.5t-47 30t-31.5 48t-11.5 63.5v194q0 37 -16 50t-35 5t-35.5 -36t-16.5 -72v-268q0 -3 -2 -5q-1 -1 -2 -1h-193q-1 0 -2 1
q-2 2 -2 4q0 97 -1 195q0 42 -0.5 87.5t-1 92t-0.5 91.5v86q-14 -5 -40 -6.5t-51 -1.5q-30 0 -62 2l6 -351q2 -56 13.5 -81.5t24 -36t21.5 -13.5t5 -13q-4 -13 -17.5 -26.5t-32.5 -24.5t-41.5 -18t-44.5 -7q-30 0 -57 9.5t-47.5 29.5t-32.5 51t-12 75l7 408
q-48 1 -93.5 -2.5t-88.5 -11.5q-2 -1 -5 2q-1 1 -2 3l-3 9t-5.5 23.5t-1.5 33t7.5 37.5t21.5 37t42 32q32 17 91.5 20t146 -0.5t199.5 -9.5t253 -7h1q2 0 2 -4v-302q16 31 37 52t43.5 34.5t44.5 19.5t42 6q28 0 52.5 -11.5t43.5 -33.5t30 -52.5t11 -67.5v-156v0z" />
    <glyph glyph-name="C_o_period" unicode="Co&#x2e;" horiz-adv-x="1329" 
d="M1129 249q0 -57 -20.5 -106.5t-58 -86t-89 -58t-112.5 -21.5q-78 0 -140.5 34.5t-98.5 91.5q-14 -21 -35.5 -42.5t-51.5 -39.5t-69.5 -29.5t-89.5 -12.5q-74 -2 -138 29t-111 83.5t-73.5 122.5t-26.5 147q0 75 25.5 142.5t71.5 119.5t110.5 83t142.5 31q59 1 108 -12.5
t84.5 -38t55 -58.5t19.5 -74q0 -20 -7 -40t-21.5 -36.5t-35 -27t-47.5 -10.5q-33 0 -56 10.5t-21 25.5q3 24 1.5 48.5t-10 43.5t-24.5 31t-41 12q-34 0 -59.5 -26t-42 -65t-22.5 -84t-1 -83q10 -86 46.5 -136.5t85 -71t103 -14.5t102.5 33q-13 39 -13 85q0 56 21 105.5
t58.5 86.5t89 58.5t111.5 21.5t111.5 -21.5t89 -58.5t58.5 -86.5t21 -105.5zM766 249q0 -32 5 -60.5t15 -50.5t25.5 -35t37.5 -13t38 12.5t26 34t14.5 50.5t4.5 62q0 32 -5 61t-15 50.5t-25.5 34.5t-37.5 13t-38 -13t-26 -34.5t-14.5 -50.5t-4.5 -61zM1312 80
q0 -41 -28.5 -69.5t-69.5 -28.5t-69.5 28.5t-28.5 69.5t28.5 69.5t69.5 28.5t69.5 -28.5t28.5 -69.5z" />
    <glyph glyph-name="t_f" unicode="tf" horiz-adv-x="740" 
d="M637 545q-4 7 1.5 18.5t5.5 37.5q0 9 -1.5 19.5t-6 19.5t-12 15t-18.5 6q-29 0 -37.5 -20t-5.5 -46.5t12.5 -53t14.5 -38.5h138q1 0 2 -1q2 -2 2 -4v-84q0 -2 -2 -4q-1 -1 -2 -1h-133v-403q0 -3 -2 -5q-1 -1 -2 -1h-193q-1 0 -2 1q-2 2 -2 4v404h-134v-144t2 -105
q5 -30 14.5 -45t22.5 -20.5t27.5 -5t29.5 0.5q14 0 16 -8t-3 -18q-20 -41 -60 -66t-94 -25q-24 1 -46.5 6.5t-42.5 16.5q-31 19 -49.5 52.5t-18.5 81.5v279h-51q-1 0 -2 1q-2 2 -2 4v85q0 1 2 3q1 0 2 1h51v76q0 2 2 4q1 1 3 1l192 79q1 0 2 -1q2 -2 2 -4v-46q0 -21 0.5 -49
t0.5 -60h135q-8 68 9.5 114t50 74t75 40t85.5 12q45 0 79.5 -11t58 -29t36 -40.5t12.5 -46.5q1 -36 -25 -62.5t-67 -26.5q-26 0 -47.5 6.5t-24.5 11.5z" />
    <glyph glyph-name="C_o" unicode="Co" horiz-adv-x="1134" 
d="M1124 249q0 -57 -20.5 -106.5t-58 -86t-89 -58t-112.5 -21.5q-78 0 -140.5 34.5t-98.5 91.5q-14 -21 -35.5 -42.5t-51.5 -39.5t-69.5 -29.5t-89.5 -12.5q-74 -2 -138 29t-111 83.5t-73.5 122.5t-26.5 147q0 75 25.5 142.5t71.5 119.5t110.5 83t142.5 31q59 1 108 -12.5
t84.5 -38t55 -58.5t19.5 -74q0 -20 -7 -40t-21.5 -36.5t-35 -27t-47.5 -10.5q-33 0 -56 10.5t-21 25.5q3 24 1.5 48.5t-10 43.5t-24.5 31t-41 12q-34 0 -59.5 -26t-42 -65t-22.5 -84t-1 -83q10 -86 46.5 -136.5t85 -71t103 -14.5t102.5 33q-13 39 -13 85q0 56 21 105.5
t58.5 86.5t89 58.5t111.5 21.5t111.5 -21.5t89 -58.5t58.5 -86.5t21 -105.5zM761 249q0 -32 5 -60.5t15 -50.5t25.5 -35t37.5 -13t38 12.5t26 34t14.5 50.5t4.5 62q0 32 -5 61t-15 50.5t-25.5 34.5t-37.5 13t-38 -13t-26 -34.5t-14.5 -50.5t-4.5 -61z" />
    <glyph glyph-name="f_x" unicode="fx" horiz-adv-x="860" 
d="M856 6q4 -6 -3 -6h-221q-6 0 -8 5l-99 173q-17 -11 -26 -23.5t-9 -27.5q0 -19 6.5 -31.5t15 -20.5t15 -14t6.5 -12q0 -12 -8 -25t-22.5 -23t-33.5 -16.5t-40 -6.5q-30 0 -54.5 9.5t-42.5 26.5t-27.5 39.5t-9.5 48.5q0 34 14 59.5t37 44.5t53.5 33.5t62.5 25.5l-94 144
h-104v-403q0 -3 -2 -5q-1 -1 -2 -1h-193q-1 0 -2 1q-2 2 -2 4v404h-56q-1 0 -2 1q-2 2 -2 4v85q0 1 2 3q1 0 2 1h57q-6 70 12 116.5t50 74t73.5 38.5t84.5 11q45 0 79.5 -11t58 -29t36 -40.5t12.5 -46.5q1 -36 -25 -62.5t-67 -26.5q-26 0 -47.5 6.5t-24.5 11.5
q-4 7 1.5 18.5t5.5 37.5q0 9 -1.5 19.5t-6 19.5t-12 15t-18.5 6q-29 0 -37.5 -20t-5.5 -46.5t12.5 -53t14.5 -38.5h276q5 0 8 -5l96 -169q29 19 29 42q0 19 -6.5 31.5t-15 21t-15 14.5t-6.5 12q0 12 8 24.5t22.5 22.5t33.5 16.5t40 6.5q30 0 54.5 -9.5t42 -26.5t27 -39.5
t9.5 -47.5q0 -29 -13.5 -51t-35.5 -40t-51.5 -32t-60.5 -26z" />
    <glyph glyph-name="T_i" unicode="Ti" horiz-adv-x="780" 
d="M762 6q0 -3 -2 -5q-1 -1 -2 -1h-200q-2 0 -3 1q-2 2 -2 4q2 59 4 113q1 23 1.5 46.5t1 45t1 40.5t0.5 32q0 40 -5 64.5t-12.5 39.5t-15.5 21.5t-14.5 10.5t-10 6.5t-1.5 9.5q4 12 15.5 24.5t28 23t36.5 17t41 6.5q61 0 100 -40.5t39 -111.5v-347zM773 719q9 -41 5 -77
q-4 -31 -21.5 -60.5t-61.5 -42.5q-9 -3 -25.5 -4t-37.5 -1.5t-44.5 -0.5t-47.5 1q-55 2 -121 5v-339q2 -56 13.5 -81.5t24 -36t21.5 -13.5t5 -13q-4 -13 -17.5 -26.5t-32.5 -24.5t-41.5 -18t-44.5 -7q-30 0 -57 9.5t-47.5 29.5t-32.5 51t-12 75v408q-48 1 -90 -2.5
t-85 -11.5q-2 -1 -5 2q-1 1 -2 3l-6 19.5t-4.5 46.5t16.5 56.5t55 50.5q36 19 97 21.5t141.5 -2t178 -11t206.5 -5.5q14 0 26.5 0.5t20.5 1.5q10 1 18 2q1 0 3 -1q4 -2 5 -4z" />
    <glyph glyph-name="F_i" unicode="Fi" horiz-adv-x="604" 
d="M585 6q0 -3 -2 -5q-1 -1 -2 -1h-200q-2 0 -3 1q-2 2 -2 4q2 48 4 93q2 38 3 78t1 66q0 5 1 19t-1.5 30t-9 31t-21.5 23t-40 5.5t-63 -20.5v-119q1 -39 7 -64t14.5 -39.5t17.5 -21.5t15.5 -10.5t10 -6.5t1.5 -10q-5 -14 -18 -28t-31 -25t-40.5 -18.5t-44.5 -7.5
q-30 0 -57.5 9.5t-48.5 30.5t-33.5 53.5t-12.5 79.5v328q0 109 1 233q0 2 2 4q1 1 3 1h542q1 0 3 -1q4 -2 5 -4q9 -33 5 -64q-4 -26 -20.5 -54.5t-60.5 -46.5q-29 -12 -72 -13.5t-85 0.5q-48 3 -101 11q0 -17 -0.5 -43t-0.5 -67q27 16 62 31t72.5 23t73 7t64 -15.5t45.5 -46
t17 -83.5v-347v0z" />
    <glyph glyph-name="F_u" unicode="Fu" horiz-adv-x="936" 
d="M881 201q0 -40 5 -64.5t12.5 -39.5t15.5 -21.5t14.5 -10.5t10 -6.5t1.5 -9.5q-4 -12 -15.5 -24.5t-28 -23t-36.5 -17t-41 -6.5q-52 0 -88.5 30.5t-47.5 84.5q-32 -64 -77 -89.5t-85 -25.5q-28 0 -53 11.5t-43.5 33.5t-29.5 52t-11 68v141q-2 16 -7.5 33t-20.5 26
t-40.5 7.5t-65.5 -20.5v-119q1 -39 7 -64t14.5 -39.5t17.5 -21.5t15.5 -10.5t10 -6.5t1.5 -10q-5 -14 -18 -28t-31 -25t-40.5 -18.5t-44.5 -7.5q-30 0 -57.5 9.5t-48.5 30.5t-33.5 53.5t-12.5 79.5v328q0 109 1 233q0 2 2 4q1 1 3 1h482q1 0 3 -1q4 -2 5 -4q9 -33 5 -64
q-4 -26 -20.5 -54.5t-60.5 -46.5q-29 -12 -63 -13.5t-64 0.5q-35 3 -71 11q0 -17 -0.5 -43t-0.5 -67q27 21 62 38t72.5 26.5t73.5 8.5t64 -15.5t45.5 -44.5t17.5 -80v-194q0 -37 14 -50t31.5 -5.5t32 33.5t16.5 68v275q0 3 2 5q1 1 2 1h201q1 0 2 -1q2 -2 2 -4
q-2 -65 -4 -123q-2 -50 -3 -99t-1 -75z" />
    <glyph glyph-name="F_y" unicode="Fy" horiz-adv-x="906" 
d="M885 73q2 -65 -14.5 -119.5t-51.5 -94t-88 -61.5t-122 -22q-55 0 -95 16t-67.5 38t-43 45t-19.5 37q-6 18 -7.5 29.5t0 17.5t5 8t7.5 1q9 -2 20 -14t29.5 -26.5t46 -26t69.5 -11.5q60 0 93.5 32.5t35.5 77.5v100q-15 -32 -35 -54.5t-41.5 -36t-43.5 -19.5t-42 -6
q-28 0 -53 11.5t-43.5 33.5t-29.5 52t-11 68v135q0 17 -5.5 34t-20.5 26t-41.5 7t-66.5 -21v-119q1 -39 7 -64t14.5 -39.5t17.5 -21.5t15.5 -10.5t10 -6.5t1.5 -10q-5 -14 -18 -28t-31 -25t-40.5 -18.5t-44.5 -7.5q-30 0 -57.5 9.5t-48.5 30.5t-33.5 53.5t-12.5 79.5v328
q0 109 1 233q0 2 2 4q1 1 3 1h482q1 0 3 -1q4 -2 5 -4q9 -33 5 -64q-4 -26 -20.5 -54.5t-60.5 -46.5q-29 -12 -63 -13.5t-64 0.5q-35 3 -71 11q0 -17 -0.5 -43t-0.5 -67q27 21 62 38t72 26.5t73 8.5t64 -15.5t45.5 -44.5t17.5 -80v-188q0 -38 14.5 -51t32.5 -4.5t33 36
t16 71.5v263q0 2 2 4q1 1 2 1h193q1 0 2 -1q2 -2 2 -4q0 -84 1 -162q0 -33 0.5 -69t1 -70.5t0.5 -66v-56.5z" />
    <glyph glyph-name="t_t_y" unicode="tty" horiz-adv-x="1251" 
d="M712 90q14 0 16 -8t-3 -18q-10 -20 -28.5 -37t-41.5 -29t-50 -18.5t-54 -6.5q-24 1 -46.5 6.5t-42.5 16.5q-31 19 -49.5 52.5t-18.5 81.5v279h-132v-224q0 -9 0.5 -16.5t1.5 -15.5q5 -30 16.5 -44t26 -18t30.5 -2.5t31 1.5q14 0 16 -8t-3 -18q-20 -41 -65 -66t-99 -25
q-24 1 -46.5 6.5t-42.5 16.5q-31 19 -49.5 52.5t-18.5 81.5v279h-51q-1 0 -2 1q-2 2 -2 4v85q0 1 2 3q1 0 2 1h51v76q0 2 2 4q1 1 3 1l192 79q1 0 2 -1q2 -2 2 -4v-46q0 -21 0.5 -49t0.5 -60h132v136q0 2 2 4q1 1 3 1l192 79q1 0 2 -1q2 -2 2 -4v-76q0 -32 0.5 -69.5
t0.5 -69.5l183 1q30 0 58 -10t49.5 -29.5t34 -47.5t12.5 -63l-2 -178q0 -38 14.5 -51t32.5 -4.5t33 36.5t15 72l1 268q0 2 2 4q1 1 2 1h194q1 0 2 -1q2 -2 2 -4v-172v-73t0.5 -74t0.5 -68v-57q2 -65 -14.5 -119.5t-51.5 -94t-87.5 -61.5t-121.5 -22q-55 0 -95 16t-67.5 38
t-43 45t-19.5 37q-6 18 -7.5 29.5t0 17.5t5 8t7.5 1q9 -2 20 -14t29.5 -26.5t46 -26t69.5 -11.5q30 0 53.5 11t40 28.5t25.5 39.5t10 45v100q-15 -32 -35 -54.5t-41.5 -36t-43.5 -19.5t-42 -6q-28 0 -53 11.5t-43.5 33.5t-29.5 52t-11 68v156q0 36 -8 58.5t-24.5 35t-42 16
t-59.5 0.5v-224q0 -9 0.5 -16.5t1.5 -15.5q5 -30 18 -44t29.5 -18t34 -2.5t32.5 1.5z" />
    <glyph glyph-name="t_t_i" unicode="tti" horiz-adv-x="969" 
d="M949 6q0 -3 -2 -5q-1 -1 -2 -1h-199q-2 0 -3 1q-2 2 -2 4q0 31 1 74q1 37 1 92t2 128q0 36 -10 59t-29.5 35t-47 15.5t-62.5 0.5v-224q0 -9 0.5 -16.5t1.5 -15.5q5 -30 18 -44t29.5 -18t34 -2.5t32.5 1.5q14 0 16 -8t-3 -18q-10 -20 -28.5 -37t-41.5 -29t-50 -18.5
t-54 -6.5q-24 1 -46.5 6.5t-42.5 16.5q-31 19 -49.5 52.5t-18.5 81.5v279h-132v-224q0 -9 0.5 -16.5t1.5 -15.5q5 -30 16.5 -44t26 -18t30.5 -2.5t31 1.5q14 0 16 -8t-3 -18q-20 -41 -65 -66t-99 -25q-24 1 -46.5 6.5t-42.5 16.5q-31 19 -49.5 52.5t-18.5 81.5v279h-51
q-1 0 -2 1q-2 2 -2 4v85q0 1 2 3q1 0 2 1h51v76q0 2 2 4q1 1 3 1l192 79q1 0 2 -1q2 -2 2 -4v-46q0 -21 0.5 -49t0.5 -60h132v136q0 2 2 4q1 1 3 1l192 79q1 0 2 -1q2 -2 2 -4v-51v-66.5t1 -97.5l198 1q30 0 58 -10t49.5 -29.5t34 -47.5t12.5 -63zM941 645q0 -20 -9.5 -36.5
t-25 -29.5t-37 -20t-45.5 -7t-45 7t-37 20t-25 29.5t-9 36.5q0 19 9 36t25 29.5t37 20t45 7.5t45.5 -7.5t37 -20t25 -29.5t9.5 -36z" />
    <glyph glyph-name="afii10076_afii10085" unicode="&#x43a;&#x443;" horiz-adv-x="1129" 
d="M1098 73q2 -65 -14.5 -119.5t-51.5 -94t-88 -61.5t-122 -22q-55 0 -95 16t-67.5 38t-43 45t-19.5 37q-6 18 -7.5 29.5t0 17.5t5 8t7.5 1q9 -2 20 -14t29.5 -26.5t46 -26t69.5 -11.5q30 0 53.5 11t40 28.5t25.5 39.5t10 45v100q-15 -32 -35 -54.5t-41.5 -36t-43.5 -19.5
t-42 -6q-28 0 -53 11.5t-43.5 33.5t-29.5 52t-11 68v131q0 34 -16 56.5t-40.5 34.5t-54.5 12.5t-58.5 -10t-52 -31.5t-35.5 -53q33 3 60 -7.5t44 -32.5q15 -20 25 -46t24 -53t37 -52.5t64 -45.5q12 -6 12.5 -12t-11.5 -21q-17 -20 -51 -37.5t-76 -17.5q-52 0 -83 17
t-49.5 43t-27 56t-15 56t-14 44t-23.5 20v-208q0 -3 -2 -5q-1 -1 -2 -1h-201q-1 0 -2 1q-2 2 -2 4q2 65 4 123q1 25 1.5 50t1 48.5t1 43t0.5 32.5q0 40 -5 64.5t-12.5 39.5t-15.5 21.5t-14.5 10.5t-10 6.5t-1.5 9.5q4 12 15.5 24.5t28 23t36.5 17t41 6.5q30 0 55.5 -10.5
t44 -30t29 -48t10.5 -63.5v-84q1 0 4 1l12 3q0 10 4 31t13.5 46t27 52.5t45.5 50.5t68.5 39t95.5 19q52 3 101.5 -10t88 -42t61 -74t21.5 -106v-103q0 -38 14.5 -51t32.5 -4.5t33 36t16 71.5v249q0 2 2 4q1 1 2 1h193q1 0 2 -1q2 -2 2 -4q0 -84 1 -162q0 -33 0.5 -69
t1 -70.5t0.5 -66v-56.5z" />
    <glyph glyph-name="afii10076_afii10074" unicode="&#x43a;&#x438;" horiz-adv-x="1149" 
d="M1094 201q0 -40 5 -64.5t12.5 -39.5t15.5 -21.5t14.5 -10.5t10 -6.5t1.5 -9.5q-4 -12 -15.5 -24.5t-28 -23t-36.5 -17t-41 -6.5q-52 0 -88.5 30.5t-47.5 84.5q-32 -64 -77 -89.5t-85 -25.5q-28 0 -53 11.5t-43.5 33.5t-29.5 52t-11 68v156q0 33 -16 54.5t-40.5 32.5
t-54.5 11t-58.5 -10.5t-52.5 -31.5t-35 -52q33 3 60 -7.5t44 -32.5q15 -20 25 -46t24 -53t37 -52.5t64 -45.5q12 -6 12.5 -12t-11.5 -21q-17 -20 -51 -37.5t-76 -17.5q-52 0 -83 17t-49.5 43t-27 56t-15 56t-14 44t-23.5 20v-208q0 -3 -2 -5q-1 -1 -2 -1h-201q-1 0 -2 1
q-2 2 -2 4q2 65 4 123q1 25 1.5 50t1 48.5t1 43t0.5 32.5q0 40 -5 64.5t-12.5 39.5t-15.5 21.5t-14.5 10.5t-10 6.5t-1.5 9.5q4 12 15.5 24.5t28 23t36.5 17t41 6.5q30 0 55.5 -10.5t44 -30t29 -48t10.5 -63.5v-84q1 0 4 1l12 3q0 10 4 31t13.5 46t27 52.5t45.5 50.5
t68.5 39t95.5 19q52 3 101.5 -10t88 -42t61 -74t21.5 -106v-128q1 -35 15.5 -46.5t31.5 -3.5t31.5 34t16.5 67v275q0 3 2 5q1 1 2 1h201q1 0 2 -1q2 -2 2 -4q-2 -65 -4 -123q-2 -50 -3 -99t-1 -75z" />
    <glyph glyph-name="afii10084_afii10085" unicode="&#x442;&#x443;" horiz-adv-x="1005" 
d="M474 269q0 71 -35 102.5t-100 8.5v-177q0 -40 5 -64.5t12.5 -39.5t15.5 -21.5t14.5 -10.5t10 -6.5t1.5 -9.5q-4 -12 -15.5 -24.5t-27.5 -23t-35.5 -17t-40.5 -6.5q-30 0 -55.5 10.5t-44 30t-29 48t-10.5 63.5v244l-130 1q-1 -1 -2 0q-1 0 -1 4l-2 112v7q0 2 2 4
q74 14 154 18t152 2t128 -7.5t82 -10.5q30 -6 57.5 -17.5t49 -29.5t34.5 -44t13 -61l-2 -178q0 -38 14.5 -51t32.5 -4.5t33 36.5t15 72l1 268q0 2 2 4q1 1 2 1h194q1 0 2 -1q2 -2 2 -4v-172v-73t0.5 -74t0.5 -68v-57q2 -65 -14.5 -119.5t-51.5 -94t-87.5 -61.5t-121.5 -22
q-55 0 -95 16t-67.5 38t-43 45t-19.5 37q-6 18 -7.5 29.5t0 17.5t5 8t7.5 1q9 -2 20 -14t29.5 -26.5t46 -26t69.5 -11.5q30 0 53.5 11t40 28.5t25.5 39.5t10 45v100q-15 -32 -35 -54.5t-41.5 -36t-43.5 -19.5t-42 -6q-28 0 -53 11.5t-43.5 33.5t-29.5 52t-11 68v126z" />
    <glyph glyph-name="afii10084_afii10074" unicode="&#x442;&#x438;" horiz-adv-x="1025" 
d="M970 201q0 -40 5 -64.5t12.5 -39.5t15.5 -21.5t14.5 -10.5t10 -6.5t1.5 -9.5q-4 -12 -15.5 -24.5t-28 -23t-36.5 -17t-41 -6.5q-52 0 -88.5 30.5t-47.5 84.5q-32 -64 -77 -89.5t-85 -25.5q-28 0 -53 11.5t-43.5 33.5t-29.5 52t-11 68v146q-5 61 -39.5 86.5t-94.5 4.5
v-177q0 -40 5 -64.5t12.5 -39.5t15.5 -21.5t14.5 -10.5t10 -6.5t1.5 -9.5q-4 -12 -15.5 -24.5t-27.5 -23t-35.5 -17t-40.5 -6.5q-30 0 -55.5 10.5t-44 30t-29 48t-10.5 63.5v244l-130 1q-1 -1 -2 0q-1 0 -1 4l-2 112v7q0 2 2 4q74 14 154 17.5t152 1.5t128 -8t82 -11
q30 -6 57.5 -17t49 -29t34.5 -43.5t13 -60.5l-2 -185q1 -33 15.5 -44.5t31.5 -3.5t31 34t16 67v275q0 3 2 5q1 1 2 1h201q1 0 2 -1q2 -2 2 -4q-2 -65 -4 -123q-2 -50 -3 -99t-1 -75z" />
    <glyph glyph-name="afii10076_afii10077" unicode="&#x43a;&#x43b;" horiz-adv-x="1135" 
d="M1105 6q0 -2 -2 -4q-1 -1 -2 -1h-193q-1 0 -2 1q-2 2 -2 4v405h-71q1 -33 0 -69.5t-3.5 -72t-6.5 -66.5t-10 -52q-15 -53 -46 -88t-68.5 -55t-75.5 -28t-68 -8q-81 0 -130 18.5t-76.5 45.5t-39 59t-17.5 59t-12.5 44t-23.5 16v-208q0 -3 -2 -5q-1 -1 -2 -1h-201
q-1 0 -2 1q-2 2 -2 4q2 65 4 123q1 25 1.5 50t1 48.5t1 43t0.5 32.5q0 40 -5 64.5t-12.5 39.5t-15.5 21.5t-14.5 10.5t-10 6.5t-1.5 9.5q4 12 15.5 24.5t28 23t36.5 17t41 6.5q30 0 55.5 -10.5t44 -30t29 -48t10.5 -63.5v-84l8 3q3 26 15 65t36 76t61 63.5t91 28.5
q27 1 50 -7.5t39.5 -23.5t25.5 -35.5t9 -45.5q0 -51 -30.5 -78.5t-78.5 -27.5q-19 0 -35 6t-16 17q0 6 1 15.5t-1 19.5t-8.5 17t-20.5 7q-15 0 -25 -8t-17 -20.5t-11 -28t-6 -29.5q40 4 66.5 -12t43.5 -42.5t28 -59t22 -60.5t23.5 -47t32.5 -19q19 0 34 18.5t26 49t18 69.5
t12 80q11 96 12 218q0 5 4 5q101 23 208.5 23.5t228.5 -23.5q3 0 3 -4v-493z" />
    <glyph glyph-name="afii10065_afii10077" unicode="&#x430;&#x43b;" horiz-adv-x="1177" 
d="M291 117q18 0 32 10.5t23.5 29t14.5 43t5 52.5t-5 53t-14.5 43.5t-23.5 29t-32 10.5t-32 -10.5t-23.5 -29t-14.5 -43.5t-5 -53t5 -52.5t14.5 -43t23.5 -29t32 -10.5zM1147 5q0 -2 -2 -4q-1 -1 -2 -1h-193q-1 0 -2 1q-2 2 -2 4v405h-71q4 -100 -8 -171t-34.5 -118.5
t-52.5 -75t-62 -42t-62.5 -19.5t-54.5 -6q-39 -3 -77.5 4t-70.5 22t-56 37t-33 50q-26 -49 -65.5 -81t-92.5 -32q-47 0 -83.5 24t-61.5 62.5t-38 87.5t-13 99q0 51 13 100t38.5 87t63 61t86.5 23q52 0 89 -26.5t60 -68.5v69q0 3 2 5q1 1 3 1h200q1 0 2 -1q2 -2 2 -4
q-1 -81 -2 -151q0 -30 -0.5 -60.5t-1 -58t-0.5 -49.5v-35q0 -42 12 -59t29 -8.5t35 41t32 89.5q11 44 16.5 94.5t8.5 94.5q4 51 5 102q0 5 4 5q101 23 208.5 23.5t228.5 -23.5q3 0 3 -4v-493z" />
    <glyph glyph-name="afii10065_afii10078" unicode="&#x430;&#x43c;" horiz-adv-x="1369" 
d="M1331 499q0 -5 0.5 -28.5t1 -59t1 -79.5t1.5 -89q2 -106 4 -238q0 -2 -2 -4q-1 -1 -2 -1h-194q-1 0 -2 1q-2 2 -2 4v57q0 26 0.5 61t0.5 73l10 108l-127 -295q-2 -5 -4 -6.5t-9 -1.5h-25q-8 0 -12 8l-100 254q-8 -66 -25 -112t-40.5 -77.5t-50.5 -50t-54.5 -28t-53.5 -13
t-46 -4.5q-39 -3 -77.5 4t-70.5 22t-56 37t-33 50q-26 -49 -65.5 -81t-92.5 -32q-47 0 -83.5 24t-61.5 62.5t-38 87.5t-13 99q0 51 13 100t38.5 87t63 61t86.5 23q52 0 89 -26.5t60 -68.5v69q0 3 2 5q1 1 3 1h200q1 0 2 -1q2 -2 2 -4q-1 -81 -2 -151q0 -30 -0.5 -60.5
t-0.5 -58v-49.5v-35q0 -52 14.5 -63.5t33.5 5t37.5 55t26.5 87.5q6 38 8.5 84.5t3.5 88.5q1 48 -1 98q0 2 2 4q1 1 2 1h210q2 0 4 -2q1 -1 1 -2l90 -187h3l98 188l1 1q2 2 4 2h224q0 -1 1 -1q2 -2 2 -3zM291 117q18 0 32 10.5t23.5 29t14.5 43t5 52.5t-5 53t-14.5 43.5
t-23.5 29t-32 10.5t-32 -10.5t-23.5 -29t-14.5 -43.5t-5 -53t5 -52.5t14.5 -43t23.5 -29t32 -10.5z" />
    <glyph glyph-name="afii10074_afii10077" unicode="&#x438;&#x43b;" horiz-adv-x="1175" 
d="M1145 5q0 -2 -2 -4q-1 -1 -2 -1h-193q-1 0 -2 1q-2 2 -2 4v405h-71q4 -100 -8 -171t-34.5 -118.5t-52.5 -75t-62 -42t-62.5 -19.5t-54.5 -6q-39 -3 -77.5 4.5t-70.5 22.5t-55.5 37.5t-33.5 50.5q-32 -64 -77 -89.5t-85 -25.5q-28 0 -53 11.5t-43.5 33.5t-29.5 52t-11 68
v156q0 40 -5.5 64.5t-14 39.5t-17.5 21.5t-16.5 10.5t-11.5 6.5t-2 9.5q4 12 15.5 24.5t28 23t36.5 17t41 6.5q30 0 57 -10.5t47.5 -30t32 -48t11.5 -63.5v-194q0 -37 14 -50t31.5 -5.5t32 33.5t16.5 68v275q0 3 2 5q1 1 2 1h201q1 0 2 -1q2 -2 2 -4q-2 -33 -3 -83
t-1.5 -102t-0.5 -98v-72q0 -42 12 -59t29 -8.5t35 41t32 89.5q11 44 16.5 94.5t8.5 94.5q4 51 5 102q0 5 4 5q101 23 208.5 23.5t228.5 -23.5q3 0 3 -4v-493z" />
    <glyph glyph-name="afii10074_afii10078" unicode="&#x438;&#x43c;" horiz-adv-x="1360" 
d="M1322 499q0 -5 0.5 -28.5t1 -59t1 -79.5t1.5 -89q2 -106 4 -238q0 -2 -2 -4q-1 -1 -2 -1h-194q-1 0 -2 1q-2 2 -2 4v57q0 26 0.5 61t0.5 73l10 108l-127 -295q-2 -5 -4 -6.5t-9 -1.5h-25q-8 0 -12 8l-100 254q-8 -96 -38.5 -152t-70.5 -85t-82 -37.5t-73 -10.5
q-39 -3 -77 4t-70.5 22t-56 37t-32.5 50q-16 -32 -35.5 -53.5t-41 -35t-43.5 -19t-42 -5.5q-28 0 -53 11.5t-43.5 33.5t-29.5 52t-11 68v156q0 40 -5.5 64.5t-14 39.5t-17.5 21.5t-16.5 10.5t-11.5 6.5t-2 9.5q4 12 15.5 24.5t28 23t36.5 17t41 6.5q30 0 57 -10.5t47.5 -30
t32 -48t11.5 -63.5v-194q0 -37 14 -50t31.5 -5.5t32 33.5t16.5 68v275q0 3 2 5q1 1 2 1h200q1 0 2 -1q2 -2 2 -4q-2 -33 -2.5 -83t-1 -102t-0.5 -98.5v-71.5q1 -34 10.5 -49t20.5 -15q19 0 32.5 18t23.5 47t16 67t10 77q9 92 8 210q0 2 2 4q1 1 2 1h206q2 0 4 -2q1 -1 1 -2
l90 -187h3l98 188l1 1q2 2 4 2h224q0 -1 1 -1q2 -2 2 -3z" />
    <glyph glyph-name="afii10074_afii10097" unicode="&#x438;&#x44f;" horiz-adv-x="1148" 
d="M882 418q-26 0 -45.5 -16.5t-19.5 -51.5q0 -65 67 -65h32v131q-8 1 -17 1.5t-17 0.5zM1118 6q0 -2 -2 -4q-1 -1 -2 -1h-193q-1 0 -2 1q-2 2 -2 4v189q-11 -3 -14.5 -18t-9.5 -37.5t-18 -49.5t-39 -54q-23 -23 -62 -38.5t-85 -22t-96 -4t-95 16.5t-81 40t-55 65
q-32 -64 -77 -89.5t-85 -25.5q-28 0 -53 11.5t-43.5 33.5t-29.5 52t-11 68v156q0 40 -5.5 64.5t-14 39.5t-17.5 21.5t-16.5 10.5t-11.5 6.5t-2 9.5q4 12 15.5 24.5t28 23t36.5 17t41 6.5q30 0 57 -10.5t47.5 -30t32 -48t11.5 -63.5v-194q0 -37 14 -50t31.5 -5.5t32 33.5
t16.5 68v275q0 3 2 5q1 1 2 1h201q1 0 2 -1q2 -2 2 -4q-2 -33 -3 -81.5t-1.5 -98.5t-0.5 -94.5v-70.5q1 -51 20.5 -65t47.5 -1t59 46.5t55 77.5q-53 13 -88 51t-35 92q0 43 21.5 75.5t57 54t80 32t90.5 10.5q50 0 94 -3.5t77 -8.5q39 -5 72 -11q1 -1 2 -1q2 -2 2 -3v-493z
" />
    <glyph glyph-name="afii10079_afii10097" unicode="&#x43d;&#x44f;" horiz-adv-x="1141" 
d="M875 418q-26 0 -45.5 -16.5t-19.5 -51.5q0 -65 67 -65h32v131q-8 1 -17 1.5t-17 0.5zM556 153q1 -51 20.5 -65t47.5 -1t59 46.5t55 77.5q-53 13 -88 51t-35 92q0 43 21.5 75.5t57 54t80 32t90.5 10.5q50 0 94 -3.5t77 -8.5q39 -5 72 -11q1 -1 2 -1q2 -2 2 -3v-494
q0 -2 -2 -4q-1 -1 -2 -1h-193q-1 0 -2 1q-2 2 -2 4v190q-11 -3 -14.5 -18t-9.5 -37.5t-17.5 -49t-38.5 -53.5q-15 -15 -39 -27.5t-54 -22t-64.5 -14.5t-69.5 -5q-47 0 -92 9.5t-80 34.5t-56 69.5t-20 116.5h-98v-192q0 -2 -3 -5q-1 -1 -2 -1h-200q-1 0 -2 1q-3 3 -2 4
q1 65 3 123q1 25 1.5 50t1 48.5t1 43t0.5 32.5q0 40 -5 64.5t-12.5 39.5t-15.5 21.5t-14.5 10.5t-10 6.5t-1.5 9.5q4 12 15.5 24.5t28 23t36.5 17t41 6.5q61 0 100.5 -40.5t39.5 -111.5v-58h98v183q0 2 2 4q1 1 3 1h192q1 0 2 -1q2 -2 2 -4v-345z" />
    <glyph glyph-name="afii10072_afii10078" unicode="&#x436;&#x43c;" horiz-adv-x="1629" 
d="M1591 499q0 -5 0.5 -28.5t1 -59t1 -79.5t1.5 -89q2 -106 4 -238q0 -2 -2 -4q-1 -1 -2 -1h-194q-1 0 -2 1q-2 2 -2 4v57q0 26 0.5 61t0.5 73l10 108l-127 -295q-2 -5 -4 -6.5t-9 -1.5h-25q-9 0 -12 8l-102 254q-1 -35 -3 -61t-9 -51q-15 -60 -48.5 -95.5t-73 -54
t-79.5 -24t-70 -5.5q-81 0 -130 18.5t-76.5 45.5t-39 59t-17.5 59t-12.5 44t-23.5 16v-208q0 -2 -2 -4q-1 -1 -2 -1h-193q-1 0 -2 1q-2 2 -2 4v208q-16 -1 -23.5 -19t-14 -44t-15 -56.5t-27 -56.5t-50 -43t-83.5 -17q-42 0 -75.5 17.5t-50.5 37.5q-13 15 -12 21t13 12
q41 20 63.5 45.5t37 52.5t24.5 53t25 46q17 22 40.5 33.5t56.5 6.5h1q-3 14 -7.5 29t-12 28t-17.5 21t-23 8q-14 0 -19.5 -7t-7 -17t-0.5 -19.5t1 -15.5q0 -11 -16 -17t-34 -6q-48 0 -78.5 27.5t-30.5 78.5q0 50 34.5 81t89.5 31q50 0 85 -22.5t59 -57t37.5 -75.5t21.5 -78
l8 -3v210q0 1 2 3q1 0 2 1h194h1q2 0 2 -4v-210l7 3q5 30 19 70.5t38.5 76.5t60 61t85.5 25q55 0 90 -31t35 -81q0 -51 -31 -78.5t-79 -27.5q-18 0 -34 6t-16 17q0 6 0.5 15.5t-1.5 19.5t-8 17t-20 7t-23.5 -8t-17 -21t-12 -28t-7.5 -29h1q40 4 66.5 -12t43.5 -42.5t28 -59
t22 -60.5t23.5 -47t32.5 -19q17 0 36 17.5t34 65.5t23.5 133t5.5 219q0 2 2 4q1 1 2 1h210q2 0 4 -2q1 -1 1 -2l90 -187h3l98 188l1 1q2 2 4 2h224q0 -1 1 -1q2 -2 2 -3z" />
    <glyph glyph-name="afii10074_afii10072" unicode="&#x438;&#x436;" horiz-adv-x="1505" 
d="M1497 65q11 -6 12 -12t-12 -21q-17 -20 -50.5 -37.5t-75.5 -17.5q-52 0 -83 17t-49.5 42.5t-27.5 55.5t-15.5 56t-14 44.5t-22.5 20.5v-208q0 -2 -2 -4q-1 -1 -2 -1h-193q-1 0 -2 1q-2 2 -2 4v208q-5 0 -10 -2.5t-7 -8.5q-17 -82 -51 -128.5t-77 -70t-91.5 -29.5
t-94.5 -6q-47 0 -88 6t-74.5 20t-60 38t-42.5 59q-32 -63 -77 -88.5t-85 -25.5q-28 0 -53 11.5t-43.5 33.5t-29.5 52t-11 68v156q0 40 -5.5 64.5t-14 39.5t-17.5 21.5t-16.5 10.5t-11.5 6.5t-2 9.5q4 12 15.5 24.5t28 23t36.5 17t41 6.5q30 0 57 -10.5t47.5 -30t32 -48
t11.5 -63.5v-194q0 -37 14 -50t31.5 -5.5t32 33.5t16.5 68v275q0 3 2 5q1 1 2 1h201q1 0 2 -1q2 -2 2 -4q-2 -29 -2.5 -80t-1.5 -111q0 -74 5.5 -121t16 -74.5t25.5 -38t35 -10.5q24 0 37 18.5t22.5 46t18.5 59.5t26 58.5t44.5 43.5t74.5 14q-3 14 -7.5 29t-12 28t-17.5 21
t-23 8q-14 0 -20 -7t-7.5 -17t-0.5 -19.5t1 -15.5q0 -11 -16 -17t-34 -6q-48 0 -78.5 27.5t-30.5 78.5q0 50 34.5 81t89.5 31q50 0 86 -24.5t60 -60t38 -76t19 -72.5l8 -3v210q0 1 2 3q1 0 2 1h194h1q2 0 2 -4v-210l7 3q3 27 16.5 67t38.5 77t61.5 63t86.5 26q55 0 90 -31
t35 -81q0 -51 -31 -78.5t-79 -27.5q-18 0 -34 6t-16 17q0 6 0.5 15.5t-1.5 19.5t-8 17t-20 7t-23.5 -8t-17 -21t-12 -28t-7.5 -29h1q33 5 58 -6.5t42 -33.5q15 -20 25 -46t24.5 -53t37.5 -52.5t64 -45.5z" />
    <glyph glyph-name="afii10065_afii10072" unicode="&#x430;&#x436;" horiz-adv-x="1504" 
d="M1496 65q11 -6 12 -12t-12 -21q-17 -20 -50.5 -37.5t-75.5 -17.5q-52 0 -83 17t-49.5 42.5t-27.5 55.5t-15.5 56t-14 44.5t-22.5 20.5v-208q0 -2 -2 -4q-1 -1 -2 -1h-193q-1 0 -2 1q-2 2 -2 4v208q-5 0 -10 -2.5t-7 -8.5q-17 -82 -51 -128.5t-77 -70t-91.5 -29.5
t-94.5 -6t-87 6t-74.5 20t-60 37t-42.5 57q-26 -48 -65.5 -78.5t-90.5 -30.5q-47 0 -83.5 24t-61.5 62.5t-38 87.5t-13 99q0 51 13 100t38.5 87t63 61t86.5 23q52 0 89 -26.5t60 -68.5v69q0 3 2 5q1 1 3 1h200q1 0 2 -1q2 -2 2 -4q-1 -37 -2 -76q-1 -33 -2 -71.5t-2 -73.5
q1 -65 7 -106.5t17 -65.5t26 -33.5t34 -9.5q24 0 38.5 19t25.5 47t22 60.5t27.5 59t41.5 42.5t66 12q-3 14 -7.5 29t-11 28t-16.5 21t-23 8q-14 0 -20 -7t-8 -17t-1.5 -19.5t0.5 -15.5q0 -11 -16 -17t-34 -6q-48 0 -78.5 27.5t-30.5 78.5q0 50 34.5 81t89.5 31
q50 0 86.5 -25.5t61 -61.5t38 -76t17.5 -70l8 -3v210q0 1 2 3q1 0 2 1h194h1q2 0 2 -4v-210l7 3q5 25 18.5 65t38 77t60.5 64t86 27q55 0 90 -31t35 -81q0 -51 -31 -78.5t-79 -27.5q-18 0 -34 6t-16 17q0 6 1.5 15.5t0 19.5t-7 17t-19.5 7t-24.5 -8t-18.5 -21t-13.5 -28
t-8.5 -29h1q33 5 58.5 -6.5t42.5 -33.5q15 -20 25 -46t24.5 -53t37.5 -52.5t64 -45.5zM291 117q18 0 32 10.5t23.5 29t14.5 43t5 52.5t-5 53t-14.5 43.5t-23.5 29t-32 10.5t-32 -10.5t-23.5 -29t-14.5 -43.5t-5 -53t5 -52.5t14.5 -43t23.5 -29t32 -10.5z" />
    <glyph glyph-name="afii10084_afii10084" unicode="&#x442;&#x442;" horiz-adv-x="840" 
d="M834 467q1 -37 -16 -58.5t-42 -31.5t-52.5 -11t-47.5 2h-1v-165q0 -40 5 -64.5t12.5 -39.5t15.5 -21.5t14.5 -10.5t10 -6.5t1.5 -9.5q-4 -12 -16 -24.5t-28.5 -23t-36.5 -17t-41 -6.5q-30 0 -55.5 10.5t-44 30t-29 48t-10.5 63.5v244l-131 1v-174q0 -40 5 -64.5
t12.5 -39.5t15.5 -21.5t14.5 -10.5t10 -6.5t1.5 -9.5q-4 -12 -16 -24.5t-28.5 -23t-36.5 -17t-41 -6.5q-30 0 -55.5 10.5t-44 30t-29 48t-10.5 63.5v244l-130 1q-1 -1 -2 0q-1 0 -1 4l-2 112v7q0 2 2 4q54 6 123.5 10t146.5 6t156 2t151.5 -2t134 -5.5t102.5 -8.5
q8 -1 10 -10q0 -4 1 -8q2 -10 2 -21z" />
    <glyph glyph-name="afii10084_afii10089" unicode="&#x442;&#x447;" horiz-adv-x="999" 
d="M944 201q0 -40 5 -64.5t12.5 -39.5t16 -21.5t15 -10.5t9.5 -6.5t1 -9.5q-4 -12 -15 -24.5t-27.5 -23t-36.5 -17t-41 -6.5q-61 0 -100.5 40.5t-39.5 111.5v68q-26 -37 -63.5 -50t-71.5 -13q-64 0 -103.5 40.5t-41.5 113.5q-5 61 -34.5 86.5t-89.5 4.5v-177q0 -40 5 -64.5
t12.5 -39.5t15.5 -21.5t14.5 -10.5t10 -6.5t1.5 -9.5q-4 -12 -15.5 -24.5t-27.5 -23t-35.5 -17t-40.5 -6.5q-30 0 -55.5 10.5t-44 30t-29 48t-10.5 63.5v244l-130 1q-1 -1 -2 0q-1 0 -1 4l-2 112v7q0 2 2 4q74 14 152.5 17.5t148.5 1.5t124.5 -8t80.5 -11q30 -6 57 -17
t48 -29t33.5 -43.5t12.5 -60.5v-44q0 -38 12.5 -53.5t27 -11.5t27 26t12.5 60v166q0 3 2 5q1 1 3 1h200q1 0 2 -1q2 -2 2 -4q-2 -65 -4 -123q-2 -50 -3 -99t-1 -75z" />
    <glyph glyph-name="afii10083_afii10084" unicode="&#x441;&#x442;" horiz-adv-x="916" 
d="M297 393q2 7 2.5 9t1.5 5q-7 4 -18 4q-20 0 -35 -14.5t-24.5 -37.5t-13 -51t-0.5 -56q6 -67 37.5 -99.5t74.5 -39.5t90.5 5.5t85.5 35.5q8 6 14 1q5 -5 3 -16q-5 -16 -21 -43t-44.5 -53t-70 -45t-96.5 -19q-57 0 -107 21.5t-86.5 58.5t-58 86.5t-21.5 106.5q0 55 20 103
t55 85t84 59t106 25q33 1 72.5 -5t68.5 -23q72 17 151 21.5t148 2.5t119 -7t63 -7q8 -1 10 -10q0 -4 1 -8q2 -10 2 -21q1 -37 -16 -58.5t-42 -31.5t-52.5 -11t-47.5 2h-1v-165q0 -40 5 -64.5t12.5 -39.5t15.5 -21.5t14.5 -10.5t10 -6.5t1.5 -9.5q-4 -12 -16 -24.5t-28.5 -23
t-36.5 -17t-41 -6.5q-30 0 -55.5 10.5t-44 30t-29 48t-10.5 63.5v245h-30.5h-15.5h-6.5h-1.5q-9 -40 -39.5 -66.5t-68.5 -26.5q-21 0 -39.5 8.5t-31.5 23.5t-18.5 35t-0.5 42z" />
    <glyph glyph-name="afii10084_afii10094" unicode="&#x442;&#x44c;" horiz-adv-x="965" 
d="M747 394q40 0 77.5 -14t66 -40t46 -62.5t17.5 -80.5q0 -48 -20 -88.5t-54.5 -69.5t-79.5 -45t-95 -16q-69 0 -115 21t-73.5 53t-39 70t-11.5 73v181h-124v-173q0 -40 5 -64.5t12.5 -39.5t15.5 -21.5t14.5 -10.5t10 -6.5t1.5 -9.5q-4 -12 -16 -24.5t-28.5 -23t-36.5 -17
t-41 -6.5q-30 0 -55.5 10.5t-44 30t-29 48t-10.5 63.5v244l-130 1q-1 -1 -2 0q-1 0 -1 4l-2 119q0 2 2 4q49 9 114 13t133.5 5t136.5 -1t123.5 -5t93 -6t46.5 -4q8 -1 10 -10q0 -5 1 -18q1 -11 1.5 -33t0.5 -58q19 3 39 5t41 2zM713 94q16 0 26 9.5t16 24.5t8 34.5t2 39.5
q0 44 -22 70t-56 26q-5 0 -10 -0.5t-10 -1.5v-132q1 -26 10.5 -48t35.5 -22z" />
    <glyph glyph-name="afii10084_afii10093" unicode="&#x442;&#x44b;" horiz-adv-x="1229" 
d="M1167 201q0 -40 5.5 -64.5t14 -39.5t17.5 -21.5t16.5 -10.5t11 -6.5t1.5 -9.5q-4 -12 -15.5 -24.5t-28 -23t-36.5 -17t-41 -6.5q-30 0 -56.5 10.5t-47 30t-32 48t-11.5 63.5v194q0 30 -8 44.5t-19.5 14.5t-23.5 -13.5t-19 -38.5q23 -26 37 -59.5t14 -74.5
q0 -48 -19 -88.5t-51.5 -69.5t-76.5 -45t-94 -16q-69 0 -115 21t-73.5 53t-39 70t-11.5 73v181h-124v-173q0 -40 5 -64.5t12.5 -39.5t15.5 -21.5t14.5 -10.5t10 -6.5t1.5 -9.5q-4 -12 -16 -24.5t-28.5 -23t-36.5 -17t-41 -6.5q-30 0 -55.5 10.5t-44 30t-29 48t-10.5 63.5
v244l-130 1q-1 -1 -2 0q-1 0 -1 4l-2 119q0 2 2 4q49 9 114 13t133.5 5t136.5 -1t123.5 -5t93 -6t46.5 -4q8 -1 10 -10q0 -5 1 -18q1 -11 1.5 -33t0.5 -58q18 3 38.5 5t41.5 2q56 0 104 -28q14 43 35.5 73t45.5 48.5t49 26.5t48 8q28 0 53 -11.5t44 -33.5t30 -52.5t11 -67.5
v-156zM710 94q15 0 24.5 9.5t14.5 24.5t6.5 34.5t1.5 39.5q0 44 -18.5 70t-51.5 26q-10 0 -20 -2v-122q0 -15 2 -29t6.5 -25.5t13 -18.5t21.5 -7z" />
    <glyph glyph-name="afii10084_afii10096" unicode="&#x442;&#x44e;" horiz-adv-x="1251" 
d="M980 524q60 0 109 -21.5t83.5 -58.5t53.5 -86.5t19 -105.5q0 -57 -18 -106.5t-52.5 -86.5t-83.5 -58.5t-111 -21.5q-53 0 -97.5 16.5t-78 46t-55 69.5t-29.5 87h-42v-192q0 -3 -2 -5q-1 -1 -2 -1h-197q-1 0 -2 1q-2 2 -2 4v295q-2 25 -12.5 44.5t-28 30.5t-41.5 13
t-52 -8v-177q0 -40 5 -64.5t12.5 -39.5t15.5 -21.5t14.5 -10.5t10 -6.5t1.5 -9.5q-4 -12 -15.5 -24.5t-27.5 -23t-35.5 -17t-40.5 -6.5q-30 0 -55.5 10.5t-44 30t-29 48t-10.5 63.5v244l-130 1q-1 -1 -2 0q-1 0 -1 4l-2 112v7q0 2 2 4q74 14 154 17.5t152 1.5t128 -8t82 -11
q28 -6 55.5 -16.5t49 -27.5t35 -41t15.5 -57q1 -11 0.5 -20t-0.5 -27h44q9 45 31 83.5t55 66t76.5 43.5t95.5 16zM980 93q23 0 36.5 12.5t20 34t8.5 50.5t2 62q0 32 -2 61t-9 50.5t-20.5 34.5t-35.5 13t-35 -12.5t-20 -34.5t-9.5 -50.5t-2.5 -61.5q0 -32 2.5 -60.5
t9.5 -50.5t20 -35t35 -13z" />
    <glyph glyph-name="afii10076_afii10079" unicode="&#x43a;&#x43d;" horiz-adv-x="1161" 
d="M1106 202q0 -40 5 -64.5t12.5 -39.5t16 -21.5t15 -10.5t9.5 -7t1 -10q-4 -12 -15 -24t-27.5 -21.5t-36.5 -16t-41 -6.5q-61 0 -100.5 39.5t-39.5 110.5v67h-98v-192q0 -2 -3 -5q-1 -1 -2 -1h-194q-1 0 -2 1q-3 3 -2 4v115v169q0 43 -15.5 70t-40 39t-54 10.5t-58 -14.5
t-52 -36.5t-34.5 -54.5q39 0 60 -12t33 -32t20 -45.5t20 -52t32.5 -51.5t59.5 -44q12 -6 12.5 -12t-11.5 -21q-17 -20 -41.5 -37.5t-66.5 -17.5q-52 0 -83 17t-49.5 43t-27 56t-15 56t-14 44t-23.5 20v-208q0 -3 -2 -5q-1 -1 -2 -1h-201q-1 0 -2 1q-2 2 -2 4q2 65 4 123
q1 25 1.5 50t1 48.5t1 43t0.5 32.5q0 40 -5 64.5t-12.5 39.5t-15.5 21.5t-14.5 10.5t-10 6.5t-1.5 9.5q4 12 15.5 24.5t28 23t36.5 17t41 6.5q30 0 55.5 -10.5t44 -30t29 -48t10.5 -63.5v-84q1 0 4 1l12 3q0 10 4.5 30.5t15 45t29 51t47.5 50t69.5 40t95.5 21.5
q133 12 199 -46t72 -170h101v183q0 2 2 4q1 1 3 1h192q1 0 2 -1q2 -2 2 -4v-296v0z" />
    <glyph glyph-name="afii10076_afii10084" unicode="&#x43a;&#x442;" horiz-adv-x="989" 
d="M982 467q1 -37 -16 -58.5t-42 -31.5t-52.5 -11t-47.5 2h-1v-165q0 -40 5 -64.5t12.5 -39.5t15.5 -21.5t14.5 -10.5t10 -6.5t1.5 -9.5q-4 -12 -16 -24.5t-28.5 -23t-36.5 -17t-41 -6.5q-30 0 -55.5 10.5t-44 30t-29 48t-10.5 63.5v249q-36 6 -77.5 8t-80.5 -5t-72 -26
t-51 -55q33 3 60 -7.5t44 -32.5q15 -20 25 -46t24 -53t37 -52.5t64 -45.5q12 -6 12.5 -12t-11.5 -21q-17 -20 -51 -37.5t-76 -17.5q-52 0 -83 17t-49.5 43t-27 56t-15 56t-14 44t-23.5 20v-208q0 -3 -2 -5q-1 -1 -2 -1h-201q-1 0 -2 1q-2 2 -2 4q2 65 4 123q1 25 1.5 50
t1 48.5t1 43t0.5 32.5q0 40 -5 64.5t-12.5 39.5t-15.5 21.5t-14.5 10.5t-10 6.5t-1.5 9.5q4 12 15.5 24.5t28 23t36.5 17t41 6.5q30 0 55.5 -10.5t44 -30t29 -48t10.5 -63.5v-84q1 0 4 1l12 3q0 10 4 30t13.5 44.5t27 50.5t45.5 48t68.5 37.5t95.5 18.5q29 2 72 1.5t91 -2
t96 -4t87 -4.5t65.5 -4t31.5 -3q8 -1 10 -10q0 -4 1 -8q2 -10 2 -21z" />
    <glyph glyph-name="afii10084_afii10076" unicode="&#x442;&#x43a;" horiz-adv-x="1022" 
d="M1012 66q12 -6 12.5 -12t-11.5 -21q-17 -20 -51 -37.5t-76 -17.5q-52 0 -83 17t-49.5 43t-27 56t-15 56t-14 44t-23.5 20v-208q0 -3 -2 -5q-1 -1 -2 -1h-201q-1 0 -2 1q-2 2 -2 4q2 58 4 112q2 46 2.5 94t1.5 78q-5 61 -39.5 86.5t-94.5 4.5v-177q0 -40 5 -64.5
t12.5 -39.5t15.5 -21.5t14.5 -10.5t10 -6.5t1.5 -9.5q-4 -12 -15.5 -24.5t-27.5 -23t-35.5 -17t-40.5 -6.5q-30 0 -55.5 10.5t-44 30t-29 48t-10.5 63.5v244l-130 1q-1 -1 -2 0q-1 0 -1 4l-2 112v7q0 2 2 4q74 14 154 17.5t152 1.5t128 -8t82 -11q30 -6 57 -17t48 -29
t33.5 -43.5t12.5 -61.5v-64l8 3q3 28 16.5 68t38.5 76.5t61.5 62.5t86.5 26q55 0 89.5 -31t34.5 -81q0 -51 -30.5 -78.5t-78.5 -27.5q-19 0 -35 6t-16 17q0 6 1 15.5t-0.5 19.5t-7.5 17t-20 7t-23 -8t-16 -20.5t-11.5 -27.5t-7.5 -30q34 5 57.5 -6.5t40.5 -33.5
q15 -20 25 -46t24 -53t37 -52.5t64 -45.5z" />
    <glyph glyph-name="afii10084_afii10082" unicode="&#x442;&#x440;" horiz-adv-x="1038" 
d="M836 525q47 0 83.5 -24t61 -62.5t37.5 -87.5t13 -99q0 -51 -13 -100t-38 -87t-62.5 -61t-86.5 -23q-52 0 -89 26.5t-60 68.5v-290q0 -2 -3 -5q-1 -1 -2 -1h-200q-1 0 -2 1q-3 3 -2 4q-1 123 -1 228v285q-8 57 -42 79.5t-91 2.5v-177q0 -40 5 -64.5t12.5 -39.5t15.5 -21.5
t14.5 -10.5t10 -6.5t1.5 -9.5q-4 -12 -15.5 -24.5t-27.5 -23t-35.5 -17t-40.5 -6.5q-30 0 -55.5 10.5t-44 30t-29 48t-10.5 63.5v244l-130 1q-1 -1 -2 0q-1 0 -1 4l-2 112v7q0 2 2 4q74 14 155.5 17.5t155.5 1.5t131.5 -8t83.5 -11q42 -9 79 -33.5t66 -59.5q26 50 65.5 82
t92.5 32zM751 116q18 0 32 10.5t23.5 29t14.5 43.5t5 53t-5 52.5t-14.5 43t-23.5 29t-32 10.5t-32 -10.5t-23.5 -29t-14.5 -43t-5 -52.5t5 -53t14.5 -43.5t23.5 -29t32 -10.5z" />
    <glyph glyph-name="afii10072_afii10074" unicode="&#x436;&#x438;" horiz-adv-x="1435" 
d="M547 289q0 1 1.5 1.5l7.5 2.5q0 10 4 31t13.5 46t27 52.5t45.5 50.5t68.5 39t95.5 19q52 3 101.5 -10t88 -42t61 -74t21.5 -106v-128q1 -35 15.5 -46.5t31.5 -3.5t31.5 34t16.5 67v275q0 3 2 5q1 1 2 1h201q1 0 2 -1q2 -2 2 -4q-2 -65 -4 -123q-2 -50 -3 -99t-1 -75
q0 -40 5 -64.5t12.5 -39.5t15.5 -21.5t14.5 -10.5t10 -6.5t1.5 -9.5q-4 -12 -15.5 -24.5t-28 -23t-36.5 -17t-41 -6.5q-52 0 -88.5 30.5t-47.5 84.5q-32 -64 -77 -89.5t-85 -25.5q-28 0 -53 11.5t-43.5 33.5t-29.5 52t-11 68v156q0 33 -15.5 54.5t-40 32.5t-54 11t-58 -10.5
t-52 -31.5t-34.5 -52q33 3 58.5 -7.5t42.5 -32.5q15 -20 25 -46t24 -53t37 -52.5t64 -45.5q12 -6 12.5 -12t-11.5 -21q-17 -20 -51 -37.5t-76 -17.5q-52 0 -82.5 17t-48 43t-25.5 56t-13.5 56t-12.5 44t-23 20v-208q0 -2 -2 -4q-1 -1 -2 -1h-193q-1 0 -2 1q-2 2 -2 4v208
q-16 -1 -23.5 -19t-14 -44t-15 -56.5t-27 -56.5t-50 -43t-83.5 -17q-42 0 -75.5 17.5t-50.5 37.5q-13 15 -12 21t13 12q41 20 63.5 45.5t37 52.5t24.5 53t25 46q17 22 41 33.5t57 6.5h1q-3 14 -7.5 29t-12 28t-17.5 21t-23 8q-14 0 -20 -7t-7.5 -17t-0.5 -19.5t1 -15.5
q0 -11 -16 -17t-34 -6q-48 0 -78.5 27.5t-30.5 78.5q0 50 34.5 81t89.5 31q50 0 86 -24t60 -59.5t38 -76t19 -73.5l8 -3v210q0 1 2 3q1 0 2 1h194h1q2 0 2 -4v-210z" />
    <glyph glyph-name="afii10072_afii10093" unicode="&#x436;&#x44b;" horiz-adv-x="1627" 
d="M1564 201q0 -40 5.5 -64.5t13.5 -39.5t17.5 -21.5t17 -10.5t11 -6.5t1.5 -9.5q-4 -12 -15.5 -24.5t-28 -23t-36.5 -17t-41 -6.5q-30 0 -56.5 10.5t-47 30t-32 48t-11.5 63.5v194q0 30 -8 44.5t-19.5 14.5t-23.5 -13.5t-19 -38.5q23 -26 37 -59.5t14 -74.5
q0 -48 -19 -88.5t-51.5 -69.5t-76.5 -45t-94 -16q-69 0 -115 21t-73.5 53t-39 70t-11.5 73v109q0 33 -14.5 54t-37 31.5t-50.5 10t-54.5 -11.5t-49 -32.5t-33.5 -52.5q33 3 60 -7.5t44 -32.5q15 -20 25 -46t24 -53t37 -52.5t64 -45.5q12 -6 12.5 -12t-11.5 -21
q-17 -20 -51 -37.5t-76 -17.5q-52 0 -82.5 17t-48 43t-25.5 56t-13.5 56t-12.5 44t-23 20v-208q0 -2 -2 -4q-1 -1 -2 -1h-193q-1 0 -2 1q-2 2 -2 4v208q-16 -1 -23.5 -19t-14 -44t-15 -56.5t-27 -56.5t-50 -43t-83.5 -17q-42 0 -75.5 17.5t-50.5 37.5q-13 15 -12 21t13 12
q41 20 63.5 45.5t37 52.5t24.5 53t25 46q17 22 41 33.5t57 6.5h1q-3 14 -7.5 29t-12 28t-17.5 21t-23 8q-14 0 -20 -7t-7.5 -17t-0.5 -19.5t1 -15.5q0 -11 -16 -17t-34 -6q-48 0 -78.5 27.5t-30.5 78.5q0 50 34.5 81t89.5 31q50 0 86 -24t60 -59.5t38 -76t19 -73.5l8 -3v210
q0 1 2 3q1 0 2 1h194h1q2 0 2 -4v-210q0 1 9 4q0 10 4 30.5t13.5 45.5t27 52t45.5 50t68.5 39.5t95.5 20.5q47 4 90.5 -0.5t77.5 -20.5t55 -45.5t23 -75.5q19 2 43.5 3.5t44.5 1.5q56 0 104 -28q14 43 35.5 73t45.5 48.5t49 26.5t48 8q28 0 53 -11.5t44 -33.5t30 -52.5
t11 -67.5v-156zM1107 94q15 0 24.5 9.5t14.5 24.5t6.5 34.5t1.5 39.5q0 44 -18.5 70t-51.5 26q-10 0 -20 -2v-122q0 -15 2 -29t6.5 -25.5t13 -18.5t21.5 -7z" />
    <glyph glyph-name="afii10076_afii10093" unicode="&#x43a;&#x44b;" horiz-adv-x="1340" 
d="M1278 201q0 -40 5.5 -64.5t14 -39.5t17.5 -21.5t16.5 -10.5t11 -6.5t1.5 -9.5q-4 -12 -15.5 -24.5t-28 -23t-36.5 -17t-41 -6.5q-30 0 -56.5 10.5t-47 30t-32 48t-11.5 63.5v194q0 30 -8 44.5t-19.5 14.5t-23.5 -13.5t-19 -38.5q23 -26 37 -59.5t14 -74.5
q0 -48 -19 -88.5t-51.5 -69.5t-76.5 -45t-94 -16q-69 0 -115 21t-73.5 53t-39 70t-11.5 73v109q0 33 -14.5 54t-37 31.5t-50.5 10t-54.5 -11.5t-49 -32.5t-33.5 -52.5q33 3 60 -7.5t44 -32.5q15 -20 25 -46t24 -53t37 -52.5t64 -45.5q12 -6 12.5 -12t-11.5 -21
q-17 -20 -51 -37.5t-76 -17.5q-51 0 -82.5 17t-49.5 42.5t-27 55.5t-15 56t-13.5 44.5t-22.5 20.5v-208q0 -3 -2 -5q-1 -1 -2 -1h-201q-1 0 -2 1q-2 2 -2 4q2 65 4 123q1 25 1.5 50t1 48.5t1 43t0.5 32.5q0 40 -5 64.5t-12.5 39.5t-15.5 21.5t-14.5 10.5t-10 6.5t-1.5 9.5
q4 12 15.5 24.5t28 23t36.5 17t41 6.5q30 0 55.5 -10.5t44 -30t29 -48t10.5 -63.5v-84q1 1 5 1.5t9 2.5q0 10 4 30.5t13.5 45.5t27 52t45.5 50t68.5 39.5t95.5 20.5q47 4 90.5 -0.5t77.5 -20.5t55 -45.5t23 -75.5q19 2 43.5 3.5t44.5 1.5q56 0 104 -28q14 43 35.5 73
t45.5 48.5t49 26.5t48 8q28 0 53 -11.5t44 -33.5t30 -52.5t11 -67.5v-156zM821 94q15 0 24.5 9.5t14.5 24.5t6.5 34.5t1.5 39.5q0 44 -18.5 70t-51.5 26q-10 0 -20 -2v-122q0 -15 2 -29t6.5 -25.5t13 -18.5t21.5 -7z" />
    <glyph glyph-name="afii10072_afii10085" unicode="&#x436;&#x443;" horiz-adv-x="1404" 
d="M1375 73q2 -65 -14.5 -119.5t-51.5 -94t-88 -61.5t-122 -22q-55 0 -95 16t-67.5 38t-43 45t-19.5 37q-6 18 -7.5 29.5t0 17.5t5 8t7.5 1q9 -2 20 -14t29.5 -26.5t46 -26t69.5 -11.5q30 0 53.5 11t40 28.5t25.5 39.5t10 45v100q-15 -32 -35 -54.5t-41.5 -36t-43.5 -19.5
t-42 -6q-28 0 -53 11.5t-43.5 33.5t-29.5 52t-11 68v136h-1q0 33 -15.5 54.5t-39 32.5t-52.5 11t-57 -10.5t-51 -31.5t-34 -52q33 3 60 -7.5t44 -32.5q15 -20 25 -46t24 -53t37 -52.5t64 -45.5q12 -6 12.5 -12t-11.5 -21q-17 -20 -51 -37.5t-76 -17.5q-52 0 -82.5 17t-48 43
t-25.5 56t-13.5 56t-12.5 44t-23 20v-208q0 -2 -2 -4q-1 -1 -2 -1h-193q-1 0 -2 1q-2 2 -2 4v208q-16 -1 -23.5 -19t-14 -44t-15 -56.5t-27 -56.5t-50 -43t-83.5 -17q-42 0 -75.5 17.5t-50.5 37.5q-13 15 -12 21t13 12q41 20 63.5 45.5t37 52.5t24.5 53t25 46q17 22 41 33.5
t57 6.5h1q-3 14 -8 29t-12 28t-17.5 21t-23.5 8q-14 0 -19.5 -7t-7 -17t-0.5 -19.5t1 -15.5q0 -11 -16 -17t-34 -6q-48 0 -78.5 27.5t-30.5 78.5q0 50 34.5 81t89.5 31q52 0 89 -25t61 -61.5t36.5 -76.5t16.5 -70l8 -3v210q0 1 2 3q1 0 2 1h194h1q2 0 2 -4v-210q0 1 9 4
q0 10 4 31t13.5 46t27 52.5t45.5 50.5t68.5 39t95.5 19q52 3 101 -10t86.5 -42t59 -74t18.5 -106v-2v-11.5v-30.5v-59t14.5 -51t32.5 -4.5t33 36t16 71.5v249q0 2 2 4q1 1 2 1h193q1 0 2 -1q2 -2 2 -4q0 -84 1 -162q0 -33 0.5 -69t1 -70.5t0.5 -66v-56.5z" />
    <glyph glyph-name="afii10072_afii10077" unicode="&#x436;&#x43b;" horiz-adv-x="1425" 
d="M1395 6q0 -2 -2 -4q-1 -1 -2 -1h-193q-1 0 -2 1q-2 2 -2 4v405h-71q1 -33 0 -69.5t-3.5 -72t-6.5 -66.5t-10 -52q-15 -53 -46 -88t-68.5 -55t-75.5 -28t-68 -8q-81 0 -130 18t-76.5 45.5t-39 59t-17.5 58t-12.5 44.5t-22.5 17v-208q0 -2 -2 -4q-1 -1 -2 -1h-193
q-1 0 -2 1q-2 2 -2 4v208q-16 -1 -23.5 -19t-14 -44t-15 -56.5t-27 -56.5t-50 -43t-83.5 -17q-42 0 -75.5 17.5t-50.5 37.5q-13 15 -12 21t13 12q41 20 63.5 45.5t37 52.5t24.5 53t25 46q17 22 40 33.5t56 6.5h1q-3 14 -7.5 29t-12 28t-17.5 21t-23 8q-14 0 -19.5 -7t-7 -17
t0 -19.5t1.5 -15.5q0 -11 -16 -17t-34 -6q-48 0 -78.5 27.5t-30.5 78.5q0 50 34.5 81t89.5 31q50 0 86.5 -24t61 -59.5t38 -76t17.5 -73.5l8 -3v210q0 1 2 3q1 0 2 1h194h1q2 0 2 -4v-210l7 3q3 25 15 64.5t36 76.5t61 64t91 28q27 1 50 -7.5t39.5 -23.5t25.5 -35.5t9 -45.5
q0 -51 -30.5 -78.5t-78.5 -27.5q-19 0 -35 6t-16 17q0 6 1.5 15.5t0.5 19.5t-6.5 17t-19.5 7q-15 0 -25.5 -8t-18 -20.5t-12.5 -28t-7 -29.5q40 4 66.5 -12t43.5 -42.5t28 -59t21.5 -60.5t23 -47t32.5 -19q19 0 34 18.5t26 49t18 69.5t12 80q11 96 12 218q0 5 4 5
q101 23 208.5 23.5t228.5 -23.5q3 0 3 -4v-493z" />
    <glyph glyph-name="afii10072_afii10084" unicode="&#x436;&#x442;" horiz-adv-x="1273" 
d="M1266 467q1 -37 -16 -58.5t-42 -31.5t-52.5 -11t-47.5 2h-1v-165q0 -40 5 -64.5t12.5 -39.5t15.5 -21.5t14.5 -10.5t10 -6.5t1.5 -9.5q-4 -12 -16 -24.5t-28.5 -23t-36.5 -17t-41 -6.5q-30 0 -55.5 10.5t-44 30t-29 48t-10.5 63.5v249q-36 6 -77.5 8t-80.5 -5t-72 -26
t-51 -55q33 3 60 -7.5t44 -32.5q15 -20 25 -46t24 -53t37 -52.5t64 -45.5q12 -6 12.5 -12t-11.5 -21q-17 -20 -51 -37.5t-76 -17.5q-50 0 -80.5 15.5t-49 40t-28 53t-15.5 54.5t-12.5 45.5t-19.5 25.5v-206q0 -2 -2 -4q-1 -1 -2 -1h-193q-1 0 -2 1q-2 2 -2 4v208
q-16 -1 -23.5 -19t-14 -44t-15 -56.5t-27 -56.5t-50 -43t-83.5 -17q-42 0 -75.5 17.5t-50.5 37.5q-13 15 -12 21t13 12q41 20 63.5 45.5t37 52.5t24.5 53t25 46q17 22 41 33.5t57 6.5h1q-3 14 -7.5 29t-12 28t-17.5 21t-23 8q-14 0 -20 -7t-7.5 -17t-0.5 -19.5t1 -15.5
q0 -11 -16 -17t-34 -6q-48 0 -78.5 27.5t-30.5 78.5q0 50 34.5 81t89.5 31q50 0 86 -23t60 -58t38 -75.5t19 -76.5l8 -3v210q0 1 2 3q1 0 2 1h194h1q2 0 2 -4v-208q1 0 9 2q0 10 4 30t13.5 44.5t27 50.5t45.5 48t68.5 37.5t95.5 18.5q29 2 72 1.5t91 -2t96 -4t87 -4.5
t65.5 -4t31.5 -3q8 -1 10 -10q0 -4 1 -8q2 -10 2 -21z" />
    <glyph glyph-name="afii10093_afii10072" unicode="&#x44b;&#x436;" horiz-adv-x="1654" 
d="M1644 65q11 -6 12 -12t-12 -21q-17 -20 -50.5 -37.5t-75.5 -17.5q-52 0 -83 17t-49.5 42.5t-27.5 55.5t-15.5 56t-14 44.5t-22.5 20.5v-208q0 -2 -2 -4q-1 -1 -2 -1h-193q-1 0 -2 1q-2 2 -2 4v208q-5 0 -10 -2.5t-7 -8.5q-17 -82 -51 -128.5t-77 -70t-91.5 -29.5
t-94.5 -6q-66 0 -109 11.5t-69 33t-38 53t-16.5 71t-3.5 86.5t1 101q0 29 -8 43t-19.5 14.5t-23.5 -12.5t-19 -38q23 -26 32 -59.5t9 -74.5q0 -48 -17.5 -88.5t-48 -69.5t-73 -45t-92.5 -16q-69 0 -115 21t-73.5 53t-39 70t-11.5 73v303q0 2 2 4q1 1 2 1h193q1 0 2 -1
q2 -2 2 -5v-110q18 3 38.5 5t41.5 2q56 0 104 -28q14 43 35.5 73t45.5 48.5t49 26.5t48 8q28 0 53.5 -11.5t44.5 -33.5t30 -52.5t11 -67.5q0 -26 -1.5 -58t-2 -65t1 -64t7.5 -55t17.5 -38.5t30.5 -14.5q24 0 39 19t26 47t21.5 60.5t27.5 59t42 42.5t66 12q-3 14 -7.5 29
t-12 28t-17.5 21t-23 8q-14 0 -20 -7t-8 -17t-1 -19.5t1 -15.5q0 -11 -16 -17t-34 -6q-48 0 -78.5 27.5t-30.5 78.5q0 50 34.5 81t89.5 31q50 0 86 -24t60 -59t38 -75.5t19 -74.5l8 -3v210q0 1 2 3q1 0 2 1h194h1q2 0 2 -4v-210l7 3q4 26 17.5 65.5t38 77t61 64t86.5 26.5
q55 0 90 -31t35 -81q0 -51 -31 -78.5t-79 -27.5q-18 0 -34 6t-16 17q0 6 1.5 15.5t0 19.5t-7 17t-19.5 7t-24 -8t-18 -21t-13 -28t-8 -29h1q33 5 57.5 -6.5t41.5 -33.5q15 -20 25 -46t24.5 -53t37.5 -52.5t64 -45.5zM284 94q15 0 24.5 9.5t14.5 24.5t6.5 34.5t1.5 39.5
q0 44 -18.5 70t-51.5 26q-10 0 -20 -2v-122q0 -15 2 -29t6.5 -25.5t13 -18.5t21.5 -7z" />
    <glyph glyph-name="afii10093_afii10072_afii10074" unicode="&#x44b;&#x436;&#x438;" horiz-adv-x="2194" 
d="M1306 290q2 2 8 3q0 10 4 31t13.5 46t27 52.5t45.5 50.5t68.5 39t95.5 19q52 3 101.5 -10t88 -42t61 -74t21.5 -106v-128q1 -35 15.5 -46.5t31.5 -3.5t31.5 34t16.5 67v275q0 3 2 5q1 1 2 1h201q1 0 2 -1q2 -2 2 -4q-2 -65 -4 -123q-2 -50 -3 -99t-1 -75q0 -40 5 -64.5
t12.5 -39.5t15.5 -21.5t14.5 -10.5t10 -6.5t1.5 -9.5q-4 -12 -15.5 -24.5t-28 -23t-36.5 -17t-41 -6.5q-52 0 -88.5 30.5t-47.5 84.5q-32 -64 -77 -89.5t-85 -25.5q-28 0 -53 11.5t-43.5 33.5t-29.5 52t-11 68v156q0 33 -16 54.5t-40.5 32.5t-54.5 11t-58.5 -10.5
t-52.5 -31.5t-35 -52q33 3 60 -7.5t44 -32.5q15 -20 25 -46t24 -53t37 -52.5t64 -45.5q12 -6 12.5 -12t-11.5 -21q-17 -20 -51 -37.5t-76 -17.5q-51 0 -82 17t-48.5 42.5t-25.5 55.5t-13.5 56t-12.5 44.5t-22 20.5v-209q0 -2 -2 -4q-1 -1 -2 -1h-193q-1 0 -2 1q-2 2 -2 4
v208q-5 0 -10 -2.5t-7 -8.5q-17 -82 -51 -128.5t-77 -70t-91.5 -29.5t-94.5 -6q-66 0 -109 11.5t-69 33t-38 53t-16.5 71t-3.5 86.5t1 101q0 29 -8 43t-19.5 14.5t-23.5 -12.5t-19 -38q23 -26 32 -59.5t9 -74.5q0 -48 -17.5 -88.5t-48 -69.5t-73 -45t-92.5 -16
q-69 0 -115 21t-73.5 53t-39 70t-11.5 73v303q0 2 2 4q1 1 2 1h193q1 0 2 -1q2 -2 2 -5v-110q18 3 38.5 5t41.5 2q56 0 104 -28q14 43 35.5 73t45.5 48.5t49 26.5t48 8q28 0 53.5 -11.5t44.5 -33.5t30 -52.5t11 -67.5q0 -26 -1.5 -58t-2 -65t1 -64t7.5 -55t17.5 -38.5
t30.5 -14.5q24 0 39 19t26 47t22 60.5t27.5 59t42 42.5t66.5 12q-3 14 -8 29t-12.5 28t-18 21t-23.5 8q-14 0 -20 -7t-7.5 -17t-0.5 -19.5t1 -15.5q0 -11 -16 -17t-34 -6q-48 0 -78.5 27.5t-30.5 78.5q0 50 34.5 81t89.5 31q50 0 86.5 -24t61 -59.5t38 -76t17.5 -73.5l8 -3
v210q0 1 2 3q1 0 2 1h194h1q2 0 2 -4v-208zM284 94q15 0 24.5 9.5t14.5 24.5t6.5 34.5t1.5 39.5q0 44 -18.5 70t-51.5 26q-10 0 -20 -2v-122q0 -15 2 -29t6.5 -25.5t13 -18.5t21.5 -7z" />
    <glyph glyph-name="afii10093_afii10072_afii10093" unicode="&#x44b;&#x436;&#x44b;" horiz-adv-x="2384" 
d="M2322 201q0 -40 5.5 -64.5t13.5 -39.5t17.5 -21.5t17 -10.5t11 -6.5t1.5 -9.5q-4 -12 -15.5 -24.5t-28 -23t-36.5 -17t-41 -6.5q-30 0 -56.5 10.5t-47 30t-32 48t-11.5 63.5v194q0 30 -8 44.5t-19.5 14.5t-23.5 -13.5t-19 -38.5q23 -26 37 -59.5t14 -74.5
q0 -48 -19 -88.5t-51.5 -69.5t-76.5 -45t-94 -16q-69 0 -115 21t-73.5 53t-39 70t-11.5 73v109q0 33 -14.5 54t-37 31.5t-50.5 10t-54.5 -11.5t-49 -32.5t-33.5 -52.5q33 3 60 -7.5t44 -32.5q15 -20 25 -46t24 -53t37 -52.5t64 -45.5q12 -6 12.5 -12t-11.5 -21
q-17 -20 -51 -37.5t-76 -17.5q-51 0 -82 17t-48.5 42.5t-25.5 55.5t-13.5 56t-12.5 44.5t-22 20.5v-209q0 -2 -2 -4q-1 -1 -2 -1h-193q-1 0 -2 1q-2 2 -2 4v208q-5 0 -10 -2.5t-7 -8.5q-17 -82 -51 -128.5t-77 -70t-91.5 -29.5t-94.5 -6q-66 0 -109 11.5t-69 33t-38 53
t-16.5 71t-3.5 86.5t1 101q0 29 -8 43t-19.5 14.5t-23.5 -12.5t-19 -38q23 -26 32 -59.5t9 -74.5q0 -48 -17.5 -88.5t-48 -69.5t-73 -45t-92.5 -16q-69 0 -115 21t-73.5 53t-39 70t-11.5 73v303q0 2 2 4q1 1 2 1h193q1 0 2 -1q2 -2 2 -5v-110q18 3 38.5 5t41.5 2
q56 0 104 -28q14 43 35.5 73t45.5 48.5t49 26.5t48 8q28 0 53.5 -11.5t44.5 -33.5t30 -52.5t11 -67.5q0 -26 -1.5 -58t-2 -65t1 -64t7.5 -55t17.5 -38.5t30.5 -14.5q24 0 38.5 19t25.5 47t21.5 60.5t27 59t41.5 42.5t66 12q-3 14 -7.5 29t-11 28t-16.5 21t-23 8
q-14 0 -20 -7t-8 -17t-1 -19.5t1 -15.5q0 -11 -16 -17t-34 -6q-48 0 -78.5 27.5t-30.5 78.5q0 50 34.5 81t89.5 31q50 0 86.5 -24t61 -59t38 -75.5t17.5 -74.5l8 -3v210q0 1 2 3q1 0 2 1h194h1q2 0 2 -4v-208l8 3q0 10 4 30.5t13.5 45.5t27 52t45.5 50t68.5 39.5t95.5 20.5
q47 4 90.5 -0.5t77.5 -20.5t55 -45.5t23 -75.5q19 2 43.5 3.5t44.5 1.5q56 0 104 -28q14 43 35.5 73t45.5 48.5t49 26.5t48 8q28 0 53 -11.5t44 -33.5t30 -52.5t11 -67.5v-156zM1865 94q15 0 24.5 9.5t14.5 24.5t6.5 34.5t1.5 39.5q0 44 -18.5 70t-51.5 26q-10 0 -20 -2
v-122q0 -15 2 -29t6.5 -25.5t13 -18.5t21.5 -7zM284 94q15 0 24.5 9.5t14.5 24.5t6.5 34.5t1.5 39.5q0 44 -18.5 70t-51.5 26q-10 0 -20 -2v-122q0 -15 2 -29t6.5 -25.5t13 -18.5t21.5 -7z" />
    <glyph glyph-name="uni0410_afii10077" unicode="&#x410;&#x43b;" horiz-adv-x="1216" 
d="M1185 6q0 -2 -2 -4q-1 -1 -2 -1h-193q-1 0 -2 1q-2 2 -2 4v405h-71q-4 -63 -5.5 -128t-18.5 -132q-15 -60 -51 -99t-82.5 -59t-98.5 -21.5t-99 14t-84 47t-53 78.5h-175q-5 -24 -9 -43.5t-7 -33.5q-4 -17 -6 -29q-1 -2 -2 -2.5t-2 -1.5q-2 -1 -3 -1h-209q-1 0 -2 1
q-2 2 0 4q48 150 86 269q16 51 31.5 99t27.5 86t19.5 61.5l7.5 23.5q15 39 15 61t-5.5 34.5t-11.5 19t-3 15.5q5 15 19.5 27.5t35 21.5t43.5 14.5t45 5.5q27 0 54 -9t51.5 -28.5t45 -49t35.5 -70.5q5 -14 12.5 -41t16.5 -62.5t19 -76.5t20.5 -82.5t20.5 -80t19 -68.5
q18 -62 33 -82t27.5 -10t22.5 43.5t18 78.5t13.5 95t9 92.5t5.5 72t2 33.5q0 5 4 5q101 23 208.5 23.5t228.5 -23.5q3 -3 3 -4v-493zM391 246l-59 290q-7 -27 -14 -63t-14.5 -75t-15 -78.5t-14.5 -73.5h117z" />
    <glyph glyph-name="uni0410_afii10078" unicode="&#x410;&#x43c;" horiz-adv-x="1402" 
d="M1366 499q0 -5 0.5 -28.5t1 -59t1 -79.5t1.5 -89q2 -106 4 -238q0 -2 -2 -4q-1 -1 -2 -1h-194q-1 0 -2 1q-2 2 -2 4v57q0 26 0.5 61t0.5 73l10 108l-127 -295q-2 -5 -4 -6.5t-9 -1.5h-25q-8 0 -12 8l-99 251q-4 -36 -8.5 -60t-9.5 -50q-11 -58 -45.5 -97t-81 -59.5
t-99.5 -23t-101.5 12.5t-86.5 47t-54 81h-175q-5 -24 -9 -43.5t-7 -33.5q-4 -17 -6 -29q-1 -2 -2 -2.5t-2 -1.5q-2 -1 -3 -1h-209q-1 0 -2 1q-2 2 0 4q48 150 86 269q16 51 31.5 99t27.5 86t19.5 61.5l7.5 23.5q15 39 15 61t-5.5 34.5t-11.5 19t-3 15.5q5 15 19.5 27.5
t35 21.5t43.5 14.5t45 5.5q27 0 54 -9t51.5 -28.5t45 -49t35.5 -70.5q7 -20 20 -70t28 -111t30.5 -123t29.5 -107q17 -58 31.5 -78.5t26.5 -13t21.5 37t16.5 70.5t12 88.5t8 91t4 78t1 49.5q0 2 2 4q1 1 2 1h203q2 0 4 -2q1 -1 1 -2l90 -187h3l98 188l1 1q2 2 4 2h224
q0 -1 1 -1q2 -2 2 -3zM391 246l-59 290q-7 -27 -14 -63t-14.5 -75t-15 -78.5t-14.5 -73.5h117z" />
    <glyph glyph-name="uni041A_afii10077" unicode="&#x41a;&#x43b;" horiz-adv-x="1165" 
d="M1137 6q0 -2 -2 -4q-1 -1 -2 -1h-193q-1 0 -2 1q-2 2 -2 4v405h-71q1 -33 -0.5 -69.5t-4.5 -72t-7.5 -66.5t-10.5 -52q-15 -53 -43 -88t-62 -55t-69 -28t-65 -8q-75 0 -127 23t-86 67t-52.5 107t-25.5 144q-6 2 -18 1t-18 -5l7 -304q0 -2 -1 -2.5t-2 -1.5t-2 -1h-215
q-1 0 -2 1q-3 2 -2 4v206v147v97.5v57.5v27.5v7.5q-4 45 -15.5 65t-23.5 28.5t-19.5 11.5t-4.5 13q4 12 18 25t33 23.5t41.5 17.5t44.5 7q29 0 56 -9t47.5 -28.5t32.5 -49.5t12 -73l-5 -160q5 3 15 4t15 3q-1 57 12.5 110.5t41 96.5t68.5 71t97 35q33 4 62 -3t50 -24
t31.5 -42t6.5 -57q-5 -36 -20.5 -57.5t-37 -32.5t-45 -13t-43.5 0t-33 7t-13 8v16t-2 17t-8 13t-19 5q-15 0 -27 -11.5t-19.5 -30.5t-11 -44.5t-3.5 -53.5q32 3 55.5 -11t41 -39.5t29.5 -59t22 -68.5t18.5 -68.5t18 -58.5t21 -39.5t27.5 -10.5q8 2 15.5 21t13.5 49t11.5 67
t9.5 76q10 91 17 204q0 5 4 5q101 23 208.5 23.5t228.5 -23.5q3 0 3 -4v-493z" />
    <glyph glyph-name="uni0416_afii10077" unicode="&#x416;&#x43b;" horiz-adv-x="1497" 
d="M1470 6q0 -2 -2 -4q-1 -1 -2 -1h-193q-1 0 -2 1q-2 2 -2 4v405h-71q1 -33 -0.5 -69.5t-4.5 -72t-7.5 -66.5t-10.5 -52q-15 -53 -43 -88t-62 -55t-69 -28t-65 -8q-75 0 -127 23t-86 67t-52 107t-25 144q-5 1 -13.5 1t-15.5 -2v-3l6 -304q0 -2 -1 -2.5t-2 -1.5t-2 -1h-213
q-1 0 -2 1q-3 2 -2 4l5 304q-6 4 -13.5 5t-13.5 -1q-6 -65 -22.5 -128t-49 -111t-81.5 -75t-119 -19q-36 4 -59.5 23.5t-36 41t-15 40t3.5 20.5q29 9 58.5 37t54.5 61.5t44 65.5t27 49q24 51 52.5 80t63.5 34q0 28 -6.5 55.5t-18 49t-26 34.5t-29.5 12q-14 -1 -20.5 -7
t-9 -15t-2 -19t0.5 -17q0 -3 -13 -8t-33 -7t-43.5 0t-45 13t-37.5 32.5t-20 57.5q-4 32 7.5 57t34 41.5t53 23.5t63.5 4q55 -6 97 -36t70.5 -75t43.5 -99t17 -107q5 -2 11.5 -3t11.5 -4l-5 294q0 2 2 4q1 1 3 1h213q1 0 2 -1q2 -2 2 -4l-6 -288q6 2 12.5 2.5t10.5 2.5
q-1 57 12.5 110.5t40.5 96.5t68 71t97 35q33 4 62 -3t50 -24t31.5 -42t6.5 -57q-5 -36 -20.5 -57.5t-37 -32.5t-45 -13t-43.5 0t-33 7t-13 8v16t-2.5 17t-8.5 13t-19 5q-15 0 -27 -11.5t-20 -30.5t-11.5 -44.5t-3.5 -53.5q42 4 70.5 -22t47.5 -67t31.5 -89.5t24.5 -89
t26 -66.5t35 -21q8 2 15.5 21t13.5 49t11.5 67t9.5 76q10 91 17 204q0 5 4 5q101 23 208.5 23.5t228.5 -23.5q3 0 3 -4v-493z" />
    <glyph glyph-name="uni0416_afii10078" unicode="&#x416;&#x43c;" horiz-adv-x="1695" 
d="M1663 499q0 -5 0.5 -28.5t1 -59t1 -79.5t1.5 -89q2 -106 4 -238q0 -2 -2 -4q-1 -1 -2 -1h-194q-1 0 -2 1q-2 2 -2 4v57q0 26 0.5 61t0.5 73l10 108l-127 -295q-2 -5 -4 -6.5t-9 -1.5h-25q-8 0 -12 8l-104 258q-3 -33 -5.5 -64.5t-7.5 -51.5q-15 -53 -45 -88t-65.5 -55
t-72.5 -28t-67 -8q-75 0 -127 23t-86 67t-52 107t-25 144q-5 1 -13.5 1t-15.5 -2v-3l6 -304q0 -2 -1 -2.5t-2 -1.5t-2 -1h-213q-1 0 -2 1q-3 2 -2 4l5 304q-6 4 -13.5 5t-13.5 -1q-6 -65 -22.5 -128t-49 -111t-81.5 -75t-119 -19q-36 4 -59.5 23.5t-36 41t-15 40t3.5 20.5
q29 9 58.5 37t55 61.5t45 65.5t27.5 49q24 51 51 80t62 34q0 28 -6.5 55.5t-17.5 49t-25.5 34.5t-29.5 12q-13 -1 -19.5 -7t-9 -15t-2.5 -19v-17q0 -3 -13 -8t-33 -7t-43.5 0t-45 13t-37.5 32.5t-20 57.5q-4 32 7.5 57t34 41.5t53 24t63.5 3.5q60 -7 102.5 -37.5t70 -75
t40.5 -98t15 -106.5q5 -2 11.5 -3t11.5 -4l-5 294q0 2 2 4q1 1 3 1h213q1 0 2 -1q2 -2 2 -4l-6 -288q6 2 12.5 2.5t10.5 2.5q-1 57 12.5 110.5t40.5 96.5t68 71t97 35q33 4 62 -3t50 -24t31.5 -42t6.5 -57q-5 -36 -20.5 -57.5t-37 -32.5t-45 -13t-43.5 0t-33 7t-13 8v16
t-2.5 17t-8.5 13t-19 5q-15 0 -26.5 -11.5t-19 -30.5t-11 -44.5t-3.5 -53.5q32 3 55.5 -11t41 -39.5t29.5 -59t22 -68.5t18.5 -68.5t18 -58.5t21 -39.5t27.5 -10.5q8 2 16.5 26t16 61.5t13.5 83.5t10 91.5t5.5 86.5t0.5 68q0 2 2 4q1 1 2 1h210q2 0 4 -2q1 -1 1 -2l90 -187
h3l98 188l1 1q2 2 4 2h224q0 -1 1 -1q2 -2 2 -3z" />
    <glyph glyph-name="afii10084_afii10103" unicode="&#x442;&#x456;" horiz-adv-x="701" 
d="M674 6q0 -3 -2 -5q-1 -1 -2 -1h-201q-1 0 -2 1q-2 2 -2 4q2 58 4 112q2 46 2.5 94t1.5 78q-5 61 -39.5 86.5t-94.5 4.5v-177q0 -40 5 -64.5t12.5 -39.5t15.5 -21.5t14.5 -10.5t10 -6.5t1.5 -9.5q-4 -12 -15.5 -24.5t-27.5 -23t-35.5 -17t-40.5 -6.5q-30 0 -55.5 10.5
t-44 30t-29 48t-10.5 63.5v244l-130 1q-1 -1 -2 0q-1 0 -1 4l-2 112v7q0 2 2 4q74 14 154 18.5t152 3t128 -7t82 -10.5q30 -6 57 -17.5t48 -30.5t33.5 -45t12.5 -62v-347zM666 645q0 -20 -9.5 -36.5t-25 -29.5t-37 -20t-45.5 -7t-45 7t-37 20t-25 29.5t-9 36.5q0 19 9 36
t25 29.5t37 20t45 7.5t45.5 -7.5t37 -20t25 -29.5t9.5 -36z" />
    <glyph glyph-name="afii10103_afii10104" unicode="&#x456;&#x457;" horiz-adv-x="581" 
d="M549 6q0 -2 -3 -5q-1 -1 -2 -1h-200q-1 0 -2 1q-2 2 -2 4q1 65 3 123q1 25 1.5 50t1 48.5t1 43t0.5 32.5q0 60 -10.5 87t-22.5 38.5t-20.5 14t-4.5 12.5q4 12 15 24.5t27.5 23t36.5 17t41 6.5q61 0 100.5 -40.5t39.5 -111.5v-367zM403 644q0 -18 -8 -33.5t-21.5 -27.5
t-31.5 -18.5t-39 -6.5q-20 0 -38 6.5t-31.5 18.5t-21.5 27.5t-8 33.5t8 33.5t21.5 27.5t31.5 18.5t38 6.5q21 0 39 -6.5t31.5 -18.5t21.5 -27.5t8 -33.5zM630 643q0 -35 -27.5 -58.5t-66.5 -23.5t-66.5 23.5t-27.5 58.5t27.5 58.5t66.5 23.5t66.5 -23.5t27.5 -58.5zM260 6
q0 -3 -2 -5q-1 -1 -2 -1h-200q-2 0 -3 1q-2 2 -2 4q2 65 4 123q1 25 1.5 50t1 48.5t1 43t0.5 32.5q0 40 -5 64.5t-12.5 39.5t-15.5 21.5t-14.5 10.5t-10 6.5t-1.5 9.5q4 12 15.5 24.5t28 23t36.5 17t41 6.5q61 0 100 -40.5t39 -111.5v-367zM176 645q0 -20 -9.5 -36.5
t-25 -29.5t-37 -20t-45.5 -7t-45 7t-37 20t-25 29.5t-9 36.5q0 19 9 36t25 29.5t37 20t45 7.5t45.5 -7.5t37 -20t25 -29.5t9.5 -36z" />
    <glyph glyph-name="uni0422_afii10103" unicode="&#x422;&#x456;" horiz-adv-x="792" 
d="M762 6q0 -3 -2 -5q-1 -1 -2 -1h-200q-2 0 -3 1q-2 2 -2 4q2 59 4 113q1 23 1.5 46.5t1 45t1 40.5t0.5 32q0 40 -5 64.5t-12.5 39.5t-15.5 21.5t-14.5 10.5t-10 6.5t-1.5 9.5q4 12 15.5 24.5t28 23t36.5 17t41 6.5q61 0 100 -40.5t39 -111.5v-347zM773 719q9 -41 5 -77
q-4 -31 -21.5 -60.5t-61.5 -42.5q-9 -3 -25.5 -4t-37.5 -1.5t-44.5 -0.5t-47.5 1q-55 2 -121 5v-339q2 -56 13.5 -81.5t24 -36t21.5 -13.5t5 -13q-4 -13 -17.5 -26.5t-32.5 -24.5t-41.5 -18t-44.5 -7q-30 0 -57 9.5t-47.5 29.5t-32.5 51t-12 75v408q-48 1 -90 -2.5
t-85 -11.5q-2 -1 -5 2q-1 1 -2 3l-6 19.5t-4.5 46.5t16.5 56.5t55 50.5q36 19 97 21.5t141.5 -2t178 -11t206.5 -5.5q14 0 26.5 0.5t20.5 1.5q10 1 18 2q1 0 3 -1q4 -2 5 -4z" />
    <glyph glyph-name="afii10072_afii10097" unicode="&#x436;&#x44f;" horiz-adv-x="1416" 
d="M1153 418q-26 0 -45.5 -16.5t-19.5 -51.5q0 -65 67 -65h32v131q-8 1 -17 1.5t-17 0.5zM635 303q40 4 65.5 -11.5t42 -42t27.5 -58.5t22 -60l2 -1q13 -42 37.5 -50t55 7t64.5 48.5t65 75.5q-53 13 -88 51t-35 92q0 43 21.5 75.5t57 54t80 32t90.5 10.5q50 0 94 -3.5
t77 -8.5q39 -5 72 -11q1 -1 2 -1q2 -2 2 -3v-494q0 -2 -2 -4q-1 -1 -2 -1h-193q-1 0 -2 1q-2 2 -2 4v190q-11 -3 -14.5 -18t-9.5 -37.5t-17.5 -49t-38.5 -53.5q-30 -29 -91 -49.5t-151 -20.5q-85 0 -137 18.5t-82 46.5t-43 60.5t-20 60t-13.5 45t-23.5 16.5v-208q0 -2 -2 -4
q-1 -1 -2 -1h-193q-1 0 -2 1q-2 2 -2 4v208q-16 -1 -23.5 -19t-14 -44t-15 -56.5t-27 -56.5t-50 -43t-83.5 -17q-42 0 -75.5 17.5t-50.5 37.5q-13 15 -12 21t13 12q41 20 63.5 45.5t37 52.5t24.5 53t25 46q17 22 40.5 33.5t56.5 6.5h1q-3 14 -7.5 29t-11 28t-16.5 21t-23 8
q-14 0 -20 -7t-8 -17t-1 -19.5t1 -15.5q0 -11 -16 -17t-34 -6q-48 0 -78.5 27.5t-30.5 78.5q0 50 34.5 81t89.5 31q50 0 86 -23t60.5 -58t38 -76t18.5 -76l8 -3v210q0 1 2 3q1 0 2 1h194h1q2 0 2 -4v-210l7 3q4 15 10 38t16 49t24.5 52t36 47t50 34t66.5 13q55 0 90 -31
t35 -81q0 -51 -31 -78.5t-79 -27.5q-18 0 -34 6t-16 17q0 6 1 15.5t-1 19.5t-8 17t-20 7t-23.5 -8t-17 -21t-12 -28t-7.5 -29h1z" />
    <glyph glyph-name="afii10084_afii10079" unicode="&#x442;&#x43d;" horiz-adv-x="1027" 
d="M674 315h96v183q0 2 2 4q1 1 3 1h192q1 0 2 -1q2 -2 2 -4v-296q0 -40 5 -64.5t12.5 -39.5t16 -21.5t15 -10.5t9.5 -7t1 -10q-4 -12 -15 -24t-27.5 -21.5t-36.5 -16t-41 -6.5q-61 0 -100.5 39.5t-39.5 110.5v67h-96v-192q0 -3 -2 -5q-1 -1 -2 -1h-201q-1 0 -2 1q-2 2 -2 4
q2 58 4 112q2 46 2.5 94t1.5 78q-5 61 -39.5 86.5t-94.5 4.5v-177q0 -40 5 -64.5t12.5 -39.5t15.5 -21.5t14.5 -10.5t10 -6.5t1.5 -9.5q-4 -12 -15.5 -24.5t-27.5 -23t-35.5 -17t-40.5 -6.5q-30 0 -55.5 10.5t-44 30t-29 48t-10.5 63.5v244l-130 1q-1 -1 -2 0q-1 0 -1 4
l-2 112v7q0 2 2 4q74 14 154 17.5t152 1.5t128 -8t82 -11q30 -6 57 -17t48 -29t33.5 -43.5t12.5 -61.5v-38z" />
    <glyph glyph-name="afii10104_afii10104" unicode="&#x457;&#x457;" horiz-adv-x="578" 
d="M264 6q0 -2 -3 -5q-1 -1 -2 -1h-200q-1 0 -2 1q-2 2 -2 4q1 65 3 123q1 25 1.5 50t1 48.5t1 43t0.5 32.5q0 60 -10.5 87t-22.5 38.5t-20.5 14t-4.5 12.5q4 12 15 24.5t27.5 23t36.5 17t41 6.5q61 0 100.5 -40.5t39.5 -111.5v-367zM150 638q0 -18 -8 -33.5t-21.5 -27.5
t-31.5 -18.5t-39 -6.5q-20 0 -38 6.5t-31.5 18.5t-21.5 27.5t-8 33.5t8 33.5t21.5 27.5t31.5 18.5t38 6.5q21 0 39 -6.5t31.5 -18.5t21.5 -27.5t8 -33.5zM382 638q0 -18 -7.5 -33.5t-21 -27.5t-31.5 -18.5t-39 -6.5t-39 6.5t-31.5 18.5t-21 27.5t-7.5 33.5t7.5 33.5t21 27.5
t31.5 18.5t39 6.5t39 -6.5t31.5 -18.5t21 -27.5t7.5 -33.5zM548 6q0 -2 -3 -5q-1 -1 -2 -1h-200q-1 0 -2 1q-2 2 -2 4q1 65 3 123q1 25 1.5 50t1 48.5t1 43t0.5 32.5q0 60 -10.5 87t-22.5 38.5t-20.5 14t-4.5 12.5q4 12 15 24.5t27.5 23t36.5 17t41 6.5q61 0 100.5 -40.5
t39.5 -111.5v-367zM614 638q0 -18 -7.5 -33.5t-21 -27.5t-31.5 -18.5t-39 -6.5t-39 6.5t-31.5 18.5t-21 27.5t-7.5 33.5t7.5 33.5t21 27.5t31.5 18.5t39 6.5t39 -6.5t31.5 -18.5t21 -27.5t7.5 -33.5z" />
    <glyph glyph-name="quotesingle_afii10104" unicode="&#x27;&#x457;" horiz-adv-x="402" 
d="M371 6q0 -2 -3 -5q-1 -1 -2 -1h-200q-1 0 -2 1q-2 2 -2 4q1 65 3 123q1 25 1.5 50t1 48.5t1 43t0.5 32.5q0 60 -10.5 87t-22.5 38.5t-20.5 14t-4.5 12.5q4 12 15 24.5t27.5 23t36.5 17t41 6.5q61 0 100.5 -40.5t39.5 -111.5v-367zM300 642q0 -18 -7 -33.5t-19.5 -27
t-29 -18t-35.5 -6.5t-35.5 6.5t-29 18t-19.5 27t-7 33.5t7 33.5t19.5 27t29 18t35.5 6.5t35.5 -6.5t29 -18t19.5 -27t7 -33.5zM505 644q0 -35 -26.5 -60t-64.5 -25q-19 0 -35.5 6.5t-28.5 18t-19 27t-7 33.5t7 33.5t19 27t28.5 18t35.5 6.5q38 0 64.5 -25t26.5 -60zM89 652
q0 -37 -12.5 -65t-30 -47.5t-35.5 -31.5t-30 -16q-29 -11 -37.5 -7.5t-8.5 9.5t4.5 11.5t11.5 11.5q27 26 30.5 39t-10.5 18q-26 11 -42 33t-16 51q0 36 25.5 62t62.5 26q18 0 34 -7t28 -19.5t19 -30t7 -37.5z" />
    <glyph glyph-name="afii10093_afii10097" unicode="&#x44b;&#x44f;" horiz-adv-x="1315" 
d="M731 153q1 -51 20 -65t46.5 -1t58.5 46.5t55 77.5q-53 13 -88 51t-35 92q0 43 21.5 75.5t57 54t80 32t90.5 10.5q50 0 94 -3.5t77 -8.5q39 -5 72 -11q1 -1 2 -1q2 -2 2 -3v-494q0 -2 -2 -4q-1 -1 -2 -1h-193q-1 0 -2 1q-2 2 -2 4v190q-11 -3 -14.5 -18t-9.5 -37.5
t-17.5 -49t-38.5 -53.5q-15 -15 -39 -27.5t-54 -22t-64.5 -14.5t-69.5 -5q-47 0 -92 9.5t-79.5 34.5t-55.5 69.5t-20 116.5v126q0 30 -8 44.5t-19.5 14.5t-23.5 -13.5t-19 -38.5q23 -26 37 -59.5t14 -74.5q0 -48 -19 -88.5t-51.5 -69.5t-76.5 -45t-94 -16q-69 0 -115 21
t-73.5 53t-39 70t-11.5 73v303q0 2 2 4q1 1 2 1h193q1 0 2 -1q2 -2 2 -5v-110q18 3 38.5 5t41.5 2q56 0 104 -28q14 43 35.5 73t45.5 48.5t49 26.5t48 8q28 0 53 -11.5t43.5 -33t30 -52t11.5 -67.5v-205zM274 94q15 0 24.5 9.5t14.5 24.5t6.5 34.5t1.5 39.5q0 44 -18.5 70
t-51.5 26q-10 0 -20 -2v-122q0 -15 2 -29t6.5 -25.5t13 -18.5t21.5 -7zM1048 418q-26 0 -45.5 -16.5t-19.5 -51.5q0 -65 67 -65h32v131q-8 1 -17 1.5t-17 0.5z" />
    <glyph glyph-name="afii10093_afii10077" unicode="&#x44b;&#x43b;" horiz-adv-x="1343" 
d="M1314 6q0 -2 -2 -4q-1 -1 -2 -1h-193q-1 0 -2 1q-2 2 -2 4v405h-71q4 -100 -8 -171t-34.5 -118.5t-52.5 -75t-62 -42t-62.5 -19.5t-54.5 -6q-35 -3 -71 1t-67 17t-54.5 37.5t-35.5 62.5q-6 19 -8 45t-2.5 56t-0.5 62t-1 65q-1 30 -9.5 44.5t-19.5 14.5t-22.5 -13.5
t-18.5 -38.5q23 -26 37 -59.5t14 -74.5q0 -48 -19 -88.5t-51.5 -69.5t-76.5 -45t-94 -16q-69 0 -115 21t-73.5 53t-39 70t-11.5 73v303q0 2 2 4q1 1 2 1h193q1 0 2 -1q2 -2 2 -5v-110q18 3 38.5 5t41.5 2q56 0 104 -28q14 43 35.5 73t45.5 48.5t49 26.5t48 8q28 0 53 -11.5
t44 -33.5t30 -52.5t11 -67.5v-45.5v-61.5t0.5 -61.5t0.5 -45.5q0 -42 12 -59t29 -8.5t35.5 41t32.5 89.5q11 44 16.5 94.5t8.5 94.5q4 51 5 102q0 5 4 5q101 23 208.5 23.5t228.5 -23.5q3 0 3 -4v-493zM320 203q0 44 -18.5 70t-51.5 26q-10 0 -20 -2v-122q0 -15 2 -29
t6.5 -25.5t13 -18.5t21.5 -7q15 0 24.5 9.5t14.5 24.5t6.5 34.5t1.5 39.5z" />
    <glyph glyph-name="afii10093_afii10078" unicode="&#x44b;&#x43c;" horiz-adv-x="1520" 
d="M320 203q0 44 -18.5 70t-51.5 26q-10 0 -20 -2v-122q0 -15 2 -29t6.5 -25.5t13 -18.5t21.5 -7q15 0 24.5 9.5t14.5 24.5t6.5 34.5t1.5 39.5zM1490 499q0 -5 0.5 -28.5t1 -59t1 -79.5t1.5 -89q2 -106 4 -238q0 -2 -2 -4q-1 -1 -2 -1h-194q-1 0 -2 1q-2 2 -2 4v57
q0 26 0.5 61t0.5 73l10 108l-127 -295q-2 -5 -4 -6.5t-9 -1.5h-25q-8 0 -12 8l-100 254q-10 -80 -31 -133t-53 -85.5t-76.5 -47t-101.5 -18.5q-35 -3 -71 1t-67 17t-54.5 37.5t-35.5 62.5q-6 19 -8 45t-2.5 56t-0.5 62t-1 65q-1 30 -9.5 44.5t-19.5 14.5t-22.5 -13.5
t-18.5 -38.5q23 -26 37 -59.5t14 -74.5q0 -48 -19 -88.5t-51.5 -69.5t-76.5 -45t-94 -16q-69 0 -115 21t-73.5 53t-39 70t-11.5 73v303q0 2 2 4q1 1 2 1h193q1 0 2 -1q2 -2 2 -5v-110q18 3 38.5 5t41.5 2q56 0 104 -28q14 43 35.5 73t45.5 48.5t49 26.5t48 8q28 0 53 -11.5
t44 -33.5t30 -52.5t11 -67.5v-45.5v-61.5t0.5 -61.5t0.5 -45.5q0 -32 8 -49.5t19.5 -20.5t25 8.5t24.5 38.5q11 28 19 67t13 82t7.5 85t3.5 74.5t1 52t0 16.5q0 2 2 4q1 1 2 1h206q2 0 4 -2q1 -1 1 -2l90 -187h3l98 188l1 1q2 2 4 2h224q0 -1 1 -1q2 -2 2 -3z" />
    <glyph glyph-name="f_r" unicode="fr" horiz-adv-x="785" 
d="M682 524q48 0 79.5 -29t31.5 -83q0 -31 -10 -55t-27 -40.5t-40 -25t-48 -8.5q-18 0 -33 7.5t-17 12.5q-5 7 -3.5 14t1.5 22q0 44 -21 44q-11 0 -17.5 -9t-10.5 -24.5t-5 -36t-1 -43.5q0 -43 0.5 -89.5t1.5 -85.5q1 -46 2 -90q0 -2 -2 -4q-1 -1 -2 -1h-201q-1 0 -2 1
q-2 2 -2 4q1 24 1 65v93t1 144q0 33 -5.5 53t-16.5 31t-29 15t-42 4l-1 -1v-403q0 -3 -2 -5q-1 -1 -2 -1h-193q-1 0 -2 1q-2 2 -2 4v404h-56q-1 0 -2 1q-2 2 -2 4v85q0 1 2 3q1 0 2 1h57q-9 68 8 114t50 74t76 40t86 12q45 0 79.5 -11t58 -29t36 -40.5t12.5 -46.5
q1 -36 -25 -62t-67 -26q-26 0 -47.5 6t-24.5 11q-4 7 1.5 18.5t5.5 37.5q0 9 -1.5 19.5t-6 19.5t-12 15t-18.5 6q-29 0 -37.5 -20t-5.5 -46.5t12.5 -53t14.5 -38.5l148 1q54 0 88.5 -22.5t52.5 -64.5h1q5 26 19.5 46t33.5 33.5t40.5 20.5t39.5 7z" />
    <glyph glyph-name=".notdef" horiz-adv-x="249" 
 />
    <glyph glyph-name=".null" horiz-adv-x="0" 
 />
    <glyph glyph-name="nonmarkingreturn" horiz-adv-x="249" 
 />
    <glyph glyph-name="space" unicode=" " horiz-adv-x="249" 
 />
    <glyph glyph-name="space" unicode="&#xa0;" horiz-adv-x="249" 
 />
    <glyph glyph-name="exclam" unicode="!" horiz-adv-x="266" 
d="M244 80q0 -42 -28.5 -70.5t-69.5 -28.5t-69.5 28.5t-28.5 70.5q0 41 28.5 69.5t69.5 28.5t69.5 -28.5t28.5 -69.5zM256 598q0 -32 -3 -72.5t-8.5 -82.5t-15 -82t-22 -71.5t-29 -51t-36.5 -19.5q-18 0 -31 17t-22.5 44.5t-16 61.5t-10 68.5t-5.5 65.5t-2 52
q-2 59 -12.5 86.5t-22 38.5t-19.5 14t-5 13q4 12 15.5 24.5t28 23t36.5 17t41 6.5q61 0 100 -40.5t39 -112.5z" />
    <glyph glyph-name="quotedbl" unicode="&#x22;" horiz-adv-x="395" 
d="M191 637q0 -37 -9 -74t-22.5 -67t-28.5 -49t-28 -19t-28 19t-28.5 49t-22.5 67.5t-9 73.5q0 57 27.5 85.5t60.5 28.5t60.5 -28.5t27.5 -85.5zM380 637q0 -37 -9 -74t-22.5 -67t-28.5 -49t-28 -19t-28 19t-28.5 49t-22.5 67.5t-9 73.5q0 57 27.5 85.5t60.5 28.5
t60.5 -28.5t27.5 -85.5z" />
    <glyph glyph-name="numbersign" unicode="#" horiz-adv-x="590" 
d="M581 375q3 0 3 -2v-2l-21 -65l-2 -2q-2 -2 -5 -2h-128q-8 -24 -16.5 -48.5t-16.5 -49.5h133q3 0 3 -2v-2l-21 -65l-2 -2q-2 -2 -5 -2h-132q-16 -48 -27.5 -82t-15.5 -45q-1 -4 -3 -4h-2h-66h-2q-2 0 0 3q2 8 13.5 43t28.5 85h-46.5t-46.5 1l-27.5 -82.5t-14.5 -45.5
q-1 -4 -3 -4h-2h-67h-1q-3 0 -1 3q3 8 14.5 43.5t28.5 85.5h-122q-3 0 -3 2v2l22 66l1 1q2 2 4 2h122q8 24 16.5 49t16.5 49h-126q-3 0 -3 2v2l22 66q0 1 1 2q2 2 4 2h42.5t84.5 -1q9 26 16.5 48.5t12.5 39.5q6 19 12 35q0 1 3 4q1 1 3 1h65q1 0 2 -1t0 -4q-6 -16 -12 -35
q-5 -17 -12.5 -39.5t-16.5 -48.5h93q9 26 16.5 48.5t13.5 39.5q6 19 12 35q0 1 3 4q1 1 2 1h65q1 0 2 -1t1 -4q-6 -16 -12 -35q-5 -17 -13 -40t-16 -49h128zM322 204q8 25 16.5 49.5t16.5 48.5q-23 1 -47 1h-47q-8 -24 -16 -49t-16 -49h46.5t46.5 -1z" />
    <glyph glyph-name="dollar" unicode="$" horiz-adv-x="500" 
d="M490 141q0 -34 -14 -60t-37 -45t-53 -31.5t-62 -18.5q3 -33 6 -48q2 -9 3 -14q0 -3 -1 -4t-2 -1l-59 -3q-2 0 -3 1q-2 2 -2 4q0 5 1 14q0 7 0.5 18t0.5 26q-8 -1 -15 -1h-14h-16v-26.5t1 -17.5q0 -8 1 -13q0 -2 -2 -4q-1 -1 -2 -1l-59 3q-1 0 -2 1q-3 2 -2 4q1 7 2 17
q1 8 2 19t3 24q-29 5 -56.5 14.5t-49.5 24.5t-35.5 36t-13.5 49q0 37 26 64t68 27q25 0 47.5 -5.5t25.5 -11.5q5 -7 3.5 -17t-1.5 -24q0 -30 16.5 -45.5t41.5 -15.5q27 0 39 12.5t13 32.5q-1 18 -12.5 30t-30.5 20.5t-43.5 16t-51.5 16.5q-25 9 -49 22.5t-42.5 32t-30 42
t-11.5 53.5v3q0 30 12.5 55t33 44.5t47.5 33t56 21.5q-2 17 -3 30t-3 21l-3 15q-1 2 2 5q1 1 2 1l59 3q1 0 2 -1q2 -2 2 -4q-1 -6 -1 -15q-1 -8 -1 -19v-27h14h16t16 -1q-1 17 -1 28t-1 19q-1 9 -1 15q0 2 2 4q1 1 2 1l59 -3q1 0 2 -1q2 -2 2 -4q-2 -8 -3 -19
q-2 -9 -2.5 -21.5t-2.5 -26.5q29 -6 55 -16.5t45 -25.5t30 -35t11 -44q1 -36 -23.5 -61.5t-70.5 -25.5q-25 0 -46 6.5t-24 11.5q-4 6 -2.5 16t1.5 25q0 59 -50 57q-23 -1 -34 -17t-11 -30q0 -18 10 -30.5t27 -21.5t39.5 -16t48.5 -14q29 -9 57.5 -21t51 -30t36.5 -43t14 -59
z" />
    <glyph glyph-name="percent" unicode="%" horiz-adv-x="740" 
d="M593 517q1 -1 2 -1l-1 -3q-43 -82 -73.5 -140.5t-51 -99t-32 -67t-18 -43.5t-8 -28t-1.5 -22q0 -18 3.5 -32t7.5 -25t6 -19t-1 -13q-26 -24 -55 -33.5t-56 -7t-49.5 16.5t-35 37.5t-13.5 56t16 71.5l137 277h-80q13 -29 13 -60q0 -29 -10 -53.5t-29 -43t-47 -29
t-64 -10.5q-35 0 -62.5 10.5t-47 29t-29.5 43t-10 53.5q0 28 10.5 53t29.5 44t46.5 29.5t62.5 10.5zM586 255q36 0 64 -10.5t47 -29.5t29 -44t10 -53q0 -29 -10 -53.5t-29 -43t-47 -29t-64 -10.5q-35 0 -62.5 10.5t-47 29t-29.5 43t-10 53.5q0 28 10.5 53t29.5 44t46.5 29.5
t62.5 10.5zM153 321q16 0 22.5 16t6.5 45q0 26 -6.5 43.5t-22.5 17.5q-15 0 -21 -15t-6 -46q0 -29 6 -45t21 -16zM586 57q16 0 22.5 16t6.5 45q0 26 -6.5 43.5t-22.5 17.5q-15 0 -21 -15t-6 -46q0 -29 6 -45t21 -16z" />
    <glyph glyph-name="ampersand" unicode="&#x26;" 
d="M604 90q12 0 14.5 -8t-2.5 -18q-20 -41 -56 -66t-89 -25q-27 0 -47.5 7t-35.5 18.5t-25 26.5t-16 31q-22 -31 -56.5 -50.5t-72.5 -26.5t-76 -2t-68.5 23.5t-49.5 49.5t-19 76q0 30 9.5 53t26 39.5t38.5 27t48 17.5q-38 11 -65 35t-27 71q0 45 24 75t61 48t81 25t84 7
q31 0 70 -5.5t73 -20t57 -38.5t23 -61q0 -18 -8.5 -32t-22.5 -23t-33 -13.5t-39 -4.5q-24 0 -45.5 6t-25.5 11q-4 7 -2.5 9t1.5 17q0 30 -15 41.5t-41 11.5q-27 0 -40.5 -17.5t-13.5 -39.5q0 -9 3 -19.5t9.5 -19t17 -14.5t25.5 -6h3h1h331l1 -1q2 -2 2 -4v-91q0 -2 -2 -4
q-1 -1 -2 -1h-105v-4v-25.5t2 -22.5q3 -23 13 -35.5t23.5 -18.5t29 -7.5t29.5 -1.5zM262 86q29 2 49 32.5t16 85.5h-38q-21 0 -35 -7t-23 -17.5t-12.5 -22.5t-3.5 -21q0 -21 10.5 -36.5t36.5 -13.5z" />
    <glyph glyph-name="quotesingle" unicode="'" horiz-adv-x="206" 
d="M191 657q0 -37 -12.5 -65t-30 -47.5t-35.5 -31.5t-30 -16q-29 -11 -37.5 -7.5t-8.5 9.5t4.5 11.5t11.5 11.5q27 26 30.5 39t-10.5 18q-26 11 -42 33t-16 51q0 36 25.5 62t62.5 26q18 0 34 -7t28 -19.5t19 -30t7 -37.5z" />
    <glyph glyph-name="parenleft" unicode="(" horiz-adv-x="216" 
d="M148 273q0 -104 8.5 -184t19.5 -135q12 -64 28 -112q4 -17 -2.5 -19t-19.5 13q-48 48 -86 113q-16 28 -31.5 62.5t-27.5 75.5t-19.5 88t-7.5 101q0 55 7.5 104.5t19.5 91.5t27.5 77.5t31.5 64.5q38 67 86 115q12 14 19.5 13t2.5 -19q-16 -47 -28 -113q-11 -57 -19.5 -141
t-8.5 -196z" />
    <glyph glyph-name="parenright" unicode=")" horiz-adv-x="236" 
d="M78 273q0 112 -8.5 196t-19.5 141q-12 66 -28 113q-5 18 2.5 19t19.5 -13q48 -48 86 -115q16 -29 31.5 -64.5t27.5 -77.5t19.5 -91.5t7.5 -104.5q0 -54 -7.5 -100.5t-19.5 -87t-27.5 -74t-31.5 -60.5q-38 -63 -86 -108q-13 -15 -19.5 -13t-2.5 19q16 45 28 107
q11 54 19.5 132t8.5 182z" />
    <glyph glyph-name="asterisk" unicode="*" horiz-adv-x="358" 
d="M272 655q30 10 49 0.5t24.5 -26.5t-4.5 -36t-39 -29q-32 -10 -63 -8q12 -9 24 -20t22 -24q18 -25 15 -46.5t-17.5 -32t-36 -6.5t-39.5 29q-10 14 -16.5 29t-11.5 31q-9 -32 -28 -60q-18 -25 -39.5 -29t-36 6.5t-17.5 32t15 46.5q19 25 46 44q-31 -2 -63 8q-29 10 -39 29
t-4.5 36t24.5 26.5t49 -0.5q16 -5 30.5 -13.5t27.5 -18.5q-5 15 -9 32t-4 34q0 31 15 46.5t33 15.5t33 -15.5t15 -46.5q0 -17 -3.5 -33.5t-8.5 -31.5q25 20 57 31z" />
    <glyph glyph-name="plus" unicode="+" horiz-adv-x="467" 
d="M439 301q2 0 4 -2q1 -1 1 -2v-86q-1 -1 -1 -2q-1 -1 -3 -1q-27 0 -69 -0.5t-90 0.5v-158q0 -2 -2 -4l-1 -1h-89q-1 -1 -2 0q-2 0 -2 4v159h-157q-2 0 -4 2q-1 1 -1 2v84q0 1 1 2t1.5 2t2.5 1h157q0 32 0.5 60.5t0.5 50.5v46q0 2 2 4q1 1 2 1h87q1 0 2 -1q2 -2 2 -4v-157
h158v0z" />
    <glyph glyph-name="comma" unicode="," horiz-adv-x="226" 
d="M211 74q0 -41 -14 -72.5t-33.5 -53.5t-39.5 -35.5t-33 -17.5q-33 -11 -42 -8t-9 11q0 10 17 25q30 29 34 44t-11 20q-29 11 -47 36t-18 57q0 41 28.5 69.5t69.5 28.5q20 0 37.5 -8t31 -21.5t21.5 -33t8 -41.5z" />
    <glyph glyph-name="hyphen" unicode="-" horiz-adv-x="368" 
d="M337 209q-1 -1 -1 -2q-1 -1 -3 -1q-41 -1 -92.5 -0.5t-97.5 0.5h-108q-2 0 -4 2q-1 1 -1 2v86q0 1 1 2q3 3 5 3h297q4 0 4 -2v-2v-88z" />
    <glyph glyph-name="period" unicode="." horiz-adv-x="226" 
d="M211 80q0 -41 -28.5 -69.5t-69.5 -28.5t-69.5 28.5t-28.5 69.5t28.5 69.5t69.5 28.5t69.5 -28.5t28.5 -69.5z" />
    <glyph glyph-name="slash" unicode="/" horiz-adv-x="407" 
d="M95 -171q-1 -4 -4 -4h-2h-85h-2q-2 0 -1 4q2 6 16.5 48t36 105.5t48.5 143t55 161.5q65 192 147 432q0 1 3 4q1 1 3 1h84q1 0 2 -1t0 -4q-81 -236 -145 -426q-27 -81 -54 -160t-48.5 -143.5l-36 -108z" />
    <glyph glyph-name="zero" unicode="0" horiz-adv-x="549" 
d="M534 278q0 -56 -16 -110t-48.5 -96.5t-81.5 -68.5t-116 -26q-65 0 -113.5 26t-81 68.5t-49 96.5t-16.5 110t16.5 110t49 96t81 68t113.5 26q64 0 113 -26t82 -68t50 -96t17 -110zM208 278q0 -31 2 -65.5t9 -63.5t19.5 -48t33.5 -19q23 0 36 18.5t20 47t8.5 63t1.5 67.5
q0 32 -2 67t-9 63.5t-20 47t-35 18.5q-21 0 -34 -18.5t-19.5 -47t-8.5 -63t-2 -67.5z" />
    <glyph glyph-name="one" unicode="1" horiz-adv-x="274" 
d="M242 579q2 -2 2 -4v-570q0 -2 -2 -4q-1 -1 -2 -1h-193q-1 0 -2 1q-2 2 -2 4v400q0 34 -5 53.5t-11.5 30t-12.5 15.5t-7 9q-7 14 23 20q1 0 11 2.5t25.5 5.5t34 7t38.5 9q46 10 102 23z" />
    <glyph glyph-name="two" unicode="2" horiz-adv-x="495" 
d="M473 4v-2q0 -2 -4 -2h-439q-2 0 -4 2q-1 1 -1 2v146v2l3 2q22 9 49.5 26.5t56.5 40.5t56.5 49.5t49 53t34.5 51t13 43.5q0 22 -10.5 40t-38.5 18q-25 0 -42 -16t-17 -46q0 -15 1.5 -25t-2.5 -16t-26 -12t-47 -6q-21 0 -38.5 7.5t-30 20t-19 29t-6.5 34.5q0 38 23.5 63.5
t58 40.5t74.5 21.5t72 6.5q42 0 86 -9t80 -28t59 -49t23 -72q0 -28 -12 -54t-31 -50t-44 -45t-50 -39q-61 -42 -137 -77l-3 -1q77 1 145.5 1h113.5q1 0 3 -2q0 -1 1 -2v-147z" />
    <glyph glyph-name="three" unicode="3" horiz-adv-x="498" 
d="M318 319q30 -5 60.5 -16.5t55 -31t39.5 -47t15 -64.5q0 -52 -23.5 -87t-60 -56.5t-80.5 -30.5t-85 -9q-29 0 -68.5 6t-75 21t-60.5 40t-25 64q0 40 26 66.5t68 26.5q26 0 48 -6.5t26 -12.5q4 -8 2.5 -18.5t-1.5 -27.5q0 -29 15 -42.5t38 -13.5q26 0 43.5 20.5t17.5 48.5
q0 13 -4 29t-15 29.5t-32 22.5t-54 9h-34q-1 0 -2 1q-2 2 -2 4v80q0 4 2 4l138 73h-252q-4 0 -4 2q-1 1 0 2v146q0 1 1 2q2 2 4 2h430q2 0 4 -2l1 -1v-147v-2q0 -2 -2 -2l-153 -81l-1 -1v0z" />
    <glyph glyph-name="four" unicode="4" horiz-adv-x="516" 
d="M502 223q2 0 4 -2q1 -1 1 -2v-142q0 -1 -1 -2q-2 -2 -4 -2h-59v-70q0 -2 -2 -4q-1 -1 -2 -1h-186q-1 0 -2 1q-3 2 -2 4v19q0 9 -0.5 22t-0.5 29h-232q-2 0 -4 2q-1 1 -1 2v135v1q0 1 1 2q63 57 109 115t76.5 106t46 80t17.5 37v1q0 2 2 2h2h174q1 0 2 -1q2 -2 2 -4v-261
v-67h59zM250 349q-4 -6 -13 -19t-22 -30t-28.5 -37t-31.5 -39h95v125z" />
    <glyph glyph-name="five" unicode="5" horiz-adv-x="499" 
d="M156 337q70 13 131 7.5t106 -28.5t70.5 -62.5t25.5 -93.5q0 -52 -23 -87t-58.5 -56.5t-79 -30.5t-84.5 -9q-30 0 -69.5 6t-75 21t-60 40t-24.5 64q0 40 26 66.5t68 26.5q25 0 47.5 -6.5t25.5 -12.5q5 -8 3.5 -18.5t-1.5 -27.5q0 -29 15 -42.5t38 -13.5q25 0 41 20.5
t16 48.5q0 25 -9.5 45.5t-36.5 33t-74.5 16t-122.5 -4.5h-6q-1 0 -2 1q-2 2 -2 4v48v113v39v107q0 1 1 2q2 2 4 2h417q4 0 4 -2v-1v-147q-1 -1 -1 -2q-2 -2 -3 -2h-307v-64v0z" />
    <glyph glyph-name="six" unicode="6" horiz-adv-x="513" 
d="M211 336q70 20 125 13t92.5 -31.5t56.5 -62.5t19 -79t-12.5 -71.5t-32.5 -52.5t-45.5 -36.5t-50.5 -22.5t-48.5 -11.5t-39.5 -3.5q-63 1 -112 25t-82.5 65.5t-50.5 96.5t-17 117q1 62 19.5 116.5t53 95t83 64t108.5 22.5q46 0 83 -13t63 -32t40 -42t14 -44
q0 -35 -22.5 -60.5t-69.5 -24.5q-25 0 -46 6.5t-23 11.5q-4 7 -2.5 16.5t1.5 23.5q0 23 -8 40t-31 17q-19 0 -31 -11.5t-19.5 -31.5t-11 -46t-3.5 -54zM270 88q17 0 27.5 11.5t16.5 27.5t7.5 31.5t1.5 23.5q-1 19 -7 34.5t-19 25.5t-34 12.5t-52 -4.5q0 -31 2.5 -60.5
t9.5 -52t18.5 -36t28.5 -13.5z" />
    <glyph glyph-name="seven" unicode="7" horiz-adv-x="450" 
d="M443 405v-2q0 -2 -2 -2q-46 -28 -82 -64q-31 -31 -56.5 -74t-26.5 -95q0 -17 2 -34.5t12 -34.5q9 -15 18.5 -22.5t17 -11.5t11.5 -7t2 -10q-4 -12 -15.5 -24.5t-28 -23t-36.5 -17t-41 -6.5q-29 0 -56 10t-47 29t-32 47.5t-12 66.5q0 53 25 97.5t59.5 79t71.5 58.5t60 36
h-279q-2 0 -4 2q-1 1 -1 2v146q0 1 1 2q2 2 4 2h430q2 0 4 -2l1 -1v-147z" />
    <glyph glyph-name="eight" unicode="8" horiz-adv-x="530" 
d="M402 287q46 -14 79.5 -46.5t33.5 -83.5t-21.5 -85.5t-56.5 -55.5t-79 -30t-88 -9h-10q-44 0 -88 9t-79 30t-56.5 55.5t-21.5 85.5t33.5 83.5t79.5 46.5q-45 11 -72 44t-27 81q0 46 19.5 78t51.5 51.5t74 28.5t86 9h10q44 0 85.5 -9.5t74 -29.5t52 -51.5t19.5 -76.5
q0 -48 -27.5 -81t-71.5 -44zM264 89q25 0 40 20.5t15 55.5q0 14 -4 28.5t-11 26t-17.5 18.5t-22.5 7t-22 -7t-17 -18.5t-11 -26t-4 -28.5q0 -35 15 -55.5t39 -20.5zM264 327q12 0 22 7t17 17.5t11 24t4 26.5q0 31 -14.5 51.5t-39.5 20.5q-24 0 -39 -21t-15 -51
q0 -13 4 -26.5t11 -24t17 -17.5t22 -7z" />
    <glyph glyph-name="nine" unicode="9" horiz-adv-x="510" 
d="M236 578q63 0 111.5 -23.5t81.5 -65t49.5 -96.5t16.5 -118q0 -70 -17.5 -125.5t-51 -93.5t-81.5 -58.5t-109 -20.5q-42 0 -78 9.5t-63 26t-43.5 38.5t-17.5 48q-1 18 4.5 35.5t17 32t28.5 23t40 8.5q26 1 47 -5.5t24 -11.5q4 -7 2.5 -17t-1.5 -24q0 -22 9 -41t35 -19
q18 0 29.5 12.5t18 33.5t8.5 47.5t2 54.5q-66 -23 -119 -17.5t-90.5 29.5t-57.5 61.5t-20 79.5q0 41 11 72t29.5 53t42 36t48.5 22t49.5 11t44.5 3zM297 319q3 62 -10 102t-52 39q-17 0 -27.5 -10t-16 -23.5t-7 -27.5t-0.5 -22q1 -19 7.5 -33.5t19.5 -23t34 -9t52 7.5z" />
    <glyph glyph-name="colon" unicode=":" horiz-adv-x="226" 
d="M211 347q0 -41 -28.5 -69.5t-69.5 -28.5t-69.5 28.5t-28.5 69.5t28.5 69.5t69.5 28.5t69.5 -28.5t28.5 -69.5zM211 80q0 -41 -28.5 -69.5t-69.5 -28.5t-69.5 28.5t-28.5 69.5t28.5 69.5t69.5 28.5t69.5 -28.5t28.5 -69.5z" />
    <glyph glyph-name="semicolon" unicode=";" horiz-adv-x="226" 
d="M211 347q0 -41 -28.5 -69.5t-69.5 -28.5t-69.5 28.5t-28.5 69.5t28.5 69.5t69.5 28.5t69.5 -28.5t28.5 -69.5zM211 74q0 -41 -14 -72.5t-33.5 -53.5t-39.5 -35.5t-33 -17.5q-33 -11 -42 -8t-9 11q0 10 17 25q30 29 34 44t-11 20q-29 11 -47 36t-18 57q0 41 28.5 69.5
t69.5 28.5q20 0 37.5 -8t31 -21.5t21.5 -33t8 -41.5z" />
    <glyph glyph-name="equal" unicode="=" horiz-adv-x="500" 
d="M466 284q-1 -1 -1 -2q-1 -1 -3 -1h-49.5h-63.5h-70.5h-71.5h-173q-2 0 -4 2q-1 1 -1 2v86q0 1 1 2q3 3 5 3h427q4 0 4 -2v-2v-88zM466 114q-1 -1 -1 -2q-1 -1 -3 -1h-49.5h-63.5h-70.5h-71.5h-173q-2 0 -4 2q-1 1 -1 2v86q0 1 1 2q3 3 5 3h427q4 0 4 -2v-2v-88z" />
    <glyph glyph-name="question" unicode="?" horiz-adv-x="299" 
d="M243 80q0 -42 -28.5 -70.5t-69.5 -28.5t-69.5 28.5t-28.5 70.5q0 41 28.5 69.5t69.5 28.5t69.5 -28.5t28.5 -69.5zM252 371q-12 -22 -23.5 -48.5t-24.5 -49.5t-28.5 -38.5t-34.5 -15.5q-17 0 -31.5 14.5t-24.5 37.5t-15 50t-2 53q4 37 21 67.5t36 57.5t34.5 51t15.5 50
q0 7 -1 15.5t-5 16t-11 13t-19 5.5t-19 -6t-11 -16t-5.5 -21.5t-1.5 -21.5q0 -14 1.5 -28.5t-2.5 -20.5q-3 -5 -26.5 -11t-48.5 -7q-47 0 -69 24t-21 59q0 26 15.5 52.5t43 47.5t66.5 34t87 13q53 0 93.5 -14.5t67.5 -38t41 -52t14 -56.5q0 -29 -10.5 -53.5t-27 -49
t-36 -51.5t-38.5 -62z" />
    <glyph glyph-name="at" unicode="@" horiz-adv-x="719" 
d="M512 60q-31 0 -52 11t-34.5 25t-20 27t-8.5 18q-17 -34 -45 -56t-64 -22q-33 0 -58 16.5t-42 43t-26 60.5t-9 69q0 36 9 69.5t26 59.5t43 42t60 16q36 0 61.5 -18.5t42.5 -47.5v48q0 2 1 3q1 0 2 1h139h1q2 0 2 -3q-2 -58 -3 -105q0 -20 -0.5 -39t-1 -34.5t-0.5 -25
v-10.5q2 -20 12 -32t27 -12q13 0 24.5 9t20 24t13.5 35.5t5 43.5q0 45 -16 91t-49.5 83.5t-86 61.5t-124.5 24q-65 0 -116.5 -25t-87.5 -65.5t-55.5 -92t-19.5 -105.5q0 -77 27.5 -130.5t68.5 -87t90 -48.5t93 -15q52 0 89 7.5t61 15t36 12.5t14 -1q1 -3 -7.5 -18.5t-31 -33
t-62.5 -31t-102 -13.5q-74 0 -137.5 27t-110.5 74t-73.5 110t-26.5 135t26.5 135t73.5 110t110.5 74t137.5 27t138.5 -23t111.5 -65t74 -102t26 -133q-1 -50 -19 -90t-46 -67.5t-62.5 -42t-68.5 -14.5zM347 158q26 0 39 27.5t13 66.5t-13 66.5t-39 27.5t-39 -27.5t-13 -66.5
t13 -66.5t39 -27.5z" />
    <glyph glyph-name="A" unicode="A" horiz-adv-x="689" 
d="M683 5q1 -2 -1 -4q-1 -1 -2 -1h-226q-2 0 -3 1t-2 1.5t-1 2.5l-25 106h-177q-5 -24 -9 -43.5t-7 -33.5q-4 -17 -6 -29q-1 -2 -2 -2.5t-2 -1.5q-2 -1 -3 -1h-209q-1 0 -2 1q-2 2 0 4q48 150 86 269q16 51 31.5 99t27.5 86t19.5 61.5l7.5 23.5q15 39 15 61t-5.5 34.5
t-11.5 19t-3 15.5q5 15 19.5 27.5t35 21.5t43.5 14.5t45 5.5q27 0 54 -9t51.5 -28.5t45 -49t35.5 -70.5q8 -22 20 -59t26 -82t29.5 -95t30.5 -99q35 -115 75 -246zM391 246l-59 290q-7 -27 -14 -63t-14.5 -75t-15 -78.5t-14.5 -73.5h117z" />
    <glyph glyph-name="B" unicode="B" horiz-adv-x="645" 
d="M502 411q-6 -4 1 -6q33 -12 58 -31.5t41.5 -44t24.5 -52t8 -53.5q0 -66 -26.5 -112.5t-70 -76.5t-100.5 -43.5t-117 -13.5q-84 0 -140 27.5t-89.5 70.5t-47.5 94.5t-14 98.5v431q0 4 2 5t3 1q33 8 74 15q35 6 84 11t110 5q48 0 98 -8t91 -28.5t67 -55.5t26 -88
q0 -26 -7.5 -50t-19.5 -43.5t-27 -33t-29 -19.5zM378 541q0 34 -13.5 53t-33 27.5t-42 8t-40.5 -4.5v-189q35 0 59.5 9t40 23.5t22.5 33.5t7 39zM335 98q42 0 64.5 29t22.5 78q0 34 -14 60t-37.5 41.5t-55 21t-66.5 -1.5v-129q1 -18 5.5 -36t14.5 -32t26 -22.5t40 -8.5z" />
    <glyph glyph-name="C" unicode="C" horiz-adv-x="642" 
d="M623 198q15 13 18 4t-2 -27q-2 -10 -9.5 -28t-21.5 -39.5t-35 -44t-51.5 -41t-71 -30.5t-91.5 -13q-74 -2 -138 29t-111 83.5t-73.5 122.5t-26.5 147q0 75 25.5 142.5t71.5 119.5t110.5 83t142.5 31q59 1 108 -12.5t84.5 -38t55 -58.5t19.5 -74q0 -20 -7 -40t-21.5 -36.5
t-35 -27t-47.5 -10.5q-33 0 -56 10.5t-21 25.5q3 24 1.5 48.5t-10 43.5t-24.5 31t-41 12q-34 0 -59.5 -26t-42 -65t-22.5 -84t-1 -83q8 -64 31 -108.5t55 -71t71 -36.5t79 -5.5t78 21.5t69 45z" />
    <glyph glyph-name="D" unicode="D" horiz-adv-x="657" 
d="M649 356q0 -79 -23 -148t-68.5 -120.5t-113 -81t-155.5 -29.5q-62 0 -109.5 4.5t-79.5 10.5q-38 6 -65 15q-1 0 -3 1t-2 5v686q0 4 2 5t3 1q27 8 65 14q32 5 79.5 9.5t109.5 4.5q82 0 148.5 -29.5t113.5 -80.5t72.5 -119.5t25.5 -147.5zM250 87q46 -2 80 20.5t55.5 61.5
t32 89t10.5 103q0 45 -10 94.5t-31.5 89.5t-55.5 63t-81 16v-537z" />
    <glyph glyph-name="E" unicode="E" horiz-adv-x="541" 
d="M511 171q15 10 21 2t3 -26q-3 -19 -19.5 -48t-47 -56t-76 -46t-106.5 -19q-64 0 -112 23t-80 61t-48 87t-16 101l1 461q0 2 3 4q1 1 3 1h477q1 0 3 -1q4 -2 5 -4q9 -34 5 -65q-4 -27 -21 -55t-60 -45q-28 -11 -61 -12.5t-62 0.5q-34 3 -69 10v-22t-0.5 -32t-0.5 -38.5
v-39.5h165q2 0 3 -1q2 -2 2 -4v-100q0 -2 -1 -2.5t-2 -1.5q-2 -1 -3 -1h-165v-72q1 -32 15.5 -52.5t37.5 -30.5t51.5 -12t57 2.5t54 13.5t43.5 20z" />
    <glyph glyph-name="F" unicode="F" horiz-adv-x="527" 
d="M512 715q1 0 3 -1q4 -2 5 -4q9 -33 5 -64q-4 -26 -20.5 -54.5t-60.5 -46.5q-29 -12 -62 -13.5t-62 0.5q-34 3 -68 11q0 -17 -0.5 -51t-0.5 -75h163q1 0 3 -1q3 -2 3 -5v-106q0 -2 -4 -4q-2 -1 -3 -1h-163v-89q1 -39 7 -64t14.5 -39.5t17.5 -21.5t15.5 -10.5t10 -6.5
t1.5 -10q-5 -14 -18 -28t-31 -26t-40.5 -19.5t-44.5 -7.5q-30 0 -57.5 10t-48.5 31t-33.5 54t-12.5 80v326q0 108 1 231q0 2 2 4q1 1 3 1h476v0z" />
    <glyph glyph-name="G" unicode="G" horiz-adv-x="657" 
d="M522 375q61 0 95.5 -40.5t34.5 -111.5q0 -4 -0.5 -18.5t-1 -35t-2 -44t-4.5 -44.5q0 -8 -6 -12q-10 -7 -31 -22t-54.5 -30t-80.5 -26.5t-108 -11.5q-75 0 -139 30.5t-111 83t-73.5 122t-26.5 147.5q0 75 25.5 143t71.5 120t110.5 83t143.5 31q59 1 108.5 -12.5t85 -38
t55 -58.5t19.5 -74q0 -20 -7 -40.5t-21.5 -37t-35 -27t-47.5 -10.5q-34 0 -57 10.5t-21 25.5q3 24 1.5 48.5t-10 44t-24.5 31.5t-41 12q-34 0 -59 -26t-40.5 -65t-22 -84.5t-3.5 -83.5q1 -14 4 -37t11 -48.5t21 -51t34 -46t51 -33t72 -10.5q6 63 -1 95t-16.5 46.5t-17 19.5
t-3.5 15q4 12 16 24.5t28.5 23t36.5 17t41 6.5z" />
    <glyph glyph-name="H" unicode="H" horiz-adv-x="687" 
d="M656 714q1 0 2 -1q2 -2 2 -4l-1 -704q0 -2 -1 -2.5t-2 -1.5t-2 -1h-207q-1 0 -2 1q-3 2 -2 4l2 288h-176l1 -288q0 -2 -1 -2.5t-2 -1.5t-2 -1h-206q-1 0 -2 1q-3 2 -2 4q0 152 1 273v100.5t0.5 87.5t0.5 62v24q-4 45 -15.5 65t-22.5 28.5t-18.5 11.5t-4.5 12
q4 12 17 25.5t31.5 24t40.5 17.5t44 7q28 0 54 -9t45.5 -28.5t31.5 -50t12 -73.5v-29.5t-0.5 -38.5t-0.5 -40.5v-36.5h174l-2 272q0 2 2 4q1 1 3 1h208v0z" />
    <glyph glyph-name="I" unicode="I" horiz-adv-x="311" 
d="M133 739q29 0 56 -9t47.5 -28.5t32.5 -49.5t12 -73v-574q0 -2 -1 -2.5t-2 -1.5t-2 -1h-213q-1 0 -2 1q-3 2 -2 4v206v147v97.5v57.5v27.5v7.5q-4 45 -15.5 65t-23.5 28.5t-19.5 11.5t-4.5 13q4 12 18 25t33 23.5t41.5 17.5t44.5 7z" />
    <glyph glyph-name="J" unicode="J" horiz-adv-x="468" 
d="M295 739q29 0 55 -9t45.5 -28.5t31 -49.5t11.5 -73v-21t-0.5 -41t-0.5 -80.5v-138.5q0 -86 -16.5 -146.5t-47.5 -98.5t-74.5 -55.5t-98.5 -17.5q-48 0 -84.5 11.5t-61 31t-37 43.5t-12.5 50q0 19 7.5 38t21 34t32 24t40.5 9q14 0 27.5 -2t25 -4.5t19 -5.5t8.5 -6
q4 -8 -1.5 -25t-5.5 -46q0 -11 1 -22t5 -20.5t10.5 -15.5t18.5 -6q43 0 43 61q0 26 -6 46t-12.5 39.5t-12.5 41t-6 50.5v250q-2 40 -13 58.5t-23 26.5t-20.5 11.5t-5.5 13.5q4 12 18 25t33 23.5t41.5 17.5t44.5 7z" />
    <glyph glyph-name="K" unicode="K" horiz-adv-x="692" 
d="M681 105q6 -2 3.5 -20.5t-15 -40t-36 -41t-59.5 -23.5q-53 -6 -93.5 8.5t-70.5 45t-50 75.5t-33 100q-3 10 -5.5 24t-4.5 28.5t-4.5 28t-3.5 23.5q-6 -2 -14 -2.5t-14 -1.5v-304q0 -2 -1 -2.5t-2 -1.5t-2 -1h-213q-1 0 -2 1q-3 2 -2 4v206v147v97.5v57.5v27.5v7.5
q-4 45 -15.5 65t-23.5 28.5t-19.5 11.5t-4.5 13q4 12 18 25t33 23.5t41.5 17.5t44.5 7q29 0 56 -9t47.5 -28.5t32.5 -49.5t12 -73v-163q40 0 68.5 28.5t40.5 69t6 85.5t-35 78q-5 5 3 15.5t24 21t38.5 18t47.5 7.5q31 0 57.5 -12.5t45 -33.5t29 -49t10.5 -59
q0 -77 -39.5 -130t-110.5 -90q0 -2 5.5 -18t16 -40t27 -52.5t40.5 -57t55 -53t71 -39.5z" />
    <glyph glyph-name="L" unicode="L" horiz-adv-x="529" 
d="M527 143q6 -52 -12 -86t-50.5 -53.5t-75 -25t-85.5 0.5q-48 6 -106 13.5t-135 7.5q-1 0 -2 1q-3 2 -2 4v206v147v97.5v57.5v27.5v7.5q-4 45 -15.5 65t-23.5 28.5t-19.5 11.5t-4.5 13q4 12 18 25t33 23.5t41.5 17.5t44.5 7q29 0 56 -9t47.5 -28.5t32.5 -49.5t12 -73v-423
h17q79 0 118 7.5t56 15.5t20 13t10 0q10 -8 16.5 -21.5t8.5 -27.5z" />
    <glyph glyph-name="M" unicode="M" horiz-adv-x="841" 
d="M605 709q1 3 4 4q1 1 3 1h193q2 0 3 -1q2 -2 2 -4l3 -704q0 -2 -1 -2.5t-2 -1.5q-2 -1 -3 -1h-204q-2 0 -3 1q-3 2 -2 4l3 320l19 103q-2 -4 -10 -19t-19.5 -36.5t-25.5 -48t-28 -53.5q-33 -63 -74 -141q-2 -4 -13 -4h-28q-9 0 -10.5 0.5t-3.5 3.5l-164 301l19 -93
l6 -333q0 -2 -1 -2.5t-2 -1.5t-2 -1h-211q-2 0 -3 1q-3 2 -2 4q1 152 3 273q1 51 1.5 100.5t1 87.5t1 62l0.5 24q-2 43 -12.5 63t-22 29t-19.5 12.5t-4 12.5q4 12 19 25.5t36 24t46 17.5t50 7q36 0 62.5 -12.5t48 -33t39.5 -48t35 -57.5q19 -32 37 -66t32 -62q17 -33 31 -63
z" />
    <glyph glyph-name="N" unicode="N" horiz-adv-x="696" 
d="M665 5q0 -2 -2 -4q-1 -1 -3 -1h-184q-1 -1 -2 0q-3 0 -5 5l-212 417l9 -83l9 -334q0 -2 -1 -2.5t-2 -1.5t-2 -1h-214q-2 0 -3 1q-3 2 -2 4q1 152 3 273q0 51 0.5 100.5t1 87.5t1 62l0.5 24q-2 43 -13 63t-22.5 29t-20 12.5t-4.5 12.5q4 12 18.5 25.5t34.5 24t44 17.5
t49 7q30 0 53.5 -10t43 -27t37 -40t35.5 -50q18 -32 38.5 -67t40.5 -72t39 -74t36 -73l-10 96l-5 284q-1 2 1 4q1 1 3 1h208q1 0 2 -1q3 -3 3 -4z" />
    <glyph glyph-name="O" unicode="O" horiz-adv-x="710" 
d="M703 357q0 -77 -24 -145.5t-69 -120.5t-109 -82t-145 -30q-79 0 -143 30t-109 82t-69.5 120.5t-24.5 145.5q0 76 24.5 145t69.5 121.5t109 83t143 30.5t143 -30.5t109.5 -83t70 -121.5t24.5 -145zM236 357q0 -43 8 -90t23.5 -86t38 -64.5t50.5 -25.5q29 0 51.5 25
t38 63.5t23.5 85.5t8 92q0 44 -8 91.5t-24 86.5t-38.5 64.5t-50.5 25.5q-29 0 -51 -25.5t-37.5 -64.5t-23.5 -86.5t-8 -91.5z" />
    <glyph glyph-name="P" unicode="P" horiz-adv-x="588" 
d="M27 699q0 2 2 4q1 1 3 1q34 10 75 17q35 6 83 10.5t105 2.5q58 -2 110 -17.5t91 -44t62 -70.5t23 -97q0 -40 -14.5 -85t-52 -82.5t-102.5 -60.5t-166 -19v-48q2 -59 13.5 -86.5t24.5 -38.5t22 -14t5 -13q-5 -14 -18 -28t-31 -26t-40.5 -19.5t-44.5 -7.5q-30 0 -57.5 10
t-48.5 31t-33 54t-12 80zM373 507q0 28 -9.5 52t-26 40.5t-40 23.5t-51.5 3v-265q30 0 53.5 12.5t40 33t25 47t8.5 53.5z" />
    <glyph glyph-name="Q" unicode="Q" horiz-adv-x="693" 
d="M717 -45q2 -28 -7.5 -52.5t-27 -43t-40 -29.5t-47.5 -13q-42 -3 -72.5 10.5t-52.5 37.5t-37.5 55t-27.5 64q-14 -2 -28.5 -3t-30.5 -1q-79 0 -141 30.5t-105.5 82t-66.5 120t-23 145.5q0 76 23 145t66.5 121t105.5 82.5t141 30.5t142 -30.5t106.5 -82.5t66.5 -121
t23 -145q0 -53 -10.5 -103t-31.5 -94t-52 -79t-71 -58q11 -15 21 -23.5t22 -8.5q25 0 46 15.5t35 47.5q4 10 11 9q4 -1 13.5 -7t20 -19t19 -33.5t10.5 -49.5zM346 624q-29 0 -49.5 -25t-33.5 -64t-19.5 -86t-6.5 -91q0 -18 1 -40.5t3 -46t5.5 -44.5t8.5 -36q27 8 51 7.5
t44.5 -7t38 -19t32.5 -28.5q9 17 15.5 42.5t11 55t7 60t2.5 56.5q0 44 -6.5 91t-20 86t-34.5 64t-50 25zM346 92q6 0 9 1q-15 26 -33.5 39.5t-46.5 8.5q14 -23 31 -36t40 -13z" />
    <glyph glyph-name="R" unicode="R" horiz-adv-x="634" 
d="M631 99q4 -1 1 -18.5t-15 -39t-34.5 -40.5t-58.5 -23q-59 -7 -103 14t-74 62t-47 98t-22 122h-29v-268q0 -3 -2 -5q-1 -1 -2 -1h-210q-2 0 -3 1q-2 2 -2 5v692q0 2 2 4q1 1 3 1q34 10 75 17q35 6 83 10.5t105 2.5q58 -2 109.5 -17.5t90 -44t61 -70.5t22.5 -97
q0 -29 -8 -60t-24.5 -60.5t-43.5 -54t-64 -39.5q29 -68 77.5 -115t112.5 -76zM249 377q30 0 53 11.5t39 30.5t24 44.5t8 52.5q0 57 -33.5 87.5t-90.5 21.5v-248z" />
    <glyph glyph-name="S" unicode="S" horiz-adv-x="637" 
d="M412 407q38 -12 77.5 -29t71 -41.5t51.5 -59t20 -80.5q0 -62 -31 -104t-79 -67.5t-106.5 -36.5t-113.5 -11q-42 0 -92.5 7.5t-94.5 27t-74.5 52.5t-34.5 84q-2 21 5.5 41.5t22.5 36.5t35.5 26t46.5 10q16 0 32.5 -3t30.5 -7.5t23.5 -9t12.5 -8.5q4 -5 0.5 -19t-3.5 -33
q0 -32 14 -53.5t34 -32.5t43.5 -12t44 8.5t34 28t14.5 46.5q0 27 -17 46t-44.5 34t-62 28.5t-69.5 28.5q-31 14 -64 29t-60.5 37t-46 53t-20.5 77q-3 52 22.5 95.5t67 74.5t94 48.5t104.5 18.5q60 1 113 -9t92.5 -32.5t63 -56t23.5 -78.5q1 -51 -26.5 -82.5t-87.5 -31.5
q-34 0 -57.5 8.5t-27.5 15.5q-2 5 0.5 25t3.5 40q1 27 -9.5 45.5t-28 28t-38 11t-39 -6t-31.5 -23.5t-15 -41q0 -27 15 -49.5t39.5 -40t56.5 -31t65 -23.5z" />
    <glyph glyph-name="T" unicode="T" horiz-adv-x="636" 
d="M623 716q11 -40 7 -74q-2 -15 -6.5 -30t-14 -28.5t-24.5 -25t-37 -17.5q-17 -5 -40.5 -6t-44.5 0q-25 1 -50 4l6 -339q2 -56 13.5 -81.5t24 -36t21.5 -13.5t5 -13q-4 -13 -17.5 -26.5t-32.5 -24.5t-41.5 -18t-44.5 -7q-30 0 -57 9.5t-47.5 29.5t-32.5 51t-12 75l7 408
q-48 1 -93.5 -2.5t-88.5 -11.5q-2 -1 -5 2q-1 1 -2 3l-3 9t-5.5 23.5t-1.5 33t7.5 37.5t21.5 37t42 32q36 19 75.5 22.5t93 0t127 -10.5t177.5 -8h47q10 0 18 1q1 0 3 -1q4 -2 5 -4z" />
    <glyph glyph-name="U" unicode="U" horiz-adv-x="698" 
d="M668 710q0 -26 -0.5 -63.5t-0.5 -80t-0.5 -87.5t-0.5 -88v-80.5v-63.5q1 -67 -24.5 -117t-67.5 -84t-96 -50.5t-110.5 -17t-110.5 16t-96 50t-68 83t-26 116.5v1v256q0 42 -6 68t-14.5 41.5t-18.5 23t-17.5 11t-12 6.5t-2.5 10q4 13 16.5 26t30 24t38.5 18t43 7
q32 0 61.5 -11t52 -32t36 -50.5t13.5 -66.5v-383v-2q0 -42 24 -63t52.5 -21t52.5 21t24 64v517q0 3 2 5q1 1 2 1h220q1 0 2 -1q2 -2 2 -4z" />
    <glyph glyph-name="V" unicode="V" horiz-adv-x="664" 
d="M479 746q36 0 68.5 -18t57 -58t39 -102.5t14.5 -150.5q0 -51 -6 -103.5t-21 -101t-39 -91.5t-59.5 -74.5t-84 -50t-111.5 -18.5q-56 0 -110.5 17.5t-98.5 54.5t-71 94.5t-27 137.5l0.5 3t0.5 16.5v40.5v74.5v118.5v174q0 3 3 5q1 1 3 2h216l2 -2q2 -2 2 -6v-462
q0 -58 19 -95.5t58 -37.5q20 0 38.5 13t33 41t23.5 70.5t9 101.5q0 92 -16.5 147t-36 85.5t-35.5 44.5t-16 25q0 10 9.5 27.5t28.5 35t45.5 30t61.5 12.5z" />
    <glyph glyph-name="W" unicode="W" horiz-adv-x="1001" 
d="M809 746q36 0 68.5 -18t57 -58t39 -102.5t14.5 -150.5q0 -51 -6 -103.5t-20 -101t-38 -91t-59 -74t-83.5 -50t-111.5 -18.5t-116.5 22t-91.5 76q-15 -28 -36.5 -46.5t-46.5 -30t-52.5 -16t-55.5 -4.5q-58 0 -103 24t-75.5 64.5t-46.5 95t-16 114.5v431q0 4 2 6q1 1 3 1
h214q1 0 3 -1q4 -2 4 -7v-507q0 -49 21.5 -71.5t47 -19.5t47 30.5t21.5 77.5v491q0 4 2 6q1 1 2 1h209l2 -2q2 -2 2 -6v-478q0 -58 14.5 -92.5t53.5 -34.5q40 0 65 59t25 177q0 92 -16.5 147t-36 85.5t-35.5 44.5t-16 25q0 10 9.5 27.5t28.5 35t45.5 30t61.5 12.5z" />
    <glyph glyph-name="X" unicode="X" horiz-adv-x="708" 
d="M700 5q1 -2 1 -3q0 -2 -3 -2h-270q-3 0 -5 2q-1 1 -2 3l-140 264q-33 -26 -38.5 -57t2.5 -59.5t23 -50.5t23 -29q4 -5 -2 -20.5t-21.5 -32t-40.5 -29.5t-59 -13q-33 0 -62 12.5t-51 34t-36 50.5t-16 62q-2 39 12.5 77t43.5 71t70.5 59.5t92.5 41.5l-202 323q-1 1 -1 3
q0 4 6 4h253q3 0 6 -3q1 -2 2 -3l136 -265q24 15 34.5 35.5t12.5 43t-3.5 45.5t-14 42t-17.5 33t-15 19q-3 3 0 14t14.5 24t33 24.5t55.5 14.5q37 3 68.5 -7t55 -30.5t38.5 -49.5t18 -62q4 -39 -10 -78t-42.5 -72.5t-70.5 -60.5t-94 -43l215 -332v0z" />
    <glyph glyph-name="Y" unicode="Y" horiz-adv-x="668" 
d="M664 615q0 -62 -22.5 -111.5t-56 -88.5t-72.5 -69t-72 -53v-85q1 -40 7 -64.5t14.5 -39t17.5 -21.5t15.5 -10.5t10 -6.5t1.5 -10q-5 -14 -18 -28t-31 -25t-40.5 -18.5t-44.5 -7.5q-30 0 -57.5 9.5t-48.5 30.5t-33.5 53.5t-12.5 79.5v82.5t-1 67.5l-219 408q-2 3 1 6
q1 1 3 2h240q1 0 3 -1l2 -2t2 -3l123 -305q31 48 43 99t13.5 93.5t-2.5 71.5t-4 33q-1 11 16.5 21.5t43.5 16t56.5 4t57.5 -14.5t45 -40.5t20 -73.5z" />
    <glyph glyph-name="Z" unicode="Z" horiz-adv-x="611" 
d="M604 143q6 -52 -12 -86t-50.5 -53.5t-75 -25t-85.5 0.5q-24 3 -67.5 6.5t-93.5 7t-101 5.5t-89 2q-1 0 -2 1q-3 2 -2 4v141q0 6 1.5 10.5t7.5 11.5q11 14 34.5 47t52.5 74t61 84.5t60 77.5q16 19 36.5 35.5t39 29.5t31.5 20.5l13 7.5q-57 3 -102.5 3t-85.5 -3t-77 -9
t-75 -13q-2 -1 -5 2q-1 1 -2 3l-3 10t-5 25.5t-1.5 35t7.5 39.5t22 39t42 33q37 20 78.5 22.5t99 -2t137.5 -12t195 -7.5q6 0 8 -5l-1 -145q0 -7 -4 -13q-2 -3 -3 -5q-46 -60 -77 -102t-52.5 -72t-35.5 -50t-26 -36t-23.5 -31t-28.5 -33q-6 -7 -18.5 -17t-25.5 -20
q-15 -11 -33 -25h107q73 0 112 7.5t57 15.5t23 13t12 0q10 -8 16.5 -21.5t8.5 -27.5z" />
    <glyph glyph-name="bracketleft" unicode="[" horiz-adv-x="305" 
d="M280 -92q4 0 4 -2v-1v-81v-2q0 -2 -3 -2h-137q-50 0 -109 1q-1 -1 -4 2q-1 1 -1 2v895q0 1 1 2q3 3 5 3h244q4 0 4 -2v-2v-81v-2q0 -2 -3 -2h-23h-37t-45.5 0.5t-49.5 0.5v-729h154v0z" />
    <glyph glyph-name="backslash" unicode="\" horiz-adv-x="407" 
d="M303 -171l-17.5 52.5t-36.5 108t-49 143.5t-54 160q-64 190 -144 426q-1 3 0 4t2 1h84q2 0 3 -1q2 -2 3 -4q82 -240 147 -432q28 -82 55 -161.5t48.5 -143t36 -105.5t16.5 -48q0 -4 -1 -4h-2h-85h-2q-3 0 -4 4z" />
    <glyph glyph-name="bracketright" unicode="]" horiz-adv-x="291" 
d="M176 -92v729q-25 0 -49.5 -0.5t-45.5 -0.5h-37h-23q-3 0 -3 2v2v81v2q0 2 4 2h244q2 0 5 -3q1 -1 1 -2v-895q0 -1 -1 -2q-3 -3 -4 -2q-60 -1 -110 -1h-136q-3 0 -3 2v2v81v1q0 2 4 2h154z" />
    <glyph glyph-name="underscore" unicode="_" horiz-adv-x="476" 
d="M452 -93q-1 -1 -1 -2q-1 -1 -3 -1h-49h-62h-69h-70h-168q-2 0 -4 2q-1 1 -1 2v86q0 1 1 2q3 3 5 3h417q4 0 4 -2v-2v-88z" />
    <glyph glyph-name="grave" unicode="`" horiz-adv-x="272" 
d="M4 735q-3 5 2 8q24 29 56.5 49t72.5 30q4 1 6 -2q9 -35 19.5 -62.5t25.5 -52.5t35 -48.5t46 -49.5q4 -4 1 -7q-8 -14 -17.5 -26t-23.5 -23q-2 -1 -8 1q-78 27 -130 72.5t-85 110.5z" />
    <glyph glyph-name="a" unicode="a" horiz-adv-x="617" 
d="M562 201q0 -60 10.5 -87t22.5 -38.5t20.5 -14t4.5 -12.5q-4 -12 -15 -24.5t-27.5 -23t-36.5 -17t-41 -6.5q-52 0 -89 30t-47 84q-26 -49 -65.5 -81t-92.5 -32q-47 0 -83.5 24t-61.5 62.5t-38 87.5t-13 99q0 51 13 100t38.5 87t63 61t86.5 23q52 0 89 -26.5t60 -68.5v69
q0 3 2 5q1 1 3 1h200q1 0 2 -1q2 -2 2 -4q-2 -65 -4 -123q-2 -50 -2.5 -99t-0.5 -75zM291 117q18 0 32 10.5t23.5 29t14.5 43t5 52.5t-5 53t-14.5 43.5t-23.5 29t-32 10.5t-32 -10.5t-23.5 -29t-14.5 -43.5t-5 -53t5 -52.5t14.5 -43t23.5 -29t32 -10.5z" />
    <glyph glyph-name="b" unicode="b" horiz-adv-x="591" 
d="M386 525q47 0 83.5 -24t61 -62.5t37.5 -87.5t13 -99q0 -51 -13 -100t-38 -87t-62.5 -61t-86.5 -23q-52 0 -89 26.5t-60 68.5v-70q0 -2 -3 -5q-1 -1 -2 -1h-193q-1 0 -2 1q-2 2 -2 4v709q0 1 2 3q1 0 2 1h194h2q2 0 2 -4v-296q25 47 64 77t90 30zM301 116q18 0 32 10.5
t23.5 29t14.5 43.5t5 53t-5 52.5t-14.5 43t-23.5 29t-32 10.5t-32 -10.5t-23.5 -29t-14.5 -43t-5 -52.5t5 -53t14.5 -43.5t23.5 -29t32 -10.5z" />
    <glyph glyph-name="c" unicode="c" horiz-adv-x="521" 
d="M512 155q5 -5 3 -16q-5 -16 -21 -43t-44.5 -53t-70 -45t-96.5 -19q-57 0 -107 21.5t-86.5 58.5t-58 86.5t-21.5 106.5q0 55 20 103t55 85t84 59t106 25q42 0 82 -8.5t71.5 -26t51 -43.5t19.5 -62q0 -18 -6.5 -36t-19.5 -32t-31 -23t-40 -9q-25 0 -46 6t-24 11
q-4 7 -2.5 16.5t1.5 24.5q0 31 -13.5 50t-34.5 19q-20 0 -35 -14.5t-24.5 -37.5t-13 -51t-0.5 -56q6 -67 37.5 -99.5t74.5 -39.5t90.5 5.5t85.5 35.5q8 6 14 1z" />
    <glyph glyph-name="d" unicode="d" horiz-adv-x="607" 
d="M559 202q0 -60 9.5 -87t20 -38.5t18 -14t3.5 -12.5q-4 -12 -15 -24.5t-27.5 -23t-36.5 -17t-41 -6.5q-52 0 -88.5 30t-47.5 84q-26 -50 -65.5 -82t-92.5 -32q-47 0 -83.5 24t-61.5 62.5t-38 87.5t-13 99q0 51 13 100t38 87t62.5 61t87.5 23q52 0 89 -26.5t60 -68.5v286
q0 2 2 4q1 1 3 1h200q1 -1 2 -1q2 -2 2 -3v-513zM281 117q18 0 32 10.5t23.5 29t14.5 43t5 52.5t-5 53t-14.5 43.5t-23.5 29t-32 10.5t-32.5 -10.5t-24 -29t-14.5 -43.5t-5 -53t5 -52.5t14.5 -43t24 -29t32.5 -10.5z" />
    <glyph glyph-name="e" unicode="e" horiz-adv-x="540" 
d="M519 155q7 -5 3 -16q-4 -16 -21.5 -43t-48 -53t-73 -45t-97.5 -19q-57 0 -106.5 21.5t-86 58.5t-58 86.5t-21.5 106.5q0 55 20.5 104t57.5 86.5t89.5 59.5t117.5 22q61 0 105.5 -17t73.5 -43t42.5 -56.5t13.5 -57.5q0 -59 -30.5 -93.5t-77 -50.5t-102 -17t-104.5 7
q13 -38 43 -58.5t69.5 -25.5t85.5 5.5t92 36.5q7 5 13 1zM260 401q-25 -15 -37 -47.5t-15 -69.5q67 -6 100 16t33 63q0 20 -15 35t-38 13l-1 -1h-3q-12 -2 -24 -9z" />
    <glyph glyph-name="f" unicode="f" horiz-adv-x="409" 
d="M308 555q-4 7 1.5 18.5t5.5 37.5q0 19 -7.5 35.5t-30.5 16.5q-20 0 -29.5 -9.5t-12.5 -24.5t-0.5 -33.5t7 -36.5t10 -33t9.5 -23h138q1 0 2 -1q2 -2 2 -4v-84q0 -2 -2 -4q-1 -1 -2 -1h-133v-403q0 -3 -2 -5q-1 -1 -2 -1h-193q-1 0 -2 1q-2 2 -2 4v404h-56q-1 0 -2 1
q-2 2 -2 4v85q0 1 2 3q1 0 2 1h57q-3 68 14.5 114t49 74t72.5 40t84 12q45 0 79.5 -9.5t58 -25.5t36 -37t12.5 -45q1 -36 -25 -62.5t-67 -26.5q-26 0 -47.5 6.5t-24.5 11.5z" />
    <glyph glyph-name="g" unicode="g" horiz-adv-x="596" 
d="M565 56q2 -65 -14.5 -119.5t-51.5 -94t-88 -61.5t-122 -22q-55 0 -95 16t-67.5 38t-42.5 45t-20 37q-11 37 -7 47.5t12 8.5q9 -2 20 -14t29.5 -26.5t46 -26t69.5 -11.5q30 0 53.5 11t40 28.5t25.5 39.5t10 45v89q-25 -48 -65 -76t-92 -28q-47 0 -83.5 23.5t-61.5 61.5
t-38 86.5t-13 98.5q0 51 13 100t38 87t62.5 61t87.5 23q52 0 89.5 -27t60.5 -70v71q0 2 2 4q1 1 2 1h193q1 0 2 -1q2 -2 2 -4q0 -91 1 -175q0 -36 0.5 -73.5t1 -72.5t0.5 -66v-54zM291 120q18 0 32 10t23.5 28t14.5 42t5 52t-5 53t-14.5 43.5t-23.5 29t-32 10.5t-32.5 -10.5
t-24 -29t-14.5 -43.5t-5 -53q0 -57 19.5 -94.5t56.5 -37.5z" />
    <glyph glyph-name="h" unicode="h" horiz-adv-x="601" 
d="M538 204q0 -40 5.5 -64.5t14 -39.5t17.5 -21.5t16.5 -10.5t11.5 -7t2 -10q-4 -12 -15.5 -24t-28 -22.5t-36.5 -17t-41 -6.5q-30 0 -57 10.5t-47 30t-31.5 48t-11.5 63.5v194q0 37 -16 50t-35 5t-35.5 -36t-16.5 -72v-268q0 -3 -2 -5q-1 -1 -2 -1h-193q-1 0 -2 1
q-2 2 -2 4q-1 170 -2 314q0 61 -0.5 123t-0.5 116v95.5v61.5q0 1 2 3q1 0 2 1h197h1q2 0 2 -4v-302q16 31 37 52t43.5 34.5t44.5 19.5t42 6q28 0 52.5 -11.5t43.5 -33.5t30 -52.5t11 -67.5v-156v0z" />
    <glyph glyph-name="i" unicode="i" horiz-adv-x="286" 
d="M256 6q0 -3 -2 -5q-1 -1 -2 -1h-200q-2 0 -3 1q-2 2 -2 4q2 65 4 123q1 25 1.5 50t1 48.5t1 43t0.5 32.5q0 40 -5 64.5t-12.5 39.5t-15.5 21.5t-14.5 10.5t-10 6.5t-1.5 9.5q4 12 15.5 24.5t28 23t36.5 17t41 6.5q61 0 100 -40.5t39 -111.5v-367zM249 645
q0 -20 -9.5 -36.5t-25 -29.5t-37 -20t-45.5 -7t-45 7t-37 20t-25 29.5t-9 36.5q0 19 9 36t25 29.5t37 20t45 7.5t45.5 -7.5t37 -20t25 -29.5t9.5 -36z" />
    <glyph glyph-name="j" unicode="j" horiz-adv-x="306" 
d="M270 32q0 -80 -15.5 -136.5t-44 -92t-69.5 -51.5t-92 -16q-45 0 -78.5 11t-56 29t-33.5 40.5t-11 45.5q0 18 7 35.5t19 32t29 23t38 8.5q12 0 24.5 -2t22.5 -4.5t16.5 -5.5t7.5 -6q4 -6 -1.5 -22.5t-5.5 -42.5q0 -10 1.5 -20.5t5.5 -19.5t11 -14.5t18 -5.5q39 0 39 57
q0 24 -5 42.5t-11.5 36.5t-11.5 38t-5 48v457q0 3 2 5q1 1 2 1h193q1 0 2 -1q2 -2 2 -4v-466zM169 552q-24 0 -45 7t-37 20t-25 29.5t-9 36.5q0 19 9 36t25 29.5t37 20t45 7.5t45.5 -7.5t37.5 -20t25 -29.5t9 -36q0 -20 -9 -36.5t-25 -29.5t-37.5 -20t-45.5 -7z" />
    <glyph glyph-name="k" unicode="k" horiz-adv-x="601" 
d="M593 66q12 -6 13 -12t-12 -21q-9 -10 -23 -19.5t-32 -17.5t-38 -13t-41 -5q-64 0 -103.5 29t-61 68.5t-29 80.5t-7.5 65q0 22 11 22q33 0 53.5 11t31 27.5t12 35.5t-4.5 35.5t-18.5 27.5t-29.5 11q-23 0 -38 -10t-24 -25.5t-13 -34.5t-5 -36v-279q0 -3 -2 -5q-1 -1 -2 -1
h-193q-1 0 -2 1q-2 2 -2 4q-1 170 -2 314q0 61 -0.5 123t-0.5 116v95.5v61.5q0 1 2 3q1 0 2 1h196h2q2 0 2 -4v-293q31 54 77 78.5t92 24.5q42 0 73 -19t49 -48t21.5 -63.5t-8 -66t-39.5 -55.5t-74 -31v-2q14 -33 37 -65q20 -27 51.5 -56.5t79.5 -52.5z" />
    <glyph glyph-name="l" unicode="l" horiz-adv-x="295" 
d="M30 714q0 2 2 4q1 1 3 1h200q1 0 2 -1q2 -2 2 -4v-231v-90t0.5 -83.5t0.5 -67v-41.5q0 -40 5 -64.5t12.5 -39.5t15.5 -21.5t14.5 -10.5t10 -6.5t1.5 -9.5q-4 -12 -17 -24.5t-31 -23t-39 -17t-42 -6.5q-61 0 -100.5 40.5t-39.5 111.5v584v0z" />
    <glyph glyph-name="m" unicode="m" horiz-adv-x="911" 
d="M849 204q0 -40 5.5 -64.5t13.5 -39.5t17.5 -21.5t17 -10.5t11 -7t1.5 -10q-4 -12 -15.5 -24t-28 -22.5t-36.5 -17t-41 -6.5q-30 0 -56.5 10.5t-47 30t-32 48t-11.5 63.5v194q0 37 -14.5 50t-32.5 5t-32.5 -36t-14.5 -72v-18q0 -25 1 -66.5t3 -82.5q2 -48 4 -101
q0 -2 -3 -5q-1 -1 -2 -1h-200q-1 0 -2 1q-3 3 -2 4q-1 53 -1 101q0 42 -0.5 83.5t0.5 66.5q1 18 0.5 36t-0.5 35q0 37 -14.5 50t-32.5 5t-32.5 -36t-14.5 -72v-268q0 -2 -3 -5q-1 -1 -2 -1h-200q-1 0 -2 1q-2 2 -2 4q1 65 3 123q1 25 1.5 50t1 48.5t1 43t0.5 32.5
q0 60 -10.5 87t-22.5 38.5t-20.5 14t-4.5 12.5q4 12 15 24.5t27.5 23t36.5 17t41 6.5q53 0 89.5 -30.5t47.5 -84.5q15 31 35 53t41.5 36t43 20t41.5 6q48 0 84.5 -31.5t48.5 -87.5q15 33 35 55.5t42 37t44 20.5t42 6q28 0 53 -11.5t44 -33.5t30 -52.5t11 -67.5v-156v0z" />
    <glyph glyph-name="n" unicode="n" horiz-adv-x="622" 
d="M559 204q0 -40 5.5 -64.5t14 -39.5t18 -21.5t17 -10.5t11 -7t1.5 -10q-4 -12 -15.5 -24t-28 -22.5t-36.5 -17t-41 -6.5q-30 0 -56.5 10.5t-47 30t-32 48t-11.5 63.5v194q0 37 -16 50t-35 5t-35 -36t-16 -72v-268q0 -2 -3 -5q-1 -1 -2 -1h-200q-1 0 -2 1q-2 2 -2 4
q2 65 4 123q1 25 1.5 50t1 48.5t1 43t0.5 32.5q0 40 -5 64.5t-12.5 39.5t-16 21.5t-15 10.5t-10 6.5t-0.5 9.5q4 12 15 24.5t27.5 23t36.5 17t41 6.5q53 0 90 -31t47 -86q16 32 37.5 54.5t44 36.5t45 20t42.5 6q28 0 53 -11.5t44 -33.5t30 -52.5t11 -67.5v-31.5t-0.5 -34
t-0.5 -40.5v-50z" />
    <glyph glyph-name="o" unicode="o" horiz-adv-x="580" 
d="M570 249q0 -57 -20.5 -106.5t-58 -86t-89 -58t-112.5 -21.5q-60 0 -111.5 21.5t-89 58t-58.5 86t-21 106.5q0 56 21 105.5t58.5 86.5t89 58.5t111.5 21.5t111.5 -21.5t89 -58.5t58.5 -86.5t21 -105.5zM207 249q0 -32 5 -60.5t15 -50.5t25.5 -35t37.5 -13t38 12.5t26 34
t14.5 50.5t4.5 62q0 32 -5 61t-15 50.5t-25.5 34.5t-37.5 13t-38 -13t-26 -34.5t-14.5 -50.5t-4.5 -61z" />
    <glyph glyph-name="p" unicode="p" horiz-adv-x="616" 
d="M411 525q47 0 83.5 -24t61 -62.5t37.5 -87.5t13 -99q0 -51 -13 -100t-38 -87t-62.5 -61t-86.5 -23q-52 0 -89 26.5t-60 68.5v-290q0 -2 -3 -5q-1 -1 -2 -1h-200q-1 0 -2 1q-3 3 -2 4q-1 127 -1 233v284q0 40 -4.5 64.5t-11 39.5t-13.5 21.5t-12.5 10.5t-8.5 6.5t-1 9.5
q4 12 15.5 24.5t28 23t36.5 17t41 6.5q52 0 88.5 -30t47.5 -84q26 50 65.5 82t92.5 32zM326 116q18 0 32 10.5t23.5 29t14.5 43.5t5 53t-5 52.5t-14.5 43t-23.5 29t-32 10.5t-32 -10.5t-23.5 -29t-14.5 -43t-5 -52.5t5 -53t14.5 -43.5t23.5 -29t32 -10.5z" />
    <glyph glyph-name="q" unicode="q" horiz-adv-x="584" 
d="M562 503q2 0 2 -4v-713q0 -2 -2 -4q-1 -1 -2 -1h-193q-1 0 -2 1q-2 2 -2 4q-1 37 -1 83v212q-26 -47 -65.5 -74t-91.5 -27q-47 0 -83.5 23.5t-61.5 62t-37.5 87.5t-12.5 100t13 100t38 87t62.5 61t86.5 23q54 0 92 -29t61 -74v78q0 1 2 3q1 0 2 1h194h1zM290 117
q18 0 32 10.5t23.5 29t14.5 43.5t5 53t-5 52.5t-14.5 43t-23.5 29t-32 10.5t-32 -10.5t-23.5 -29t-14.5 -43t-5 -52.5t5 -53t14.5 -43.5t23.5 -29t32 -10.5z" />
    <glyph glyph-name="r" unicode="r" horiz-adv-x="483" 
d="M377 524q48 0 79.5 -29t31.5 -83q0 -31 -10 -55t-27 -40.5t-40 -25t-48 -8.5q-18 0 -33 7.5t-17 12.5q-5 7 -3.5 14t1.5 22q0 44 -21 44q-11 0 -17.5 -9t-10.5 -24.5t-5 -36t-1 -43.5v-265q0 -2 -2 -4q-1 -1 -2 -1h-201q-1 0 -2 1q-2 2 -2 4q2 65 4 122q1 24 1.5 49.5
t1 48.5t1 43t0.5 33q0 40 -5 64.5t-12.5 39.5t-15.5 21.5t-14.5 10.5t-10 6.5t-1.5 9.5q4 12 15.5 24.5t28 23t36.5 17t41 6.5q51 0 87 -28.5t47 -80.5q20 50 54.5 79.5t71.5 29.5z" />
    <glyph glyph-name="s" unicode="s" horiz-adv-x="513" 
d="M339 294q30 -9 59.5 -21t52.5 -30.5t37.5 -43.5t14.5 -59q0 -45 -24.5 -76.5t-62 -50.5t-83 -27.5t-88.5 -8.5q-33 0 -74 6.5t-77 21.5t-60 40t-24 62t26.5 64t70.5 27q25 0 48.5 -5.5t26.5 -11.5q5 -7 3.5 -17t-1.5 -24q0 -30 16.5 -45.5t42.5 -15.5q28 0 40.5 12.5
t13.5 32.5q-1 18 -13 30t-31.5 20.5t-45 16t-53.5 16.5q-26 9 -50 22.5t-43 32.5t-31 42.5t-12 53.5v3q0 39 21 69.5t53.5 51t72.5 31.5t78 11q44 0 86.5 -8t75.5 -24t53.5 -40.5t20.5 -57.5q1 -36 -24.5 -61.5t-72.5 -25.5q-26 0 -47.5 6.5t-24.5 11.5q-4 6 -2.5 16t1.5 25
q0 58 -51 57q-23 -1 -35 -17t-12 -30q0 -18 10.5 -30.5t28 -21.5t40.5 -16t49 -14z" />
    <glyph glyph-name="t" unicode="t" horiz-adv-x="380" 
d="M368 90q14 0 16 -8t-3 -18q-10 -20 -28.5 -37t-41.5 -29t-50 -18.5t-54 -6.5q-24 1 -46.5 6.5t-42.5 16.5q-31 19 -49.5 52.5t-18.5 81.5v279h-51q-1 0 -2 1q-2 2 -2 4v85q0 1 2 3q1 0 2 1h51v76q0 2 2 4q1 1 3 1l192 79q1 0 2 -1q2 -2 2 -4v-46q0 -21 0.5 -49t0.5 -60
h122l1 -1q2 -2 2 -4v-84q0 -2 -2 -4q-1 -1 -2 -1h-121v-208v-16q0 -9 0.5 -16.5t1.5 -15.5q5 -30 18 -44t29.5 -18t34 -2.5t32.5 1.5z" />
    <glyph glyph-name="u" unicode="u" 
d="M560 201q0 -40 5 -64.5t12.5 -39.5t15.5 -21.5t14.5 -10.5t10 -6.5t1.5 -9.5q-4 -12 -15.5 -24.5t-28 -23t-36.5 -17t-41 -6.5q-52 0 -88.5 30.5t-47.5 84.5q-32 -64 -77 -89.5t-85 -25.5q-28 0 -53 11.5t-43.5 33.5t-29.5 52t-11 68v156q0 40 -5.5 64.5t-14 39.5
t-17.5 21.5t-16.5 10.5t-11.5 6.5t-2 9.5q4 12 15.5 24.5t28 23t36.5 17t41 6.5q30 0 57 -10.5t47.5 -30t32 -48t11.5 -63.5v-194q0 -37 14 -50t31.5 -5.5t32 33.5t16.5 68v275q0 3 2 5q1 1 2 1h201q1 0 2 -1q2 -2 2 -4q-2 -65 -4 -123q-2 -50 -3 -99t-1 -75z" />
    <glyph glyph-name="v" unicode="v" horiz-adv-x="548" 
d="M385 525q29 0 56.5 -12t49 -39.5t34.5 -72t13 -108.5q0 -23 -4 -55t-15 -67t-30 -69.5t-49 -62t-72.5 -44.5t-100.5 -17h-6q-44 0 -87.5 12.5t-77.5 39.5t-55 69t-21 101h1v1v297q0 2 2 4q1 1 2 1h193q1 0 2 -1q2 -2 2 -5v-308q0 -49 8 -72.5t33 -23.5q16 0 31.5 8.5
t28 27.5t20 49t7.5 73q0 67 -13.5 104t-30 56.5t-30 27t-13.5 15.5q0 7 8.5 19t24.5 23.5t38.5 20t50.5 8.5z" />
    <glyph glyph-name="w" unicode="w" horiz-adv-x="860" 
d="M697 525q29 0 56.5 -12t49 -39.5t34.5 -72t13 -108.5q0 -23 -4 -55t-15 -67t-30 -69.5t-49 -62t-72.5 -44.5t-100.5 -17h-6q-53 0 -103 18t-85 56q-22 -29 -60 -51.5t-97 -22.5q-38 0 -72 13t-61 36t-45.5 56t-25.5 72q-4 17 -4 42v3v2v296q0 2 2 4q1 1 2 1h195q1 0 2 -1
q3 -3 3 -5v-323q2 -45 18 -63t36 -18t37 22.5t17 73.5l1 -1q-1 4 -1 12h1v1v297q0 2 2 4q1 1 2 1h193q1 0 2 -1q2 -2 2 -5v-308q0 -49 8 -72.5t33 -23.5q16 0 31.5 8.5t28 27.5t20 49t7.5 73q0 67 -13.5 104t-30 56.5t-30 27t-13.5 15.5q0 7 8.5 19t24.5 23.5t38.5 20
t50.5 8.5z" />
    <glyph glyph-name="x" unicode="x" horiz-adv-x="580" 
d="M576 6q4 -6 -3 -6h-221q-6 0 -8 5l-112 173q-22 -6 -29.5 -17t-6 -24.5t9 -28t15.5 -27t15 -21.5t7 -11q0 -12 -8 -25t-22.5 -23t-33.5 -16.5t-40 -6.5q-60 0 -96 32.5t-38 84.5q-3 66 38 108t131 62l-163 233q-2 2 -0.5 3.5t3.5 1.5h217q5 0 8 -5l112 -170
q20 6 26.5 16.5t5 23.5t-9.5 27t-16.5 25.5t-15 19.5t-6.5 10q0 12 8 24.5t22.5 22.5t33.5 16.5t40 6.5q30 0 54.5 -9.5t42 -26.5t27 -39.5t9.5 -47.5q0 -29 -13.5 -53t-36 -42.5t-52.5 -32.5t-64 -21z" />
    <glyph glyph-name="y" unicode="y" horiz-adv-x="595" 
d="M564 71q2 -65 -14.5 -119.5t-51.5 -94t-88 -61.5t-122 -22q-55 0 -95 16t-67.5 38t-43 45t-19.5 37q-6 18 -7.5 29.5t0 17.5t5 8t7.5 1q9 -2 20 -14.5t29.5 -27t46 -26.5t69.5 -12q30 0 53.5 9.5t40 25t25.5 36t10 43.5v100q-15 -32 -35 -54.5t-41.5 -36t-43.5 -19.5
t-42 -6q-28 0 -53 11.5t-43.5 33.5t-29.5 52t-11 68v150q0 40 -5.5 64.5t-14 39.5t-17.5 21.5t-16.5 10.5t-11.5 6.5t-2 9.5q4 12 15.5 24.5t28 23t36.5 17t41 6.5q30 0 57 -10.5t47 -30t31.5 -48t11.5 -63.5v-188q0 -38 14.5 -51t32.5 -4.5t33 36t16 71.5v263q0 2 2 4
q1 1 2 1h193q1 0 2 -1q2 -2 2 -4q0 -84 1 -163q0 -34 0.5 -70t1 -70.5t0.5 -66v-56.5z" />
    <glyph glyph-name="z" unicode="z" horiz-adv-x="496" 
d="M495 127q5 -46 -10 -76.5t-42 -47.5t-62 -22t-70 0q-20 3 -56 6t-77 6t-83 5t-73 2q-1 -1 -2 0q-3 0 -1 4q-4 32 -5.5 57t2.5 57q3 27 27 57t57 58.5t69 52.5t64 39q20 11 40.5 19.5t40.5 16.5q-93 6 -164 0.5t-134 -18.5q-2 -1 -5 2q-1 1 -1 2l-5 18.5t-3.5 43.5t14 52
t45.5 45q31 18 65 19t81 -4.5t113.5 -13t161.5 -7.5q5 0 6 -4q0 -29 2 -59t-3 -59q-4 -24 -20.5 -49t-42.5 -49.5t-59 -47.5t-70 -43q-22 -12 -45.5 -25t-49.5 -26h106q61 0 92.5 6.5t46.5 14t19 11.5t10 0q8 -7 13.5 -19.5t7.5 -23.5z" />
    <glyph glyph-name="braceleft" unicode="{" horiz-adv-x="212" 
d="M197 -151l7 -7t2 -6q0 -8 -18 -9q-81 -3 -119 54t-31 166v6q0 2 0.5 4.5t0.5 4.5q7 81 -1 138t-24 70q-9 8 -9 12t9 13q7 7 13.5 25.5t10 45.5t4.5 61.5t-3 75.5q0 2 -0.5 4.5t-0.5 4.5v6q-7 110 31 166.5t119 53.5q18 0 18 -9q1 -2 -2 -5.5t-7 -7.5q-15 -14 -24 -58.5
t-1 -125.5v-9q0 -3 1 -6q3 -42 -1.5 -80.5t-15.5 -69.5t-28.5 -53t-41.5 -31q24 -9 41.5 -31t28.5 -53t15.5 -69.5t1.5 -80.5q-1 -3 -1 -6v-10q-8 -81 1 -125.5t24 -58.5z" />
    <glyph glyph-name="bar" unicode="|" horiz-adv-x="158" 
d="M125 -171q0 -4 -2 -4h-1h-88h-2q-2 0 -2 4v468q0 196 1 442q0 2 2 4q1 1 2 1h86q1 0 2 -1q2 -2 2 -4v-910v0z" />
    <glyph glyph-name="braceright" unicode="}" horiz-adv-x="232" 
d="M25 -151q15 14 24 58.5t1 125.5q0 2 -0.5 5t-0.5 5v6q-3 42 1.5 80.5t15.5 69.5t28.5 53t41.5 31q-24 9 -41.5 31t-28.5 53t-15.5 69.5t-1.5 80.5v6q0 2 0.5 4.5t0.5 4.5q8 81 -1 125.5t-24 58.5q-4 4 -7 7.5t-2 5.5q0 9 18 9q81 3 119 -53.5t31 -166.5q-1 -3 -1 -6v-9
q-4 -41 -3.5 -75.5t4.5 -61.5t10 -45.5t14 -25.5q9 -9 9 -13t-9 -12q-8 -6 -14 -24.5t-10 -45.5t-4.5 -62.5t3.5 -75.5v-9q0 -3 1 -6q7 -109 -31 -166t-119 -54q-18 1 -18 9q-1 3 2 6z" />
    <glyph glyph-name="asciitilde" unicode="~" horiz-adv-x="596" 
d="M481 332q13 3 28.5 -2.5t28.5 -18.5t19.5 -31.5t2.5 -40.5q-4 -18 -14.5 -35t-29 -28.5t-45.5 -14.5t-64 6q-30 7 -58 24.5t-56 32t-56 21t-58 -8.5q-15 -8 -26 -17.5t-18 -18.5t-11 -15.5t-6 -7.5q-14 -4 -30.5 1.5t-30 18t-20.5 31t-3 41.5q4 20 16.5 37.5t33 28.5
t48 13t60.5 -8q29 -9 57.5 -25t56 -29t56 -19t57.5 6q16 6 26.5 16t17.5 19t11 16t7 8z" />
    <glyph glyph-name="exclamdown" unicode="&#xa1;" horiz-adv-x="266" 
d="M22 433q0 42 28.5 70.5t69.5 28.5t69.5 -28.5t28.5 -70.5q0 -41 -28.5 -69.5t-69.5 -28.5t-69.5 28.5t-28.5 69.5zM10 -85q0 32 3 72.5t8.5 82.5t15 82t22 71.5t29 51t36.5 19.5q18 0 31 -17t22.5 -44.5t16 -61.5t10 -68.5t5 -65.5t2.5 -52q1 -59 12 -86.5t22.5 -38.5
t19.5 -14t5 -13q-4 -12 -15.5 -24.5t-28 -23t-36.5 -17t-41 -6.5q-61 0 -100 40.5t-39 112.5z" />
    <glyph glyph-name="cent" unicode="&#xa2;" horiz-adv-x="423" 
d="M414 174q5 -5 3 -13q-3 -12 -14.5 -31.5t-32 -39t-49.5 -36t-67 -20.5q1 -14 2 -25.5t2 -20.5q1 -11 2 -20q0 -2 -2 -4q-1 -1 -2 -1h-67q-1 0 -2 1q-2 2 -2 5q1 10 2 21q1 10 2 21.5t2 24.5q-39 7 -72 26.5t-57 48t-38 64.5t-14 77q0 40 13.5 76t37.5 64.5t57.5 48
t73.5 26.5q-2 12 -3 23.5t-2 19.5q-1 10 -2 19q0 1 2 3q1 0 2 1h67q1 0 2 -1q3 -3 3 -4q-2 -8 -3 -17q-2 -8 -2.5 -18.5t-1.5 -22.5q30 -3 58 -11.5t49 -22.5t34 -34t13 -45q0 -29 -18.5 -53t-63.5 -27q-20 -1 -37 4.5t-20 10.5t-2.5 13t2.5 20q2 24 -7.5 34t-22.5 12
q-18 1 -29.5 -8.5t-18 -27t-9 -39.5t-2.5 -44q0 -54 20 -83t52 -37t72 3t79 38q2 2 5.5 2.5t5.5 -1.5z" />
    <glyph glyph-name="sterling" unicode="&#xa3;" horiz-adv-x="488" 
d="M466 5q0 -1 -1 -2q-2 -2 -4 -2h-430q-3 0 -5 2q-1 1 -1 2v146q0 1 1 2l2 2v1q42 17 60 43q-26 -2 -45 -4t-27 -3q-4 0 -4 2v2l-2 68q-1 0 0 1q0 2 4 2q9 1 27.5 0t43.5 -3q-9 9 -20.5 18t-21.5 20.5t-17 27.5t-7 39q0 45 21.5 75t56 48t76.5 25t84 7q32 0 70.5 -6.5
t72 -21.5t56 -40.5t22.5 -62.5q0 -36 -26 -63.5t-69 -27.5q-25 0 -47 6t-26 12t-3 16.5t2 24.5q2 31 -10.5 47t-37.5 16q-19 0 -29 -9t-14 -22q-5 -14 -1.5 -33t10.5 -37.5t14 -33.5t10 -22q20 1 37 2t29 3q14 2 26 3q2 0 4 -2q1 -1 1 -2l2 -67q0 -2 -1 -3q-2 -2 -4 -2
q-13 1 -30 2q-14 1 -33 1.5t-40 1.5q-11 -18 -31.5 -29.5t-46.5 -19.5q38 0 80.5 0.5t83 0.5h75.5h59q1 0 3 -2q0 -1 1 -2v-147z" />
    <glyph glyph-name="section" unicode="&#xa7;" horiz-adv-x="500" 
d="M414 143q28 -19 46.5 -45.5t20.5 -61.5q1 -3 1 -10q0 -38 -20.5 -68t-52.5 -50.5t-71 -31t-76 -10.5q-42 0 -83 7.5t-73 23.5t-52 40t-20 56q-1 35 23 60.5t71 25.5q25 0 46 -6.5t24 -11.5q4 -6 2.5 -16t-1.5 -24q0 -57 50 -56q23 1 34 17t11 30h-1q0 18 -10 29.5
t-26.5 20.5t-39.5 15.5t-48 14.5q-21 6 -42.5 14t-40.5 18.5t-35 24.5t-26 32q-7 11 -11 23.5t-4 27.5v4v6q0 42 21 71t55 48q-28 20 -46.5 46.5t-21.5 61.5v10q0 38 20.5 68t52 50.5t70.5 31t76 10.5q42 0 83.5 -8t73.5 -23.5t52 -39.5t20 -56q1 -35 -23.5 -60.5
t-70.5 -25.5q-25 0 -46 6.5t-24 11.5q-4 6 -2.5 16t1.5 24q0 58 -50 56q-23 -1 -34 -17t-11 -30q0 -18 10 -29.5t27 -20.5t39.5 -16t48.5 -14q43 -12 83 -32.5t61 -56.5q7 -11 11 -23.5t4 -27.5v-5v-5q0 -42 -21 -71t-55 -49zM301 191q6 2 13 9t11 17.5t3 22.5t-11 24
q-8 11 -25 17l-28 10l-26 9l-28 10q-1 1 -2 1l-6 2q-7 -2 -14.5 -10.5t-10.5 -20t0 -25t18 -26.5v1q7 -7 17 -10l64 -22z" />
    <glyph glyph-name="dieresis" unicode="&#xa8;" horiz-adv-x="441" 
d="M204 638q0 -18 -8 -33.5t-21.5 -27.5t-31.5 -18.5t-39 -6.5q-20 0 -38 6.5t-31.5 18.5t-21.5 27.5t-8 33.5t8 33.5t21.5 27.5t31.5 18.5t38 6.5q21 0 39 -6.5t31.5 -18.5t21.5 -27.5t8 -33.5zM436 638q0 -18 -7.5 -33.5t-21 -27.5t-31.5 -18.5t-39 -6.5t-39 6.5
t-31.5 18.5t-21 27.5t-7.5 33.5t7.5 33.5t21 27.5t31.5 18.5t39 6.5t39 -6.5t31.5 -18.5t21 -27.5t7.5 -33.5z" />
    <glyph glyph-name="copyright" unicode="&#xa9;" horiz-adv-x="725" 
d="M516 184q6 4 9 1q4 -3 3 -11q-3 -11 -14.5 -29.5t-31.5 -36.5t-48.5 -31t-66.5 -13q-39 0 -73.5 14.5t-60 40t-40 60t-14.5 73.5q0 37 14 70.5t38.5 59t58 41t72.5 17.5q29 0 57 -6t50.5 -18.5t36.5 -31t14 -42.5q0 -25 -16 -45.5t-54 -22.5q-17 -2 -32 3t-17 9
q-3 7 0 28q2 21 -6 36.5t-19 16.5q-16 1 -27 -9.5t-18 -27.5t-10 -38t-3 -40q0 -46 18.5 -71t47 -31.5t63.5 2.5t69 32zM361 578q67 0 126 -25.5t103.5 -70t70 -103.5t25.5 -126t-25.5 -126t-70 -103.5t-103.5 -70t-126 -25.5t-126 25.5t-103.5 70t-70 103.5t-25.5 126
t25.5 126t70 103.5t103.5 70t126 25.5zM361 -9q54 0 101.5 20.5t83.5 56t56.5 83.5t20.5 102t-20.5 101.5t-56.5 83.5t-83.5 56.5t-101.5 20.5t-102 -20.5t-83.5 -56.5t-56 -83.5t-20.5 -101.5t20.5 -102t56 -83.5t83.5 -56t102 -20.5z" />
    <glyph glyph-name="guillemotleft" unicode="&#xab;" horiz-adv-x="410" 
d="M398 68q4 -12 -2.5 -19.5t-20.5 3.5q-29 24 -60 52.5t-57 53t-43.5 41.5l-17.5 17q-14 17 -14 25t14 24l17 17t43 41.5t57.5 53t60.5 52.5q11 9 19 4.5t3 -20.5q-6 -19 -15 -46.5t-18 -53.5t-15.5 -46.5t-8.5 -25.5q1 -5 8 -25t16 -46.5t18 -54.5t16 -47zM225 68
q4 -12 -2.5 -19.5t-20.5 3.5q-28 24 -59.5 52.5t-57.5 53t-43.5 41.5l-17.5 17q-14 17 -14 25t14 24l17 17t43 41.5t57.5 53t60.5 52.5q11 9 19 4.5t3 -20.5q-6 -19 -15 -46.5t-17.5 -53.5t-15.5 -46.5t-9 -25.5q1 -5 8 -25t16 -46.5t18 -54.5t16 -47z" />
    <glyph glyph-name="registered" unicode="&#xae;" horiz-adv-x="444" 
d="M334 331q5 -3 6 -6t-5 -9q-8 -8 -21 -15.5t-30 -7.5q-26 0 -40 12.5t-20.5 28.5t-8.5 31t-3 21l-13 1v-82q0 -1 -1 -2l-1 -1h-81q-1 0 -1 1q-1 0 -1 2v209v2h1q16 2 34 4q16 2 36 3.5t41 1.5q19 0 39 -4t35.5 -13t25.5 -22t10 -31q0 -23 -16.5 -38.5t-37.5 -23.5
q2 -3 6.5 -11t11.5 -17.5t15.5 -18.5t18.5 -15zM249 452q0 15 -8.5 21.5t-19.5 6.5q-5 0 -11 -0.5t-11 -1.5v-55h19q31 0 31 29zM222 621q44 0 82.5 -16.5t67.5 -45.5t45.5 -67.5t16.5 -82.5t-16.5 -82.5t-45.5 -67.5t-67.5 -45.5t-82.5 -16.5t-82.5 16.5t-67.5 45.5
t-45.5 67.5t-16.5 82.5t16.5 82.5t45.5 67.5t67.5 45.5t82.5 16.5zM222 238q35 0 66 13.5t54.5 36.5t37 54.5t13.5 66.5t-13.5 66t-37 54.5t-54.5 37t-66 13.5q-36 0 -67 -13.5t-54 -37t-36.5 -54.5t-13.5 -66t13.5 -66.5t36.5 -54.5t54 -36.5t67 -13.5z" />
    <glyph glyph-name="degree" unicode="&#xb0;" horiz-adv-x="324" 
d="M162 431q-32 0 -59.5 12t-48 32.5t-32.5 48t-12 59.5q0 31 12 59t32.5 48.5t48 32.5t59.5 12q31 0 59 -12t48.5 -32.5t32.5 -48.5t12 -59q0 -32 -12 -59.5t-32.5 -48t-48.5 -32.5t-59 -12zM162 641q-24 0 -41 -17t-17 -41t17 -40.5t41 -16.5t41 16.5t17 40.5t-17 41
t-41 17z" />
    <glyph glyph-name="acute" unicode="&#xb4;" horiz-adv-x="274" 
d="M269 735q-33 -65 -85 -110.5t-130 -72.5q-6 -2 -8 -1q-14 11 -23.5 23t-17.5 26q-3 3 1 7q26 26 46 49.5t35 48.5t25.5 52.5t19.5 62.5q2 3 6 2q40 -10 72.5 -30t56.5 -49q4 -3 2 -8z" />
    <glyph glyph-name="paragraph" unicode="&#xb6;" horiz-adv-x="676" 
d="M646 -155q0 -2 -2 -4q-1 -1 -2 -1h-114q-1 -1 -2 0q-2 0 -2 4v34.5t-0.5 87.5t-0.5 123v141v383q0 2 -2 4q-1 1 -2 1h-52q-1 -1 -2 -1q-2 -2 -2 -3v-768q0 -4 -2 -4h-2h-115h-2q-2 0 -2 4v401q-58 -6 -117 3t-106 38.5t-77 82t-30 132.5q0 64 25.5 108.5t67.5 72.5
t96.5 40t113.5 12t117 -5t106 -10q55 -7 106 -15q1 0 2 -1q2 -2 2 -4v-856z" />
    <glyph glyph-name="cedilla" unicode="&#xb8;" horiz-adv-x="265" 
d="M110 5q3 0 3 -2v-1v-74q47 6 79.5 -6.5t50.5 -35t20.5 -50.5t-10.5 -51.5t-42 -38.5t-74 -12q-36 2 -63.5 14t-45 26.5t-24.5 26t-1 12.5q2 1 14.5 -3t30.5 -7.5t38.5 -6t37.5 0t28 12.5t10 30q-2 25 -38 33.5t-98 -7.5q-5 0 -3 4q3 7 13.5 26.5t21.5 41t21.5 40.5
t13.5 25l3 3h1h13z" />
    <glyph glyph-name="guillemotright" unicode="&#xbb;" horiz-adv-x="410" 
d="M12 68q7 19 16 47t18 54.5t15.5 46.5t8.5 25q-2 5 -8.5 25.5t-15.5 46.5t-18 53.5t-15 46.5q-5 16 3 20.5t19 -4.5q29 -24 60.5 -52.5t57.5 -53t43 -41.5l17 -17q14 -16 14 -24t-14 -25l-17.5 -17t-43.5 -41.5t-57.5 -53t-59.5 -52.5q-14 -11 -20.5 -3.5t-2.5 19.5z
M185 68q7 19 16 47t18 54.5t15.5 46.5t8.5 25q-2 5 -9 25.5t-15.5 46.5t-17.5 53.5t-15 46.5q-5 16 3 20.5t19 -4.5q29 -24 60.5 -52.5t57.5 -53t43 -41.5l17 -17q14 -16 14 -24t-14 -25l-17.5 -17t-44 -41.5t-57.5 -53t-59 -52.5q-14 -11 -20.5 -3.5t-2.5 19.5z" />
    <glyph glyph-name="questiondown" unicode="&#xbf;" horiz-adv-x="299" 
d="M56.0146 428.005q0 41.9971 28.498 70.4961q28.499 28.498 69.4961 28.498t69.4961 -28.498q28.498 -28.499 28.498 -70.4961q0 -40.9971 -28.498 -69.4961q-28.499 -28.498 -69.4961 -28.498t-69.4961 28.498q-28.498 28.499 -28.498 69.4961zM47.0156 137.022
q11.999 21.999 23.498 48.4971q11.5 26.498 24.499 49.4971t28.498 38.498t34.498 15.499q16.999 0 31.498 -14.499t24.498 -37.498q10 -22.999 14.999 -49.9971q5 -26.998 2 -52.9971q-4 -36.9971 -20.998 -67.4951q-16.999 -30.498 -35.998 -57.4971
q-18.999 -26.998 -34.498 -50.9971q-15.499 -23.998 -15.499 -49.9961q0 -7 1 -15.5q1 -8.49902 5 -15.999q3.99902 -7.49902 10.999 -12.999q6.99902 -5.49902 18.999 -5.49902q11.999 0 18.999 5.99902q6.99902 6 10.999 15.999q4 10 5.49902 21.499
q1.5 11.499 1.5 21.499q0 13.999 -1.5 28.498q-1.49902 14.499 2.5 20.499q3 4.99902 26.499 10.999q23.498 5.99902 48.4971 6.99902q46.9971 0 68.9951 -23.998q21.999 -23.999 20.999 -58.9961q0 -25.999 -15.499 -52.4971q-15.499 -26.499 -42.9971 -47.4971
q-27.499 -20.999 -66.4961 -33.998q-38.998 -12.999 -86.9951 -12.999q-52.9961 0 -93.4941 14.499q-40.4971 14.499 -67.4961 37.9971q-26.998 23.499 -40.9971 51.9971t-13.999 56.4971q0 28.998 10.499 53.4961q10.499 24.499 26.998 48.9971
q16.499 24.499 35.998 51.4971t38.498 61.9961z" />
    <glyph glyph-name="Agrave" unicode="&#xc0;" horiz-adv-x="689" 
d="M683 5q1 -2 -1 -4q-1 -1 -2 -1h-226q-2 0 -3 1t-2 1.5t-1 2.5l-25 106h-177q-5 -24 -9 -43.5t-7 -33.5q-4 -17 -6 -29q-1 -2 -2 -2.5t-2 -1.5q-2 -1 -3 -1h-209q-1 0 -2 1q-2 2 0 4q48 150 86 269q16 51 31.5 99t27.5 86t19.5 61.5l7.5 23.5q15 39 15 61t-5.5 34.5
t-11.5 19t-3 15.5q5 15 19.5 27.5t35 21.5t43.5 14.5t45 5.5q27 0 54 -9t51.5 -28.5t45 -49t35.5 -70.5q8 -22 20 -59t26 -82t29.5 -95t30.5 -99q35 -115 75 -246zM391 246l-59 290q-7 -27 -14 -63t-14.5 -75t-15 -78.5t-14.5 -73.5h117zM212 935q-3 5 2 8q24 29 56.5 49
t72.5 30q4 1 6 -2q9 -35 19.5 -62.5t25.5 -52.5t35 -48.5t46 -49.5q4 -4 1 -7q-8 -14 -17.5 -26t-23.5 -23q-2 -1 -8 1q-78 27 -130 72.5t-85 110.5z" />
    <glyph glyph-name="Aacute" unicode="&#xc1;" horiz-adv-x="689" 
d="M683 5q1 -2 -1 -4q-1 -1 -2 -1h-226q-2 0 -3 1t-2 1.5t-1 2.5l-25 106h-177q-5 -24 -9 -43.5t-7 -33.5q-4 -17 -6 -29q-1 -2 -2 -2.5t-2 -1.5q-2 -1 -3 -1h-209q-1 0 -2 1q-2 2 0 4q48 150 86 269q16 51 31.5 99t27.5 86t19.5 61.5l7.5 23.5q15 39 15 61t-5.5 34.5
t-11.5 19t-3 15.5q5 15 19.5 27.5t35 21.5t43.5 14.5t45 5.5q27 0 54 -9t51.5 -28.5t45 -49t35.5 -70.5q8 -22 20 -59t26 -82t29.5 -95t30.5 -99q35 -115 75 -246zM391 246l-59 290q-7 -27 -14 -63t-14.5 -75t-15 -78.5t-14.5 -73.5h117zM477 945q-33 -65 -85 -110.5
t-130 -72.5q-6 -2 -8 -1q-14 11 -23.5 23t-17.5 26q-3 3 1 7q26 26 46 49.5t35 48.5t25.5 52.5t19.5 62.5q2 3 6 2q40 -10 72.5 -30t56.5 -49q4 -3 2 -8z" />
    <glyph glyph-name="Acircumflex" unicode="&#xc2;" horiz-adv-x="689" 
d="M683 5q1 -2 -1 -4q-1 -1 -2 -1h-226q-2 0 -3 1t-2 1.5t-1 2.5l-25 106h-177q-5 -24 -9 -43.5t-7 -33.5q-4 -17 -6 -29q-1 -2 -2 -2.5t-2 -1.5q-2 -1 -3 -1h-209q-1 0 -2 1q-2 2 0 4q48 150 86 269q16 51 31.5 99t27.5 86t19.5 61.5l7.5 23.5q15 39 15 61t-5.5 34.5
t-11.5 19t-3 15.5q5 15 19.5 27.5t35 21.5t43.5 14.5t45 5.5q27 0 54 -9t51.5 -28.5t45 -49t35.5 -70.5q8 -22 20 -59t26 -82t29.5 -95t30.5 -99q35 -115 75 -246zM391 246l-59 290q-7 -27 -14 -63t-14.5 -75t-15 -78.5t-14.5 -73.5h117zM506 753q-24 8 -54.5 19t-58.5 22
q-33 11 -66 24q-37 -13 -71 -24q-29 -10 -61 -20.5t-52 -17.5q-17 -5 -21 1t5 17q45 50 79 90q15 17 29 33t25 29t18 21l7 8q3 3 4 3h2h69q5 0 7 -1.5t3 -2.5l6.5 -8t17.5 -21t25 -29.5t28 -33.5q33 -40 76 -91q11 -14 3.5 -18.5t-20.5 0.5z" />
    <glyph glyph-name="Atilde" unicode="&#xc3;" horiz-adv-x="689" 
d="M683 5q1 -2 -1 -4q-1 -1 -2 -1h-226q-2 0 -3 1t-2 1.5t-1 2.5l-25 106h-177q-5 -24 -9 -43.5t-7 -33.5q-4 -17 -6 -29q-1 -2 -2 -2.5t-2 -1.5q-2 -1 -3 -1h-209q-1 0 -2 1q-2 2 0 4q48 150 86 269q16 51 31.5 99t27.5 86t19.5 61.5l7.5 23.5q15 39 15 61t-5.5 34.5
t-11.5 19t-3 15.5q5 15 19.5 27.5t35 21.5t43.5 14.5t45 5.5q27 0 54 -9t51.5 -28.5t45 -49t35.5 -70.5q8 -22 20 -59t26 -82t29.5 -95t30.5 -99q35 -115 75 -246zM391 246l-59 290q-7 -27 -14 -63t-14.5 -75t-15 -78.5t-14.5 -73.5h117zM576 926q6 1 10.5 -13t3.5 -35
t-9.5 -45t-29 -44t-54.5 -31.5t-85 -6.5q-29 3 -57 13.5t-54 22t-50.5 20.5t-45.5 10q-29 1 -47.5 -7.5t-30.5 -19.5t-19 -20.5t-13 -9.5q-6 -1 -8.5 11.5t1 32t13.5 42t29.5 41.5t48.5 31t71 11q34 -1 62 -10.5t54 -20t52 -20t56 -10.5q24 -1 41 8t28.5 19.5t19 20
t13.5 10.5z" />
    <glyph glyph-name="Adieresis" unicode="&#xc4;" horiz-adv-x="689" 
d="M683 5q1 -2 -1 -4q-1 -1 -2 -1h-226q-2 0 -3 1t-2 1.5t-1 2.5l-25 106h-177q-5 -24 -9 -43.5t-7 -33.5q-4 -17 -6 -29q-1 -2 -2 -2.5t-2 -1.5q-2 -1 -3 -1h-209q-1 0 -2 1q-2 2 0 4q48 150 86 269q16 51 31.5 99t27.5 86t19.5 61.5l7.5 23.5q15 39 15 61t-5.5 34.5
t-11.5 19t-3 15.5q5 15 19.5 27.5t35 21.5t43.5 14.5t45 5.5q27 0 54 -9t51.5 -28.5t45 -49t35.5 -70.5q8 -22 20 -59t26 -82t29.5 -95t30.5 -99q35 -115 75 -246zM391 246l-59 290q-7 -27 -14 -63t-14.5 -75t-15 -78.5t-14.5 -73.5h117zM312 838q0 -18 -8 -33.5
t-21.5 -27.5t-31.5 -18.5t-39 -6.5q-20 0 -38 6.5t-31.5 18.5t-21.5 27.5t-8 33.5t8 33.5t21.5 27.5t31.5 18.5t38 6.5q21 0 39 -6.5t31.5 -18.5t21.5 -27.5t8 -33.5zM544 838q0 -18 -7.5 -33.5t-21 -27.5t-31.5 -18.5t-39 -6.5t-39 6.5t-31.5 18.5t-21 27.5t-7.5 33.5
t7.5 33.5t21 27.5t31.5 18.5t39 6.5t39 -6.5t31.5 -18.5t21 -27.5t7.5 -33.5z" />
    <glyph glyph-name="Aring" unicode="&#xc5;" horiz-adv-x="689" 
d="M683 5q1 -2 -1 -4q-1 -1 -2 -1h-226q-2 0 -3 1t-2 1.5t-1 2.5l-25 106h-177q-5 -24 -9 -43.5t-7 -33.5q-4 -17 -6 -29q-1 -2 -2 -2.5t-2 -1.5q-2 -1 -3 -1h-209q-1 0 -2 1q-2 2 0 4q48 150 86 269q16 51 31.5 99t27.5 86t19.5 61.5l7.5 23.5q15 39 15 61t-5.5 34.5
t-11.5 19t-3 15.5q5 15 19.5 27.5t35 21.5t43.5 14.5t45 5.5q27 0 54 -9t51.5 -28.5t45 -49t35.5 -70.5q8 -22 20 -59t26 -82t29.5 -95t30.5 -99q35 -115 75 -246zM391 246l-59 290q-7 -27 -14 -63t-14.5 -75t-15 -78.5t-14.5 -73.5h117zM456 845q0 -26 -10 -48.5t-28 -39
t-41.5 -26.5t-50.5 -10t-51 10t-41.5 26.5t-28 39t-10.5 48.5q0 25 10.5 47.5t28 39.5t41.5 26.5t51 9.5t50.5 -9.5t41.5 -26.5t28 -39.5t10 -47.5zM326 901q-21 0 -35 -15.5t-14 -40.5t14.5 -42t34.5 -17t34 17t14 42t-14 40.5t-34 15.5z" />
    <glyph glyph-name="Ccedilla" unicode="&#xc7;" horiz-adv-x="642" 
d="M623 198q15 13 18 4t-2 -27q-2 -10 -9.5 -28t-21.5 -39.5t-35 -44t-51.5 -41t-71 -30.5t-91.5 -13q-74 -2 -138 29t-111 83.5t-73.5 122.5t-26.5 147q0 75 25.5 142.5t71.5 119.5t110.5 83t142.5 31q59 1 108 -12.5t84.5 -38t55 -58.5t19.5 -74q0 -20 -7 -40t-21.5 -36.5
t-35 -27t-47.5 -10.5q-33 0 -56 10.5t-21 25.5q3 24 1.5 48.5t-10 43.5t-24.5 31t-41 12q-34 0 -59.5 -26t-42 -65t-22.5 -84t-1 -83q8 -64 31 -108.5t55 -71t71 -36.5t79 -5.5t78 21.5t69 45zM368 5q3 0 3 -2v-1v-74q47 6 79.5 -6.5t50.5 -35t20.5 -50.5t-10.5 -51.5
t-42 -38.5t-74 -12q-36 2 -63.5 14t-45 26.5t-24.5 26t-1 12.5q2 1 14.5 -3t30.5 -7.5t38.5 -6t37.5 0t28 12.5t10 30q-2 25 -38 33.5t-98 -7.5q-5 0 -3 4q3 7 13.5 26.5t21.5 41t21.5 40.5t13.5 25l3 3h1h13z" />
    <glyph glyph-name="Egrave" unicode="&#xc8;" horiz-adv-x="541" 
d="M511 171q15 10 21 2t3 -26q-3 -19 -19.5 -48t-47 -56t-76 -46t-106.5 -19q-64 0 -112 23t-80 61t-48 87t-16 101l1 461q0 2 3 4q1 1 3 1h477q1 0 3 -1q4 -2 5 -4q9 -34 5 -65q-4 -27 -21 -55t-60 -45q-28 -11 -61 -12.5t-62 0.5q-34 3 -69 10v-22t-0.5 -32t-0.5 -38.5
v-39.5h165q2 0 3 -1q2 -2 2 -4v-100q0 -2 -1 -2.5t-2 -1.5q-2 -1 -3 -1h-165v-72q1 -32 15.5 -52.5t37.5 -30.5t51.5 -12t57 2.5t54 13.5t43.5 20zM118 935q-3 5 2 8q24 29 56.5 49t72.5 30q4 1 6 -2q9 -35 19.5 -62.5t25.5 -52.5t35 -48.5t46 -49.5q4 -4 1 -7
q-8 -14 -17.5 -26t-23.5 -23q-2 -1 -8 1q-78 27 -130 72.5t-85 110.5z" />
    <glyph glyph-name="Eacute" unicode="&#xc9;" horiz-adv-x="541" 
d="M511 171q15 10 21 2t3 -26q-3 -19 -19.5 -48t-47 -56t-76 -46t-106.5 -19q-64 0 -112 23t-80 61t-48 87t-16 101l1 461q0 2 3 4q1 1 3 1h477q1 0 3 -1q4 -2 5 -4q9 -34 5 -65q-4 -27 -21 -55t-60 -45q-28 -11 -61 -12.5t-62 0.5q-34 3 -69 10v-22t-0.5 -32t-0.5 -38.5
v-39.5h165q2 0 3 -1q2 -2 2 -4v-100q0 -2 -1 -2.5t-2 -1.5q-2 -1 -3 -1h-165v-72q1 -32 15.5 -52.5t37.5 -30.5t51.5 -12t57 2.5t54 13.5t43.5 20zM403 935q-33 -65 -85 -110.5t-130 -72.5q-6 -2 -8 -1q-14 11 -23.5 23t-17.5 26q-3 3 1 7q26 26 46 49.5t35 48.5t25.5 52.5
t19.5 62.5q2 3 6 2q40 -10 72.5 -30t56.5 -49q4 -3 2 -8z" />
    <glyph glyph-name="Ecircumflex" unicode="&#xca;" horiz-adv-x="541" 
d="M511 171q15 10 21 2t3 -26q-3 -19 -19.5 -48t-47 -56t-76 -46t-106.5 -19q-64 0 -112 23t-80 61t-48 87t-16 101l1 461q0 2 3 4q1 1 3 1h477q1 0 3 -1q4 -2 5 -4q9 -34 5 -65q-4 -27 -21 -55t-60 -45q-28 -11 -61 -12.5t-62 0.5q-34 3 -69 10v-22t-0.5 -32t-0.5 -38.5
v-39.5h165q2 0 3 -1q2 -2 2 -4v-100q0 -2 -1 -2.5t-2 -1.5q-2 -1 -3 -1h-165v-72q1 -32 15.5 -52.5t37.5 -30.5t51.5 -12t57 2.5t54 13.5t43.5 20zM450 753q-24 8 -54.5 19t-58.5 22q-33 11 -66 24q-37 -13 -71 -24q-29 -10 -61 -20.5t-52 -17.5q-17 -5 -21 1t5 17
q45 50 79 90q15 17 29 33t25 29t18 21l7 8q3 3 4 3h2h69q5 0 7 -1.5t3 -2.5l6.5 -8t17.5 -21t25 -29.5t28 -33.5q33 -40 76 -91q11 -14 3.5 -18.5t-20.5 0.5z" />
    <glyph glyph-name="Edieresis" unicode="&#xcb;" horiz-adv-x="541" 
d="M511 171q15 10 21 2t3 -26q-3 -19 -19.5 -48t-47 -56t-76 -46t-106.5 -19q-64 0 -112 23t-80 61t-48 87t-16 101l1 461q0 2 3 4q1 1 3 1h477q1 0 3 -1q4 -2 5 -4q9 -34 5 -65q-4 -27 -21 -55t-60 -45q-28 -11 -61 -12.5t-62 0.5q-34 3 -69 10v-22t-0.5 -32t-0.5 -38.5
v-39.5h165q2 0 3 -1q2 -2 2 -4v-100q0 -2 -1 -2.5t-2 -1.5q-2 -1 -3 -1h-165v-72q1 -32 15.5 -52.5t37.5 -30.5t51.5 -12t57 2.5t54 13.5t43.5 20zM254 838q0 -18 -8 -33.5t-21.5 -27.5t-31.5 -18.5t-39 -6.5q-20 0 -38 6.5t-31.5 18.5t-21.5 27.5t-8 33.5t8 33.5t21.5 27.5
t31.5 18.5t38 6.5q21 0 39 -6.5t31.5 -18.5t21.5 -27.5t8 -33.5zM486 838q0 -18 -7.5 -33.5t-21 -27.5t-31.5 -18.5t-39 -6.5t-39 6.5t-31.5 18.5t-21 27.5t-7.5 33.5t7.5 33.5t21 27.5t31.5 18.5t39 6.5t39 -6.5t31.5 -18.5t21 -27.5t7.5 -33.5z" />
    <glyph glyph-name="Igrave" unicode="&#xcc;" horiz-adv-x="311" 
d="M133 739q29 0 56 -9t47.5 -28.5t32.5 -49.5t12 -73v-574q0 -2 -1 -2.5t-2 -1.5t-2 -1h-213q-1 0 -2 1q-3 2 -2 4v206v147v97.5v57.5v27.5v7.5q-4 45 -15.5 65t-23.5 28.5t-19.5 11.5t-4.5 13q4 12 18 25t33 23.5t41.5 17.5t44.5 7zM23 935q-3 5 2 8q24 29 56.5 49
t72.5 30q4 1 6 -2q9 -35 19.5 -62.5t25.5 -52.5t35 -48.5t46 -49.5q4 -4 1 -7q-8 -14 -17.5 -26t-23.5 -23q-2 -1 -8 1q-78 27 -130 72.5t-85 110.5z" />
    <glyph glyph-name="Iacute" unicode="&#xcd;" horiz-adv-x="311" 
d="M133 739q29 0 56 -9t47.5 -28.5t32.5 -49.5t12 -73v-574q0 -2 -1 -2.5t-2 -1.5t-2 -1h-213q-1 0 -2 1q-3 2 -2 4v206v147v97.5v57.5v27.5v7.5q-4 45 -15.5 65t-23.5 28.5t-19.5 11.5t-4.5 13q4 12 18 25t33 23.5t41.5 17.5t44.5 7zM288 945q-33 -65 -85 -110.5
t-130 -72.5q-6 -2 -8 -1q-14 11 -23.5 23t-17.5 26q-3 3 1 7q26 26 46 49.5t35 48.5t25.5 52.5t19.5 62.5q2 3 6 2q40 -10 72.5 -30t56.5 -49q4 -3 2 -8z" />
    <glyph glyph-name="Icircumflex" unicode="&#xce;" horiz-adv-x="311" 
d="M133 739q29 0 56 -9t47.5 -28.5t32.5 -49.5t12 -73v-574q0 -2 -1 -2.5t-2 -1.5t-2 -1h-213q-1 0 -2 1q-3 2 -2 4v206v147v97.5v57.5v27.5v7.5q-4 45 -15.5 65t-23.5 28.5t-19.5 11.5t-4.5 13q4 12 18 25t33 23.5t41.5 17.5t44.5 7zM337 753q-24 8 -54.5 19t-58.5 22
q-33 11 -66 24q-37 -13 -71 -24q-29 -10 -61 -20.5t-52 -17.5q-17 -5 -21 1t5 17q45 50 79 90q15 17 29 33t25 29t18 21l7 8q3 3 4 3h2h69q5 0 7 -1.5t3 -2.5l6.5 -8t17.5 -21t25 -29.5t28 -33.5q33 -40 76 -91q11 -14 3.5 -18.5t-20.5 0.5z" />
    <glyph glyph-name="Idieresis" unicode="&#xcf;" horiz-adv-x="311" 
d="M133 739q29 0 56 -9t47.5 -28.5t32.5 -49.5t12 -73v-574q0 -2 -1 -2.5t-2 -1.5t-2 -1h-213q-1 0 -2 1q-3 2 -2 4v206v147v97.5v57.5v27.5v7.5q-4 45 -15.5 65t-23.5 28.5t-19.5 11.5t-4.5 13q4 12 18 25t33 23.5t41.5 17.5t44.5 7zM140 838q0 -18 -8 -33.5t-21.5 -27.5
t-31.5 -18.5t-39 -6.5q-20 0 -38 6.5t-31.5 18.5t-21.5 27.5t-8 33.5t8 33.5t21.5 27.5t31.5 18.5t38 6.5q21 0 39 -6.5t31.5 -18.5t21.5 -27.5t8 -33.5zM372 838q0 -18 -7.5 -33.5t-21 -27.5t-31.5 -18.5t-39 -6.5t-39 6.5t-31.5 18.5t-21 27.5t-7.5 33.5t7.5 33.5t21 27.5
t31.5 18.5t39 6.5t39 -6.5t31.5 -18.5t21 -27.5t7.5 -33.5z" />
    <glyph glyph-name="Ntilde" unicode="&#xd1;" horiz-adv-x="696" 
d="M665 5q0 -2 -2 -4q-1 -1 -3 -1h-184q-1 -1 -2 0q-3 0 -5 5l-212 417l9 -83l9 -334q0 -2 -1 -2.5t-2 -1.5t-2 -1h-214q-2 0 -3 1q-3 2 -2 4q1 152 3 273q0 51 0.5 100.5t1 87.5t1 62l0.5 24q-2 43 -13 63t-22.5 29t-20 12.5t-4.5 12.5q4 12 18.5 25.5t34.5 24t44 17.5
t49 7q30 0 53.5 -10t43 -27t37 -40t35.5 -50q18 -32 38.5 -67t40.5 -72t39 -74t36 -73l-10 96l-5 284q-1 2 1 4q1 1 3 1h208q1 0 2 -1q3 -3 3 -4zM579 926q6 1 10.5 -13t3.5 -35t-9.5 -45t-29 -44t-54.5 -31.5t-85 -6.5q-29 3 -57 13.5t-54 22t-50.5 20.5t-45.5 10
q-29 1 -47.5 -7.5t-30.5 -19.5t-19 -20.5t-13 -9.5q-6 -1 -8.5 11.5t1 32t13.5 42t29.5 41.5t48.5 31t71 11q34 -1 62 -10.5t54 -20t52 -20t56 -10.5q24 -1 41 8t28.5 19.5t19 20t13.5 10.5z" />
    <glyph glyph-name="Ograve" unicode="&#xd2;" horiz-adv-x="710" 
d="M703 357q0 -77 -24 -145.5t-69 -120.5t-109 -82t-145 -30q-79 0 -143 30t-109 82t-69.5 120.5t-24.5 145.5q0 76 24.5 145t69.5 121.5t109 83t143 30.5t143 -30.5t109.5 -83t70 -121.5t24.5 -145zM236 357q0 -43 8 -90t23.5 -86t38 -64.5t50.5 -25.5q29 0 51.5 25
t38 63.5t23.5 85.5t8 92q0 44 -8 91.5t-24 86.5t-38.5 64.5t-50.5 25.5q-29 0 -51 -25.5t-37.5 -64.5t-23.5 -86.5t-8 -91.5zM222 935q-3 5 2 8q24 29 56.5 49t72.5 30q4 1 6 -2q9 -35 19.5 -62.5t25.5 -52.5t35 -48.5t46 -49.5q4 -4 1 -7q-8 -14 -17.5 -26t-23.5 -23
q-2 -1 -8 1q-78 27 -130 72.5t-85 110.5z" />
    <glyph glyph-name="Oacute" unicode="&#xd3;" horiz-adv-x="710" 
d="M703 357q0 -77 -24 -145.5t-69 -120.5t-109 -82t-145 -30q-79 0 -143 30t-109 82t-69.5 120.5t-24.5 145.5q0 76 24.5 145t69.5 121.5t109 83t143 30.5t143 -30.5t109.5 -83t70 -121.5t24.5 -145zM236 357q0 -43 8 -90t23.5 -86t38 -64.5t50.5 -25.5q29 0 51.5 25
t38 63.5t23.5 85.5t8 92q0 44 -8 91.5t-24 86.5t-38.5 64.5t-50.5 25.5q-29 0 -51 -25.5t-37.5 -64.5t-23.5 -86.5t-8 -91.5zM513 945q-33 -65 -85 -110.5t-130 -72.5q-6 -2 -8 -1q-14 11 -23.5 23t-17.5 26q-3 3 1 7q26 26 46 49.5t35 48.5t25.5 52.5t19.5 62.5q2 3 6 2
q40 -10 72.5 -30t56.5 -49q4 -3 2 -8z" />
    <glyph glyph-name="Ocircumflex" unicode="&#xd4;" horiz-adv-x="710" 
d="M703 357q0 -77 -24 -145.5t-69 -120.5t-109 -82t-145 -30q-79 0 -143 30t-109 82t-69.5 120.5t-24.5 145.5q0 76 24.5 145t69.5 121.5t109 83t143 30.5t143 -30.5t109.5 -83t70 -121.5t24.5 -145zM236 357q0 -43 8 -90t23.5 -86t38 -64.5t50.5 -25.5q29 0 51.5 25
t38 63.5t23.5 85.5t8 92q0 44 -8 91.5t-24 86.5t-38.5 64.5t-50.5 25.5q-29 0 -51 -25.5t-37.5 -64.5t-23.5 -86.5t-8 -91.5zM538 743q-24 8 -54.5 19t-58.5 22q-33 11 -66 24q-37 -13 -71 -24q-29 -10 -61 -20.5t-52 -17.5q-17 -5 -21 1t5 17q45 50 79 90q15 17 29 33
t25 29t18 21l7 8q3 3 4 3h2h69q5 0 7 -1.5t3 -2.5l6.5 -8t17.5 -21t25 -29.5t28 -33.5q33 -40 76 -91q11 -14 3.5 -18.5t-20.5 0.5z" />
    <glyph glyph-name="Otilde" unicode="&#xd5;" horiz-adv-x="710" 
d="M703 357q0 -77 -24 -145.5t-69 -120.5t-109 -82t-145 -30q-79 0 -143 30t-109 82t-69.5 120.5t-24.5 145.5q0 76 24.5 145t69.5 121.5t109 83t143 30.5t143 -30.5t109.5 -83t70 -121.5t24.5 -145zM236 357q0 -43 8 -90t23.5 -86t38 -64.5t50.5 -25.5q29 0 51.5 25
t38 63.5t23.5 85.5t8 92q0 44 -8 91.5t-24 86.5t-38.5 64.5t-50.5 25.5q-29 0 -51 -25.5t-37.5 -64.5t-23.5 -86.5t-8 -91.5zM595 936q6 1 10.5 -13t3.5 -35t-9.5 -45t-29 -44t-54.5 -31.5t-85 -6.5q-29 3 -57 13.5t-54 22t-50.5 20.5t-45.5 10q-29 1 -47.5 -7.5
t-30.5 -19.5t-19 -20.5t-13 -9.5q-6 -1 -8.5 11.5t1 32t13.5 42t29.5 41.5t48.5 31t71 11q34 -1 62 -10.5t54 -20t52 -20t56 -10.5q24 -1 41 8t28.5 19.5t19 20t13.5 10.5z" />
    <glyph glyph-name="Odieresis" unicode="&#xd6;" horiz-adv-x="710" 
d="M703 357q0 -77 -24 -145.5t-69 -120.5t-109 -82t-145 -30q-79 0 -143 30t-109 82t-69.5 120.5t-24.5 145.5q0 76 24.5 145t69.5 121.5t109 83t143 30.5t143 -30.5t109.5 -83t70 -121.5t24.5 -145zM236 357q0 -43 8 -90t23.5 -86t38 -64.5t50.5 -25.5q29 0 51.5 25
t38 63.5t23.5 85.5t8 92q0 44 -8 91.5t-24 86.5t-38.5 64.5t-50.5 25.5q-29 0 -51 -25.5t-37.5 -64.5t-23.5 -86.5t-8 -91.5zM338 838q0 -18 -8 -33.5t-21.5 -27.5t-31.5 -18.5t-39 -6.5q-20 0 -38 6.5t-31.5 18.5t-21.5 27.5t-8 33.5t8 33.5t21.5 27.5t31.5 18.5t38 6.5
q21 0 39 -6.5t31.5 -18.5t21.5 -27.5t8 -33.5zM570 838q0 -18 -7.5 -33.5t-21 -27.5t-31.5 -18.5t-39 -6.5t-39 6.5t-31.5 18.5t-21 27.5t-7.5 33.5t7.5 33.5t21 27.5t31.5 18.5t39 6.5t39 -6.5t31.5 -18.5t21 -27.5t7.5 -33.5z" />
    <glyph glyph-name="Oslash" unicode="&#xd8;" horiz-adv-x="710" 
d="M703 357q0 -77 -24 -145.5t-69 -120.5t-109 -82t-145 -30q-74 0 -138 28l-49 -106q-3 -4 -6 -4h-2h-85h-2q-2 0 1 4q3 7 25 45t55 98q-69 51 -107 133.5t-38 179.5q0 76 24.5 145t69.5 121.5t109 83t143 30.5q73 0 137 -28l39 82q1 2 5 4q2 1 3 1h84l1 -1q0 -1 0.5 -1.5
t-1.5 -2.5q-8 -15 -19 -33q-9 -16 -21.5 -38.5t-26.5 -48.5q69 -52 107.5 -134.5t38.5 -179.5zM477 357q0 65 -17 130l-175 -342q14 -25 32 -39.5t39 -14.5q29 0 51.5 25t38 63.5t23.5 85.5t8 92zM236 357q0 -31 4 -63.5t12 -63.5l176 340q-14 25 -32 40t-40 15
q-29 0 -51 -25.5t-37.5 -64.5t-23.5 -86.5t-8 -91.5z" />
    <glyph glyph-name="Ugrave" unicode="&#xd9;" horiz-adv-x="698" 
d="M668 710q0 -26 -0.5 -63.5t-0.5 -80t-0.5 -87.5t-0.5 -88v-80.5v-63.5q1 -67 -24.5 -117t-67.5 -84t-96 -50.5t-110.5 -17t-110.5 16t-96 50t-68 83t-26 116.5v1v256q0 42 -6 68t-14.5 41.5t-18.5 23t-17.5 11t-12 6.5t-2.5 10q4 13 16.5 26t30 24t38.5 18t43 7
q32 0 61.5 -11t52 -32t36 -50.5t13.5 -66.5v-383v-2q0 -42 24 -63t52.5 -21t52.5 21t24 64v517q0 3 2 5q1 1 2 1h220q1 0 2 -1q2 -2 2 -4zM216 935q-3 5 2 8q24 29 56.5 49t72.5 30q4 1 6 -2q9 -35 19.5 -62.5t25.5 -52.5t35 -48.5t46 -49.5q4 -4 1 -7q-8 -14 -17.5 -26
t-23.5 -23q-2 -1 -8 1q-78 27 -130 72.5t-85 110.5z" />
    <glyph glyph-name="Uacute" unicode="&#xda;" horiz-adv-x="698" 
d="M668 710q0 -26 -0.5 -63.5t-0.5 -80t-0.5 -87.5t-0.5 -88v-80.5v-63.5q1 -67 -24.5 -117t-67.5 -84t-96 -50.5t-110.5 -17t-110.5 16t-96 50t-68 83t-26 116.5v1v256q0 42 -6 68t-14.5 41.5t-18.5 23t-17.5 11t-12 6.5t-2.5 10q4 13 16.5 26t30 24t38.5 18t43 7
q32 0 61.5 -11t52 -32t36 -50.5t13.5 -66.5v-383v-2q0 -42 24 -63t52.5 -21t52.5 21t24 64v517q0 3 2 5q1 1 2 1h220q1 0 2 -1q2 -2 2 -4zM481 935q-33 -65 -85 -110.5t-130 -72.5q-6 -2 -8 -1q-14 11 -23.5 23t-17.5 26q-3 3 1 7q26 26 46 49.5t35 48.5t25.5 52.5
t19.5 62.5q2 3 6 2q40 -10 72.5 -30t56.5 -49q4 -3 2 -8z" />
    <glyph glyph-name="Ucircumflex" unicode="&#xdb;" horiz-adv-x="698" 
d="M668 710q0 -26 -0.5 -63.5t-0.5 -80t-0.5 -87.5t-0.5 -88v-80.5v-63.5q1 -67 -24.5 -117t-67.5 -84t-96 -50.5t-110.5 -17t-110.5 16t-96 50t-68 83t-26 116.5v1v256q0 42 -6 68t-14.5 41.5t-18.5 23t-17.5 11t-12 6.5t-2.5 10q4 13 16.5 26t30 24t38.5 18t43 7
q32 0 61.5 -11t52 -32t36 -50.5t13.5 -66.5v-383v-2q0 -42 24 -63t52.5 -21t52.5 21t24 64v517q0 3 2 5q1 1 2 1h220q1 0 2 -1q2 -2 2 -4zM529 753q-24 8 -54.5 19t-58.5 22q-33 11 -66 24q-37 -13 -71 -24q-29 -10 -61 -20.5t-52 -17.5q-17 -5 -21 1t5 17q45 50 79 90
q15 17 29 33t25 29t18 21l7 8q3 3 4 3h2h69q5 0 7 -1.5t3 -2.5l6.5 -8t17.5 -21t25 -29.5t28 -33.5q33 -40 76 -91q11 -14 3.5 -18.5t-20.5 0.5z" />
    <glyph glyph-name="Udieresis" unicode="&#xdc;" horiz-adv-x="698" 
d="M668 710q0 -26 -0.5 -63.5t-0.5 -80t-0.5 -87.5t-0.5 -88v-80.5v-63.5q1 -67 -24.5 -117t-67.5 -84t-96 -50.5t-110.5 -17t-110.5 16t-96 50t-68 83t-26 116.5v1v256q0 42 -6 68t-14.5 41.5t-18.5 23t-17.5 11t-12 6.5t-2.5 10q4 13 16.5 26t30 24t38.5 18t43 7
q32 0 61.5 -11t52 -32t36 -50.5t13.5 -66.5v-383v-2q0 -42 24 -63t52.5 -21t52.5 21t24 64v517q0 3 2 5q1 1 2 1h220q1 0 2 -1q2 -2 2 -4zM332 838q0 -18 -8 -33.5t-21.5 -27.5t-31.5 -18.5t-39 -6.5q-20 0 -38 6.5t-31.5 18.5t-21.5 27.5t-8 33.5t8 33.5t21.5 27.5
t31.5 18.5t38 6.5q21 0 39 -6.5t31.5 -18.5t21.5 -27.5t8 -33.5zM564 838q0 -18 -7.5 -33.5t-21 -27.5t-31.5 -18.5t-39 -6.5t-39 6.5t-31.5 18.5t-21 27.5t-7.5 33.5t7.5 33.5t21 27.5t31.5 18.5t39 6.5t39 -6.5t31.5 -18.5t21 -27.5t7.5 -33.5z" />
    <glyph glyph-name="Yacute" unicode="&#xdd;" horiz-adv-x="668" 
d="M664 615q0 -62 -22.5 -111.5t-56 -88.5t-72.5 -69t-72 -53v-85q1 -40 7 -64.5t14.5 -39t17.5 -21.5t15.5 -10.5t10 -6.5t1.5 -10q-5 -14 -18 -28t-31 -25t-40.5 -18.5t-44.5 -7.5q-30 0 -57.5 9.5t-48.5 30.5t-33.5 53.5t-12.5 79.5v82.5t-1 67.5l-219 408q-2 3 1 6
q1 1 3 2h240q1 0 3 -1l2 -2t2 -3l123 -305q31 48 43 99t13.5 93.5t-2.5 71.5t-4 33q-1 11 16.5 21.5t43.5 16t56.5 4t57.5 -14.5t45 -40.5t20 -73.5zM478 935q-33 -65 -85 -110.5t-130 -72.5q-6 -2 -8 -1q-14 11 -23.5 23t-17.5 26q-3 3 1 7q26 26 46 49.5t35 48.5
t25.5 52.5t19.5 62.5q2 3 6 2q40 -10 72.5 -30t56.5 -49q4 -3 2 -8z" />
    <glyph glyph-name="germandbls" unicode="&#xdf;" horiz-adv-x="699" 
d="M547 349q30 -24 56.5 -46t46.5 -45t33 -48.5t15 -57.5q2 -33 -12 -64t-44 -55.5t-75 -40t-105 -15.5q-41 0 -79.5 7.5t-68.5 23.5t-48 41t-18 58q0 37 25.5 66t69.5 29q12 0 25 -2t24 -5.5t18.5 -7t9.5 -6.5q5 -7 1 -21.5t-4 -28.5q0 -25 11 -37.5t25 -14.5t27.5 4.5
t19.5 20.5t0.5 33t-30.5 42q-32 29 -69 56.5t-68.5 56.5t-52 60.5t-17.5 69.5q2 30 17.5 51.5t33 40.5t31.5 37.5t14 43.5q0 27 -11 44.5t-27.5 26t-35.5 8t-36 -9t-29 -25t-14 -40.5q-2 -19 -0.5 -30t4.5 -27t7 -43.5t7 -78.5v-414q0 -3 -2 -5q-1 -1 -2 -1h-193q-1 0 -2 1
q-2 2 -2 4v498q-7 52 9.5 96.5t52.5 76.5t89 50.5t120 18.5q34 0 71.5 -4.5t72.5 -16t65.5 -29.5t50.5 -45q26 -34 23.5 -60t-17 -48t-34.5 -42t-29 -42t-0.5 -48.5t50.5 -60.5z" />
    <glyph glyph-name="agrave" unicode="&#xe0;" horiz-adv-x="617" 
d="M562 201q0 -60 10.5 -87t22.5 -38.5t20.5 -14t4.5 -12.5q-4 -12 -15 -24.5t-27.5 -23t-36.5 -17t-41 -6.5q-52 0 -89 30t-47 84q-26 -49 -65.5 -81t-92.5 -32q-47 0 -83.5 24t-61.5 62.5t-38 87.5t-13 99q0 51 13 100t38.5 87t63 61t86.5 23q52 0 89 -26.5t60 -68.5v69
q0 3 2 5q1 1 3 1h200q1 0 2 -1q2 -2 2 -4q-2 -65 -4 -123q-2 -50 -2.5 -99t-0.5 -75zM291 117q18 0 32 10.5t23.5 29t14.5 43t5 52.5t-5 53t-14.5 43.5t-23.5 29t-32 10.5t-32 -10.5t-23.5 -29t-14.5 -43.5t-5 -53t5 -52.5t14.5 -43t23.5 -29t32 -10.5zM175 735q-3 5 2 8
q24 29 56.5 49t72.5 30q4 1 6 -2q9 -35 19.5 -62.5t25.5 -52.5t35 -48.5t46 -49.5q4 -4 1 -7q-8 -14 -17.5 -26t-23.5 -23q-2 -1 -8 1q-78 27 -130 72.5t-85 110.5z" />
    <glyph glyph-name="aacute" unicode="&#xe1;" horiz-adv-x="617" 
d="M562 201q0 -60 10.5 -87t22.5 -38.5t20.5 -14t4.5 -12.5q-4 -12 -15 -24.5t-27.5 -23t-36.5 -17t-41 -6.5q-52 0 -89 30t-47 84q-26 -49 -65.5 -81t-92.5 -32q-47 0 -83.5 24t-61.5 62.5t-38 87.5t-13 99q0 51 13 100t38.5 87t63 61t86.5 23q52 0 89 -26.5t60 -68.5v69
q0 3 2 5q1 1 3 1h200q1 0 2 -1q2 -2 2 -4q-2 -65 -4 -123q-2 -50 -2.5 -99t-0.5 -75zM291 117q18 0 32 10.5t23.5 29t14.5 43t5 52.5t-5 53t-14.5 43.5t-23.5 29t-32 10.5t-32 -10.5t-23.5 -29t-14.5 -43.5t-5 -53t5 -52.5t14.5 -43t23.5 -29t32 -10.5zM454 735
q-33 -65 -85 -110.5t-130 -72.5q-6 -2 -8 -1q-14 11 -23.5 23t-17.5 26q-3 3 1 7q26 26 46 49.5t35 48.5t25.5 52.5t19.5 62.5q2 3 6 2q40 -10 72.5 -30t56.5 -49q4 -3 2 -8z" />
    <glyph glyph-name="acircumflex" unicode="&#xe2;" horiz-adv-x="617" 
d="M562 201q0 -60 10.5 -87t22.5 -38.5t20.5 -14t4.5 -12.5q-4 -12 -15 -24.5t-27.5 -23t-36.5 -17t-41 -6.5q-52 0 -89 30t-47 84q-26 -49 -65.5 -81t-92.5 -32q-47 0 -83.5 24t-61.5 62.5t-38 87.5t-13 99q0 51 13 100t38.5 87t63 61t86.5 23q52 0 89 -26.5t60 -68.5v69
q0 3 2 5q1 1 3 1h200q1 0 2 -1q2 -2 2 -4q-2 -65 -4 -123q-2 -50 -2.5 -99t-0.5 -75zM291 117q18 0 32 10.5t23.5 29t14.5 43t5 52.5t-5 53t-14.5 43.5t-23.5 29t-32 10.5t-32 -10.5t-23.5 -29t-14.5 -43.5t-5 -53t5 -52.5t14.5 -43t23.5 -29t32 -10.5zM488 553
q-24 8 -54.5 19t-58.5 22q-33 11 -66 24q-37 -13 -71 -24q-29 -10 -61 -20.5t-52 -17.5q-17 -5 -21 1t5 17q45 50 79 90q15 17 29 33t25 29t18 21l7 8q3 3 4 3h2h69q5 0 7 -1.5t3 -2.5l6.5 -8t17.5 -21t25 -29.5t28 -33.5q33 -40 76 -91q11 -14 3.5 -18.5t-20.5 0.5z" />
    <glyph glyph-name="atilde" unicode="&#xe3;" horiz-adv-x="617" 
d="M562 201q0 -60 10.5 -87t22.5 -38.5t20.5 -14t4.5 -12.5q-4 -12 -15 -24.5t-27.5 -23t-36.5 -17t-41 -6.5q-52 0 -89 30t-47 84q-26 -49 -65.5 -81t-92.5 -32q-47 0 -83.5 24t-61.5 62.5t-38 87.5t-13 99q0 51 13 100t38.5 87t63 61t86.5 23q52 0 89 -26.5t60 -68.5v69
q0 3 2 5q1 1 3 1h200q1 0 2 -1q2 -2 2 -4q-2 -65 -4 -123q-2 -50 -2.5 -99t-0.5 -75zM291 117q18 0 32 10.5t23.5 29t14.5 43t5 52.5t-5 53t-14.5 43.5t-23.5 29t-32 10.5t-32 -10.5t-23.5 -29t-14.5 -43.5t-5 -53t5 -52.5t14.5 -43t23.5 -29t32 -10.5zM553 726
q6 1 10.5 -13t3.5 -35t-9.5 -45t-29 -44t-54.5 -31.5t-85 -6.5q-29 3 -57 13.5t-54 22t-50.5 20.5t-45.5 10q-29 1 -47.5 -7.5t-30.5 -19.5t-19 -20.5t-13 -9.5q-6 -1 -8.5 11.5t1 32t13.5 42t29.5 41.5t48.5 31t71 11q34 -1 62 -10.5t54 -20t52 -20t56 -10.5q24 -1 41 8
t28.5 19.5t19 20t13.5 10.5z" />
    <glyph glyph-name="adieresis" unicode="&#xe4;" horiz-adv-x="617" 
d="M562 201q0 -60 10.5 -87t22.5 -38.5t20.5 -14t4.5 -12.5q-4 -12 -15 -24.5t-27.5 -23t-36.5 -17t-41 -6.5q-52 0 -89 30t-47 84q-26 -49 -65.5 -81t-92.5 -32q-47 0 -83.5 24t-61.5 62.5t-38 87.5t-13 99q0 51 13 100t38.5 87t63 61t86.5 23q52 0 89 -26.5t60 -68.5v69
q0 3 2 5q1 1 3 1h200q1 0 2 -1q2 -2 2 -4q-2 -65 -4 -123q-2 -50 -2.5 -99t-0.5 -75zM291 117q18 0 32 10.5t23.5 29t14.5 43t5 52.5t-5 53t-14.5 43.5t-23.5 29t-32 10.5t-32 -10.5t-23.5 -29t-14.5 -43.5t-5 -53t5 -52.5t14.5 -43t23.5 -29t32 -10.5zM298 638
q0 -18 -8 -33.5t-21.5 -27.5t-31.5 -18.5t-39 -6.5q-20 0 -38 6.5t-31.5 18.5t-21.5 27.5t-8 33.5t8 33.5t21.5 27.5t31.5 18.5t38 6.5q21 0 39 -6.5t31.5 -18.5t21.5 -27.5t8 -33.5zM530 638q0 -18 -7.5 -33.5t-21 -27.5t-31.5 -18.5t-39 -6.5t-39 6.5t-31.5 18.5t-21 27.5
t-7.5 33.5t7.5 33.5t21 27.5t31.5 18.5t39 6.5t39 -6.5t31.5 -18.5t21 -27.5t7.5 -33.5z" />
    <glyph glyph-name="aring" unicode="&#xe5;" horiz-adv-x="617" 
d="M562 201q0 -60 10.5 -87t22.5 -38.5t20.5 -14t4.5 -12.5q-4 -12 -15 -24.5t-27.5 -23t-36.5 -17t-41 -6.5q-52 0 -89 30t-47 84q-26 -49 -65.5 -81t-92.5 -32q-47 0 -83.5 24t-61.5 62.5t-38 87.5t-13 99q0 51 13 100t38.5 87t63 61t86.5 23q52 0 89 -26.5t60 -68.5v69
q0 3 2 5q1 1 3 1h200q1 0 2 -1q2 -2 2 -4q-2 -65 -4 -123q-2 -50 -2.5 -99t-0.5 -75zM291 117q18 0 32 10.5t23.5 29t14.5 43t5 52.5t-5 53t-14.5 43.5t-23.5 29t-32 10.5t-32 -10.5t-23.5 -29t-14.5 -43.5t-5 -53t5 -52.5t14.5 -43t23.5 -29t32 -10.5zM439 675
q0 -26 -10 -48.5t-28 -39t-41.5 -26.5t-50.5 -10t-51 10t-41.5 26.5t-28 39t-10.5 48.5q0 25 10.5 47.5t28 39.5t41.5 26.5t51 9.5t50.5 -9.5t41.5 -26.5t28 -39.5t10 -47.5zM309 731q-21 0 -35 -15.5t-14 -40.5t14.5 -42t34.5 -17t34 17t14 42t-14 40.5t-34 15.5z" />
    <glyph glyph-name="ae" unicode="&#xe6;" horiz-adv-x="1134" 
d="M1118 155q7 -5 3 -16q-4 -16 -21.5 -43t-48 -53t-73 -45t-97.5 -19q-58 0 -107.5 22t-87.5 60q-32 -38 -72.5 -60t-106.5 -23q-28 0 -52.5 9.5t-43 26t-31 37t-16.5 41.5q-26 -49 -65.5 -81t-92.5 -32q-47 0 -83.5 24t-61.5 62.5t-38 87.5t-13 99q0 51 13 100t38.5 87
t63 61t86.5 23q52 0 89 -26.5t60 -68.5v69q0 3 2 5q1 1 3 1h199q1 0 2 -1q2 -2 2 -4q0 -65 -1 -122q0 -24 -0.5 -49.5t-1 -49t-1 -44t-0.5 -33.5q0 -31 6.5 -48t16 -23.5t22 -3.5t24.5 13q-11 26 -17.5 54.5t-6.5 59.5q0 55 20.5 104t57.5 86.5t89.5 59.5t117.5 22
q61 0 105.5 -17t73.5 -43t42.5 -56.5t13.5 -57.5q0 -59 -30.5 -93.5t-77 -50.5t-102 -17t-104.5 7q13 -38 43 -58.5t69.5 -25.5t85.5 5.5t92 36.5q7 5 13 1zM291 117q18 0 32 10.5t23.5 29t14.5 43t5 52.5t-5 53t-14.5 43.5t-23.5 29t-32 10.5t-32 -10.5t-23.5 -29
t-14.5 -43.5t-5 -53t5 -52.5t14.5 -43t23.5 -29t32 -10.5zM859 401q-25 -15 -37 -47.5t-15 -69.5q67 -6 100 16t33 63q0 20 -15 35t-38 13l-1 -1h-3q-12 -2 -24 -9z" />
    <glyph glyph-name="ccedilla" unicode="&#xe7;" horiz-adv-x="521" 
d="M512 155q5 -5 3 -16q-5 -16 -21 -43t-44.5 -53t-70 -45t-96.5 -19q-57 0 -107 21.5t-86.5 58.5t-58 86.5t-21.5 106.5q0 55 20 103t55 85t84 59t106 25q42 0 82 -8.5t71.5 -26t51 -43.5t19.5 -62q0 -18 -6.5 -36t-19.5 -32t-31 -23t-40 -9q-25 0 -46 6t-24 11
q-4 7 -2.5 16.5t1.5 24.5q0 31 -13.5 50t-34.5 19q-20 0 -35 -14.5t-24.5 -37.5t-13 -51t-0.5 -56q6 -67 37.5 -99.5t74.5 -39.5t90.5 5.5t85.5 35.5q8 6 14 1zM283 5q3 0 3 -2v-1v-74q47 6 79.5 -6.5t50.5 -35t20.5 -50.5t-10.5 -51.5t-42 -38.5t-74 -12q-36 2 -63.5 14
t-45 26.5t-24.5 26t-1 12.5q2 1 14.5 -3t30.5 -7.5t38.5 -6t37.5 0t28 12.5t10 30q-2 25 -38 33.5t-98 -7.5q-5 0 -3 4q3 7 13.5 26.5t21.5 41t21.5 40.5t13.5 25l3 3h1h13z" />
    <glyph glyph-name="egrave" unicode="&#xe8;" horiz-adv-x="540" 
d="M519 155q7 -5 3 -16q-4 -16 -21.5 -43t-48 -53t-73 -45t-97.5 -19q-57 0 -106.5 21.5t-86 58.5t-58 86.5t-21.5 106.5q0 55 20.5 104t57.5 86.5t89.5 59.5t117.5 22q61 0 105.5 -17t73.5 -43t42.5 -56.5t13.5 -57.5q0 -59 -30.5 -93.5t-77 -50.5t-102 -17t-104.5 7
q13 -38 43 -58.5t69.5 -25.5t85.5 5.5t92 36.5q7 5 13 1zM260 401q-25 -15 -37 -47.5t-15 -69.5q67 -6 100 16t33 63q0 20 -15 35t-38 13l-1 -1h-3q-12 -2 -24 -9zM128 735q-3 5 2 8q24 29 56.5 49t72.5 30q4 1 6 -2q9 -35 19.5 -62.5t25.5 -52.5t35 -48.5t46 -49.5
q4 -4 1 -7q-8 -14 -17.5 -26t-23.5 -23q-2 -1 -8 1q-78 27 -130 72.5t-85 110.5z" />
    <glyph glyph-name="eacute" unicode="&#xe9;" horiz-adv-x="540" 
d="M519 155q7 -5 3 -16q-4 -16 -21.5 -43t-48 -53t-73 -45t-97.5 -19q-57 0 -106.5 21.5t-86 58.5t-58 86.5t-21.5 106.5q0 55 20.5 104t57.5 86.5t89.5 59.5t117.5 22q61 0 105.5 -17t73.5 -43t42.5 -56.5t13.5 -57.5q0 -59 -30.5 -93.5t-77 -50.5t-102 -17t-104.5 7
q13 -38 43 -58.5t69.5 -25.5t85.5 5.5t92 36.5q7 5 13 1zM260 401q-25 -15 -37 -47.5t-15 -69.5q67 -6 100 16t33 63q0 20 -15 35t-38 13l-1 -1h-3q-12 -2 -24 -9zM413 735q-33 -65 -85 -110.5t-130 -72.5q-6 -2 -8 -1q-14 11 -23.5 23t-17.5 26q-3 3 1 7q26 26 46 49.5
t35 48.5t25.5 52.5t19.5 62.5q2 3 6 2q40 -10 72.5 -30t56.5 -49q4 -3 2 -8z" />
    <glyph glyph-name="ecircumflex" unicode="&#xea;" horiz-adv-x="540" 
d="M519 155q7 -5 3 -16q-4 -16 -21.5 -43t-48 -53t-73 -45t-97.5 -19q-57 0 -106.5 21.5t-86 58.5t-58 86.5t-21.5 106.5q0 55 20.5 104t57.5 86.5t89.5 59.5t117.5 22q61 0 105.5 -17t73.5 -43t42.5 -56.5t13.5 -57.5q0 -59 -30.5 -93.5t-77 -50.5t-102 -17t-104.5 7
q13 -38 43 -58.5t69.5 -25.5t85.5 5.5t92 36.5q7 5 13 1zM260 401q-25 -15 -37 -47.5t-15 -69.5q67 -6 100 16t33 63q0 20 -15 35t-38 13l-1 -1h-3q-12 -2 -24 -9zM463 553q-24 8 -54.5 19t-58.5 22q-33 11 -66 24q-37 -13 -71 -24q-29 -10 -61 -20.5t-52 -17.5
q-17 -5 -21 1t5 17q45 50 79 90q15 17 29 33t25 29t18 21l7 8q3 3 4 3h2h69q5 0 7 -1.5t3 -2.5l6.5 -8t17.5 -21t25 -29.5t28 -33.5q33 -40 76 -91q11 -14 3.5 -18.5t-20.5 0.5z" />
    <glyph glyph-name="edieresis" unicode="&#xeb;" horiz-adv-x="540" 
d="M255 638q0 -18 -7.5 -33.5t-21 -27.5t-31.5 -18.5t-39 -6.5t-39 6.5t-31.5 18.5t-21 27.5t-7.5 33.5t7.5 33.5t21 27.5t31.5 18.5t39 6.5t39 -6.5t31.5 -18.5t21 -27.5t7.5 -33.5zM488 638q0 -18 -7.5 -33.5t-21 -27.5t-31.5 -18.5t-39 -6.5t-39 6.5t-31.5 18.5t-21 27.5
t-7.5 33.5t7.5 33.5t21 27.5t31.5 18.5t39 6.5t39 -6.5t31.5 -18.5t21 -27.5t7.5 -33.5zM519 155q7 -5 3 -16q-4 -16 -21.5 -43t-48 -53t-73 -45t-97.5 -19q-57 0 -106.5 21.5t-86 58.5t-58 86.5t-21.5 106.5q0 55 20.5 104t57.5 86.5t89.5 59.5t117.5 22q61 0 105.5 -17
t73.5 -43t42.5 -56.5t13.5 -57.5q0 -59 -30.5 -93.5t-77 -50.5t-102 -17t-104.5 7q13 -38 43 -58.5t69.5 -25.5t85.5 5.5t92 36.5q7 5 13 1zM260 401q-25 -15 -37 -47.5t-15 -69.5q67 -6 100 16t33 63q0 20 -15 35t-38 13l-1 -1h-3q-12 -2 -24 -9z" />
    <glyph glyph-name="igrave" unicode="&#xec;" horiz-adv-x="286" 
d="M256 6q0 -3 -2 -5q-1 -1 -2 -1h-200q-2 0 -3 1q-2 2 -2 4q2 65 4 123q1 25 1.5 50t1 48.5t1 43t0.5 32.5q0 40 -5 64.5t-12.5 39.5t-15.5 21.5t-14.5 10.5t-10 6.5t-1.5 9.5q4 12 15.5 24.5t28 23t36.5 17t41 6.5q61 0 100 -40.5t39 -111.5v-367v0zM10 735q-3 5 2 8
q24 29 56.5 49t72.5 30q4 1 6 -2q9 -35 19.5 -62.5t25.5 -52.5t35 -48.5t46 -49.5q4 -4 1 -7q-8 -14 -17.5 -26t-23.5 -23q-2 -1 -8 1q-78 27 -130 72.5t-85 110.5z" />
    <glyph glyph-name="iacute" unicode="&#xed;" horiz-adv-x="286" 
d="M256 6q0 -3 -2 -5q-1 -1 -2 -1h-200q-2 0 -3 1q-2 2 -2 4q2 65 4 123q1 25 1.5 50t1 48.5t1 43t0.5 32.5q0 40 -5 64.5t-12.5 39.5t-15.5 21.5t-14.5 10.5t-10 6.5t-1.5 9.5q4 12 15.5 24.5t28 23t36.5 17t41 6.5q61 0 100 -40.5t39 -111.5v-367v0zM275 735
q-33 -65 -85 -110.5t-130 -72.5q-6 -2 -8 -1q-14 11 -23.5 23t-17.5 26q-3 3 1 7q26 26 46 49.5t35 48.5t25.5 52.5t19.5 62.5q2 3 6 2q40 -10 72.5 -30t56.5 -49q4 -3 2 -8z" />
    <glyph glyph-name="icircumflex" unicode="&#xee;" horiz-adv-x="286" 
d="M256 6q0 -3 -2 -5q-1 -1 -2 -1h-200q-2 0 -3 1q-2 2 -2 4q2 65 4 123q1 25 1.5 50t1 48.5t1 43t0.5 32.5q0 40 -5 64.5t-12.5 39.5t-15.5 21.5t-14.5 10.5t-10 6.5t-1.5 9.5q4 12 15.5 24.5t28 23t36.5 17t41 6.5q61 0 100 -40.5t39 -111.5v-367v0zM324 553
q-24 8 -54.5 19t-58.5 22q-33 11 -66 24q-37 -13 -71 -24q-29 -10 -61 -20.5t-52 -17.5q-17 -5 -21 1t5 17q45 50 79 90q15 17 29 33t25 29t18 21l7 8q3 3 4 3h2h69q5 0 7 -1.5t3 -2.5l6.5 -8t17.5 -21t25 -29.5t28 -33.5q33 -40 76 -91q11 -14 3.5 -18.5t-20.5 0.5z" />
    <glyph glyph-name="idieresis" unicode="&#xef;" horiz-adv-x="286" 
d="M256 6q0 -3 -2 -5q-1 -1 -2 -1h-200q-2 0 -3 1q-2 2 -2 4q2 65 4 123q1 25 1.5 50t1 48.5t1 43t0.5 32.5q0 40 -5 64.5t-12.5 39.5t-15.5 21.5t-14.5 10.5t-10 6.5t-1.5 9.5q4 12 15.5 24.5t28 23t36.5 17t41 6.5q61 0 100 -40.5t39 -111.5v-367v0zM128 638
q0 -18 -8 -33.5t-21.5 -27.5t-31.5 -18.5t-39 -6.5q-20 0 -38 6.5t-31.5 18.5t-21.5 27.5t-8 33.5t8 33.5t21.5 27.5t31.5 18.5t38 6.5q21 0 39 -6.5t31.5 -18.5t21.5 -27.5t8 -33.5zM360 638q0 -18 -7.5 -33.5t-21 -27.5t-31.5 -18.5t-39 -6.5t-39 6.5t-31.5 18.5t-21 27.5
t-7.5 33.5t7.5 33.5t21 27.5t31.5 18.5t39 6.5t39 -6.5t31.5 -18.5t21 -27.5t7.5 -33.5z" />
    <glyph glyph-name="ntilde" unicode="&#xf1;" horiz-adv-x="622" 
d="M559 204q0 -40 5.5 -64.5t14 -39.5t18 -21.5t17 -10.5t11 -7t1.5 -10q-4 -12 -15.5 -24t-28 -22.5t-36.5 -17t-41 -6.5q-30 0 -56.5 10.5t-47 30t-32 48t-11.5 63.5v194q0 37 -16 50t-35 5t-35 -36t-16 -72v-268q0 -2 -3 -5q-1 -1 -2 -1h-200q-1 0 -2 1q-2 2 -2 4
q2 65 4 123q1 25 1.5 50t1 48.5t1 43t0.5 32.5q0 40 -5 64.5t-12.5 39.5t-16 21.5t-15 10.5t-10 6.5t-0.5 9.5q4 12 15 24.5t27.5 23t36.5 17t41 6.5q53 0 90 -31t47 -86q16 32 37.5 54.5t44 36.5t45 20t42.5 6q28 0 53 -11.5t44 -33.5t30 -52.5t11 -67.5v-31.5t-0.5 -34
t-0.5 -40.5v-50zM542 726q6 1 10.5 -13t3.5 -35t-9.5 -45t-29 -44t-54.5 -31.5t-85 -6.5q-29 3 -57 13.5t-54 22t-50.5 20.5t-45.5 10q-29 1 -47.5 -7.5t-30.5 -19.5t-19 -20.5t-13 -9.5q-6 -1 -8.5 11.5t1 32t13.5 42t29.5 41.5t48.5 31t71 11q34 -1 62 -10.5t54 -20
t52 -20t56 -10.5q24 -1 41 8t28.5 19.5t19 20t13.5 10.5z" />
    <glyph glyph-name="ograve" unicode="&#xf2;" horiz-adv-x="580" 
d="M570 249q0 -57 -20.5 -106.5t-58 -86t-89 -58t-112.5 -21.5q-60 0 -111.5 21.5t-89 58t-58.5 86t-21 106.5q0 56 21 105.5t58.5 86.5t89 58.5t111.5 21.5t111.5 -21.5t89 -58.5t58.5 -86.5t21 -105.5zM207 249q0 -32 5 -60.5t15 -50.5t25.5 -35t37.5 -13t38 12.5t26 34
t14.5 50.5t4.5 62q0 32 -5 61t-15 50.5t-25.5 34.5t-37.5 13t-38 -13t-26 -34.5t-14.5 -50.5t-4.5 -61zM157 735q-3 5 2 8q24 29 56.5 49t72.5 30q4 1 6 -2q9 -35 19.5 -62.5t25.5 -52.5t35 -48.5t46 -49.5q4 -4 1 -7q-8 -14 -17.5 -26t-23.5 -23q-2 -1 -8 1
q-78 27 -130 72.5t-85 110.5z" />
    <glyph glyph-name="oacute" unicode="&#xf3;" horiz-adv-x="580" 
d="M570 249q0 -57 -20.5 -106.5t-58 -86t-89 -58t-112.5 -21.5q-60 0 -111.5 21.5t-89 58t-58.5 86t-21 106.5q0 56 21 105.5t58.5 86.5t89 58.5t111.5 21.5t111.5 -21.5t89 -58.5t58.5 -86.5t21 -105.5zM207 249q0 -32 5 -60.5t15 -50.5t25.5 -35t37.5 -13t38 12.5t26 34
t14.5 50.5t4.5 62q0 32 -5 61t-15 50.5t-25.5 34.5t-37.5 13t-38 -13t-26 -34.5t-14.5 -50.5t-4.5 -61zM422 735q-33 -65 -85 -110.5t-130 -72.5q-6 -2 -8 -1q-14 11 -23.5 23t-17.5 26q-3 3 1 7q26 26 46 49.5t35 48.5t25.5 52.5t19.5 62.5q2 3 6 2q40 -10 72.5 -30
t56.5 -49q4 -3 2 -8z" />
    <glyph glyph-name="ocircumflex" unicode="&#xf4;" horiz-adv-x="580" 
d="M570 249q0 -57 -20.5 -106.5t-58 -86t-89 -58t-112.5 -21.5q-60 0 -111.5 21.5t-89 58t-58.5 86t-21 106.5q0 56 21 105.5t58.5 86.5t89 58.5t111.5 21.5t111.5 -21.5t89 -58.5t58.5 -86.5t21 -105.5zM207 249q0 -32 5 -60.5t15 -50.5t25.5 -35t37.5 -13t38 12.5t26 34
t14.5 50.5t4.5 62q0 32 -5 61t-15 50.5t-25.5 34.5t-37.5 13t-38 -13t-26 -34.5t-14.5 -50.5t-4.5 -61zM470 553q-24 8 -54.5 19t-58.5 22q-33 11 -66 24q-37 -13 -71 -24q-29 -10 -61 -20.5t-52 -17.5q-17 -5 -21 1t5 17q45 50 79 90q15 17 29 33t25 29t18 21l7 8q3 3 4 3
h2h69q5 0 7 -1.5t3 -2.5l6.5 -8t17.5 -21t25 -29.5t28 -33.5q33 -40 76 -91q11 -14 3.5 -18.5t-20.5 0.5z" />
    <glyph glyph-name="otilde" unicode="&#xf5;" horiz-adv-x="580" 
d="M570 249q0 -57 -20.5 -106.5t-58 -86t-89 -58t-112.5 -21.5q-60 0 -111.5 21.5t-89 58t-58.5 86t-21 106.5q0 56 21 105.5t58.5 86.5t89 58.5t111.5 21.5t111.5 -21.5t89 -58.5t58.5 -86.5t21 -105.5zM207 249q0 -32 5 -60.5t15 -50.5t25.5 -35t37.5 -13t38 12.5t26 34
t14.5 50.5t4.5 62q0 32 -5 61t-15 50.5t-25.5 34.5t-37.5 13t-38 -13t-26 -34.5t-14.5 -50.5t-4.5 -61zM539 726q6 1 10.5 -13t3.5 -35t-9.5 -45t-29 -44t-54.5 -31.5t-85 -6.5q-29 3 -57 13.5t-54 22t-50.5 20.5t-45.5 10q-29 1 -47.5 -7.5t-30.5 -19.5t-19 -20.5t-13 -9.5
q-6 -1 -8.5 11.5t1 32t13.5 42t29.5 41.5t48.5 31t71 11q34 -1 62 -10.5t54 -20t52 -20t56 -10.5q24 -1 41 8t28.5 19.5t19 20t13.5 10.5z" />
    <glyph glyph-name="odieresis" unicode="&#xf6;" horiz-adv-x="580" 
d="M570 249q0 -57 -20.5 -106.5t-58 -86t-89 -58t-112.5 -21.5q-60 0 -111.5 21.5t-89 58t-58.5 86t-21 106.5q0 56 21 105.5t58.5 86.5t89 58.5t111.5 21.5t111.5 -21.5t89 -58.5t58.5 -86.5t21 -105.5zM207 249q0 -32 5 -60.5t15 -50.5t25.5 -35t37.5 -13t38 12.5t26 34
t14.5 50.5t4.5 62q0 32 -5 61t-15 50.5t-25.5 34.5t-37.5 13t-38 -13t-26 -34.5t-14.5 -50.5t-4.5 -61zM273 638q0 -18 -8 -33.5t-21.5 -27.5t-31.5 -18.5t-39 -6.5q-20 0 -38 6.5t-31.5 18.5t-21.5 27.5t-8 33.5t8 33.5t21.5 27.5t31.5 18.5t38 6.5q21 0 39 -6.5
t31.5 -18.5t21.5 -27.5t8 -33.5zM505 638q0 -18 -7.5 -33.5t-21 -27.5t-31.5 -18.5t-39 -6.5t-39 6.5t-31.5 18.5t-21 27.5t-7.5 33.5t7.5 33.5t21 27.5t31.5 18.5t39 6.5t39 -6.5t31.5 -18.5t21 -27.5t7.5 -33.5z" />
    <glyph glyph-name="divide" unicode="&#xf7;" horiz-adv-x="500" 
d="M250 164q31 0 53 -21.5t22 -52.5t-22 -53t-53 -22t-53 22t-22 53t22 52.5t53 21.5zM250 327q-31 0 -53 21.5t-22 52.5q0 32 22 53.5t53 21.5t53 -21.5t22 -53.5q0 -31 -22 -52.5t-53 -21.5zM466 201q-1 -1 -1 -2q-1 -1 -3 -1h-49.5h-63.5h-70.5h-71.5h-173q-2 0 -4 2
q-1 1 -1 2v86q0 1 1 2q3 3 5 3h427q4 0 4 -2v-2v-88z" />
    <glyph glyph-name="oslash" unicode="&#xf8;" horiz-adv-x="570" 
d="M565 249q0 -57 -20.5 -106.5t-58 -86t-89 -58t-112.5 -21.5q-26 0 -50 4t-47 12l-43 -95q-3 -3 -4 -3h-2h-72h-1v1l1 2q2 5 21 37.5t47 81.5q-60 36 -95 96.5t-35 135.5q0 56 21 105.5t58.5 86.5t89 58.5t111.5 21.5q52 0 98 -17l39 86q1 2 2 2t2 1q1 0 2 1h71l1 -1
q0 -1 -1 -3q-9 -14 -19 -31q-9 -14 -20 -34.5t-25 -44.5q60 -36 95 -97t35 -134zM202 249q0 -49 10 -85l116 226q-18 18 -43 18q-22 0 -38 -13t-26 -34.5t-14.5 -50.5t-4.5 -61zM368 249q0 23 -2.5 44t-7.5 39l-115 -225q17 -17 42 -17q22 0 38 12.5t26 34t14.5 50.5t4.5 62
z" />
    <glyph glyph-name="ugrave" unicode="&#xf9;" 
d="M560 201q0 -40 5 -64.5t12.5 -39.5t15.5 -21.5t14.5 -10.5t10 -6.5t1.5 -9.5q-4 -12 -15.5 -24.5t-28 -23t-36.5 -17t-41 -6.5q-52 0 -88.5 30.5t-47.5 84.5q-32 -64 -77 -89.5t-85 -25.5q-28 0 -53 11.5t-43.5 33.5t-29.5 52t-11 68v156q0 40 -5.5 64.5t-14 39.5
t-17.5 21.5t-16.5 10.5t-11.5 6.5t-2 9.5q4 12 15.5 24.5t28 23t36.5 17t41 6.5q30 0 57 -10.5t47.5 -30t32 -48t11.5 -63.5v-194q0 -37 14 -50t31.5 -5.5t32 33.5t16.5 68v275q0 3 2 5q1 1 2 1h201q1 0 2 -1q2 -2 2 -4q-2 -65 -4 -123q-2 -50 -3 -99t-1 -75zM165 735
q-3 5 2 8q24 29 56.5 49t72.5 30q4 1 6 -2q9 -35 19.5 -62.5t25.5 -52.5t35 -48.5t46 -49.5q4 -4 1 -7q-8 -14 -17.5 -26t-23.5 -23q-2 -1 -8 1q-78 27 -130 72.5t-85 110.5z" />
    <glyph glyph-name="uacute" unicode="&#xfa;" 
d="M560 201q0 -40 5 -64.5t12.5 -39.5t15.5 -21.5t14.5 -10.5t10 -6.5t1.5 -9.5q-4 -12 -15.5 -24.5t-28 -23t-36.5 -17t-41 -6.5q-52 0 -88.5 30.5t-47.5 84.5q-32 -64 -77 -89.5t-85 -25.5q-28 0 -53 11.5t-43.5 33.5t-29.5 52t-11 68v156q0 40 -5.5 64.5t-14 39.5
t-17.5 21.5t-16.5 10.5t-11.5 6.5t-2 9.5q4 12 15.5 24.5t28 23t36.5 17t41 6.5q30 0 57 -10.5t47.5 -30t32 -48t11.5 -63.5v-194q0 -37 14 -50t31.5 -5.5t32 33.5t16.5 68v275q0 3 2 5q1 1 2 1h201q1 0 2 -1q2 -2 2 -4q-2 -65 -4 -123q-2 -50 -3 -99t-1 -75zM447 735
q-33 -65 -85 -110.5t-130 -72.5q-6 -2 -8 -1q-14 11 -23.5 23t-17.5 26q-3 3 1 7q26 26 46 49.5t35 48.5t25.5 52.5t19.5 62.5q2 3 6 2q40 -10 72.5 -30t56.5 -49q4 -3 2 -8z" />
    <glyph glyph-name="ucircumflex" unicode="&#xfb;" 
d="M560 201q0 -40 5 -64.5t12.5 -39.5t15.5 -21.5t14.5 -10.5t10 -6.5t1.5 -9.5q-4 -12 -15.5 -24.5t-28 -23t-36.5 -17t-41 -6.5q-52 0 -88.5 30.5t-47.5 84.5q-32 -64 -77 -89.5t-85 -25.5q-28 0 -53 11.5t-43.5 33.5t-29.5 52t-11 68v156q0 40 -5.5 64.5t-14 39.5
t-17.5 21.5t-16.5 10.5t-11.5 6.5t-2 9.5q4 12 15.5 24.5t28 23t36.5 17t41 6.5q30 0 57 -10.5t47.5 -30t32 -48t11.5 -63.5v-194q0 -37 14 -50t31.5 -5.5t32 33.5t16.5 68v275q0 3 2 5q1 1 2 1h201q1 0 2 -1q2 -2 2 -4q-2 -65 -4 -123q-2 -50 -3 -99t-1 -75zM487 553
q-24 8 -54.5 19t-58.5 22q-33 11 -66 24q-37 -13 -71 -24q-29 -10 -61 -20.5t-52 -17.5q-17 -5 -21 1t5 17q45 50 79 90q15 17 29 33t25 29t18 21l7 8q3 3 4 3h2h69q5 0 7 -1.5t3 -2.5l6.5 -8t17.5 -21t25 -29.5t28 -33.5q33 -40 76 -91q11 -14 3.5 -18.5t-20.5 0.5z" />
    <glyph glyph-name="udieresis" unicode="&#xfc;" 
d="M560 201q0 -40 5 -64.5t12.5 -39.5t15.5 -21.5t14.5 -10.5t10 -6.5t1.5 -9.5q-4 -12 -15.5 -24.5t-28 -23t-36.5 -17t-41 -6.5q-52 0 -88.5 30.5t-47.5 84.5q-32 -64 -77 -89.5t-85 -25.5q-28 0 -53 11.5t-43.5 33.5t-29.5 52t-11 68v156q0 40 -5.5 64.5t-14 39.5
t-17.5 21.5t-16.5 10.5t-11.5 6.5t-2 9.5q4 12 15.5 24.5t28 23t36.5 17t41 6.5q30 0 57 -10.5t47.5 -30t32 -48t11.5 -63.5v-194q0 -37 14 -50t31.5 -5.5t32 33.5t16.5 68v275q0 3 2 5q1 1 2 1h201q1 0 2 -1q2 -2 2 -4q-2 -65 -4 -123q-2 -50 -3 -99t-1 -75zM291 638
q0 -18 -8 -33.5t-21.5 -27.5t-31.5 -18.5t-39 -6.5q-20 0 -38 6.5t-31.5 18.5t-21.5 27.5t-8 33.5t8 33.5t21.5 27.5t31.5 18.5t38 6.5q21 0 39 -6.5t31.5 -18.5t21.5 -27.5t8 -33.5zM523 638q0 -18 -7.5 -33.5t-21 -27.5t-31.5 -18.5t-39 -6.5t-39 6.5t-31.5 18.5t-21 27.5
t-7.5 33.5t7.5 33.5t21 27.5t31.5 18.5t39 6.5t39 -6.5t31.5 -18.5t21 -27.5t7.5 -33.5z" />
    <glyph glyph-name="yacute" unicode="&#xfd;" horiz-adv-x="595" 
d="M564 71q2 -65 -14.5 -119.5t-51.5 -94t-88 -61.5t-122 -22q-55 0 -95 16t-67.5 38t-43 45t-19.5 37q-6 18 -7.5 29.5t0 17.5t5 8t7.5 1q9 -2 20 -14.5t29.5 -27t46 -26.5t69.5 -12q30 0 53.5 9.5t40 25t25.5 36t10 43.5v100q-15 -32 -35 -54.5t-41.5 -36t-43.5 -19.5
t-42 -6q-28 0 -53 11.5t-43.5 33.5t-29.5 52t-11 68v150q0 40 -5.5 64.5t-14 39.5t-17.5 21.5t-16.5 10.5t-11.5 6.5t-2 9.5q4 12 15.5 24.5t28 23t36.5 17t41 6.5q30 0 57 -10.5t47 -30t31.5 -48t11.5 -63.5v-188q0 -38 14.5 -51t32.5 -4.5t33 36t16 71.5v263q0 2 2 4
q1 1 2 1h193q1 0 2 -1q2 -2 2 -4q0 -84 1 -163q0 -34 0.5 -70t1 -70.5t0.5 -66v-56.5zM439 735q-33 -65 -85 -110.5t-130 -72.5q-6 -2 -8 -1q-14 11 -23.5 23t-17.5 26q-3 3 1 7q26 26 46 49.5t35 48.5t25.5 52.5t19.5 62.5q2 3 6 2q40 -10 72.5 -30t56.5 -49q4 -3 2 -8z
" />
    <glyph glyph-name="ydieresis" unicode="&#xff;" horiz-adv-x="595" 
d="M294 638q0 -18 -7.5 -33.5t-21 -27.5t-31.5 -18.5t-39 -6.5t-39 6.5t-31.5 18.5t-21 27.5t-7.5 33.5t7.5 33.5t21 27.5t31.5 18.5t39 6.5t39 -6.5t31.5 -18.5t21 -27.5t7.5 -33.5zM527 638q0 -18 -7.5 -33.5t-21 -27.5t-31.5 -18.5t-39 -6.5t-39 6.5t-31.5 18.5t-21 27.5
t-7.5 33.5t7.5 33.5t21 27.5t31.5 18.5t39 6.5t39 -6.5t31.5 -18.5t21 -27.5t7.5 -33.5zM564 73q2 -65 -14.5 -119.5t-51.5 -94t-88 -61.5t-122 -22q-55 0 -95 16t-67.5 38t-43 45t-19.5 37q-6 18 -7.5 29.5t0 17.5t5 8t7.5 1q9 -2 20 -14t29.5 -26.5t46 -26t69.5 -11.5
q30 0 53.5 11t40 28.5t25.5 39.5t10 45v100q-15 -32 -35 -54.5t-41.5 -36t-43.5 -19.5t-42 -6q-28 0 -53 11.5t-43.5 33.5t-29.5 52t-11 68v136q0 40 -5.5 64.5t-14 39.5t-17.5 21.5t-16.5 10.5t-11.5 6.5t-2 9.5q4 12 15.5 24.5t28 23t36.5 17t41 6.5q30 0 57 -10.5t47 -30
t31.5 -48t11.5 -63.5v-174q0 -38 14.5 -51t32.5 -4.5t33 36t16 71.5v249q0 2 2 4q1 1 2 1h193q1 0 2 -1q2 -2 2 -4q0 -84 1 -162q0 -33 0.5 -69t1 -70.5t0.5 -66v-56.5z" />
    <glyph glyph-name="Amacron" unicode="&#x100;" horiz-adv-x="689" 
d="M504 774q-1 -1 -1 -2q-1 -1 -3 -1h-46h-54h-57h-56h-131q-2 0 -4 2q-1 1 -1 2v86q0 1 1 2q3 3 5 3h343q4 0 4 -2v-2v-88zM683 5q1 -2 -1 -4q-1 -1 -2 -1h-226q-2 0 -3 1t-2 1.5t-1 2.5l-25 106h-177q-5 -24 -9 -43.5t-7 -33.5q-4 -17 -6 -29q-1 -2 -2 -2.5t-2 -1.5
q-2 -1 -3 -1h-209q-1 0 -2 1q-2 2 0 4q48 150 86 269q16 51 31.5 99t27.5 86t19.5 61.5l7.5 23.5q15 39 15 61t-5.5 34.5t-11.5 19t-3 15.5q5 15 19.5 27.5t35 21.5t43.5 14.5t45 5.5q27 0 54 -9t51.5 -28.5t45 -49t35.5 -70.5q8 -22 20 -59t26 -82t29.5 -95t30.5 -99
q35 -115 75 -246zM391 246l-59 290q-7 -27 -14 -63t-14.5 -75t-15 -78.5t-14.5 -73.5h117z" />
    <glyph glyph-name="amacron" unicode="&#x101;" horiz-adv-x="617" 
d="M499 569q-1 -1 -1 -2q-1 -1 -3 -1h-46h-54h-57h-56h-131q-2 0 -4 2q-1 1 -1 2v86q0 1 1 2q3 3 5 3h343q4 0 4 -2v-2v-88zM562 201q0 -60 10.5 -87t22.5 -38.5t20.5 -14t4.5 -12.5q-4 -12 -15 -24.5t-27.5 -23t-36.5 -17t-41 -6.5q-52 0 -89 30t-47 84q-26 -49 -65.5 -81
t-92.5 -32q-47 0 -83.5 24t-61.5 62.5t-38 87.5t-13 99q0 51 13 100t38.5 87t63 61t86.5 23q52 0 89 -26.5t60 -68.5v69q0 3 2 5q1 1 3 1h200q1 0 2 -1q2 -2 2 -4q-2 -65 -4 -123q-2 -50 -2.5 -99t-0.5 -75zM291 117q18 0 32 10.5t23.5 29t14.5 43t5 52.5t-5 53t-14.5 43.5
t-23.5 29t-32 10.5t-32 -10.5t-23.5 -29t-14.5 -43.5t-5 -53t5 -52.5t14.5 -43t23.5 -29t32 -10.5z" />
    <glyph glyph-name="Abreve" unicode="&#x102;" horiz-adv-x="689" 
d="M683 5q1 -2 -1 -4q-1 -1 -2 -1h-226q-2 0 -3 1t-2 1.5t-1 2.5l-25 106h-177q-5 -24 -9 -43.5t-7 -33.5q-4 -17 -6 -29q-1 -2 -2 -2.5t-2 -1.5q-2 -1 -3 -1h-209q-1 0 -2 1q-2 2 0 4q48 150 86 269q16 51 31.5 99t27.5 86t19.5 61.5l7.5 23.5q15 39 15 61t-5.5 34.5
t-11.5 19t-3 15.5q5 15 19.5 27.5t35 21.5t43.5 14.5t45 5.5q27 0 54 -9t51.5 -28.5t45 -49t35.5 -70.5q8 -22 20 -59t26 -82t29.5 -95t30.5 -99q35 -115 75 -246zM391 246l-59 290q-7 -27 -14 -63t-14.5 -75t-15 -78.5t-14.5 -73.5h117zM544 937q6 -3 7 -10.5t-1 -16.5
t-6 -18.5t-8 -16.5q-29 -57 -81.5 -89t-110.5 -32q-29 0 -57 8.5t-53.5 24t-47 38t-35.5 50.5q-3 7 -7 16.5t-6.5 18.5t-1.5 16.5t7 10.5t18 -7.5t35 -25t59 -26.5t89 -12q54 0 90 12t58.5 26.5t34 25t17.5 7.5z" />
    <glyph glyph-name="abreve" unicode="&#x103;" horiz-adv-x="617" 
d="M562 201q0 -60 10.5 -87t22.5 -38.5t20.5 -14t4.5 -12.5q-4 -12 -15 -24.5t-27.5 -23t-36.5 -17t-41 -6.5q-52 0 -89 30t-47 84q-26 -49 -65.5 -81t-92.5 -32q-47 0 -83.5 24t-61.5 62.5t-38 87.5t-13 99q0 51 13 100t38.5 87t63 61t86.5 23q52 0 89 -26.5t60 -68.5v69
q0 3 2 5q1 1 3 1h200q1 0 2 -1q2 -2 2 -4q-2 -65 -4 -123q-2 -50 -2.5 -99t-0.5 -75zM291 117q18 0 32 10.5t23.5 29t14.5 43t5 52.5t-5 53t-14.5 43.5t-23.5 29t-32 10.5t-32 -10.5t-23.5 -29t-14.5 -43.5t-5 -53t5 -52.5t14.5 -43t23.5 -29t32 -10.5zM508 737
q6 -3 7 -10.5t-1 -16.5t-6 -18.5t-8 -16.5q-29 -57 -81.5 -89t-110.5 -32q-29 0 -57 8.5t-53.5 24t-47 38t-35.5 50.5q-3 7 -7 16.5t-6.5 18.5t-1.5 16.5t7 10.5t18 -7.5t35 -25t59 -26.5t89 -12q54 0 90 12t58.5 26.5t34 25t17.5 7.5z" />
    <glyph glyph-name="Aogonek" unicode="&#x104;" horiz-adv-x="689" 
d="M683 5q1 -2 -1 -4q-1 -1 -2 -1h-226q-2 0 -3 1t-2 1.5t-1 2.5l-25 106h-177q-5 -24 -9 -43.5t-7 -33.5q-4 -17 -6 -29q-1 -2 -2 -2.5t-2 -1.5q-2 -1 -3 -1h-209q-1 0 -2 1q-2 2 0 4q48 150 86 269q16 51 31.5 99t27.5 86t19.5 61.5l7.5 23.5q15 39 15 61t-5.5 34.5
t-11.5 19t-3 15.5q5 15 19.5 27.5t35 21.5t43.5 14.5t45 5.5q27 0 54 -9t51.5 -28.5t45 -49t35.5 -70.5q8 -22 20 -59t26 -82t29.5 -95t30.5 -99q35 -115 75 -246zM391 246l-59 290q-7 -27 -14 -63t-14.5 -75t-15 -78.5t-14.5 -73.5h117zM441 -162q2 40 17.5 69t37 49.5
t45.5 32.5t44 18t32.5 6t10.5 -4q-4 -7 -14.5 -19.5t-22 -29t-20 -37t-8.5 -43.5q0 -19 10 -32t39 -13q19 0 33 6t16 2q9 -15 5.5 -35t-17 -38t-35 -31.5t-48.5 -15.5q-36 -3 -60 10t-39 32t-21 39.5t-5 33.5z" />
    <glyph glyph-name="aogonek" unicode="&#x105;" horiz-adv-x="617" 
d="M562 201q0 -60 10.5 -87t22.5 -38.5t20.5 -14t4.5 -12.5q-4 -12 -15 -24.5t-27.5 -23t-36.5 -17t-41 -6.5q-52 0 -89 30t-47 84q-26 -49 -65.5 -81t-92.5 -32q-47 0 -83.5 24t-61.5 62.5t-38 87.5t-13 99q0 51 13 100t38.5 87t63 61t86.5 23q52 0 89 -26.5t60 -68.5v69
q0 3 2 5q1 1 3 1h200q1 0 2 -1q2 -2 2 -4q-2 -65 -4 -123q-2 -50 -2.5 -99t-0.5 -75zM291 117q18 0 32 10.5t23.5 29t14.5 43t5 52.5t-5 53t-14.5 43.5t-23.5 29t-32 10.5t-32 -10.5t-23.5 -29t-14.5 -43.5t-5 -53t5 -52.5t14.5 -43t23.5 -29t32 -10.5zM373 -182
q2 40 17.5 69t37 49.5t45.5 32.5t44 18t32.5 6t10.5 -4q-4 -7 -14.5 -19.5t-22 -29t-20 -37t-8.5 -43.5q0 -19 10 -32t39 -13q19 0 33 6t16 2q9 -15 5.5 -35t-17 -38t-35 -31.5t-48.5 -15.5q-36 -3 -60 10t-39 32t-21 39.5t-5 33.5z" />
    <glyph glyph-name="Cacute" unicode="&#x106;" horiz-adv-x="642" 
d="M623 198q15 13 18 4t-2 -27q-2 -10 -9.5 -28t-21.5 -39.5t-35 -44t-51.5 -41t-71 -30.5t-91.5 -13q-74 -2 -138 29t-111 83.5t-73.5 122.5t-26.5 147q0 75 25.5 142.5t71.5 119.5t110.5 83t142.5 31q59 1 108 -12.5t84.5 -38t55 -58.5t19.5 -74q0 -20 -7 -40t-21.5 -36.5
t-35 -27t-47.5 -10.5q-33 0 -56 10.5t-21 25.5q3 24 1.5 48.5t-10 43.5t-24.5 31t-41 12q-34 0 -59.5 -26t-42 -65t-22.5 -84t-1 -83q8 -64 31 -108.5t55 -71t71 -36.5t79 -5.5t78 21.5t69 45zM475 935q-33 -65 -85 -110.5t-130 -72.5q-6 -2 -8 -1q-14 11 -23.5 23t-17.5 26
q-3 3 1 7q26 26 46 49.5t35 48.5t25.5 52.5t19.5 62.5q2 3 6 2q40 -10 72.5 -30t56.5 -49q4 -3 2 -8z" />
    <glyph glyph-name="cacute" unicode="&#x107;" horiz-adv-x="521" 
d="M512 155q5 -5 3 -16q-5 -16 -21 -43t-44.5 -53t-70 -45t-96.5 -19q-57 0 -107 21.5t-86.5 58.5t-58 86.5t-21.5 106.5q0 55 20 103t55 85t84 59t106 25q42 0 82 -8.5t71.5 -26t51 -43.5t19.5 -62q0 -18 -6.5 -36t-19.5 -32t-31 -23t-40 -9q-25 0 -46 6t-24 11
q-4 7 -2.5 16.5t1.5 24.5q0 31 -13.5 50t-34.5 19q-20 0 -35 -14.5t-24.5 -37.5t-13 -51t-0.5 -56q6 -67 37.5 -99.5t74.5 -39.5t90.5 5.5t85.5 35.5q8 6 14 1zM395 735q-33 -65 -85 -110.5t-130 -72.5q-6 -2 -8 -1q-14 11 -23.5 23t-17.5 26q-3 3 1 7q26 26 46 49.5
t35 48.5t25.5 52.5t19.5 62.5q2 3 6 2q40 -10 72.5 -30t56.5 -49q4 -3 2 -8z" />
    <glyph glyph-name="Ccaron" unicode="&#x10c;" horiz-adv-x="642" 
d="M623 198q15 13 18 4t-2 -27q-2 -10 -9.5 -28t-21.5 -39.5t-35 -44t-51.5 -41t-71 -30.5t-91.5 -13q-74 -2 -138 29t-111 83.5t-73.5 122.5t-26.5 147q0 75 25.5 142.5t71.5 119.5t110.5 83t142.5 31q59 1 108 -12.5t84.5 -38t55 -58.5t19.5 -74q0 -20 -7 -40t-21.5 -36.5
t-35 -27t-47.5 -10.5q-33 0 -56 10.5t-21 25.5q3 24 1.5 48.5t-10 43.5t-24.5 31t-41 12q-34 0 -59.5 -26t-42 -65t-22.5 -84t-1 -83q8 -64 31 -108.5t55 -71t71 -36.5t79 -5.5t78 21.5t69 45zM531 970q13 5 20.5 0.5t-3.5 -18.5q-43 -51 -76 -91q-14 -17 -28 -33.5
t-25 -29.5q-13 -15 -24 -29q-1 -1 -3 -2.5t-7 -1.5h-69h-2q-3 0 -4 3l-7 8t-18 20.5t-25 29t-29 33.5q-34 40 -79 90q-9 11 -5 17t21 1q20 -7 52 -17.5t61 -20.5q34 -11 71 -24l66 24q28 10 58.5 21.5t54.5 19.5z" />
    <glyph glyph-name="ccaron" unicode="&#x10d;" horiz-adv-x="521" 
d="M512 155q5 -5 3 -16q-5 -16 -21 -43t-44.5 -53t-70 -45t-96.5 -19q-57 0 -107 21.5t-86.5 58.5t-58 86.5t-21.5 106.5q0 55 20 103t55 85t84 59t106 25q42 0 82 -8.5t71.5 -26t51 -43.5t19.5 -62q0 -18 -6.5 -36t-19.5 -32t-31 -23t-40 -9q-25 0 -46 6t-24 11
q-4 7 -2.5 16.5t1.5 24.5q0 31 -13.5 50t-34.5 19q-20 0 -35 -14.5t-24.5 -37.5t-13 -51t-0.5 -56q6 -67 37.5 -99.5t74.5 -39.5t90.5 5.5t85.5 35.5q8 6 14 1zM440 760q13 5 20.5 0.5t-3.5 -18.5q-43 -51 -76 -91q-14 -17 -28 -33.5t-25 -29.5q-13 -15 -24 -29
q-1 -1 -3 -2.5t-7 -1.5h-69h-2q-3 0 -4 3l-7 8t-18 20.5t-25 29t-29 33.5q-34 40 -79 90q-9 11 -5 17t21 1q20 -7 52 -17.5t61 -20.5q34 -11 71 -24l66 24q28 10 58.5 21.5t54.5 19.5z" />
    <glyph glyph-name="Dcaron" unicode="&#x10e;" horiz-adv-x="657" 
d="M649 356q0 -79 -23 -148t-68.5 -120.5t-113 -81t-155.5 -29.5q-62 0 -109.5 4.5t-79.5 10.5q-38 6 -65 15q-1 0 -3 1t-2 5v686q0 4 2 5t3 1q27 8 65 14q32 5 79.5 9.5t109.5 4.5q82 0 148.5 -29.5t113.5 -80.5t72.5 -119.5t25.5 -147.5zM250 87q46 -2 80 20.5t55.5 61.5
t32 89t10.5 103q0 45 -10 94.5t-31.5 89.5t-55.5 63t-81 16v-537zM473 970q13 5 20.5 0.5t-3.5 -18.5q-43 -51 -76 -91q-14 -17 -28 -33.5t-25 -29.5q-13 -15 -24 -29q-1 -1 -3 -2.5t-7 -1.5h-69h-2q-3 0 -4 3l-7 8t-18 20.5t-25 29t-29 33.5q-34 40 -79 90q-9 11 -5 17
t21 1q20 -7 52 -17.5t61 -20.5q34 -11 71 -24l66 24q28 10 58.5 21.5t54.5 19.5z" />
    <glyph glyph-name="dcaron" unicode="&#x10f;" horiz-adv-x="776" 
d="M559 202q0 -60 9.5 -87t20 -38.5t18 -14t3.5 -12.5q-4 -12 -15 -24.5t-27.5 -23t-36.5 -17t-41 -6.5q-52 0 -88.5 30t-47.5 84q-26 -50 -65.5 -82t-92.5 -32q-47 0 -83.5 24t-61.5 62.5t-38 87.5t-13 99q0 51 13 100t38 87t62.5 61t87.5 23q52 0 89 -26.5t60 -68.5v286
q0 2 2 4q1 1 3 1h200q1 -1 2 -1q2 -2 2 -3v-513zM281 117q18 0 32 10.5t23.5 29t14.5 43t5 52.5t-5 53t-14.5 43.5t-23.5 29t-32 10.5t-32.5 -10.5t-24 -29t-14.5 -43.5t-5 -53t5 -52.5t14.5 -43t24 -29t32.5 -10.5zM768 628q0 -37 -12.5 -65t-30 -47.5t-35.5 -31.5t-30 -16
q-29 -11 -37.5 -7.5t-8.5 9.5t4.5 11.5t11.5 11.5q27 26 30.5 39t-10.5 18q-26 11 -42 33t-16 51q0 36 25.5 62t62.5 26q18 0 34 -7t28 -19.5t19 -30t7 -37.5z" />
    <glyph glyph-name="Dcroat" unicode="&#x110;" horiz-adv-x="703" 
d="M695 356q0 -79 -23 -148t-68.5 -120.5t-113 -81t-155.5 -29.5q-62 0 -109.5 4.5t-79.5 10.5q-38 6 -65 15q-1 0 -3 1t-2 5v309h-44q-11 0 -21 1q-2 0 -4 2q-1 1 -1 2v67q0 1 1 2t1.5 2t2.5 1h65v300q0 4 2 5t3 1q27 8 65 14q32 5 79.5 9.5t109.5 4.5q82 0 148.5 -29.5
t113.5 -80.5t72.5 -119.5t25.5 -147.5zM296 399h97q2 0 4 -2q1 -1 1 -2v-69q-1 -1 -1 -2q-1 -1 -3 -1q-19 0 -44.5 -0.5t-53.5 -0.5v-235q46 -2 80 20.5t55.5 61.5t32 89t10.5 103q0 45 -10 94.5t-31.5 89.5t-55.5 63t-81 16v-225z" />
    <glyph glyph-name="dcroat" unicode="&#x111;" horiz-adv-x="607" 
d="M559 202q0 -60 9.5 -87t20 -38.5t18 -14t3.5 -12.5q-4 -12 -15 -24.5t-27.5 -23t-36.5 -17t-41 -6.5q-52 0 -88.5 30t-47.5 84q-26 -50 -65.5 -82t-92.5 -32q-47 0 -83.5 24t-61.5 62.5t-38 87.5t-13 99q0 51 13 100t38 87t62.5 61t87.5 23q52 0 89 -26.5t60 -68.5v138
h-81q-18 0 -33 1q-2 0 -4 2q-1 1 -1 2v67q0 1 1 2t1.5 2t2.5 1h114v71q0 2 2 4q1 1 3 1h200q1 -1 2 -1q2 -2 2 -3v-72h59q2 0 4 -2q1 -1 1 -2v-69q-1 -1 -1 -2q-1 -1 -3 -1q-13 0 -28 -0.5t-32 -0.5v-364zM281 117q18 0 32 10.5t23.5 29t14.5 43t5 52.5t-5 53t-14.5 43.5
t-23.5 29t-32 10.5t-32.5 -10.5t-24 -29t-14.5 -43.5t-5 -53t5 -52.5t14.5 -43t24 -29t32.5 -10.5z" />
    <glyph glyph-name="Emacron" unicode="&#x112;" horiz-adv-x="541" 
d="M448 774q-1 -1 -1 -2q-1 -1 -3 -1h-46h-54h-57h-56h-131q-2 0 -4 2q-1 1 -1 2v86q0 1 1 2q3 3 5 3h343q4 0 4 -2v-2v-88zM511 171q15 10 21 2t3 -26q-3 -19 -19.5 -48t-47 -56t-76 -46t-106.5 -19q-64 0 -112 23t-80 61t-48 87t-16 101l1 461q0 2 3 4q1 1 3 1h477
q1 0 3 -1q4 -2 5 -4q9 -34 5 -65q-4 -27 -21 -55t-60 -45q-28 -11 -61 -12.5t-62 0.5q-34 3 -69 10v-22t-0.5 -32t-0.5 -38.5v-39.5h165q2 0 3 -1q2 -2 2 -4v-100q0 -2 -1 -2.5t-2 -1.5q-2 -1 -3 -1h-165v-72q1 -32 15.5 -52.5t37.5 -30.5t51.5 -12t57 2.5t54 13.5t43.5 20z
" />
    <glyph glyph-name="emacron" unicode="&#x113;" horiz-adv-x="540" 
d="M454 569q-1 -1 -1 -2q-1 -1 -3 -1h-46h-54h-57h-56h-131q-2 0 -4 2q-1 1 -1 2v86q0 1 1 2q3 3 5 3h343q4 0 4 -2v-2v-88zM519 155q7 -5 3 -16q-4 -16 -21.5 -43t-48 -53t-73 -45t-97.5 -19q-57 0 -106.5 21.5t-86 58.5t-58 86.5t-21.5 106.5q0 55 20.5 104t57.5 86.5
t89.5 59.5t117.5 22q61 0 105.5 -17t73.5 -43t42.5 -56.5t13.5 -57.5q0 -59 -30.5 -93.5t-77 -50.5t-102 -17t-104.5 7q13 -38 43 -58.5t69.5 -25.5t85.5 5.5t92 36.5q7 5 13 1zM260 401q-25 -15 -37 -47.5t-15 -69.5q67 -6 100 16t33 63q0 20 -15 35t-38 13l-1 -1h-3
q-12 -2 -24 -9z" />
    <glyph glyph-name="Edotaccent" unicode="&#x116;" horiz-adv-x="541" 
d="M511 171q15 10 21 2t3 -26q-3 -19 -19.5 -48t-47 -56t-76 -46t-106.5 -19q-64 0 -112 23t-80 61t-48 87t-16 101l1 461q0 2 3 4q1 1 3 1h477q1 0 3 -1q4 -2 5 -4q9 -34 5 -65q-4 -27 -21 -55t-60 -45q-28 -11 -61 -12.5t-62 0.5q-34 3 -69 10v-22t-0.5 -32t-0.5 -38.5
v-39.5h165q2 0 3 -1q2 -2 2 -4v-100q0 -2 -1 -2.5t-2 -1.5q-2 -1 -3 -1h-165v-72q1 -32 15.5 -52.5t37.5 -30.5t51.5 -12t57 2.5t54 13.5t43.5 20zM370 838q0 -18 -8 -33.5t-21.5 -27.5t-31.5 -18.5t-39 -6.5q-20 0 -38 6.5t-31.5 18.5t-21.5 27.5t-8 33.5t8 33.5t21.5 27.5
t31.5 18.5t38 6.5q21 0 39 -6.5t31.5 -18.5t21.5 -27.5t8 -33.5z" />
    <glyph glyph-name="edotaccent" unicode="&#x117;" horiz-adv-x="540" 
d="M519 155q7 -5 3 -16q-4 -16 -21.5 -43t-48 -53t-73 -45t-97.5 -19q-57 0 -106.5 21.5t-86 58.5t-58 86.5t-21.5 106.5q0 55 20.5 104t57.5 86.5t89.5 59.5t117.5 22q61 0 105.5 -17t73.5 -43t42.5 -56.5t13.5 -57.5q0 -59 -30.5 -93.5t-77 -50.5t-102 -17t-104.5 7
q13 -38 43 -58.5t69.5 -25.5t85.5 5.5t92 36.5q7 5 13 1zM260 401q-25 -15 -37 -47.5t-15 -69.5q67 -6 100 16t33 63q0 20 -15 35t-38 13l-1 -1h-3q-12 -2 -24 -9zM369 638q0 -18 -8 -33.5t-21.5 -27.5t-31.5 -18.5t-39 -6.5q-20 0 -38 6.5t-31.5 18.5t-21.5 27.5t-8 33.5
t8 33.5t21.5 27.5t31.5 18.5t38 6.5q21 0 39 -6.5t31.5 -18.5t21.5 -27.5t8 -33.5z" />
    <glyph glyph-name="Eogonek" unicode="&#x118;" horiz-adv-x="541" 
d="M511 171q15 10 21 2t3 -26q-3 -19 -19.5 -48t-47 -56t-76 -46t-106.5 -19q-64 0 -112 23t-80 61t-48 87t-16 101l1 461q0 2 3 4q1 1 3 1h477q1 0 3 -1q4 -2 5 -4q9 -34 5 -65q-4 -27 -21 -55t-60 -45q-28 -11 -61 -12.5t-62 0.5q-34 3 -69 10v-22t-0.5 -32t-0.5 -38.5
v-39.5h165q2 0 3 -1q2 -2 2 -4v-100q0 -2 -1 -2.5t-2 -1.5q-2 -1 -3 -1h-165v-72q1 -32 15.5 -52.5t37.5 -30.5t51.5 -12t57 2.5t54 13.5t43.5 20zM187 -182q2 40 17.5 69t37 49.5t45.5 32.5t44 18t32.5 6t10.5 -4q-4 -7 -14.5 -19.5t-22 -29t-20 -37t-8.5 -43.5
q0 -19 10 -32t39 -13q19 0 33 6t16 2q9 -15 5.5 -35t-17 -38t-35 -31.5t-48.5 -15.5q-36 -3 -60 10t-39 32t-21 39.5t-5 33.5z" />
    <glyph glyph-name="eogonek" unicode="&#x119;" horiz-adv-x="540" 
d="M519 155q7 -5 3 -16q-4 -16 -21.5 -43t-48 -53t-73 -45t-97.5 -19q-57 0 -106.5 21.5t-86 58.5t-58 86.5t-21.5 106.5q0 55 20.5 104t57.5 86.5t89.5 59.5t117.5 22q61 0 105.5 -17t73.5 -43t42.5 -56.5t13.5 -57.5q0 -59 -30.5 -93.5t-77 -50.5t-102 -17t-104.5 7
q13 -38 43 -58.5t69.5 -25.5t85.5 5.5t92 36.5q7 5 13 1zM260 401q-25 -15 -37 -47.5t-15 -69.5q67 -6 100 16t33 63q0 20 -15 35t-38 13l-1 -1h-3q-12 -2 -24 -9zM165 -182q2 40 17.5 69t37 49.5t45.5 32.5t44 18t32.5 6t10.5 -4q-4 -7 -14.5 -19.5t-22 -29t-20 -37
t-8.5 -43.5q0 -19 10 -32t39 -13q19 0 33 6t16 2q9 -15 5.5 -35t-17 -38t-35 -31.5t-48.5 -15.5q-36 -3 -60 10t-39 32t-21 39.5t-5 33.5z" />
    <glyph glyph-name="Ecaron" unicode="&#x11a;" horiz-adv-x="541" 
d="M511 171q15 10 21 2t3 -26q-3 -19 -19.5 -48t-47 -56t-76 -46t-106.5 -19q-64 0 -112 23t-80 61t-48 87t-16 101l1 461q0 2 3 4q1 1 3 1h477q1 0 3 -1q4 -2 5 -4q9 -34 5 -65q-4 -27 -21 -55t-60 -45q-28 -11 -61 -12.5t-62 0.5q-34 3 -69 10v-22t-0.5 -32t-0.5 -38.5
v-39.5h165q2 0 3 -1q2 -2 2 -4v-100q0 -2 -1 -2.5t-2 -1.5q-2 -1 -3 -1h-165v-72q1 -32 15.5 -52.5t37.5 -30.5t51.5 -12t57 2.5t54 13.5t43.5 20zM450 960q13 5 20.5 0.5t-3.5 -18.5q-43 -51 -76 -91q-14 -17 -28 -33.5t-25 -29.5q-13 -15 -24 -29q-1 -1 -3 -2.5t-7 -1.5
h-69h-2q-3 0 -4 3l-7 8t-18 20.5t-25 29t-29 33.5q-34 40 -79 90q-9 11 -5 17t21 1q20 -7 52 -17.5t61 -20.5q34 -11 71 -24l66 24q28 10 58.5 21.5t54.5 19.5z" />
    <glyph glyph-name="ecaron" unicode="&#x11b;" horiz-adv-x="540" 
d="M519 155q7 -5 3 -16q-4 -16 -21.5 -43t-48 -53t-73 -45t-97.5 -19q-57 0 -106.5 21.5t-86 58.5t-58 86.5t-21.5 106.5q0 55 20.5 104t57.5 86.5t89.5 59.5t117.5 22q61 0 105.5 -17t73.5 -43t42.5 -56.5t13.5 -57.5q0 -59 -30.5 -93.5t-77 -50.5t-102 -17t-104.5 7
q13 -38 43 -58.5t69.5 -25.5t85.5 5.5t92 36.5q7 5 13 1zM260 401q-25 -15 -37 -47.5t-15 -69.5q67 -6 100 16t33 63q0 20 -15 35t-38 13l-1 -1h-3q-12 -2 -24 -9zM461 760q13 5 20.5 0.5t-3.5 -18.5q-43 -51 -76 -91q-14 -17 -28 -33.5t-25 -29.5q-13 -15 -24 -29
q-1 -1 -3 -2.5t-7 -1.5h-69h-2q-3 0 -4 3l-7 8t-18 20.5t-25 29t-29 33.5q-34 40 -79 90q-9 11 -5 17t21 1q20 -7 52 -17.5t61 -20.5q34 -11 71 -24l66 24q28 10 58.5 21.5t54.5 19.5z" />
    <glyph glyph-name="Gbreve" unicode="&#x11e;" horiz-adv-x="657" 
d="M522 375q61 0 95.5 -40.5t34.5 -111.5q0 -4 -0.5 -18.5t-1 -35t-2 -44t-4.5 -44.5q0 -8 -6 -12q-10 -7 -31 -22t-54.5 -30t-80.5 -26.5t-108 -11.5q-75 0 -139 30.5t-111 83t-73.5 122t-26.5 147.5q0 75 25.5 143t71.5 120t110.5 83t143.5 31q59 1 108.5 -12.5t85 -38
t55 -58.5t19.5 -74q0 -20 -7 -40.5t-21.5 -37t-35 -27t-47.5 -10.5q-34 0 -57 10.5t-21 25.5q3 24 1.5 48.5t-10 44t-24.5 31.5t-41 12q-34 0 -59 -26t-40.5 -65t-22 -84.5t-3.5 -83.5q1 -14 4 -37t11 -48.5t21 -51t34 -46t51 -33t72 -10.5q6 63 -1 95t-16.5 46.5t-17 19.5
t-3.5 15q4 12 16 24.5t28.5 23t36.5 17t41 6.5zM568 947q6 -3 7 -10.5t-1 -16.5t-6 -18.5t-8 -16.5q-29 -57 -81.5 -89t-110.5 -32q-29 0 -57 8.5t-53.5 24t-47 38t-35.5 50.5q-3 7 -7 16.5t-6.5 18.5t-1.5 16.5t7 10.5t18 -7.5t35 -25t59 -26.5t89 -12q54 0 90 12
t58.5 26.5t34 25t17.5 7.5z" />
    <glyph glyph-name="gbreve" unicode="&#x11f;" horiz-adv-x="596" 
d="M565 56q2 -65 -14.5 -119.5t-51.5 -94t-88 -61.5t-122 -22q-55 0 -95 16t-67.5 38t-42.5 45t-20 37q-11 37 -7 47.5t12 8.5q9 -2 20 -14t29.5 -26.5t46 -26t69.5 -11.5q30 0 53.5 11t40 28.5t25.5 39.5t10 45v89q-25 -48 -65 -76t-92 -28q-47 0 -83.5 23.5t-61.5 61.5
t-38 86.5t-13 98.5q0 51 13 100t38 87t62.5 61t87.5 23q52 0 89.5 -27t60.5 -70v71q0 2 2 4q1 1 2 1h193q1 0 2 -1q2 -2 2 -4q0 -91 1 -175q0 -36 0.5 -73.5t1 -72.5t0.5 -66v-54zM291 120q18 0 32 10t23.5 28t14.5 42t5 52t-5 53t-14.5 43.5t-23.5 29t-32 10.5t-32.5 -10.5
t-24 -29t-14.5 -43.5t-5 -53q0 -57 19.5 -94.5t56.5 -37.5zM510 737q6 -3 7 -10.5t-1 -16.5t-6 -18.5t-8 -16.5q-29 -57 -81.5 -89t-110.5 -32q-29 0 -57 8.5t-53.5 24t-47 38t-35.5 50.5q-3 7 -7 16.5t-6.5 18.5t-1.5 16.5t7 10.5t18 -7.5t35 -25t59 -26.5t89 -12
q54 0 90 12t58.5 26.5t34 25t17.5 7.5z" />
    <glyph glyph-name="Gcommaaccent" unicode="&#x122;" horiz-adv-x="657" 
d="M467 -156q0 -41 -14 -72.5t-33.5 -53.5t-39.5 -35.5t-33 -17.5q-33 -11 -42 -8t-9 11q0 10 17 25q30 29 34 44t-11 20q-29 11 -47 36t-18 57q0 41 28.5 69.5t69.5 28.5q20 0 37.5 -8t31 -21.5t21.5 -33t8 -41.5zM522 375q61 0 95.5 -40.5t34.5 -111.5q0 -4 -0.5 -18.5
t-1 -35t-2 -44t-4.5 -44.5q0 -8 -6 -12q-10 -7 -31 -22t-54.5 -30t-80.5 -26.5t-108 -11.5q-75 0 -139 30.5t-111 83t-73.5 122t-26.5 147.5q0 75 25.5 143t71.5 120t110.5 83t143.5 31q59 1 108.5 -12.5t85 -38t55 -58.5t19.5 -74q0 -20 -7 -40.5t-21.5 -37t-35 -27
t-47.5 -10.5q-34 0 -57 10.5t-21 25.5q3 24 1.5 48.5t-10 44t-24.5 31.5t-41 12q-34 0 -59 -26t-40.5 -65t-22 -84.5t-3.5 -83.5q1 -14 4 -37t11 -48.5t21 -51t34 -46t51 -33t72 -10.5q6 63 -1 95t-16.5 46.5t-17 19.5t-3.5 15q4 12 16 24.5t28.5 23t36.5 17t41 6.5z" />
    <glyph glyph-name="gcommaaccent" unicode="&#x123;" horiz-adv-x="596" 
d="M565 56q2 -65 -14.5 -119.5t-51.5 -94t-88 -61.5t-122 -22q-55 0 -95 16t-67.5 38t-42.5 45t-20 37q-11 37 -7 47.5t12 8.5q9 -2 20 -14t29.5 -26.5t46 -26t69.5 -11.5q30 0 53.5 11t40 28.5t25.5 39.5t10 45v89q-25 -48 -65 -76t-92 -28q-47 0 -83.5 23.5t-61.5 61.5
t-38 86.5t-13 98.5q0 51 13 100t38 87t62.5 61t87.5 23q52 0 89.5 -27t60.5 -70v71q0 2 2 4q1 1 2 1h193q1 0 2 -1q2 -2 2 -4q0 -91 1 -175q0 -36 0.5 -73.5t1 -72.5t0.5 -66v-54zM291 120q18 0 32 10t23.5 28t14.5 42t5 52t-5 53t-14.5 43.5t-23.5 29t-32 10.5t-32.5 -10.5
t-24 -29t-14.5 -43.5t-5 -53q0 -57 19.5 -94.5t56.5 -37.5zM210 780q0 37 12.5 65t30 47.5t35.5 31.5t30 16q29 11 37 7.5t8 -9.5q0 -10 -15 -23q-27 -26 -30.5 -39t10.5 -18q26 -11 42 -33t16 -51q0 -18 -7 -34t-19 -28t-28 -19t-34 -7q-36 0 -62 26.5t-26 67.5z" />
    <glyph glyph-name="imacron" unicode="&#x12b;" horiz-adv-x="286" 
d="M304 569q-1 -1 -1 -2q-1 -1 -3 -1h-46h-54h-57h-56h-131q-2 0 -4 2q-1 1 -1 2v86q0 1 1 2q3 3 5 3h343q4 0 4 -2v-2v-88zM256 6q0 -3 -2 -5q-1 -1 -2 -1h-200q-2 0 -3 1q-2 2 -2 4q2 65 4 123q1 25 1.5 50t1 48.5t1 43t0.5 32.5q0 40 -5 64.5t-12.5 39.5t-15.5 21.5
t-14.5 10.5t-10 6.5t-1.5 9.5q4 12 15.5 24.5t28 23t36.5 17t41 6.5q61 0 100 -40.5t39 -111.5v-367z" />
    <glyph glyph-name="Iogonek" unicode="&#x12e;" horiz-adv-x="311" 
d="M133 739q29 0 56 -9t47.5 -28.5t32.5 -49.5t12 -73v-574q0 -2 -1 -2.5t-2 -1.5t-2 -1h-213q-1 0 -2 1q-3 2 -2 4v206v147v97.5v57.5v27.5v7.5q-4 45 -15.5 65t-23.5 28.5t-19.5 11.5t-4.5 13q4 12 18 25t33 23.5t41.5 17.5t44.5 7zM53 -162q2 40 17.5 69t37 49.5
t45.5 32.5t44 18t32.5 6t10.5 -4q-4 -7 -14.5 -19.5t-22 -29t-20 -37t-8.5 -43.5q0 -19 10 -32t39 -13q19 0 33 6t16 2q9 -15 5.5 -35t-17 -38t-35 -31.5t-48.5 -15.5q-36 -3 -60 10t-39 32t-21 39.5t-5 33.5z" />
    <glyph glyph-name="iogonek" unicode="&#x12f;" horiz-adv-x="286" 
d="M256 6q0 -3 -2 -5q-1 -1 -2 -1h-200q-2 0 -3 1q-2 2 -2 4q2 65 4 123q1 25 1.5 50t1 48.5t1 43t0.5 32.5q0 40 -5 64.5t-12.5 39.5t-15.5 21.5t-14.5 10.5t-10 6.5t-1.5 9.5q4 12 15.5 24.5t28 23t36.5 17t41 6.5q61 0 100 -40.5t39 -111.5v-367zM249 645
q0 -20 -9.5 -36.5t-25 -29.5t-37 -20t-45.5 -7t-45 7t-37 20t-25 29.5t-9 36.5q0 19 9 36t25 29.5t37 20t45 7.5t45.5 -7.5t37 -20t25 -29.5t9.5 -36zM32 -162q2 40 17.5 69t37 49.5t45.5 32.5t44 18t32.5 6t10.5 -4q-4 -7 -14.5 -19.5t-22 -29t-20 -37t-8.5 -43.5
q0 -19 10 -32t39 -13q19 0 33 6t16 2q9 -15 5.5 -35t-17 -38t-35 -31.5t-48.5 -15.5q-36 -3 -60 10t-39 32t-21 39.5t-5 33.5z" />
    <glyph glyph-name="dotlessi" unicode="&#x131;" horiz-adv-x="286" 
d="M256 6q0 -3 -2 -5q-1 -1 -2 -1h-200q-2 0 -3 1q-2 2 -2 4q2 65 4 123q1 25 1.5 50t1 48.5t1 43t0.5 32.5q0 40 -5 64.5t-12.5 39.5t-15.5 21.5t-14.5 10.5t-10 6.5t-1.5 9.5q4 12 15.5 24.5t28 23t36.5 17t41 6.5q61 0 100 -40.5t39 -111.5v-367v0z" />
    <glyph glyph-name="Kcommaaccent" unicode="&#x136;" horiz-adv-x="692" 
d="M442 -146q0 -41 -14 -72.5t-33.5 -53.5t-39.5 -35.5t-33 -17.5q-33 -11 -42 -8t-9 11q0 10 17 25q30 29 34 44t-11 20q-29 11 -47 36t-18 57q0 41 28.5 69.5t69.5 28.5q20 0 37.5 -8t31 -21.5t21.5 -33t8 -41.5zM681 105q6 -2 3.5 -20.5t-15 -40t-36 -41t-59.5 -23.5
q-53 -6 -93.5 8.5t-70.5 45t-50 75.5t-33 100q-3 10 -5.5 24t-4.5 28.5t-4.5 28t-3.5 23.5q-6 -2 -14 -2.5t-14 -1.5v-304q0 -2 -1 -2.5t-2 -1.5t-2 -1h-213q-1 0 -2 1q-3 2 -2 4v206v147v97.5v57.5v27.5v7.5q-4 45 -15.5 65t-23.5 28.5t-19.5 11.5t-4.5 13q4 12 18 25
t33 23.5t41.5 17.5t44.5 7q29 0 56 -9t47.5 -28.5t32.5 -49.5t12 -73v-163q40 0 68.5 28.5t40.5 69t6 85.5t-35 78q-5 5 3 15.5t24 21t38.5 18t47.5 7.5q31 0 57.5 -12.5t45 -33.5t29 -49t10.5 -59q0 -77 -39.5 -130t-110.5 -90q0 -2 5.5 -18t16 -40t27 -52.5t40.5 -57
t55 -53t71 -39.5z" />
    <glyph glyph-name="kcommaaccent" unicode="&#x137;" horiz-adv-x="601" 
d="M393 -146q0 -41 -14 -72.5t-33.5 -53.5t-39.5 -35.5t-33 -17.5q-33 -11 -42 -8t-9 11q0 10 17 25q30 29 34 44t-11 20q-29 11 -47 36t-18 57q0 41 28.5 69.5t69.5 28.5q20 0 37.5 -8t31 -21.5t21.5 -33t8 -41.5zM593 66q12 -6 13 -12t-12 -21q-9 -10 -23 -19.5t-32 -17.5
t-38 -13t-41 -5q-64 0 -103.5 29t-61 68.5t-29 80.5t-7.5 65q0 22 11 22q33 0 53.5 11t31 27.5t12 35.5t-4.5 35.5t-18.5 27.5t-29.5 11q-23 0 -38 -10t-24 -25.5t-13 -34.5t-5 -36v-279q0 -3 -2 -5q-1 -1 -2 -1h-193q-1 0 -2 1q-2 2 -2 4q-1 170 -2 314q0 61 -0.5 123
t-0.5 116v95.5v61.5q0 1 2 3q1 0 2 1h196h2q2 0 2 -4v-293q31 54 77 78.5t92 24.5q42 0 73 -19t49 -48t21.5 -63.5t-8 -66t-39.5 -55.5t-74 -31v-2q14 -33 37 -65q20 -27 51.5 -56.5t79.5 -52.5z" />
    <glyph glyph-name="Lacute" unicode="&#x139;" horiz-adv-x="529" 
d="M527 143q6 -52 -12 -86t-50.5 -53.5t-75 -25t-85.5 0.5q-48 6 -106 13.5t-135 7.5q-1 0 -2 1q-3 2 -2 4v206v147v97.5v57.5v27.5v7.5q-4 45 -15.5 65t-23.5 28.5t-19.5 11.5t-4.5 13q4 12 18 25t33 23.5t41.5 17.5t44.5 7q29 0 56 -9t47.5 -28.5t32.5 -49.5t12 -73v-423
h17q79 0 118 7.5t56 15.5t20 13t10 0q10 -8 16.5 -21.5t8.5 -27.5zM297 935q-33 -65 -85 -110.5t-130 -72.5q-6 -2 -8 -1q-14 11 -23.5 23t-17.5 26q-3 3 1 7q26 26 46 49.5t35 48.5t25.5 52.5t19.5 62.5q2 3 6 2q40 -10 72.5 -30t56.5 -49q4 -3 2 -8z" />
    <glyph glyph-name="lacute" unicode="&#x13a;" horiz-adv-x="295" 
d="M30 714q0 2 2 4q1 1 3 1h200q1 0 2 -1q2 -2 2 -4v-231v-90t0.5 -83.5t0.5 -67v-41.5q0 -40 5 -64.5t12.5 -39.5t15.5 -21.5t14.5 -10.5t10 -6.5t1.5 -9.5q-4 -12 -17 -24.5t-31 -23t-39 -17t-42 -6.5q-61 0 -100.5 40.5t-39.5 111.5v584v0zM287 935q-33 -65 -85 -110.5
t-130 -72.5q-6 -2 -8 -1q-14 11 -23.5 23t-17.5 26q-3 3 1 7q26 26 46 49.5t35 48.5t25.5 52.5t19.5 62.5q2 3 6 2q40 -10 72.5 -30t56.5 -49q4 -3 2 -8z" />
    <glyph glyph-name="Lcommaaccent" unicode="&#x13b;" horiz-adv-x="529" 
d="M370 -156q0 -41 -14 -72.5t-33.5 -53.5t-39.5 -35.5t-33 -17.5q-33 -11 -42 -8t-9 11q0 10 17 25q30 29 34 44t-11 20q-29 11 -47 36t-18 57q0 41 28.5 69.5t69.5 28.5q20 0 37.5 -8t31 -21.5t21.5 -33t8 -41.5zM527 143q6 -52 -12 -86t-50.5 -53.5t-75 -25t-85.5 0.5
q-48 6 -106 13.5t-135 7.5q-1 0 -2 1q-3 2 -2 4v206v147v97.5v57.5v27.5v7.5q-4 45 -15.5 65t-23.5 28.5t-19.5 11.5t-4.5 13q4 12 18 25t33 23.5t41.5 17.5t44.5 7q29 0 56 -9t47.5 -28.5t32.5 -49.5t12 -73v-423h17q79 0 118 7.5t56 15.5t20 13t10 0q10 -8 16.5 -21.5
t8.5 -27.5z" />
    <glyph glyph-name="lcommaaccent" unicode="&#x13c;" horiz-adv-x="295" 
d="M253 -156q0 -41 -14 -72.5t-33.5 -53.5t-39.5 -35.5t-33 -17.5q-33 -11 -42 -8t-9 11q0 10 17 25q30 29 34 44t-11 20q-29 11 -47 36t-18 57q0 41 28.5 69.5t69.5 28.5q20 0 37.5 -8t31 -21.5t21.5 -33t8 -41.5zM30 714q0 2 2 4q1 1 3 1h200q1 0 2 -1q2 -2 2 -4v-231v-90
t0.5 -83.5t0.5 -67v-41.5q0 -40 5 -64.5t12.5 -39.5t15.5 -21.5t14.5 -10.5t10 -6.5t1.5 -9.5q-4 -12 -17 -24.5t-31 -23t-39 -17t-42 -6.5q-61 0 -100.5 40.5t-39.5 111.5v584z" />
    <glyph glyph-name="Lcaron" unicode="&#x13d;" horiz-adv-x="529" 
d="M527 143q6 -52 -12 -86t-50.5 -53.5t-75 -25t-85.5 0.5q-48 6 -106 13.5t-135 7.5q-1 0 -2 1q-3 2 -2 4v206v147v97.5v57.5v27.5v7.5q-4 45 -15.5 65t-23.5 28.5t-19.5 11.5t-4.5 13q4 12 18 25t33 23.5t41.5 17.5t44.5 7q29 0 56 -9t47.5 -28.5t32.5 -49.5t12 -73v-423
h17q79 0 118 7.5t56 15.5t20 13t10 0q10 -8 16.5 -21.5t8.5 -27.5zM506 647q0 -37 -12.5 -65t-30 -47.5t-35.5 -31.5t-30 -16q-29 -11 -37.5 -7.5t-8.5 9.5t4.5 11.5t11.5 11.5q27 26 30.5 39t-10.5 18q-26 11 -42 33t-16 51q0 36 25.5 62t62.5 26q18 0 34 -7t28 -19.5
t19 -30t7 -37.5z" />
    <glyph glyph-name="lcaron" unicode="&#x13e;" horiz-adv-x="470" 
d="M30 714q0 2 2 4q1 1 3 1h200q1 0 2 -1q2 -2 2 -4v-231v-90t0.5 -83.5t0.5 -67v-41.5q0 -40 5 -64.5t12.5 -39.5t15.5 -21.5t14.5 -10.5t10 -6.5t1.5 -9.5q-4 -12 -17 -24.5t-31 -23t-39 -17t-42 -6.5q-61 0 -100.5 40.5t-39.5 111.5v584v0zM457 647q0 -37 -12.5 -65
t-30 -47.5t-35.5 -31.5t-30 -16q-29 -11 -37.5 -7.5t-8.5 9.5t4.5 11.5t11.5 11.5q27 26 30.5 39t-10.5 18q-26 11 -42 33t-16 51q0 36 25.5 62t62.5 26q18 0 34 -7t28 -19.5t19 -30t7 -37.5z" />
    <glyph glyph-name="Lslash" unicode="&#x141;" horiz-adv-x="575" 
d="M574 143q6 -52 -12 -86t-50.5 -53.5t-75 -25t-85.5 0.5q-48 6 -106 13.5t-135 7.5q-1 0 -2 1q-3 2 -2 4q0 49 -0.5 85t-0.5 65.5v55v54.5q-17 -6 -30 -11t-23 -8q-11 -4 -20 -7q-3 -2 -5 0q-1 1 -1 2l-23 63v3q0 1 3 3q12 5 28 10q13 5 31 11.5t40 14.5q0 94 0.5 147.5
t0.5 54.5q-4 45 -15.5 65t-23.5 28.5t-19.5 11.5t-4.5 13q4 12 18 25t33 23.5t41.5 17.5t44.5 7q29 0 56 -9t47.5 -28.5t32.5 -49.5t12 -73v-152l131 48q3 2 5 0q1 -1 1 -2l24 -65v-2q0 -2 -3 -2q-25 -10 -67 -25t-91 -33v-190h17q79 0 118 7.5t56 15.5t20 13t10 0
q10 -8 16.5 -21.5t8.5 -27.5z" />
    <glyph glyph-name="lslash" unicode="&#x142;" horiz-adv-x="357" 
d="M50 714q0 2 2 4q1 1 3 1h200q1 0 2 -1q2 -2 2 -4v-95v-94.5t1 -105.5q21 8 43 16l44 16q3 2 5 0q1 -1 1 -2l24 -65v-2q0 -2 -3 -2l-114 -42v-137q0 -40 5 -64.5t12.5 -39.5t15.5 -21.5t14.5 -10.5t10 -6.5t1.5 -9.5q-4 -12 -17 -24.5t-31 -23t-39 -17t-42 -6.5
q-61 0 -100.5 40.5t-39.5 111.5v133l-39 -13q-3 -2 -5 0q-1 1 -1 2l-23 63v3q0 1 3 3q7 2 17 6q8 3 20.5 7t27.5 10v370v0z" />
    <glyph glyph-name="Nacute" unicode="&#x143;" horiz-adv-x="696" 
d="M665 5q0 -2 -2 -4q-1 -1 -3 -1h-184q-1 -1 -2 0q-3 0 -5 5l-212 417l9 -83l9 -334q0 -2 -1 -2.5t-2 -1.5t-2 -1h-214q-2 0 -3 1q-3 2 -2 4q1 152 3 273q0 51 0.5 100.5t1 87.5t1 62l0.5 24q-2 43 -13 63t-22.5 29t-20 12.5t-4.5 12.5q4 12 18.5 25.5t34.5 24t44 17.5
t49 7q30 0 53.5 -10t43 -27t37 -40t35.5 -50q18 -32 38.5 -67t40.5 -72t39 -74t36 -73l-10 96l-5 284q-1 2 1 4q1 1 3 1h208q1 0 2 -1q3 -3 3 -4zM480 935q-33 -65 -85 -110.5t-130 -72.5q-6 -2 -8 -1q-14 11 -23.5 23t-17.5 26q-3 3 1 7q26 26 46 49.5t35 48.5t25.5 52.5
t19.5 62.5q2 3 6 2q40 -10 72.5 -30t56.5 -49q4 -3 2 -8z" />
    <glyph glyph-name="nacute" unicode="&#x144;" horiz-adv-x="622" 
d="M559 204q0 -40 5.5 -64.5t14 -39.5t18 -21.5t17 -10.5t11 -7t1.5 -10q-4 -12 -15.5 -24t-28 -22.5t-36.5 -17t-41 -6.5q-30 0 -56.5 10.5t-47 30t-32 48t-11.5 63.5v194q0 37 -16 50t-35 5t-35 -36t-16 -72v-268q0 -2 -3 -5q-1 -1 -2 -1h-200q-1 0 -2 1q-2 2 -2 4
q2 65 4 123q1 25 1.5 50t1 48.5t1 43t0.5 32.5q0 40 -5 64.5t-12.5 39.5t-16 21.5t-15 10.5t-10 6.5t-0.5 9.5q4 12 15 24.5t27.5 23t36.5 17t41 6.5q53 0 90 -31t47 -86q16 32 37.5 54.5t44 36.5t45 20t42.5 6q28 0 53 -11.5t44 -33.5t30 -52.5t11 -67.5v-31.5t-0.5 -34
t-0.5 -40.5v-50zM443 735q-33 -65 -85 -110.5t-130 -72.5q-6 -2 -8 -1q-14 11 -23.5 23t-17.5 26q-3 3 1 7q26 26 46 49.5t35 48.5t25.5 52.5t19.5 62.5q2 3 6 2q40 -10 72.5 -30t56.5 -49q4 -3 2 -8z" />
    <glyph glyph-name="Ncommaaccent" unicode="&#x145;" horiz-adv-x="696" 
d="M466 -146q0 -41 -14 -72.5t-33.5 -53.5t-39.5 -35.5t-33 -17.5q-33 -11 -42 -8t-9 11q0 10 17 25q30 29 34 44t-11 20q-29 11 -47 36t-18 57q0 41 28.5 69.5t69.5 28.5q20 0 37.5 -8t31 -21.5t21.5 -33t8 -41.5zM665 5q0 -2 -2 -4q-1 -1 -3 -1h-184q-1 -1 -2 0q-3 0 -5 5
l-212 417l9 -83l9 -334q0 -2 -1 -2.5t-2 -1.5t-2 -1h-214q-2 0 -3 1q-3 2 -2 4q1 152 3 273q0 51 0.5 100.5t1 87.5t1 62l0.5 24q-2 43 -13 63t-22.5 29t-20 12.5t-4.5 12.5q4 12 18.5 25.5t34.5 24t44 17.5t49 7q30 0 53.5 -10t43 -27t37 -40t35.5 -50q18 -32 38.5 -67
t40.5 -72t39 -74t36 -73l-10 96l-5 284q-1 2 1 4q1 1 3 1h208q1 0 2 -1q3 -3 3 -4z" />
    <glyph glyph-name="ncommaaccent" unicode="&#x146;" horiz-adv-x="622" 
d="M407 -146q0 -41 -14 -72.5t-33.5 -53.5t-39.5 -35.5t-33 -17.5q-33 -11 -42 -8t-9 11q0 10 17 25q30 29 34 44t-11 20q-29 11 -47 36t-18 57q0 41 28.5 69.5t69.5 28.5q20 0 37.5 -8t31 -21.5t21.5 -33t8 -41.5zM559 204q0 -40 5.5 -64.5t14 -39.5t18 -21.5t17 -10.5
t11 -7t1.5 -10q-4 -12 -15.5 -24t-28 -22.5t-36.5 -17t-41 -6.5q-30 0 -56.5 10.5t-47 30t-32 48t-11.5 63.5v194q0 37 -16 50t-35 5t-35 -36t-16 -72v-268q0 -2 -3 -5q-1 -1 -2 -1h-200q-1 0 -2 1q-2 2 -2 4q2 65 4 123q1 25 1.5 50t1 48.5t1 43t0.5 32.5q0 40 -5 64.5
t-12.5 39.5t-16 21.5t-15 10.5t-10 6.5t-0.5 9.5q4 12 15 24.5t27.5 23t36.5 17t41 6.5q53 0 90 -31t47 -86q16 32 37.5 54.5t44 36.5t45 20t42.5 6q28 0 53 -11.5t44 -33.5t30 -52.5t11 -67.5v-31.5t-0.5 -34t-0.5 -40.5v-50z" />
    <glyph glyph-name="Ncaron" unicode="&#x147;" horiz-adv-x="696" 
d="M665 5q0 -2 -2 -4q-1 -1 -3 -1h-184q-1 -1 -2 0q-3 0 -5 5l-212 417l9 -83l9 -334q0 -2 -1 -2.5t-2 -1.5t-2 -1h-214q-2 0 -3 1q-3 2 -2 4q1 152 3 273q0 51 0.5 100.5t1 87.5t1 62l0.5 24q-2 43 -13 63t-22.5 29t-20 12.5t-4.5 12.5q4 12 18.5 25.5t34.5 24t44 17.5
t49 7q30 0 53.5 -10t43 -27t37 -40t35.5 -50q18 -32 38.5 -67t40.5 -72t39 -74t36 -73l-10 96l-5 284q-1 2 1 4q1 1 3 1h208q1 0 2 -1q3 -3 3 -4zM528 960q13 5 20.5 0.5t-3.5 -18.5q-43 -51 -76 -91q-14 -17 -28 -33.5t-25 -29.5q-13 -15 -24 -29q-1 -1 -3 -2.5t-7 -1.5
h-69h-2q-3 0 -4 3l-7 8t-18 20.5t-25 29t-29 33.5q-34 40 -79 90q-9 11 -5 17t21 1q20 -7 52 -17.5t61 -20.5q34 -11 71 -24l66 24q28 10 58.5 21.5t54.5 19.5z" />
    <glyph glyph-name="ncaron" unicode="&#x148;" horiz-adv-x="622" 
d="M559 204q0 -40 5.5 -64.5t14 -39.5t18 -21.5t17 -10.5t11 -7t1.5 -10q-4 -12 -15.5 -24t-28 -22.5t-36.5 -17t-41 -6.5q-30 0 -56.5 10.5t-47 30t-32 48t-11.5 63.5v194q0 37 -16 50t-35 5t-35 -36t-16 -72v-268q0 -2 -3 -5q-1 -1 -2 -1h-200q-1 0 -2 1q-2 2 -2 4
q2 65 4 123q1 25 1.5 50t1 48.5t1 43t0.5 32.5q0 40 -5 64.5t-12.5 39.5t-16 21.5t-15 10.5t-10 6.5t-0.5 9.5q4 12 15 24.5t27.5 23t36.5 17t41 6.5q53 0 90 -31t47 -86q16 32 37.5 54.5t44 36.5t45 20t42.5 6q28 0 53 -11.5t44 -33.5t30 -52.5t11 -67.5v-31.5t-0.5 -34
t-0.5 -40.5v-50zM481 760q13 5 20.5 0.5t-3.5 -18.5q-43 -51 -76 -91q-14 -17 -28 -33.5t-25 -29.5q-13 -15 -24 -29q-1 -1 -3 -2.5t-7 -1.5h-69h-2q-3 0 -4 3l-7 8t-18 20.5t-25 29t-29 33.5q-34 40 -79 90q-9 11 -5 17t21 1q20 -7 52 -17.5t61 -20.5q34 -11 71 -24l66 24
q28 10 58.5 21.5t54.5 19.5z" />
    <glyph glyph-name="Omacron" unicode="&#x14c;" horiz-adv-x="710" 
d="M534 774q-1 -1 -1 -2q-1 -1 -3 -1h-46h-54h-57h-56h-131q-2 0 -4 2q-1 1 -1 2v86q0 1 1 2q3 3 5 3h343q4 0 4 -2v-2v-88zM703 357q0 -77 -24 -145.5t-69 -120.5t-109 -82t-145 -30q-79 0 -143 30t-109 82t-69.5 120.5t-24.5 145.5q0 76 24.5 145t69.5 121.5t109 83
t143 30.5t143 -30.5t109.5 -83t70 -121.5t24.5 -145zM236 357q0 -43 8 -90t23.5 -86t38 -64.5t50.5 -25.5q29 0 51.5 25t38 63.5t23.5 85.5t8 92q0 44 -8 91.5t-24 86.5t-38.5 64.5t-50.5 25.5q-29 0 -51 -25.5t-37.5 -64.5t-23.5 -86.5t-8 -91.5z" />
    </font>
</defs>
</svg>
