<?xml version="1.0" standalone="no"?>
<!DOCTYPE svg PUBLIC "-//W3C//DTD SVG 1.1//EN" "http://www.w3.org/Graphics/SVG/1.1/DTD/svg11.dtd" >
<svg xmlns="http://www.w3.org/2000/svg" xmlns:xlink="http://www.w3.org/1999/xlink" version="1.1">
<metadata>
Created by FontForge 20190801 at Mon Sep  4 14:41:50 2023
 By www-data
Copyright (c) 2023 by Khurasan. All rights reserved.
</metadata>
<defs>
<font id="sundaygrapes" horiz-adv-x="0" >
  <font-face 
    font-family="sundaygrapes"
    font-weight="400"
    font-stretch="normal"
    units-per-em="1000"
    panose-1="0 0 0 0 0 0 0 0 0 0"
    ascent="800"
    descent="-200"
    x-height="518"
    cap-height="721"
    bbox="-98.3333 -288.538 997.842 829"
    underline-thickness="0"
    underline-position="0"
    unicode-range="U+000A-2212"
  />
<missing-glyph horiz-adv-x="527" 
 />
    <glyph glyph-name=".notdef" horiz-adv-x="527" 
 />
    <glyph glyph-name=".null" 
 />
    <glyph glyph-name="nonmarkingreturn" horiz-adv-x="333" 
 />
    <glyph glyph-name="NULL" 
 />
    <glyph glyph-name="NULL" 
 />
    <glyph glyph-name="controlLF" unicode="&#xa;" 
 />
    <glyph glyph-name="controlCR" unicode="&#xd;" 
 />
    <glyph glyph-name="space" unicode=" " horiz-adv-x="300" 
 />
    <glyph glyph-name="exclam" unicode="!" horiz-adv-x="362" 
d="M256 247q-23 -8 -72 -6q-88 0 -110 13q-9 6 -14 14q-7 13 -12 115v165q0 14 2 42t2 42q0 33 1 38q4 8 4 11q0 13 3 18q5 8 14 11q34 12 183 7q42 -2 52 -6q9 0 15.5 -6t6.5 -15q-2 -26 -11 -76t-11 -73q-1 -11 -2.5 -56t-3 -93t-1.5 -56q-2 -40 -12 -60q-10 -21 -34 -29z
M217 -7q-51 -9 -103 -3q-41 6 -56 28q-20 28 -19.5 78t18.5 80q13 19 36 26q24 7 54 7q83 4 107 -12q26 -20 26 -97q2 -47 -13 -74q-15 -26 -50 -33z" />
    <glyph glyph-name="quotedbl" unicode="&#x22;" horiz-adv-x="454" 
d="M155 438q-14 -4 -53.5 -3.5t-53.5 5.5q-6 2 -10 9q-7 12 -7 94q-2 98 -4 147q0 8 6.5 14.5t14.5 8.5q12 2 41 2q63 8 88 0q3 1 4 1q9 0 15 -7.5t4 -16.5q-3 -23 -25 -229q-1 -8 -6.5 -16t-13.5 -9zM385 433q-14 -4 -53.5 -3.5t-53.5 5.5q-7 2 -10 8q-7 12 -7 95
q-2 98 -4 146q0 20 21 24q3 0 20.5 0.5t20.5 1.5q64 8 88 0h4q9 0 14.5 -7t4.5 -17q-4 -24 -25 -228q-2 -22 -20 -25z" />
    <glyph glyph-name="quotedbl" unicode="&#x201f;" horiz-adv-x="454" 
d="M155 438q-14 -4 -53.5 -3.5t-53.5 5.5q-6 2 -10 9q-7 12 -7 94q-2 98 -4 147q0 8 6.5 14.5t14.5 8.5q12 2 41 2q63 8 88 0q3 1 4 1q9 0 15 -7.5t4 -16.5q-3 -23 -25 -229q-1 -8 -6.5 -16t-13.5 -9zM385 433q-14 -4 -53.5 -3.5t-53.5 5.5q-7 2 -10 8q-7 12 -7 95
q-2 98 -4 146q0 20 21 24q3 0 20.5 0.5t20.5 1.5q64 8 88 0h4q9 0 14.5 -7t4.5 -17q-4 -24 -25 -228q-2 -22 -20 -25z" />
    <glyph glyph-name="quotedbl" unicode="&#x201e;" horiz-adv-x="454" 
d="M155 438q-14 -4 -53.5 -3.5t-53.5 5.5q-6 2 -10 9q-7 12 -7 94q-2 98 -4 147q0 8 6.5 14.5t14.5 8.5q12 2 41 2q63 8 88 0q3 1 4 1q9 0 15 -7.5t4 -16.5q-3 -23 -25 -229q-1 -8 -6.5 -16t-13.5 -9zM385 433q-14 -4 -53.5 -3.5t-53.5 5.5q-7 2 -10 8q-7 12 -7 95
q-2 98 -4 146q0 20 21 24q3 0 20.5 0.5t20.5 1.5q64 8 88 0h4q9 0 14.5 -7t4.5 -17q-4 -24 -25 -228q-2 -22 -20 -25z" />
    <glyph glyph-name="quotedbl" unicode="&#xbb;" horiz-adv-x="454" 
d="M155 438q-14 -4 -53.5 -3.5t-53.5 5.5q-6 2 -10 9q-7 12 -7 94q-2 98 -4 147q0 8 6.5 14.5t14.5 8.5q12 2 41 2q63 8 88 0q3 1 4 1q9 0 15 -7.5t4 -16.5q-3 -23 -25 -229q-1 -8 -6.5 -16t-13.5 -9zM385 433q-14 -4 -53.5 -3.5t-53.5 5.5q-7 2 -10 8q-7 12 -7 95
q-2 98 -4 146q0 20 21 24q3 0 20.5 0.5t20.5 1.5q64 8 88 0h4q9 0 14.5 -7t4.5 -17q-4 -24 -25 -228q-2 -22 -20 -25z" />
    <glyph glyph-name="quotedbl" unicode="&#xab;" horiz-adv-x="454" 
d="M155 438q-14 -4 -53.5 -3.5t-53.5 5.5q-6 2 -10 9q-7 12 -7 94q-2 98 -4 147q0 8 6.5 14.5t14.5 8.5q12 2 41 2q63 8 88 0q3 1 4 1q9 0 15 -7.5t4 -16.5q-3 -23 -25 -229q-1 -8 -6.5 -16t-13.5 -9zM385 433q-14 -4 -53.5 -3.5t-53.5 5.5q-7 2 -10 8q-7 12 -7 95
q-2 98 -4 146q0 20 21 24q3 0 20.5 0.5t20.5 1.5q64 8 88 0h4q9 0 14.5 -7t4.5 -17q-4 -24 -25 -228q-2 -22 -20 -25z" />
    <glyph glyph-name="numbersign" unicode="#" horiz-adv-x="716" 
d="M482 21q-7 1 -84 -3.5t-81 4.5q-15 7 -11 24q5 21 14 62.5t10 46.5q-5 -1 -15 -1t-15 -1q-5 -18 -14 -54t-14 -53q0 -1 -1 -6t-2 -8q-3 -6 -12 -10t-15 -3h-56q-29 0 -74 9q-15 2 -24 12t-5 23q0 1 1.5 10.5t2.5 11.5q4 16 30 101h-48q-25 2 -34 10q-13 13 -9 32
q11 53 26 72q11 14 28 16q8 0 23.5 0.5t23.5 1.5q6 16 9 35q-44 0 -56 2q-17 2 -26 11q-8 8 -8 22q0 11 8.5 49.5t12.5 51.5t15 16q3 1 50 1h50q16 68 28 101q0 1 3 6.5t4 9.5q2 14 16 16q3 1 22.5 -1t21.5 -2q105 -6 110 -8q17 -7 12 -26q-1 -1 -1 -12q-8 -38 -30 -105
q5 1 17 2t17 1q25 96 39 122q6 12 14 15q1 1 6 3t8 3q43 4 62 5q64 0 90 -4q7 -2 14 -8q2 -2 3 -7t2 -6q6 -9 -1 -29q-28 -83 -35 -102q10 0 21 0.5t24.5 1.5t20.5 1q9 1 15.5 -6t8.5 -17q1 -6 -9 -41q-14 -52 -22 -61q-8 -10 -25 -8q-19 1 -56 1q-2 -6 -8 -25t-8 -29
q62 0 69 -3q14 -5 19 -18q4 -9 -1 -32q-13 -42 -23 -68q-5 -13 -17 -16q-4 -4 -15 -5.5t-20 -1.5t-22.5 0.5t-16.5 0.5q-30 -111 -30 -113q-2 -8 -10.5 -14.5t-16.5 -5.5zM317 353q-6 -20 -16 -60q55 5 68 5q3 15 10 56q-42 0 -62 -1z" />
    <glyph glyph-name="dollar" unicode="$" horiz-adv-x="459" 
d="M273 -78q-89 -2 -110 1q-18 4 -16 22q1 7 6 56.5t5 56.5q-59 0 -83 6q-14 -6 -24 5q-19 22 -15 124q1 2 2.5 16t1.5 16q0 3 3 8t3 7q1 7 8 12t15 5q6 0 35 -1t55.5 -1t34.5 3q-5 6 -27 19q-9 4 -34.5 14.5t-38.5 18.5q-20 10 -33 27q-38 52 -27 109q9 51 51 97
q37 37 84 58q2 81 -6 114q-2 9 2.5 18.5t12.5 11.5q2 1 14 2t13 1q56 4 84 1q11 -1 16.5 -10.5t3.5 -21.5q-1 -5 -2.5 -23.5t-2.5 -40t-1 -24.5q18 0 54 -6q2 -1 12.5 -2t12.5 -2q7 -3 12 -13q6 -9 6 -11q8 -36 8 -70q1 -8 0.5 -38t-1.5 -38q-3 -17 -20 -17q-8 -7 -18 -5
q-25 5 -38 5q-4 0 -51 -10q-35 -12 -36 -26q-1 -9 11 -19q9 -8 21.5 -14t28.5 -11.5t25 -9.5q45 -21 69 -49q24 -31 29 -66q8 -60 -26 -110q-33 -46 -109 -55q0 -96 3 -111q2 -14 -9 -25q-5 -4 -14 -4z" />
    <glyph glyph-name="percent" unicode="%" horiz-adv-x="1020" 
d="M255 321q-69 -15 -126 5q-29 9 -51 30q-33 32 -47 87q-25 96 3 178q24 69 80 96q12 5 25.5 7.5t31 4t26.5 3.5q17 2 53 2q67 -4 96 -19q32 -16 43 -50q14 -40 12 -118q-2 -69 -23 -126q-17 -47 -52 -72q-27 -19 -71 -28zM388 -12q-1 0 -6.5 -1t-6.5 -1q-58 5 -130 17
q-4 1 -18 2t-23 3.5t-17 6.5q-9 5 -9 16t8 18q4 6 89.5 151t100.5 169q40 63 120 177.5t113 164.5q13 17 25 18q41 1 54 0t54 -7.5t54 -8.5q1 0 19.5 -1t22.5 -3q12 -4 16 -15t-5 -19q-30 -31 -89 -111q-57 -78 -199 -306q-93 -151 -143 -243q-4 -14 -11 -20q-8 -10 -19 -7z
M181 536q-2 -47 10 -81t44 -25q3 1 4 4q8 11 10 46.5t-1 49.5q-3 26 -12 48q-3 9 -7 11q-5 3 -10 3q-2 0 -8.5 -0.5t-10 -0.5t-7.5 -2t-5 -5q-5 -16 -7 -48zM869 -7q-64 -20 -131 -3q-35 10 -58 29q-32 28 -47 72q-28 86 -9 175q9 38 32 71t55 48q11 5 24.5 8t32 4.5
t25.5 2.5q18 2 54 2q63 -2 96 -19q30 -16 43 -50q15 -45 11 -118q-2 -68 -22 -126q-19 -48 -53 -72q-20 -13 -53 -24zM797 107q10 -10 26 -10q11 3 13 5q7 12 9.5 47t-0.5 49q-3 26 -13 49q-5 10 -7 11q-16 8 -38 -2q-2 -1 -5 -13q-13 -67 4 -115q3 -12 11 -21z" />
    <glyph glyph-name="ampersand" unicode="&#x26;" horiz-adv-x="716" 
d="M319 -16q-65 -6 -129.5 11.5t-110.5 56.5q-48 44 -55 109q-9 82 42 155q33 48 80 70q-29 24 -41 55q-19 50 2 127q13 49 55 91q41 40 103 56q39 10 146 12h65q16 -2 23.5 -3t17 -6.5t9.5 -15.5q0 -2 1 -5t1 -4q0 -99 3 -115q2 -9 -4 -16.5t-16 -7.5q-1 0 -6.5 -1.5
t-6.5 -1.5q-29 3 -67 1.5t-64 -13.5q-30 -13 -41 -32q-7 -10 -6 -21.5t10 -17.5q7 -4 15.5 -5.5t20 -1.5t16.5 -1q24 -3 26 -27q1 -8 -1 -53.5t-2 -47.5q0 -14 -4 -19q-2 -2 -4 -6q-9 -14 -25 -9q-1 1 -2 1q-56 2 -85 -10q-43 -17 -58 -72q-6 -25 2 -42q7 -15 29 -26
q63 -33 127.5 -5t76.5 98q1 8 0.5 12t-2 12t-1.5 12h-7l-6 -1q-10 0 -16 7t-4 16q1 4 -0.5 46t1.5 46q1 3 7 9q2 10 9.5 15t16.5 2h1l1 -1q113 -5 151 0q38 4 55 10q12 4 21 -5t4 -21q1 -14 1 -54t-1 -54q0 -24 -8 -37q-5 -11 -20 -18q-8 -4 -18.5 -6t-22.5 -3.5t-18 -2.5
q9 -107 33 -183q0 -2 1.5 -6.5t1.5 -6.5q0 -8 -5 -13q-2 -10 -10 -15q-16 -9 -65 -12.5t-76 -0.5q-13 2 -19 8q-5 4 -7.5 9.5t-5.5 15t-4 12.5q-59 -42 -131 -50z" />
    <glyph glyph-name="quotesingle" unicode="'" horiz-adv-x="224" 
d="M155 441q-14 -3 -53.5 -3t-53.5 5q-7 4 -10 9q-7 12 -7 95q-2 98 -4 146q0 8 6.5 14.5t14.5 8.5q3 0 20.5 1t20.5 2q14 2 44 2.5t44 -2.5h4q9 0 15 -7.5t4 -16.5q-4 -25 -25 -228q-2 -21 -20 -26z" />
    <glyph glyph-name="quotesingle" unicode="&#x203a;" horiz-adv-x="224" 
d="M155 441q-14 -3 -53.5 -3t-53.5 5q-7 4 -10 9q-7 12 -7 95q-2 98 -4 146q0 8 6.5 14.5t14.5 8.5q3 0 20.5 1t20.5 2q14 2 44 2.5t44 -2.5h4q9 0 15 -7.5t4 -16.5q-4 -25 -25 -228q-2 -21 -20 -26z" />
    <glyph glyph-name="quotesingle" unicode="&#x2039;" horiz-adv-x="224" 
d="M155 441q-14 -3 -53.5 -3t-53.5 5q-7 4 -10 9q-7 12 -7 95q-2 98 -4 146q0 8 6.5 14.5t14.5 8.5q3 0 20.5 1t20.5 2q14 2 44 2.5t44 -2.5h4q9 0 15 -7.5t4 -16.5q-4 -25 -25 -228q-2 -21 -20 -26z" />
    <glyph glyph-name="quotesingle" unicode="&#x201b;" horiz-adv-x="224" 
d="M155 441q-14 -3 -53.5 -3t-53.5 5q-7 4 -10 9q-7 12 -7 95q-2 98 -4 146q0 8 6.5 14.5t14.5 8.5q3 0 20.5 1t20.5 2q14 2 44 2.5t44 -2.5h4q9 0 15 -7.5t4 -16.5q-4 -25 -25 -228q-2 -21 -20 -26z" />
    <glyph glyph-name="quotesingle" unicode="&#x201a;" horiz-adv-x="224" 
d="M155 441q-14 -3 -53.5 -3t-53.5 5q-7 4 -10 9q-7 12 -7 95q-2 98 -4 146q0 8 6.5 14.5t14.5 8.5q3 0 20.5 1t20.5 2q14 2 44 2.5t44 -2.5h4q9 0 15 -7.5t4 -16.5q-4 -25 -25 -228q-2 -21 -20 -26z" />
    <glyph glyph-name="parenleft" unicode="(" horiz-adv-x="359" 
d="M352 -24q-14 -8 -36.5 -7.5t-39.5 5.5q-80 23 -128 60q-74 56 -105 144q-20 61 -15 140q7 104 60 215q43 85 109 133q38 28 75 46q22 11 39 17q32 7 48 2q12 -5 15 -16.5t-7 -19.5t-20 -14q-45 -26 -74 -68q-39 -54 -62 -147q-21 -88 -21 -141q-2 -105 38 -193
q28 -64 83 -102q13 -9 20 -11q3 -1 11 -1t12 -2q11 -5 12 -17.5t-9 -18.5q-1 0 -2.5 -2t-2.5 -2z" />
    <glyph glyph-name="parenright" unicode=")" horiz-adv-x="359" 
d="M12 -30q-14 -2 -23 7t-5 21q4 8 27 24q46 27 74 67q39 54 62 147q21 88 21 141q2 106 -38 194q-28 63 -83 101q-13 9 -20 11q-4 2 -12 2t-11 1q-11 5 -12 17.5t9 18.5q1 0 2.5 2t2.5 2q14 8 36.5 7.5t39.5 -5.5q80 -23 128 -60q74 -56 105 -144q20 -60 15 -140
q-7 -104 -60 -215q-43 -84 -109 -133q-40 -29 -75 -45q-24 -14 -44 -19q-10 -2 -30 -2z" />
    <glyph glyph-name="asterisk" unicode="*" horiz-adv-x="364" 
d="M298 428q-56 -30 -72 -30t-19 17l-3 6q-3 11 -21 82q-1 -3 -9 -28t-9 -29q0 -2 -2.5 -14t-3.5 -13q-7 -21 -28 -16q-51 17 -67 31q-8 7 -7.5 18t8.5 19q18 20 46 66q-14 8 -40 21t-37 19q-10 5 -12.5 14.5t4.5 17.5q-1 8 8 24q19 33 26 39q11 11 27 2l51 -30q-7 49 -7 61
q-1 8 3.5 17t12.5 12q9 3 58 3q9 -1 17 -8.5t7 -16.5q-2 -42 -6 -82q32 24 62 44q8 6 19.5 3t15.5 -13q14 -24 21 -46q1 -2 1 -8.5v-7.5q5 -11 -6 -22q-4 -4 -21 -12t-36.5 -16t-22.5 -10q1 -1 22.5 -39t26.5 -44q6 -7 4 -17t-11 -14z" />
    <glyph glyph-name="plus" unicode="+" horiz-adv-x="547" 
d="M289 37q-55 -2 -83 0q-18 0 -21 2q-8 3 -12 12q-7 9 -7 17q0 34 2 104q-7 0 -56 1.5t-56 2.5q-12 0 -19 6q-2 2 -4.5 7.5t-3.5 7.5q-6 9 -6 65q0 50 3 57q1 3 4 15t6 17q7 12 26 14q7 1 105 1l3 96q0 20 9 28l5 4q5 5 8 6q6 2 40 2l42 3q11 0 33 -2t33 -2q7 -1 19 -7
q12 -7 9 -21q-1 -9 -3.5 -60.5t-2.5 -52.5q111 -6 134 -10q17 -2 21 -13q2 -5 7 -37q1 -13 1 -51t-1 -51q-2 -19 -21 -19q-8 -4 -29 -6t-39 -2t-43.5 0.5t-28.5 0.5q0 -12 5 -106q0 -17 -15 -20q-11 -9 -64 -9z" />
    <glyph glyph-name="comma" unicode="," horiz-adv-x="230" 
d="M196 -88q-5 -16 -18.5 -24t-27.5 -1q-11 4 -18 16q-7 14 -10 41.5t-5 36.5q-6 1 -29 4.5t-35 6.5q-15 3 -24 14q-11 21 -10 51.5t8 56.5q3 18 13 29q17 21 125 17q21 0 34 -13q9 -8 11 -35q1 -14 -1 -72.5t-4 -77.5q-4 -38 -9 -50z" />
    <glyph glyph-name="hyphen" unicode="-" horiz-adv-x="550" 
d="M482 159q-10 -1 -143 -1q-62 5 -89 3q-72 -4 -155 -1q-2 0 -14.5 0.5t-22.5 1.5t-14 3q-3 2 -5.5 6t-4.5 9t-3 7q-2 3 -7 59q0 74 3 82q2 5 4.5 18t5.5 19q7 13 27 17q23 1 53.5 1t77.5 -1t53 -1q91 -2 230 -15q3 0 10 -1l10.5 -1.5t8.5 -2.5t8 -6q6 -8 10 -48
q1 -13 1.5 -57.5t-0.5 -57.5q-2 -26 -22 -26q-9 -5 -22 -7z" />
    <glyph glyph-name="period" unicode="." horiz-adv-x="267" 
d="M195 -6q-20 -5 -72.5 -5t-69.5 11t-25 33q-9 24 -7 71.5t16 67.5q6 9 18 14q3 1 9 1.5t9 1.5q36 10 103 6q34 -5 42 -9q13 -9 18 -27q9 -31 9.5 -75.5t-14.5 -71.5q-10 -14 -36 -18z" />
    <glyph glyph-name="slash" unicode="/" horiz-adv-x="442" 
d="M219 -114q-9 -11 -22 -6l-4 2q-10 0 -56 -1.5t-88 -1.5t-55 4q-11 4 -14.5 14.5t3.5 18.5q3 3 3.5 11.5t2.5 11.5q8 13 24 93q17 71 52.5 203t50.5 191q60 235 91 326q9 25 17 30q7 4 32 4q157 8 175 8q12 0 17.5 -10t-0.5 -20q1 -5 -4 -23q-9 -30 -44.5 -162.5
t-43.5 -167.5q-8 -34 -22 -102.5t-22 -103.5q-18 -78 -83 -306q0 -2 -1.5 -3.5l-3 -3t-3 -3.5t-2.5 -3z" />
    <glyph glyph-name="zero" unicode="0" horiz-adv-x="668" 
d="M434 -11q-22 -1 -105.5 2.5t-106.5 6.5q-70 10 -116 57q-49 51 -66 127q-13 51 -7 134q3 76 16 141q16 85 58 148q27 39 61 65q39 30 95 47q50 16 136 16q45 1 101 -18q49 -17 71 -39q31 -30 45 -71q13 -37 15 -89q5 -107 -9 -255q-12 -106 -33 -161q-18 -42 -46 -68
q-41 -40 -109 -43zM315 175q9 -11 24.5 -15t27.5 3q29 21 32 126q4 86 1 148q-1 39 -12 65.5t-39 24.5q-7 0 -8 -1q-18 -15 -27 -34q-13 -24 -19 -72q-9 -61 -4 -143q2 -40 10 -72q6 -20 14 -30z" />
    <glyph glyph-name="one" unicode="1" horiz-adv-x="424" 
d="M342 -7q-19 -4 -60 -4q-39 0 -114 5q-27 2 -38 12q-10 8 -14 25q-3 15 -3 66q3 163 15 287q-63 27 -85 38q-27 13 -31 34q-1 8 2.5 20.5t11.5 27.5t15 27t17 27t12 19q3 4 32.5 56.5t36.5 60.5q14 18 42 25q28 5 117 5q49 0 64 -9q12 -8 16 -28q10 -54 3 -131
q-14 -194 -13 -257q1 -39 6 -115.5t5 -114.5q0 -49 -12 -63q-8 -9 -25 -13z" />
    <glyph glyph-name="two" unicode="2" horiz-adv-x="586" 
d="M531 -6q-12 -4 -47 -4l-229 3q-82 0 -123 3q-9 2 -25 -3h-42h-3q-4 0 -7.5 1t-6 4t-4.5 5.5t-3 7.5t-2 8t-1.5 9t-1 9t-1 9.5t-0.5 8.5q-4 62 8 126q7 40 29 65q20 24 68 51q6 3 59 28t77 43q47 36 47 82q0 19 -8 39t-22 25q-6 3 -13 1q-14 -2 -26 -12t-16 -23
q-7 -16 -9 -77q-1 -10 -9.5 -17.5t-17.5 -7.5q-16 -1 -91 5q-46 5 -52 10q-1 1 -6 3.5t-7 4.5q-6 7 -4 17q8 100 24 154q22 73 77 108q72 48 177 46q88 -2 141 -41q46 -35 70 -94q20 -52 13 -110.5t-39 -103.5q-12 -17 -37.5 -46t-36.5 -44q-16 -21 -33 -60q17 -2 67 0
q49 0 52 1q17 2 22 -13q5 -9 5 -11q7 -75 7 -130q2 -36 -3 -59q-1 -5 -6.5 -12.5t-10.5 -8.5z" />
    <glyph glyph-name="three" unicode="3" horiz-adv-x="569" 
d="M317 -31q-91 -1 -198 10q-60 10 -69 15q-7 4 -9 13q-10 7 -10 23q0 129 4 146q1 3 3.5 6.5t2.5 5.5q3 8 10.5 11.5t15.5 0.5q72 -27 116 -26q47 0 76 21q15 10 15 28t-14 29q-20 15 -55 17q-2 1 -14.5 1h-13.5q-5 1 -12.5 6t-9.5 9q-3 5 -3 18q1 5 4 40.5t3 40.5
q3 22 19 28q1 2 12 0.5t13 -1.5q55 -5 60 20q5 33 -14 55q-9 12 -29 19q-16 6 -44 4q-30 -2 -56 -7q-35 -9 -51 -7q-7 2 -14.5 8.5t-8.5 13.5q-4 22 -2 68q0 87 9 112q8 19 19 23q22 8 125 8q119 4 187 -19q54 -17 92 -57q52 -53 50 -132q-2 -53 -25 -92q-24 -44 -81 -93
q44 -15 65 -33t34 -45q29 -61 11 -138.5t-74 -113.5q-55 -36 -139 -36z" />
    <glyph glyph-name="four" unicode="4" horiz-adv-x="649" 
d="M525 7q0 -12 -10 -18t-21 0q-19 -3 -59 -3q-117 0 -142 5q-9 2 -16.5 9.5t-7.5 16.5q-2 46 3 144q-19 -1 -66 -4.5t-66.5 -3.5t-65.5 6q-26 6 -40 21q-12 15 -14 40q-1 14 0.5 61t3.5 61q4 25 32 60q126 144 195 246q26 40 36 66q3 11 15 13q2 0 12.5 -1t12.5 -1
q23 -2 81 -0.5t81 0.5q19 0 34 -4q9 -2 12 -10t0 -17q3 -5 5 -17q3 -70 -7 -334q5 1 32 2t32 1q8 1 14.5 -4t8.5 -13q6 -41 6 -126v-23q-2 -13 -15 -16q-5 -5 -15 -5q-43 -3 -78 -2q0 -22 3.5 -72.5t3.5 -77.5zM199 336q32 -1 97 -1q0 44 2 134q-34 -53 -99 -133z" />
    <glyph glyph-name="five" unicode="5" horiz-adv-x="549" 
d="M81 -3h-15q-16 4 -20 8q-7 6 -7 19q0 18 1 50t1.5 58.5t0.5 50.5q0 9 3 17q-2 13 8 20.5t21 0.5q1 -1 7 -1.5t7 -0.5q95 -9 125 -5q53 9 63 28q7 17 -11 26q-10 4 -39.5 4.5t-65 -1.5t-40.5 -2q-59 0 -74 24q-3 7 -1 33q2 19 7 109q8 175 7 204q-4 57 5 64q2 2 3 4
q7 17 26 12q20 -6 70 -6q29 -2 172 11q38 3 115 5q15 2 26 -9q5 -6 5 -19q10 -102 5 -134q3 -9 -1.5 -17.5t-13.5 -9.5q-6 -1 -34 4q-65 11 -182 3v-111q90 18 152 -15q52 -28 80 -78q25 -43 30 -112q3 -71 -11 -124q-10 -34 -56 -68q-40 -27 -93 -35q-41 -7 -139 -5
q-60 1 -137 -2z" />
    <glyph glyph-name="six" unicode="6" horiz-adv-x="592" 
d="M402 1q-63 -16 -137 -6q-69 9 -132 51q-42 29 -62 67q-46 96 -38 212q7 114 41 242q11 39 47 126q7 16 12 20q2 1 6.5 3t6.5 4q4 4 10.5 4.5t16 -0.5t12.5 -1q8 -1 71 -2t71 -1q11 0 17 -7q1 -1 6 -14q4 -12 -4 -20q-3 -4 -14 -28q-30 -72 -48 -164q-1 -3 -1.5 -8
t-1.5 -9t-3 -7q22 -1 66 0t66 0q46 -2 75 -20q56 -37 75 -109q10 -33 10 -81q0 -54 -14 -97q-21 -66 -67 -112q-28 -28 -87 -43zM308 157q14 -8 33.5 -4t29.5 17q14 19 16 60t-8 62q-5 13 -13 19q-8 7 -25 9q-13 2 -57 2q-6 -38 -8 -58q-2 -29 6 -63t26 -44z" />
    <glyph glyph-name="seven" unicode="7" horiz-adv-x="544" 
d="M158 -8q-30 0 -40 4q-7 2 -12.5 11.5t-3.5 17.5q13 73 38 148.5t65 176.5t55 144q-35 4 -106 4q-47 0 -95 -3q-20 -2 -28 3q-12 7 -14 21q-1 4 6 83q1 6 3 48.5t3 48.5q1 8 7 18t13 13q8 2 24 0q26 -1 78.5 0t79.5 0q26 -1 73 -7t62 -7q56 -4 96 -1q4 0 12.5 1t14 1.5
t12 -0.5t11.5 -4q21 0 21 -20q0 -13 -9 -50.5t-18 -68.5t-22.5 -76.5t-13.5 -46.5q-26 -84 -45 -166q-3 -13 -22 -105.5t-22 -105.5q-5 -44 -12 -59q-5 -13 -23 -18q-13 -2 -94 -2q-48 0 -94 -3z" />
    <glyph glyph-name="eight" unicode="8" horiz-adv-x="586" 
d="M329 -24q-94 -3 -160 4q-73 8 -105 49q-27 34 -34 87q-5 50 12 114q13 47 41.5 88t67.5 63q-42 34 -56 64q-33 67 -21 165q7 50 34 81q18 23 52 31q22 4 45 6q83 7 209 0q47 -2 70 -15q23 -12 39 -43q15 -29 17 -76q4 -89 -24 -151q-19 -41 -58 -84q43 -21 60 -52
q21 -35 28 -96q12 -74 -2 -127q-11 -48 -37 -71q-27 -22 -72 -27q-46 -7 -106 -10zM260 500q54 -5 70 -2q17 4 21 10q11 22 0 35q-16 16 -66 13q-31 0 -37 -9q-10 -10 -7 -40q12 -6 19 -7zM296 146q36 -2 53 5q11 5 17 24t6 35q0 26 -11 37q-16 14 -109 10q-1 0 -2 -1.5
t-2 -3.5t-2 -3q-7 -15 -11.5 -30.5t-3 -32.5t11.5 -26q14 -12 53 -14z" />
    <glyph glyph-name="nine" unicode="9" horiz-adv-x="591" 
d="M446 -4q-6 -6 -39 -3q-36 2 -143 2q-18 0 -20 17q-3 17 -2 19t3.5 5t3.5 5q36 77 59 188q1 3 1.5 8t1.5 8.5t3 6.5q-16 2 -66 1t-66 -1q-47 2 -75 21q-55 36 -76 108q-9 33 -9 81q0 53 14 98q21 67 67 111q29 29 86 44q68 15 138 6q68 -9 131 -51q45 -31 62 -68
q46 -91 39 -211q-7 -114 -41 -242q-11 -41 -48 -127q-7 -16 -11 -20q-2 -1 -6.5 -2.5t-6.5 -3.5zM251 395q18 -2 57 -2q6 38 7 58q2 30 -5.5 63.5t-25.5 44.5q-14 8 -34 3.5t-30 -17.5q-14 -18 -15.5 -59t8.5 -63q5 -13 13 -19q7 -5 25 -9z" />
    <glyph glyph-name="colon" unicode=":" horiz-adv-x="290" 
d="M210 330q-20 -5 -72.5 -5t-69.5 11t-25 33q-9 24 -7 71.5t16 67.5q6 9 18 14q3 1 9 1.5t9 1.5q36 10 103 6q34 -5 42 -9q13 -9 18 -27q9 -31 9.5 -75.5t-14.5 -71.5q-10 -14 -36 -18zM204 -6q-20 -5 -72.5 -5t-69.5 11t-25 33q-9 24 -7 71.5t16 67.5q6 9 18 14q3 1 9 1.5
t9 1.5q36 10 103 6q34 -5 42 -9q13 -9 18 -27q9 -31 9.5 -75.5t-14.5 -71.5q-10 -14 -36 -18z" />
    <glyph glyph-name="semicolon" unicode=";" horiz-adv-x="282" 
d="M206 330q-20 -5 -72.5 -5t-69.5 11q-19 12 -25 33q-9 24 -7 71.5t16 67.5q6 8 17 14q3 1 9.5 1.5t9.5 1.5q36 10 102 6q34 -5 42 -9q14 -8 19 -27q9 -31 9.5 -75.5t-14.5 -71.5q-10 -14 -36 -18zM206 -88q-5 -16 -18.5 -24t-27.5 -1q-11 4 -18 16q-7 14 -10 41.5t-5 36.5
q-6 1 -29 4.5t-35 6.5q-15 3 -24 14q-11 21 -10 51.5t8 56.5q3 18 13 29q17 21 125 17q21 0 34 -13q9 -8 11 -35q1 -14 -1 -72.5t-4 -77.5q-4 -38 -9 -50z" />
    <glyph glyph-name="less" unicode="&#x3c;" horiz-adv-x="464" 
d="M418 33q-4 -20 -23 -16q-5 1 -15 7q-19 9 -54 28t-50 26q-28 14 -82 38.5t-64 29.5q-9 4 -33.5 16t-37.5 18q-21 9 -26 17q-14 7 -12 22q2 8 3 52.5t1 46.5q0 9 4 14l3 6q2 10 10 13q4 3 18 9t31 13t19 8q25 10 74.5 25t71.5 23t63 26.5t60 25.5q22 7 30 4q11 -5 20 -23
q9 -28 1 -105q6 -8 3 -17.5t-12 -12.5q-7 -3 -19.5 -9.5t-15.5 -8.5q-60 -31 -101 -45q59 -27 102 -44q1 0 13 -5t14 -7q4 -3 12 -27q1 -4 1 -64t-1 -70q-2 -7 -8 -14z" />
    <glyph glyph-name="equal" unicode="=" horiz-adv-x="567" 
d="M492 327q-47 -5 -217 1q-1 0 -7.5 0.5t-7.5 0.5q-88 -6 -193 1q-11 0 -18 6q-2 2 -4.5 7.5t-3.5 7.5q-6 9 -6 64q0 52 2 58q2 5 4.5 16t5.5 16q8 12 27 14q11 1 50 1t85 -0.5t50 -0.5q197 -6 249 -15q17 -2 21 -13q6 -12 6 -37q5 -71 1 -102q-2 -19 -22 -19q-9 -6 -22 -6
zM488 78q-53 -4 -217 2h-15q-88 -6 -192 1q-14 2 -19 7q-2 2 -4.5 8t-3.5 7q-6 9 -6 64q0 51 3 58q1 4 4 15t6 17q8 12 26 14q40 5 185 -1q29 0 127 -5.5t122 -8.5q17 -4 21 -13q1 -3 7 -37q1 -14 1 -51.5t-1 -50.5q-2 -20 -21 -20q-10 -4 -23 -6z" />
    <glyph glyph-name="greater" unicode="&#x3e;" horiz-adv-x="465" 
d="M86 22q-21 -8 -30 -4q-5 1 -11 9t-9 14q-4 18 -3.5 51.5t2.5 52.5q-6 8 -3 17.5t12 13.5q7 2 20 9.5t15 8.5q50 26 101 44q-38 18 -102 44q-1 1 -7.5 3.5t-12 5t-7.5 4.5q-9 5 -12 26q-1 5 -1 65t1 69q2 9 8 14q1 8 8 13t15 4q3 -1 8 -3.5l7 -3.5q20 -9 56.5 -29.5
t47.5 -25.5q28 -14 146 -67q39 -20 71 -35q21 -9 26 -17q14 -8 12 -21q-2 -8 -3 -53t-1 -47q0 -9 -4 -14q-3 -2 -3 -5q-1 -9 -10 -14q-4 -2 -18.5 -8.5t-30.5 -13t-19 -7.5q-27 -11 -78.5 -26.5t-67.5 -21.5q-22 -8 -63 -26.5t-60 -25.5z" />
    <glyph glyph-name="question" unicode="?" horiz-adv-x="524" 
d="M255 181q-115 -8 -141 9q-13 8 -17 21q-5 21 -1 55.5t10 55.5q8 34 43 52q16 8 50.5 19.5t51.5 20.5q35 18 38 52q4 31 -17.5 53.5t-46.5 8.5t-25 -28q0 -22 1 -26q4 -11 -3 -20.5t-19 -11.5q-2 0 -13.5 0.5t-12.5 0.5q-11 0 -31 -1t-36.5 -1.5t-31.5 -0.5q-14 -2 -19 13
l-6 6q-7 12 -3 61q3 86 50 144q23 30 68 49q54 22 134 20q53 0 83 -9q39 -14 63 -35q33 -28 56 -79q37 -82 20 -156q-15 -63 -60 -102q-15 -13 -49 -32.5t-48 -30.5q-13 -12 -21 -29q2 -26 -3 -43q-5 -14 -14 -21q-17 -13 -50 -15zM268 -10q-22 -8 -72.5 -6t-72.5 12
q-25 12 -33 35q-8 19 -3 50t20 45q19 17 65 21q45 4 77 0q23 -4 34 -15q20 -18 25 -54.5t-7 -60.5q-8 -17 -33 -27z" />
    <glyph glyph-name="at" unicode="@" horiz-adv-x="876" 
d="M586 -60q-51 -18 -99 -19q-101 -2 -175 19q-99 28 -157 76q-53 44 -93 128q-23 48 -30 89t-1 112q7 83 30 139q31 73 95 142q40 45 104 75q104 44 194 47q70 2 94 0q50 -4 110 -28q66 -26 106 -65q51 -51 63 -95q17 -61 22 -129q3 -70 -15 -136q-17 -61 -41 -92
q-38 -50 -92 -65q-38 -11 -81 -4t-75 30q-18 12 -37 45q-34 -28 -78 -44q-18 -6 -37 -6q-53 0 -90 46q-34 43 -32 99q2 72 32 128q30 53 80 68q51 14 103 -11q-1 9 4 15.5t14 6.5q18 0 34 4q5 0 40 3t40 4q12 1 20.5 -5t6.5 -16q-5 -26 -6 -100.5t3 -100.5q5 -23 18 -27
q10 -3 18 13q3 4 8 18q12 46 10 121q0 51 -8 82q-9 29 -24 45q-29 32 -109.5 43t-123.5 -1q-51 -9 -107 -45q-36 -23 -65 -62q-42 -52 -53 -106q-22 -103 19 -184q26 -51 59 -71q85 -55 183 -46q51 3 92 17q4 7 11.5 8.5t14 -2.5t7.5 -12v-2q14 -32 35 -107q1 -3 -0.5 -7.5
t-1.5 -6.5q0 -14 -39 -28zM415 278q9 -3 23.5 5t22.5 17q6 6 15 19t13 18v49q-19 6 -39 6q-24 0 -43 -21q-12 -13 -16 -34t2 -37q8 -19 22 -22z" />
    <glyph glyph-name="A" unicode="A" horiz-adv-x="666" 
d="M200 -8q-9 1 -83.5 -2t-85.5 -1q-14 2 -22 13t-3 27q25 92 29 111q70 326 110 467q18 62 29 92q4 12 12 18t14 7t22 1t23 1q27 3 127 4.5t127 -0.5q9 -1 17 -8t10 -16q62 -266 126 -639q15 -70 -21 -70q-26 -3 -58.5 -3.5t-58.5 0t-59 -0.5q-17 0 -25 21q-3 16 -10 46
t-10 43q-14 0 -84 1t-83 -2q0 -2 -2.5 -18.5t-5.5 -30t-7.5 -29t-11.5 -24.5t-16 -8zM335 498q-42 -156 -59 -235q68 6 103 7q-20 92 -44 228z" />
    <glyph glyph-name="A" unicode="&#xc5;" horiz-adv-x="666" 
d="M200 -8q-9 1 -83.5 -2t-85.5 -1q-14 2 -22 13t-3 27q25 92 29 111q70 326 110 467q18 62 29 92q4 12 12 18t14 7t22 1t23 1q27 3 127 4.5t127 -0.5q9 -1 17 -8t10 -16q62 -266 126 -639q15 -70 -21 -70q-26 -3 -58.5 -3.5t-58.5 0t-59 -0.5q-17 0 -25 21q-3 16 -10 46
t-10 43q-14 0 -84 1t-83 -2q0 -2 -2.5 -18.5t-5.5 -30t-7.5 -29t-11.5 -24.5t-16 -8zM335 498q-42 -156 -59 -235q68 6 103 7q-20 92 -44 228z" />
    <glyph glyph-name="A" unicode="&#xc4;" horiz-adv-x="666" 
d="M200 -8q-9 1 -83.5 -2t-85.5 -1q-14 2 -22 13t-3 27q25 92 29 111q70 326 110 467q18 62 29 92q4 12 12 18t14 7t22 1t23 1q27 3 127 4.5t127 -0.5q9 -1 17 -8t10 -16q62 -266 126 -639q15 -70 -21 -70q-26 -3 -58.5 -3.5t-58.5 0t-59 -0.5q-17 0 -25 21q-3 16 -10 46
t-10 43q-14 0 -84 1t-83 -2q0 -2 -2.5 -18.5t-5.5 -30t-7.5 -29t-11.5 -24.5t-16 -8zM335 498q-42 -156 -59 -235q68 6 103 7q-20 92 -44 228z" />
    <glyph glyph-name="A" unicode="&#xc3;" horiz-adv-x="666" 
d="M200 -8q-9 1 -83.5 -2t-85.5 -1q-14 2 -22 13t-3 27q25 92 29 111q70 326 110 467q18 62 29 92q4 12 12 18t14 7t22 1t23 1q27 3 127 4.5t127 -0.5q9 -1 17 -8t10 -16q62 -266 126 -639q15 -70 -21 -70q-26 -3 -58.5 -3.5t-58.5 0t-59 -0.5q-17 0 -25 21q-3 16 -10 46
t-10 43q-14 0 -84 1t-83 -2q0 -2 -2.5 -18.5t-5.5 -30t-7.5 -29t-11.5 -24.5t-16 -8zM335 498q-42 -156 -59 -235q68 6 103 7q-20 92 -44 228z" />
    <glyph glyph-name="A" unicode="&#xc2;" horiz-adv-x="666" 
d="M200 -8q-9 1 -83.5 -2t-85.5 -1q-14 2 -22 13t-3 27q25 92 29 111q70 326 110 467q18 62 29 92q4 12 12 18t14 7t22 1t23 1q27 3 127 4.5t127 -0.5q9 -1 17 -8t10 -16q62 -266 126 -639q15 -70 -21 -70q-26 -3 -58.5 -3.5t-58.5 0t-59 -0.5q-17 0 -25 21q-3 16 -10 46
t-10 43q-14 0 -84 1t-83 -2q0 -2 -2.5 -18.5t-5.5 -30t-7.5 -29t-11.5 -24.5t-16 -8zM335 498q-42 -156 -59 -235q68 6 103 7q-20 92 -44 228z" />
    <glyph glyph-name="A" unicode="&#xc1;" horiz-adv-x="666" 
d="M200 -8q-9 1 -83.5 -2t-85.5 -1q-14 2 -22 13t-3 27q25 92 29 111q70 326 110 467q18 62 29 92q4 12 12 18t14 7t22 1t23 1q27 3 127 4.5t127 -0.5q9 -1 17 -8t10 -16q62 -266 126 -639q15 -70 -21 -70q-26 -3 -58.5 -3.5t-58.5 0t-59 -0.5q-17 0 -25 21q-3 16 -10 46
t-10 43q-14 0 -84 1t-83 -2q0 -2 -2.5 -18.5t-5.5 -30t-7.5 -29t-11.5 -24.5t-16 -8zM335 498q-42 -156 -59 -235q68 6 103 7q-20 92 -44 228z" />
    <glyph glyph-name="A" unicode="&#xc0;" horiz-adv-x="666" 
d="M200 -8q-9 1 -83.5 -2t-85.5 -1q-14 2 -22 13t-3 27q25 92 29 111q70 326 110 467q18 62 29 92q4 12 12 18t14 7t22 1t23 1q27 3 127 4.5t127 -0.5q9 -1 17 -8t10 -16q62 -266 126 -639q15 -70 -21 -70q-26 -3 -58.5 -3.5t-58.5 0t-59 -0.5q-17 0 -25 21q-3 16 -10 46
t-10 43q-14 0 -84 1t-83 -2q0 -2 -2.5 -18.5t-5.5 -30t-7.5 -29t-11.5 -24.5t-16 -8zM335 498q-42 -156 -59 -235q68 6 103 7q-20 92 -44 228z" />
    <glyph glyph-name="B" unicode="B" horiz-adv-x="600" 
d="M64 -7q-13 0 -22 7t-9 18q0 26 5.5 77.5t6.5 69.5q6 115 6 232q2 149 -5 240q0 39 -5 48q-6 11 1.5 20.5t21.5 10.5q6 0 50.5 2.5t62 3t53.5 1t64.5 -2t56.5 -6.5q87 -13 136 -45q55 -36 77.5 -97t2 -122t-81.5 -94q99 -90 81 -210q-14 -87 -78 -130q-35 -22 -97 -26
q-28 -5 -174 -1t-153 4zM276 580q4 -72 6 -144q49 7 64 16q27 19 15.5 68.5t-43.5 58.5q-3 1 -42 1zM264 152q35 -3 68.5 4t42.5 29q8 21 -4 48t-34 34q-13 5 -64 7q-6 -62 -9 -122z" />
    <glyph glyph-name="C" unicode="C" horiz-adv-x="473" 
d="M418 -8q-112 -9 -188 1q-87 13 -127 57q-36 39 -55 100q-17 59 -19 150q-3 82 5 170q5 50 14 84q18 69 56 112q29 32 75 50q32 13 82 11q19 0 59 -2.5t59 -2.5q4 0 16 1t20 0.5t15 -4.5q13 -6 17 -14t4 -26v-99v-11v-12.5t-0.5 -11.5t-1.5 -11.5t-3.5 -9.5t-6 -7.5
t-8.5 -3.5h-13q-34 3 -76.5 -0.5t-57.5 -18.5q-25 -26 -30.5 -104t3.5 -114q6 -35 18 -55q10 -19 34 -26q9 -3 30 -5q30 -3 78 -3q9 0 14.5 -6t5.5 -15q6 -6 6 -15q6 -113 5 -136q-2 -20 -20 -20q-1 0 -10 -3z" />
    <glyph glyph-name="C" unicode="&#xc7;" horiz-adv-x="473" 
d="M418 -8q-112 -9 -188 1q-87 13 -127 57q-36 39 -55 100q-17 59 -19 150q-3 82 5 170q5 50 14 84q18 69 56 112q29 32 75 50q32 13 82 11q19 0 59 -2.5t59 -2.5q4 0 16 1t20 0.5t15 -4.5q13 -6 17 -14t4 -26v-99v-11v-12.5t-0.5 -11.5t-1.5 -11.5t-3.5 -9.5t-6 -7.5
t-8.5 -3.5h-13q-34 3 -76.5 -0.5t-57.5 -18.5q-25 -26 -30.5 -104t3.5 -114q6 -35 18 -55q10 -19 34 -26q9 -3 30 -5q30 -3 78 -3q9 0 14.5 -6t5.5 -15q6 -6 6 -15q6 -113 5 -136q-2 -20 -20 -20q-1 0 -10 -3z" />
    <glyph glyph-name="D" unicode="D" horiz-adv-x="589" 
d="M88 -12q-1 0 -8.5 -0.5t-12.5 -0.5h-9q-10 1 -15.5 9.5t-3.5 19.5q1 3 2 25t1 26q5 250 5 404q0 206 -4 227q-2 11 3 17t20 8t20.5 2.5t25.5 0.5q29 0 121.5 -4.5t114.5 -7.5q64 -10 109 -46q55 -44 77 -114q22 -66 27 -172q6 -125 -7 -201q-5 -30 -15 -48
q-17 -32 -63 -74q-42 -38 -115 -56.5t-140.5 -17t-132.5 2.5zM277 501q-1 -96 -7 -284q49 5 78 34q20 22 26 65q4 36 -3 86q-5 39 -21 64q-9 15 -28 25q-15 8 -45 10z" />
    <glyph glyph-name="E" unicode="E" horiz-adv-x="554" 
d="M113 -3q-6 0 -25.5 -2t-28 -1t-17 9.5t-8.5 26.5q4 44 6 132q2 46 4 130t4.5 152.5t6.5 129.5q0 2 1 57t3 64q4 16 33 23q14 1 34 0.5t49.5 -1t33.5 -0.5q42 -1 252 -1q30 0 49 -10t14 -39q-2 -26 -2 -108q0 -2 0.5 -14.5t0 -21t-2 -19.5t-7 -17t-13.5 -6h-86.5t-86.5 -1
q-1 0 -46 -3q0 -38 -1 -58q49 0 147 -2q22 0 22 -32q0 -88 -2 -113q0 -8 -9 -16.5t-18 -8.5q-75 5 -143 2q-1 -17 -1 -50q19 0 57 1.5t57 1.5q94 0 117 -4q21 -4 16 -47q-2 -42 -2 -126q0 -15 -9 -22t-18 -8t-27 -1h-6q-222 0 -348 3z" />
    <glyph glyph-name="E" unicode="&#xcb;" horiz-adv-x="554" 
d="M113 -3q-6 0 -25.5 -2t-28 -1t-17 9.5t-8.5 26.5q4 44 6 132q2 46 4 130t4.5 152.5t6.5 129.5q0 2 1 57t3 64q4 16 33 23q14 1 34 0.5t49.5 -1t33.5 -0.5q42 -1 252 -1q30 0 49 -10t14 -39q-2 -26 -2 -108q0 -2 0.5 -14.5t0 -21t-2 -19.5t-7 -17t-13.5 -6h-86.5t-86.5 -1
q-1 0 -46 -3q0 -38 -1 -58q49 0 147 -2q22 0 22 -32q0 -88 -2 -113q0 -8 -9 -16.5t-18 -8.5q-75 5 -143 2q-1 -17 -1 -50q19 0 57 1.5t57 1.5q94 0 117 -4q21 -4 16 -47q-2 -42 -2 -126q0 -15 -9 -22t-18 -8t-27 -1h-6q-222 0 -348 3z" />
    <glyph glyph-name="E" unicode="&#xca;" horiz-adv-x="554" 
d="M113 -3q-6 0 -25.5 -2t-28 -1t-17 9.5t-8.5 26.5q4 44 6 132q2 46 4 130t4.5 152.5t6.5 129.5q0 2 1 57t3 64q4 16 33 23q14 1 34 0.5t49.5 -1t33.5 -0.5q42 -1 252 -1q30 0 49 -10t14 -39q-2 -26 -2 -108q0 -2 0.5 -14.5t0 -21t-2 -19.5t-7 -17t-13.5 -6h-86.5t-86.5 -1
q-1 0 -46 -3q0 -38 -1 -58q49 0 147 -2q22 0 22 -32q0 -88 -2 -113q0 -8 -9 -16.5t-18 -8.5q-75 5 -143 2q-1 -17 -1 -50q19 0 57 1.5t57 1.5q94 0 117 -4q21 -4 16 -47q-2 -42 -2 -126q0 -15 -9 -22t-18 -8t-27 -1h-6q-222 0 -348 3z" />
    <glyph glyph-name="E" unicode="&#xc9;" horiz-adv-x="554" 
d="M113 -3q-6 0 -25.5 -2t-28 -1t-17 9.5t-8.5 26.5q4 44 6 132q2 46 4 130t4.5 152.5t6.5 129.5q0 2 1 57t3 64q4 16 33 23q14 1 34 0.5t49.5 -1t33.5 -0.5q42 -1 252 -1q30 0 49 -10t14 -39q-2 -26 -2 -108q0 -2 0.5 -14.5t0 -21t-2 -19.5t-7 -17t-13.5 -6h-86.5t-86.5 -1
q-1 0 -46 -3q0 -38 -1 -58q49 0 147 -2q22 0 22 -32q0 -88 -2 -113q0 -8 -9 -16.5t-18 -8.5q-75 5 -143 2q-1 -17 -1 -50q19 0 57 1.5t57 1.5q94 0 117 -4q21 -4 16 -47q-2 -42 -2 -126q0 -15 -9 -22t-18 -8t-27 -1h-6q-222 0 -348 3z" />
    <glyph glyph-name="E" unicode="&#xc8;" horiz-adv-x="554" 
d="M113 -3q-6 0 -25.5 -2t-28 -1t-17 9.5t-8.5 26.5q4 44 6 132q2 46 4 130t4.5 152.5t6.5 129.5q0 2 1 57t3 64q4 16 33 23q14 1 34 0.5t49.5 -1t33.5 -0.5q42 -1 252 -1q30 0 49 -10t14 -39q-2 -26 -2 -108q0 -2 0.5 -14.5t0 -21t-2 -19.5t-7 -17t-13.5 -6h-86.5t-86.5 -1
q-1 0 -46 -3q0 -38 -1 -58q49 0 147 -2q22 0 22 -32q0 -88 -2 -113q0 -8 -9 -16.5t-18 -8.5q-75 5 -143 2q-1 -17 -1 -50q19 0 57 1.5t57 1.5q94 0 117 -4q21 -4 16 -47q-2 -42 -2 -126q0 -15 -9 -22t-18 -8t-27 -1h-6q-222 0 -348 3z" />
    <glyph glyph-name="F" unicode="F" horiz-adv-x="578" 
d="M296 62v-28.5t-2.5 -18t-4 -11.5t-9 -5.5t-12.5 -2.5t-19 -0.5t-25 -1.5q-113 -4 -168 1q-18 2 -18 20q0 7 8 311q2 88 2 348q0 32 6.5 38.5t41.5 6.5q11 0 88.5 -1t88.5 -1q150 -5 271 -5q8 -1 15 -10t7 -17q-3 -140 -4 -152q-5 -35 -30 -35q-57 0 -219 -6q-1 -28 0 -57
q89 2 175 6q10 1 18 -5t8 -16q0 -71 -8 -147q-1 -12 -10.5 -19.5t-27.5 -10t-30 -3.5t-33.5 0t-23.5 1q-13 0 -39 -1t-40 -1z" />
    <glyph glyph-name="G" unicode="G" horiz-adv-x="658" 
d="M458 -2q-22 -1 -99 -1t-99 2q-32 1 -69 15q-51 17 -90 56t-56 90q-30 88 -19 214q7 106 35 179q21 56 62 94q22 21 64 39q58 24 150 29q158 10 188 -2q13 -3 13 -18q0 -76 5 -169q0 -13 -10.5 -24.5t-23.5 -7.5q-9 3 -59 8q-12 0 -36 -2q-50 -6 -82 -23t-50 -59
q-11 -27 -17.5 -65t-3 -78t20.5 -59q16 -19 64.5 -25t68.5 9q14 9 14 60h-72q-11 -1 -19 5.5t-8 16.5q0 106 -1 121q0 9 7.5 15.5t16.5 4.5h1q7 2 39.5 0t39.5 -2q67 0 177 5q5 0 8.5 -1t6.5 -3.5t5 -5t3 -7t1.5 -7.5t1 -9t0.5 -8.5v-8.5v-7q0 -142 -5 -207q-2 -62 -23 -97
q-33 -56 -150 -67z" />
    <glyph glyph-name="H" unicode="H" horiz-adv-x="758" 
d="M287 -5q-19 -3 -192 -3q-40 0 -47 2q-8 3 -10 7t-1 13t1 10q2 63 8 189q3 97 3 290q0 147 -4 179q0 1 -1.5 6.5t-1.5 7.5q-1 11 2.5 18t13 9.5t15 3t17.5 0.5q171 -8 191 -10q11 4 19.5 -2t8.5 -17q0 -8 1 -66.5t1 -96.5t-1 -66q70 -5 125 -5v18v30.5v17.5q0 137 6 166
q0 27 19 27q14 0 70.5 1.5t93 0t68.5 -7.5q20 -2 20 -46q5 -176 2 -332q0 -9 -2 -136t-1 -148q0 -31 -1 -36q-3 -19 -24 -21q-86 -6 -173 -6q-42 0 -50 3q-8 2 -13.5 10t-5.5 17q0 27 -1 110.5t0 129.5q-46 -1 -134 1q1 -3 1 -68v-179q0 -21 -23 -21z" />
    <glyph glyph-name="I" unicode="I" horiz-adv-x="346" 
d="M246 0q-21 0 -59.5 -0.5t-69.5 0t-59 3.5q-20 4 -17 24q0 1 -0.5 4t-0.5 5q4 56 5.5 305.5t-0.5 305.5q0 3 -3 20t-1 28.5t12 17.5q9 5 35 3q20 0 70.5 3t77.5 2h9h12t12 -0.5t12.5 -2t10 -4.5t8.5 -7t3 -10q10 -185 5.5 -367.5t-16.5 -294.5q-2 -20 -12 -27.5t-34 -7.5z
" />
    <glyph glyph-name="I" unicode="&#xcf;" horiz-adv-x="346" 
d="M246 0q-21 0 -59.5 -0.5t-69.5 0t-59 3.5q-20 4 -17 24q0 1 -0.5 4t-0.5 5q4 56 5.5 305.5t-0.5 305.5q0 3 -3 20t-1 28.5t12 17.5q9 5 35 3q20 0 70.5 3t77.5 2h9h12t12 -0.5t12.5 -2t10 -4.5t8.5 -7t3 -10q10 -185 5.5 -367.5t-16.5 -294.5q-2 -20 -12 -27.5t-34 -7.5z
" />
    <glyph glyph-name="I" unicode="&#xce;" horiz-adv-x="346" 
d="M246 0q-21 0 -59.5 -0.5t-69.5 0t-59 3.5q-20 4 -17 24q0 1 -0.5 4t-0.5 5q4 56 5.5 305.5t-0.5 305.5q0 3 -3 20t-1 28.5t12 17.5q9 5 35 3q20 0 70.5 3t77.5 2h9h12t12 -0.5t12.5 -2t10 -4.5t8.5 -7t3 -10q10 -185 5.5 -367.5t-16.5 -294.5q-2 -20 -12 -27.5t-34 -7.5z
" />
    <glyph glyph-name="I" unicode="&#xcd;" horiz-adv-x="346" 
d="M246 0q-21 0 -59.5 -0.5t-69.5 0t-59 3.5q-20 4 -17 24q0 1 -0.5 4t-0.5 5q4 56 5.5 305.5t-0.5 305.5q0 3 -3 20t-1 28.5t12 17.5q9 5 35 3q20 0 70.5 3t77.5 2h9h12t12 -0.5t12.5 -2t10 -4.5t8.5 -7t3 -10q10 -185 5.5 -367.5t-16.5 -294.5q-2 -20 -12 -27.5t-34 -7.5z
" />
    <glyph glyph-name="I" unicode="&#xcc;" horiz-adv-x="346" 
d="M246 0q-21 0 -59.5 -0.5t-69.5 0t-59 3.5q-20 4 -17 24q0 1 -0.5 4t-0.5 5q4 56 5.5 305.5t-0.5 305.5q0 3 -3 20t-1 28.5t12 17.5q9 5 35 3q20 0 70.5 3t77.5 2h9h12t12 -0.5t12.5 -2t10 -4.5t8.5 -7t3 -10q10 -185 5.5 -367.5t-16.5 -294.5q-2 -20 -12 -27.5t-34 -7.5z
" />
    <glyph glyph-name="J" unicode="J" horiz-adv-x="577" 
d="M346 -9q-50 -12 -154 -12q-103 2 -154 8q-9 2 -19 9.5t-11 15.5q-2 27 -2 198q0 9 8 18t17 8q75 -6 121 -1q36 4 56 19q33 22 46 66q12 43 10 104q0 11 -5 128t-4 137q0 8 3 14t7 9t12 4t12.5 1.5t15 0t14.5 -0.5q8 0 55 -0.5t89 -1.5t54 -3q21 -4 21 -39q1 -25 3 -98.5
t2.5 -110t-1 -94.5t-6.5 -106q-9 -105 -44 -169q-24 -41 -54 -63q-41 -30 -92 -41z" />
    <glyph glyph-name="K" unicode="K" horiz-adv-x="739" 
d="M729 7q-34 -19 -214 -15q-35 0 -43 14q-121 200 -159 251q2 -23 4 -117.5t1 -116.5q0 -18 -30 -22q-30 3 -111.5 1t-107.5 -1q-15 0 -20 18.5t-1 35.5q1 47 0.5 117.5t-1.5 174t-1 117.5q-1 39 -4 117t-3 116q0 10 6 19t15 10q18 3 101.5 3t101.5 -1q41 0 41 -39
q-3 -164 -4 -179q20 28 39 50q84 98 125 148q5 9 52 13q33 3 97 5.5t77 3.5q21 1 25 -18t-8 -32q-17 -20 -114.5 -145t-99.5 -128q18 -34 113.5 -179.5t129.5 -192.5q5 -7 2.5 -15.5t-9.5 -12.5z" />
    <glyph glyph-name="L" unicode="L" horiz-adv-x="476" 
d="M380 -5q-73 -4 -157 -1q-65 2 -105 15q-29 11 -48 34q-18 25 -24 57q-7 39 -7 132q7 335 6 446q0 27 5.5 32t30.5 5q79 0 165 -4q37 0 44.5 -5.5t7.5 -35.5q-20 -210 -6 -391q2 -18 12 -28t27 -12t31.5 -1.5t36.5 3.5t32 3q16 5 24 -2.5t8 -20.5q0 -11 3.5 -94.5
t3.5 -95.5q5 -12 -8 -24t-25 -10q-19 0 -57 -2z" />
    <glyph glyph-name="M" unicode="M" horiz-adv-x="962" 
d="M916 5q-16 -26 -214 -14q-32 0 -32 38q-2 127 0 190q0 -1 -24 -44.5t-45.5 -70.5t-38.5 -27q-64 2 -97 1q-3 0 -13 -0.5t-16.5 -0.5t-15 1t-14 3.5t-8.5 7.5q-1 2 -8 9q-20 32 -78 127q0 -90 -1 -136v-33.5t-3 -24.5t-9.5 -22.5t-19.5 -11t-33 -5.5q-10 0 -85.5 -0.5
t-86.5 -0.5q-31 0 -33 18q-3 28 -3 144q0 69 8 278.5t15 258.5q3 33 32 33q147 0 166 1q15 3 36 1t25 -15q3 -11 63 -144q74 -162 105 -245q3 7 18.5 57.5t18.5 57.5q37 116 81 220q3 5 7.5 16.5t7 16t7.5 12t9.5 10t12.5 5t18 2.5q6 0 45 1.5t45 1.5q14 0 41 -0.5t41 -0.5
q5 0 20 0.5t22 0t17 -2.5t13.5 -7.5t2.5 -14.5v-10t0.5 -14.5t0.5 -10.5q2 -96 1.5 -290t1.5 -291l1 -20q1 -21 0 -35.5t-4 -19.5z" />
    <glyph glyph-name="N" unicode="N" horiz-adv-x="732" 
d="M247 -8q-33 -5 -130 0q-51 0 -65 3q-16 3 -14 23q2 11 3 48.5t2 80t1 48.5q6 251 2 480v29q4 20 20 17q6 1 36 -1.5t33 -2.5q8 0 57 3.5t82 4.5t48 -4q2 -2 7 -11t5 -10q85 -167 137 -292q0 31 -0.5 88.5t-1 104.5t-1.5 89q0 10 8 21t18 11q17 0 56.5 1t70 -0.5
t59.5 -6.5q11 0 16 -14t0 -24q-6 -12 -6 -76q-1 -40 -2 -121t-2 -121q-7 -295 -10 -337q0 -9 -5.5 -15t-13.5 -4q-9 1 -22.5 0.5t-32.5 -1.5t-22 -1q-38 1 -170 -1q-8 0 -14 7q-5 7 -16 32.5t-23.5 57.5t-13.5 34q-23 58 -73 174q-5 -160 -5 -288q0 -9 -5.5 -17t-12.5 -9z
" />
    <glyph glyph-name="N" unicode="&#xd1;" horiz-adv-x="732" 
d="M247 -8q-33 -5 -130 0q-51 0 -65 3q-16 3 -14 23q2 11 3 48.5t2 80t1 48.5q6 251 2 480v29q4 20 20 17q6 1 36 -1.5t33 -2.5q8 0 57 3.5t82 4.5t48 -4q2 -2 7 -11t5 -10q85 -167 137 -292q0 31 -0.5 88.5t-1 104.5t-1.5 89q0 10 8 21t18 11q17 0 56.5 1t70 -0.5
t59.5 -6.5q11 0 16 -14t0 -24q-6 -12 -6 -76q-1 -40 -2 -121t-2 -121q-7 -295 -10 -337q0 -9 -5.5 -15t-13.5 -4q-9 1 -22.5 0.5t-32.5 -1.5t-22 -1q-38 1 -170 -1q-8 0 -14 7q-5 7 -16 32.5t-23.5 57.5t-13.5 34q-23 58 -73 174q-5 -160 -5 -288q0 -9 -5.5 -17t-12.5 -9z
" />
    <glyph glyph-name="O" unicode="O" horiz-adv-x="656" 
d="M404 11q-110 -20 -202 10q-60 22 -99 59q-38 35 -57 86q-17 42 -21 124q-7 164 33 272q33 88 99 130q26 18 85 25.5t109 6t92 -5.5q66 -7 110 -42q35 -30 52 -74q21 -51 25 -157q4 -150 -23 -246q-26 -86 -80 -135q-46 -39 -123 -53zM279 268q14 -19 37 -25.5t44 3.5
q27 13 41 46q29 66 13 140q-7 30 -26 43q-22 18 -55.5 13t-48.5 -32q-27 -52 -25 -111q2 -52 20 -77z" />
    <glyph glyph-name="O" unicode="&#xd8;" horiz-adv-x="656" 
d="M404 11q-110 -20 -202 10q-60 22 -99 59q-38 35 -57 86q-17 42 -21 124q-7 164 33 272q33 88 99 130q26 18 85 25.5t109 6t92 -5.5q66 -7 110 -42q35 -30 52 -74q21 -51 25 -157q4 -150 -23 -246q-26 -86 -80 -135q-46 -39 -123 -53zM279 268q14 -19 37 -25.5t44 3.5
q27 13 41 46q29 66 13 140q-7 30 -26 43q-22 18 -55.5 13t-48.5 -32q-27 -52 -25 -111q2 -52 20 -77z" />
    <glyph glyph-name="O" unicode="&#xd6;" horiz-adv-x="656" 
d="M404 11q-110 -20 -202 10q-60 22 -99 59q-38 35 -57 86q-17 42 -21 124q-7 164 33 272q33 88 99 130q26 18 85 25.5t109 6t92 -5.5q66 -7 110 -42q35 -30 52 -74q21 -51 25 -157q4 -150 -23 -246q-26 -86 -80 -135q-46 -39 -123 -53zM279 268q14 -19 37 -25.5t44 3.5
q27 13 41 46q29 66 13 140q-7 30 -26 43q-22 18 -55.5 13t-48.5 -32q-27 -52 -25 -111q2 -52 20 -77z" />
    <glyph glyph-name="O" unicode="&#xd5;" horiz-adv-x="656" 
d="M404 11q-110 -20 -202 10q-60 22 -99 59q-38 35 -57 86q-17 42 -21 124q-7 164 33 272q33 88 99 130q26 18 85 25.5t109 6t92 -5.5q66 -7 110 -42q35 -30 52 -74q21 -51 25 -157q4 -150 -23 -246q-26 -86 -80 -135q-46 -39 -123 -53zM279 268q14 -19 37 -25.5t44 3.5
q27 13 41 46q29 66 13 140q-7 30 -26 43q-22 18 -55.5 13t-48.5 -32q-27 -52 -25 -111q2 -52 20 -77z" />
    <glyph glyph-name="O" unicode="&#xd4;" horiz-adv-x="656" 
d="M404 11q-110 -20 -202 10q-60 22 -99 59q-38 35 -57 86q-17 42 -21 124q-7 164 33 272q33 88 99 130q26 18 85 25.5t109 6t92 -5.5q66 -7 110 -42q35 -30 52 -74q21 -51 25 -157q4 -150 -23 -246q-26 -86 -80 -135q-46 -39 -123 -53zM279 268q14 -19 37 -25.5t44 3.5
q27 13 41 46q29 66 13 140q-7 30 -26 43q-22 18 -55.5 13t-48.5 -32q-27 -52 -25 -111q2 -52 20 -77z" />
    <glyph glyph-name="O" unicode="&#xd3;" horiz-adv-x="656" 
d="M404 11q-110 -20 -202 10q-60 22 -99 59q-38 35 -57 86q-17 42 -21 124q-7 164 33 272q33 88 99 130q26 18 85 25.5t109 6t92 -5.5q66 -7 110 -42q35 -30 52 -74q21 -51 25 -157q4 -150 -23 -246q-26 -86 -80 -135q-46 -39 -123 -53zM279 268q14 -19 37 -25.5t44 3.5
q27 13 41 46q29 66 13 140q-7 30 -26 43q-22 18 -55.5 13t-48.5 -32q-27 -52 -25 -111q2 -52 20 -77z" />
    <glyph glyph-name="O" unicode="&#xd2;" horiz-adv-x="656" 
d="M404 11q-110 -20 -202 10q-60 22 -99 59q-38 35 -57 86q-17 42 -21 124q-7 164 33 272q33 88 99 130q26 18 85 25.5t109 6t92 -5.5q66 -7 110 -42q35 -30 52 -74q21 -51 25 -157q4 -150 -23 -246q-26 -86 -80 -135q-46 -39 -123 -53zM279 268q14 -19 37 -25.5t44 3.5
q27 13 41 46q29 66 13 140q-7 30 -26 43q-22 18 -55.5 13t-48.5 -32q-27 -52 -25 -111q2 -52 20 -77z" />
    <glyph glyph-name="P" unicode="P" horiz-adv-x="566" 
d="M272 -9q-8 -10 -20 -10q-162 5 -199 5q-11 0 -18 8.5t-3 18.5q1 1 1 3q2 31 10 278q1 45 1 167t3 181q0 47 36 71q11 6 83 6q103 2 169 -4q84 -8 125 -35q40 -27 62 -80q32 -70 30 -167q-2 -73 -24 -124q-15 -37 -46 -63q-30 -24 -82 -40q-42 -13 -118 -17
q2 -118 -3 -177q-2 -16 -7 -21zM289 542q0 -11 1 -86.5t1 -86.5q34 2 54 13q15 9 23 25q8 20 2.5 55t-17.5 53q-13 20 -64 27z" />
    <glyph glyph-name="Q" unicode="Q" horiz-adv-x="657" 
d="M569 -127q-31 -6 -77 -6q-66 -2 -108 22q-48 28 -62 89q-2 18 -2 26q-64 0 -118 17q-60 22 -99 59q-38 35 -57 86q-17 42 -21 124q-7 164 33 272q23 62 66 103.5t104 48.5q40 5 62 5q119 2 153 -1q66 -7 110 -42q35 -30 52 -74q21 -51 25 -157q2 -78 -5 -141
q-7 -83 -32 -144q-34 -84 -104 -121q12 -12 50 -14q2 0 10.5 0.5t14.5 0.5h10q15 -3 19 -22q1 -3 0 -9.5t-1 -8.5q0 -3 -1.5 -26.5t-3 -44t-2.5 -26.5q-3 -14 -16 -16zM279 268q14 -19 37 -25.5t44 3.5q27 13 41 46q29 66 13 140q-7 27 -31.5 44t-53.5 13t-45 -33
q-27 -52 -25 -111q2 -52 20 -77z" />
    <glyph glyph-name="R" unicode="R" horiz-adv-x="622" 
d="M284 9q-3 -7 -11 -12t-15 -4q-15 1 -133 1q-2 0 -13 -0.5t-18.5 0t-17.5 1t-17.5 3t-10.5 6.5q-8 11 -4 30q4 30 6 89q7 318 -12 567q-1 16 10 24.5t21 10t32 2.5q118 7 226 1t163 -34q42 -21 70 -65q43 -69 36 -162q-7 -66 -37.5 -104.5t-96.5 -68.5q30 -15 51 -52
q20 -32 44.5 -104t42.5 -106q4 -9 0 -18.5t-14 -11.5q-1 0 -6 -2t-7 -1q-23 1 -72.5 -1.5t-75.5 -0.5q-12 0 -18 8q-15 5 -16 17q-6 65 -9 73q-11 48 -30.5 67.5t-66.5 26.5q-1 -27 0 -78t1 -67q0 -30 -2 -35zM281 560q1 -19 6 -76t7 -88q67 4 82 48q16 49 -14 88.5
t-81 27.5z" />
    <glyph glyph-name="S" unicode="S" horiz-adv-x="503" 
d="M231 -16q-23 -1 -138 4q-40 0 -47 11q-1 2 -4 19l-3 93q-3 47 21 55q10 1 30 -1q90 -8 110 25q12 21 -40 73q-73 73 -87 90q-56 70 -50 160q1 4 1 8q4 50 26.5 87t54 57.5t78.5 33.5t88.5 17t94.5 5q82 2 96 -16q7 -8 7 -56q0 -6 -0.5 -42.5t-0.5 -42.5q0 -14 -8 -21.5
t-17 -9t-23 -1.5q-119 0 -140 -48t71 -127q38 -32 61.5 -56.5t45.5 -68t23 -91.5q2 -47 -22 -86q-8 -12 -20 -22t-22.5 -16.5t-29 -12t-28.5 -8t-33 -5.5t-30.5 -3.5t-34 -2t-30.5 -1.5z" />
    <glyph glyph-name="T" unicode="T" horiz-adv-x="652" 
d="M262 -2q-1 0 -22.5 -2.5t-26.5 -1.5q-8 2 -16 10.5t-8 16.5q14 286 4 490q-31 0 -93 -2q-51 0 -59 -1q-10 -1 -19.5 7.5t-11.5 19.5q0 80 -2 108q-4 34 -7 50q-2 11 8.5 23t22.5 12q42 -2 62 -2q26 0 80 0.5t80 0.5q8 0 102 -2.5t110 -1.5q26 1 79 3t80 2q10 0 17 -8.5
t7 -19.5q0 -19 -1 -53.5t-1.5 -63t-0.5 -53.5q0 -10 -8.5 -16t-19.5 -2q-87 -7 -156 -8q0 -4 6 -173q8 -308 8 -309q0 -28 -52 -28q-9 0 -80 2.5t-82 1.5z" />
    <glyph glyph-name="U" unicode="U" horiz-adv-x="709" 
d="M366 -12q-73 0 -101 6q-97 19 -155.5 98t-71.5 186q-4 30 -5 65.5t-1 58.5t1 68.5t1 61.5v54t1 53q0 1 1 15.5t2.5 21.5t4.5 18.5t9.5 17t16.5 5.5q19 0 55 1.5t64.5 1.5t52.5 -3q45 -6 45 -34q0 -15 -3.5 -125t-3.5 -125q-3 -176 85 -186q29 -2 49.5 17.5t30 52
t12.5 63.5t2 61q-6 177 -12 241q-2 29 23 33h1q13 1 39 1q31 0 139 6q21 0 21 -37q0 -18 4 -139t3 -185q-1 -62 -7 -107t-23 -93.5t-52 -85t-88 -61.5q-53 -24 -140 -26z" />
    <glyph glyph-name="U" unicode="&#xdc;" horiz-adv-x="709" 
d="M366 -12q-73 0 -101 6q-97 19 -155.5 98t-71.5 186q-4 30 -5 65.5t-1 58.5t1 68.5t1 61.5v54t1 53q0 1 1 15.5t2.5 21.5t4.5 18.5t9.5 17t16.5 5.5q19 0 55 1.5t64.5 1.5t52.5 -3q45 -6 45 -34q0 -15 -3.5 -125t-3.5 -125q-3 -176 85 -186q29 -2 49.5 17.5t30 52
t12.5 63.5t2 61q-6 177 -12 241q-2 29 23 33h1q13 1 39 1q31 0 139 6q21 0 21 -37q0 -18 4 -139t3 -185q-1 -62 -7 -107t-23 -93.5t-52 -85t-88 -61.5q-53 -24 -140 -26z" />
    <glyph glyph-name="U" unicode="&#xdb;" horiz-adv-x="709" 
d="M366 -12q-73 0 -101 6q-97 19 -155.5 98t-71.5 186q-4 30 -5 65.5t-1 58.5t1 68.5t1 61.5v54t1 53q0 1 1 15.5t2.5 21.5t4.5 18.5t9.5 17t16.5 5.5q19 0 55 1.5t64.5 1.5t52.5 -3q45 -6 45 -34q0 -15 -3.5 -125t-3.5 -125q-3 -176 85 -186q29 -2 49.5 17.5t30 52
t12.5 63.5t2 61q-6 177 -12 241q-2 29 23 33h1q13 1 39 1q31 0 139 6q21 0 21 -37q0 -18 4 -139t3 -185q-1 -62 -7 -107t-23 -93.5t-52 -85t-88 -61.5q-53 -24 -140 -26z" />
    <glyph glyph-name="U" unicode="&#xda;" horiz-adv-x="709" 
d="M366 -12q-73 0 -101 6q-97 19 -155.5 98t-71.5 186q-4 30 -5 65.5t-1 58.5t1 68.5t1 61.5v54t1 53q0 1 1 15.5t2.5 21.5t4.5 18.5t9.5 17t16.5 5.5q19 0 55 1.5t64.5 1.5t52.5 -3q45 -6 45 -34q0 -15 -3.5 -125t-3.5 -125q-3 -176 85 -186q29 -2 49.5 17.5t30 52
t12.5 63.5t2 61q-6 177 -12 241q-2 29 23 33h1q13 1 39 1q31 0 139 6q21 0 21 -37q0 -18 4 -139t3 -185q-1 -62 -7 -107t-23 -93.5t-52 -85t-88 -61.5q-53 -24 -140 -26z" />
    <glyph glyph-name="U" unicode="&#xd9;" horiz-adv-x="709" 
d="M366 -12q-73 0 -101 6q-97 19 -155.5 98t-71.5 186q-4 30 -5 65.5t-1 58.5t1 68.5t1 61.5v54t1 53q0 1 1 15.5t2.5 21.5t4.5 18.5t9.5 17t16.5 5.5q19 0 55 1.5t64.5 1.5t52.5 -3q45 -6 45 -34q0 -15 -3.5 -125t-3.5 -125q-3 -176 85 -186q29 -2 49.5 17.5t30 52
t12.5 63.5t2 61q-6 177 -12 241q-2 29 23 33h1q13 1 39 1q31 0 139 6q21 0 21 -37q0 -18 4 -139t3 -185q-1 -62 -7 -107t-23 -93.5t-52 -85t-88 -61.5q-53 -24 -140 -26z" />
    <glyph glyph-name="V" unicode="V" horiz-adv-x="699" 
d="M508 11q-4 -21 -51 -13q-120 6 -224 -2q-8 0 -20 8.5t-14 16.5q-18 65 -52.5 185t-48.5 170q-8 34 -43.5 148t-46.5 140q-8 12 -4.5 28.5t23.5 16.5q202 0 224 -8q6 -2 14 -12t10 -18q11 -30 51 -162t50 -171q47 267 48 272q12 56 13 73q1 6 6.5 14t10.5 9q15 5 59 5
q138 6 166 1q11 -1 17 -17t2 -28q-66 -185 -79 -230q-13 -44 -57.5 -214.5t-53.5 -211.5z" />
    <glyph glyph-name="W" unicode="W" horiz-adv-x="974" 
d="M804 1q-6 -15 -39 -10q-27 1 -93 1t-102 3q-14 1 -23 14t-11.5 23t-5.5 30q-7 28 -24 116.5t-27 126.5q-27 -104 -79 -246q-1 -1 -6.5 -23.5t-13.5 -32.5t-22 -10q-47 0 -104 2.5t-93 3.5q-10 1 -16 7.5t-5 16.5q0 1 0.5 1t0.5 1q-15 132 -52.5 331t-65.5 305
q-9 22 -0.5 40.5t36.5 16.5q40 -4 145 1q2 0 17.5 1t28.5 1t17 -2q7 -2 12 -10t5 -15q0 -11 7 -53q16 -97 32 -236q12 25 59 111q4 9 12 15q8 4 27 2q15 -1 69.5 0.5t68.5 2.5q18 0 21 -19q6 -9 25 -49t25 -54q9 24 84 247q2 7 4 16.5t3 14t3.5 12t4.5 9.5t6 7t9 4.5t13 1.5
t18 -1q23 -2 83.5 -4.5t92.5 -5.5q10 -1 16.5 -15t3.5 -24q-72 -221 -145 -571q-19 -96 -22 -104z" />
    <glyph glyph-name="X" unicode="X" horiz-adv-x="660" 
d="M432 -12q-3 0 -13.5 -1t-16.5 -1t-13.5 3.5t-10.5 10.5q-38 97 -58 138q-43 -91 -50 -123q-2 -10 -10 -15.5t-17 -2.5q-1 1 -5.5 0t-5.5 -1q-93 3 -112 2q-5 0 -41 -2t-41 -2q-1 0 -2 -1q-19 -5 -32 14q-6 11 2 25q200 307 209 321q-14 21 -27 47q-27 46 -80.5 130
t-67.5 106q-1 1 -13 19.5t-14 22.5t-2.5 7.5t-0.5 6.5t2 6t3.5 4.5t5.5 4t6 3.5t7 3t6 3q21 6 96.5 8t113.5 1q7 0 15.5 -6t11.5 -12q29 -51 67 -126q8 8 37.5 71t43.5 67q6 2 36 2q18 2 81 2t79 -6q18 -7 19 -23.5t-4.5 -27.5t-17.5 -31q-17 -29 -47.5 -82t-55.5 -96.5
t-47 -82.5l72 -141q25 -48 100 -183q1 -2 8.5 -16t8.5 -17q4 -11 -3.5 -20t-19.5 -9q-151 2 -202 0z" />
    <glyph glyph-name="Y" unicode="Y" horiz-adv-x="682" 
d="M411 -21h-99l-20 1q-19 0 -34 1t-34.5 4t-30.5 9.5t-11 15.5q0 1 0.5 6.5t0.5 6.5q2 26 3 85.5t4 90.5q-6 14 -16 44q0 4 -4 8q-3 11 -27.5 69t-25.5 60q-12 27 -50 121.5t-62 144.5q-7 10 -6.5 29.5t12.5 26.5q13 8 56 8q54 3 109 3q52 0 61 -3q7 -3 9.5 -8.5t3.5 -13.5
t3 -12q15 -29 40 -99q19 -51 43 -124q57 189 60 215q3 24 13.5 34t33.5 6q24 0 77 1t82 0l46 -6q43 -10 38 -30q0 -2 -1 -3q-11 -27 -94 -199q-6 -13 -55 -111.5t-75 -158.5q1 -33 3 -84t3 -71q0 -2 1 -21.5t1 -22.5q0 -4 -1 -7t-3.5 -5.5t-5 -4t-7 -2.5t-7.5 -2t-8.5 -1
t-8.5 -0.5t-8.5 -0.5h-8.5z" />
    <glyph glyph-name="Y" unicode="&#x178;" horiz-adv-x="682" 
d="M411 -21h-99l-20 1q-19 0 -34 1t-34.5 4t-30.5 9.5t-11 15.5q0 1 0.5 6.5t0.5 6.5q2 26 3 85.5t4 90.5q-6 14 -16 44q0 4 -4 8q-3 11 -27.5 69t-25.5 60q-12 27 -50 121.5t-62 144.5q-7 10 -6.5 29.5t12.5 26.5q13 8 56 8q54 3 109 3q52 0 61 -3q7 -3 9.5 -8.5t3.5 -13.5
t3 -12q15 -29 40 -99q19 -51 43 -124q57 189 60 215q3 24 13.5 34t33.5 6q24 0 77 1t82 0l46 -6q43 -10 38 -30q0 -2 -1 -3q-11 -27 -94 -199q-6 -13 -55 -111.5t-75 -158.5q1 -33 3 -84t3 -71q0 -2 1 -21.5t1 -22.5q0 -4 -1 -7t-3.5 -5.5t-5 -4t-7 -2.5t-7.5 -2t-8.5 -1
t-8.5 -0.5t-8.5 -0.5h-8.5z" />
    <glyph glyph-name="Y" unicode="&#xdd;" horiz-adv-x="682" 
d="M411 -21h-99l-20 1q-19 0 -34 1t-34.5 4t-30.5 9.5t-11 15.5q0 1 0.5 6.5t0.5 6.5q2 26 3 85.5t4 90.5q-6 14 -16 44q0 4 -4 8q-3 11 -27.5 69t-25.5 60q-12 27 -50 121.5t-62 144.5q-7 10 -6.5 29.5t12.5 26.5q13 8 56 8q54 3 109 3q52 0 61 -3q7 -3 9.5 -8.5t3.5 -13.5
t3 -12q15 -29 40 -99q19 -51 43 -124q57 189 60 215q3 24 13.5 34t33.5 6q24 0 77 1t82 0l46 -6q43 -10 38 -30q0 -2 -1 -3q-11 -27 -94 -199q-6 -13 -55 -111.5t-75 -158.5q1 -33 3 -84t3 -71q0 -2 1 -21.5t1 -22.5q0 -4 -1 -7t-3.5 -5.5t-5 -4t-7 -2.5t-7.5 -2t-8.5 -1
t-8.5 -0.5t-8.5 -0.5h-8.5z" />
    <glyph glyph-name="Z" unicode="Z" horiz-adv-x="600" 
d="M277 -14q-135 -2 -173 -1q-46 0 -63 5q-7 3 -12 12t-4 17q0 20 -2 81.5t1 81.5q-6 11 0 20q1 3 17 19q96 116 222 277q-34 -4 -132 -10q-5 -1 -22.5 -2t-22.5 0q-4 0 -11 5q-7 2 -12.5 7.5t-5.5 12.5q-1 59 -5 175q0 12 4 20q3 17 21 17l78 -3l78 -3q11 0 88 -0.5
t87 -0.5q18 0 65 1.5t73 0.5q10 0 19 -7t9 -16q0 -58 -9 -229q-1 -14 -25 -27q-139 -145 -205 -221q168 3 184 2q9 0 15 -6q14 -6 15 -16q2 -10 2 -35q6 -120 6 -153q0 -9 -6.5 -14.5t-15.5 -5.5q-10 -4 -39 -4h-219z" />
    <glyph glyph-name="bracketleft" unicode="[" horiz-adv-x="417" 
d="M153 -51q-2 0 -38 -1.5t-42 -0.5q-10 0 -19.5 6.5t-10.5 15.5l-1 5v7q-3 109 10 609v127q0 2 1 9t1 8q-4 19 16 23q17 2 39.5 1.5t56.5 -2t39 -1.5q162 0 168 -1q10 -1 16 -14q7 -9 6 -19q-1 -3 -8 -98v-32q-2 -10 -10 -14.5t-17 -1.5q-7 -1 -22 -1t-22 -1q-6 0 -34 -5
q-1 -40 -5.5 -139.5t-6.5 -171.5t0 -140h40t49 -2q14 -2 21 -12q10 -6 10 -18q0 -1 -0.5 -6t-0.5 -6q-1 -8 -1.5 -38.5t0.5 -39.5q0 -2 0.5 -14t0.5 -14q0 -11 -9.5 -17t-20.5 0q-2 1 -10.5 1h-10.5h-3q-30 0 -91 -0.5t-91 -1.5z" />
    <glyph glyph-name="backslash" unicode="\" horiz-adv-x="443" 
d="M250 -118q-15 -8 -26 4l-4 5q-5 5 -6 8q-64 232 -74 272q-9 35 -43 194q-13 60 -28.5 120.5t-40.5 151.5t-33 119v8q-6 10 0 20t17 10q34 0 98 -4t93 -4q18 -2 24 -11q13 -24 26 -76q14 -46 92 -344q55 -204 76 -287l8.5 -34t14 -57t8.5 -34l2 -4q2 -3 3 -11.5t4 -11.5
q7 -9 2.5 -19.5t-16.5 -13.5q-12 -4 -54 -4t-88 1.5t-55 1.5z" />
    <glyph glyph-name="bracketright" unicode="]" horiz-adv-x="417" 
d="M351 -53q-18 -3 -77 2q-32 1 -96 1t-96 1h-3h-10.5t-10.5 -1q-11 -6 -21 0t-9 18q3 52 0 103q0 1 -1 7t-1 7q0 12 11 18q7 10 19 12q6 2 45.5 2h45.5q2 68 0 140t-6.5 171.5t-5.5 139.5q-28 5 -35 5q-7 1 -21.5 1t-21.5 1q-9 -3 -17.5 1.5t-9.5 14.5v12q0 75 -8 118
q-1 10 6 19q6 14 18 14q34 3 98.5 1.5t98.5 0.5q33 2 99 2q10 -1 16 -7.5t5 -16.5q0 -1 1 -8t1 -8q-1 -65 1.5 -186t2.5 -149q7 -354 6 -402l-1 -7q0 -8 -2 -12q-8 -13 -21 -15z" />
    <glyph glyph-name="asciicircum" unicode="^" horiz-adv-x="529" 
d="M343 309q-14 0 -20 6q-13 2 -16 13q-3 5 -9 42q-11 62 -24 119q-9 -24 -49 -143q2 -9 -2.5 -16.5t-12.5 -8.5q-3 0 -7 -2t-5 -2q-14 -2 -74 3q-67 6 -86 9q-8 1 -14 8q0 1 -2 5t-3 4q-7 7 -5 17q1 6 5 11q11 19 40 82q97 201 108 226q6 14 11 20q4 6 17 10q15 6 66 6
q15 2 57.5 0.5t54.5 -8.5q11 -6 18 -22q8 -23 28 -78t31 -84q40 -102 50 -128q5 -14 7 -20t4 -17t-1.5 -17.5t-11.5 -9.5q-1 -1 -5 -3l-6 -3q-16 -2 -51.5 -6.5t-54.5 -6.5q-3 0 -19.5 -3t-18.5 -3z" />
    <glyph glyph-name="underscore" unicode="_" horiz-adv-x="408" 
d="M591 -198q-95 -2 -286 2q-1 0 -9 0.5t-9 0.5q-82 -5 -211 -1q-67 0 -79 4q-9 6 -10 7q-1 2 -3.5 6.5t-4.5 6.5q-9 10 -9 54q0 58 2 68q0 1 2 4.5t2 4.5q6 24 12 30q9 13 38 15q82 4 333 -2q82 -3 246 -13q31 0 45 -5q6 -3 10 -7q12 -13 12 -63q2 -39 0 -78q0 -10 -6 -18
q-8 -9 -25 -9q-15 -7 -50 -7z" />
    <glyph glyph-name="grave" unicode="`" horiz-adv-x="292" 
d="M158 448q-21 -2 -33 12q-7 8 -19 30t-25.5 51t-24.5 53.5t-23 52.5t-14 33q-4 13 -1 22q-2 11 5.5 18.5t18.5 6.5q41 13 100 31q3 0 9 4q14 9 25 -5q7 -7 9 -11q1 -4 21.5 -63t38 -108t23.5 -62q5 -10 5 -15q0 -12 -10 -22q-2 -2 -15 -7q-3 -1 -24.5 -6t-40.5 -9.5
t-25 -5.5z" />
    <glyph glyph-name="a" unicode="a" horiz-adv-x="624" 
d="M564 -7q-4 0 -171 -9q-10 0 -18 8.5t-10 19.5q-2 40 -3 59q-74 -57 -132 -71q-59 -14 -105 3q-40 14 -63 45q-35 45 -43 106q-10 65 4 139t59 137t113 75q44 8 94 2q37 -4 62 -20q4 46 25 46q47 5 55 5q34 -1 148 -10q9 -1 16.5 -13t5.5 -22q-1 -6 -2 -18t-2 -18
q-9 -106 -9 -283q0 -9 1 -66.5t1 -66.5q10 -44 -26 -48zM224 204q5 -13 16.5 -23t24.5 -10q22 0 46 29t37 66t8 73t-35 47q-21 8 -46 -7q-37 -23 -52 -78.5t1 -96.5z" />
    <glyph glyph-name="a" unicode="&#xe5;" horiz-adv-x="624" 
d="M564 -7q-4 0 -171 -9q-10 0 -18 8.5t-10 19.5q-2 40 -3 59q-74 -57 -132 -71q-59 -14 -105 3q-40 14 -63 45q-35 45 -43 106q-10 65 4 139t59 137t113 75q44 8 94 2q37 -4 62 -20q4 46 25 46q47 5 55 5q34 -1 148 -10q9 -1 16.5 -13t5.5 -22q-1 -6 -2 -18t-2 -18
q-9 -106 -9 -283q0 -9 1 -66.5t1 -66.5q10 -44 -26 -48zM224 204q5 -13 16.5 -23t24.5 -10q22 0 46 29t37 66t8 73t-35 47q-21 8 -46 -7q-37 -23 -52 -78.5t1 -96.5z" />
    <glyph glyph-name="a" unicode="&#xe4;" horiz-adv-x="624" 
d="M564 -7q-4 0 -171 -9q-10 0 -18 8.5t-10 19.5q-2 40 -3 59q-74 -57 -132 -71q-59 -14 -105 3q-40 14 -63 45q-35 45 -43 106q-10 65 4 139t59 137t113 75q44 8 94 2q37 -4 62 -20q4 46 25 46q47 5 55 5q34 -1 148 -10q9 -1 16.5 -13t5.5 -22q-1 -6 -2 -18t-2 -18
q-9 -106 -9 -283q0 -9 1 -66.5t1 -66.5q10 -44 -26 -48zM224 204q5 -13 16.5 -23t24.5 -10q22 0 46 29t37 66t8 73t-35 47q-21 8 -46 -7q-37 -23 -52 -78.5t1 -96.5z" />
    <glyph glyph-name="a" unicode="&#xe3;" horiz-adv-x="624" 
d="M564 -7q-4 0 -171 -9q-10 0 -18 8.5t-10 19.5q-2 40 -3 59q-74 -57 -132 -71q-59 -14 -105 3q-40 14 -63 45q-35 45 -43 106q-10 65 4 139t59 137t113 75q44 8 94 2q37 -4 62 -20q4 46 25 46q47 5 55 5q34 -1 148 -10q9 -1 16.5 -13t5.5 -22q-1 -6 -2 -18t-2 -18
q-9 -106 -9 -283q0 -9 1 -66.5t1 -66.5q10 -44 -26 -48zM224 204q5 -13 16.5 -23t24.5 -10q22 0 46 29t37 66t8 73t-35 47q-21 8 -46 -7q-37 -23 -52 -78.5t1 -96.5z" />
    <glyph glyph-name="a" unicode="&#xe2;" horiz-adv-x="624" 
d="M564 -7q-4 0 -171 -9q-10 0 -18 8.5t-10 19.5q-2 40 -3 59q-74 -57 -132 -71q-59 -14 -105 3q-40 14 -63 45q-35 45 -43 106q-10 65 4 139t59 137t113 75q44 8 94 2q37 -4 62 -20q4 46 25 46q47 5 55 5q34 -1 148 -10q9 -1 16.5 -13t5.5 -22q-1 -6 -2 -18t-2 -18
q-9 -106 -9 -283q0 -9 1 -66.5t1 -66.5q10 -44 -26 -48zM224 204q5 -13 16.5 -23t24.5 -10q22 0 46 29t37 66t8 73t-35 47q-21 8 -46 -7q-37 -23 -52 -78.5t1 -96.5z" />
    <glyph glyph-name="a" unicode="&#xe1;" horiz-adv-x="624" 
d="M564 -7q-4 0 -171 -9q-10 0 -18 8.5t-10 19.5q-2 40 -3 59q-74 -57 -132 -71q-59 -14 -105 3q-40 14 -63 45q-35 45 -43 106q-10 65 4 139t59 137t113 75q44 8 94 2q37 -4 62 -20q4 46 25 46q47 5 55 5q34 -1 148 -10q9 -1 16.5 -13t5.5 -22q-1 -6 -2 -18t-2 -18
q-9 -106 -9 -283q0 -9 1 -66.5t1 -66.5q10 -44 -26 -48zM224 204q5 -13 16.5 -23t24.5 -10q22 0 46 29t37 66t8 73t-35 47q-21 8 -46 -7q-37 -23 -52 -78.5t1 -96.5z" />
    <glyph glyph-name="a" unicode="&#xe0;" horiz-adv-x="624" 
d="M564 -7q-4 0 -171 -9q-10 0 -18 8.5t-10 19.5q-2 40 -3 59q-74 -57 -132 -71q-59 -14 -105 3q-40 14 -63 45q-35 45 -43 106q-10 65 4 139t59 137t113 75q44 8 94 2q37 -4 62 -20q4 46 25 46q47 5 55 5q34 -1 148 -10q9 -1 16.5 -13t5.5 -22q-1 -6 -2 -18t-2 -18
q-9 -106 -9 -283q0 -9 1 -66.5t1 -66.5q10 -44 -26 -48zM224 204q5 -13 16.5 -23t24.5 -10q22 0 46 29t37 66t8 73t-35 47q-21 8 -46 -7q-37 -23 -52 -78.5t1 -96.5z" />
    <glyph glyph-name="b" unicode="b" horiz-adv-x="676" 
d="M290 -4q-30 -15 -189 -2q-18 3 -26.5 4t-17.5 5t-11 5.5t-4.5 10.5t-2 13t0.5 20.5v27.5q0 33 1 137.5t0 161.5q0 32 -2 135t-2 160q0 19 1 22q1 5 5 9t10.5 6.5t13 4t15.5 1.5h14.5h14h10.5q0 -1 34 -1l34 1q116 10 116 -31q0 -14 1.5 -113.5t1.5 -114.5
q72 72 162.5 59.5t150.5 -101.5q50 -84 42 -184q-6 -91 -53.5 -157t-135.5 -72q-82 -6 -163 38q-4 -35 -21 -45zM361 156q62 -11 87 50q22 54 0 109q-22 56 -72 48q-3 -1 -7 -2q-36 -10 -58.5 -40.5t-26 -64t16.5 -63t60 -37.5z" />
    <glyph glyph-name="c" unicode="c" horiz-adv-x="506" 
d="M386 -10q-58 -2 -86 -2q-85 0 -135 15q-38 13 -63 34q-42 34 -63 92q-19 54 -21 130q-3 109 31 190q22 49 63.5 87t92.5 46q36 6 74.5 6.5t89.5 -2t80 -2.5q11 0 19.5 -8.5t10.5 -22.5q2 -13 0 -71.5t-2 -71.5q0 -10 -9.5 -18.5t-19.5 -7.5q-47 8 -106 3q-54 -6 -74 -32
q-21 -27 -23 -69.5t19 -69.5q27 -32 168 -25q1 0 16 1.5t17 0.5q14 -2 16 -16q1 -3 2 -36t2 -70t1 -43q1 -7 -4 -14q-1 -1 -4.5 -6t-6.5 -7q-18 -11 -85 -11z" />
    <glyph glyph-name="c" unicode="&#xe7;" horiz-adv-x="506" 
d="M386 -10q-58 -2 -86 -2q-85 0 -135 15q-38 13 -63 34q-42 34 -63 92q-19 54 -21 130q-3 109 31 190q22 49 63.5 87t92.5 46q36 6 74.5 6.5t89.5 -2t80 -2.5q11 0 19.5 -8.5t10.5 -22.5q2 -13 0 -71.5t-2 -71.5q0 -10 -9.5 -18.5t-19.5 -7.5q-47 8 -106 3q-54 -6 -74 -32
q-21 -27 -23 -69.5t19 -69.5q27 -32 168 -25q1 0 16 1.5t17 0.5q14 -2 16 -16q1 -3 2 -36t2 -70t1 -43q1 -7 -4 -14q-1 -1 -4.5 -6t-6.5 -7q-18 -11 -85 -11z" />
    <glyph glyph-name="d" unicode="d" horiz-adv-x="639" 
d="M531 -5q-167 -13 -172 17q-1 5 -1 63q-128 -99 -229 -67q-51 15 -80 62.5t-32.5 102t0.5 109.5q14 121 91 194q49 47 122 54t135 -28q0 7 -1 43.5t-2 70t-2 42.5q0 18 1.5 27t11 17.5t28.5 8.5q68 -2 171 3q17 0 25 -14t8 -33q1 -26 -1.5 -143t-4.5 -154q-4 -140 -4 -275
l1 -22q1 -22 0 -36.5t-4 -20.5q-5 -8 -13 -12.5t-12.5 -5.5t-19 -2t-16.5 -1zM227 305q-7 -32 4 -71t44 -34q25 1 44 26.5t23 54.5q8 53 -16 79t-56.5 10t-42.5 -65z" />
    <glyph glyph-name="e" unicode="e" horiz-adv-x="514" 
d="M457 -13q-45 -7 -116.5 -8.5t-119.5 5.5q-76 12 -121 52q-91 77 -82 235q3 88 36 152q51 100 144 119q39 11 113 4.5t110 -31.5q69 -47 65 -168v-19.5t-0.5 -34t-2.5 -35t-8.5 -30.5t-16.5 -14q-25 -3 -96 -4t-87 -2q-35 -3 -32 -16q4 -15 46 -27q17 -4 31 -4
q59 -2 121 2q15 2 22 -1q17 -6 13 -22v-4q0 -6 1.5 -50t1.5 -51q0 -25 -2 -35q-4 -11 -20 -13zM244 393q-4 -8 -6.5 -33t-1.5 -37q8 1 53 1h53q0 67 -16 82q-10 9 -30.5 10.5t-32.5 -4.5q-14 -6 -19 -19z" />
    <glyph glyph-name="e" unicode="&#xeb;" horiz-adv-x="514" 
d="M457 -13q-45 -7 -116.5 -8.5t-119.5 5.5q-76 12 -121 52q-91 77 -82 235q3 88 36 152q51 100 144 119q39 11 113 4.5t110 -31.5q69 -47 65 -168v-19.5t-0.5 -34t-2.5 -35t-8.5 -30.5t-16.5 -14q-25 -3 -96 -4t-87 -2q-35 -3 -32 -16q4 -15 46 -27q17 -4 31 -4
q59 -2 121 2q15 2 22 -1q17 -6 13 -22v-4q0 -6 1.5 -50t1.5 -51q0 -25 -2 -35q-4 -11 -20 -13zM244 393q-4 -8 -6.5 -33t-1.5 -37q8 1 53 1h53q0 67 -16 82q-10 9 -30.5 10.5t-32.5 -4.5q-14 -6 -19 -19z" />
    <glyph glyph-name="e" unicode="&#xea;" horiz-adv-x="514" 
d="M457 -13q-45 -7 -116.5 -8.5t-119.5 5.5q-76 12 -121 52q-91 77 -82 235q3 88 36 152q51 100 144 119q39 11 113 4.5t110 -31.5q69 -47 65 -168v-19.5t-0.5 -34t-2.5 -35t-8.5 -30.5t-16.5 -14q-25 -3 -96 -4t-87 -2q-35 -3 -32 -16q4 -15 46 -27q17 -4 31 -4
q59 -2 121 2q15 2 22 -1q17 -6 13 -22v-4q0 -6 1.5 -50t1.5 -51q0 -25 -2 -35q-4 -11 -20 -13zM244 393q-4 -8 -6.5 -33t-1.5 -37q8 1 53 1h53q0 67 -16 82q-10 9 -30.5 10.5t-32.5 -4.5q-14 -6 -19 -19z" />
    <glyph glyph-name="e" unicode="&#xe9;" horiz-adv-x="514" 
d="M457 -13q-45 -7 -116.5 -8.5t-119.5 5.5q-76 12 -121 52q-91 77 -82 235q3 88 36 152q51 100 144 119q39 11 113 4.5t110 -31.5q69 -47 65 -168v-19.5t-0.5 -34t-2.5 -35t-8.5 -30.5t-16.5 -14q-25 -3 -96 -4t-87 -2q-35 -3 -32 -16q4 -15 46 -27q17 -4 31 -4
q59 -2 121 2q15 2 22 -1q17 -6 13 -22v-4q0 -6 1.5 -50t1.5 -51q0 -25 -2 -35q-4 -11 -20 -13zM244 393q-4 -8 -6.5 -33t-1.5 -37q8 1 53 1h53q0 67 -16 82q-10 9 -30.5 10.5t-32.5 -4.5q-14 -6 -19 -19z" />
    <glyph glyph-name="e" unicode="&#xe8;" horiz-adv-x="514" 
d="M457 -13q-45 -7 -116.5 -8.5t-119.5 5.5q-76 12 -121 52q-91 77 -82 235q3 88 36 152q51 100 144 119q39 11 113 4.5t110 -31.5q69 -47 65 -168v-19.5t-0.5 -34t-2.5 -35t-8.5 -30.5t-16.5 -14q-25 -3 -96 -4t-87 -2q-35 -3 -32 -16q4 -15 46 -27q17 -4 31 -4
q59 -2 121 2q15 2 22 -1q17 -6 13 -22v-4q0 -6 1.5 -50t1.5 -51q0 -25 -2 -35q-4 -11 -20 -13zM244 393q-4 -8 -6.5 -33t-1.5 -37q8 1 53 1h53q0 67 -16 82q-10 9 -30.5 10.5t-32.5 -4.5q-14 -6 -19 -19z" />
    <glyph glyph-name="f" unicode="f" horiz-adv-x="543" 
d="M265 -12q-91 0 -105 1q-13 1 -23 8.5t-10 18.5q-2 118 -2 177h-45q-29 0 -43 5q-12 5 -19 17q-5 9 -7 29q-8 101 3 133q3 6 7.5 10.5t13.5 6.5t13 3t16 2l13 1q12 2 40 4q-3 67 5 124q7 49 37 103q20 33 54.5 56.5t71.5 30.5q13 2 59.5 7t58.5 5q17 1 49 -2t42 -9
q13 -6 15 -11q2 -3 7 -53q4 -68 4 -133q0 -18 -3 -24q-2 -7 -6.5 -10.5t-12 -3.5t-13 0.5t-15 2.5t-12.5 3q-49 10 -74 -1q-14 -5 -23 -24q-8 -18 -15 -70q46 4 139 -4q9 -1 15 -10t6 -19q5 -134 -4 -156q-1 -3 -3.5 -5.5t-6 -5t-5.5 -4.5q-5 -4 -14 -4q-1 0 -65 -2.5
t-75 -3.5q-3 -87 2 -156q2 -9 2 -15t-5.5 -10t-11 -6t-14.5 -3.5t-15.5 -1.5t-14.5 -0.5t-11 -0.5z" />
    <glyph glyph-name="g" unicode="g" horiz-adv-x="600" 
d="M438 -233q-76 -53 -179 -50q-28 0 -44 6t-27 28q-10 20 -18.5 46t-13 56.5t5.5 45.5q5 9 10.5 12.5t18 3.5t15.5 1q26 2 54.5 17t43.5 36q20 29 30 90q-67 -52 -142 -49q-94 2 -143 82q-22 36 -29 86q-12 85 10 173q17 66 58.5 113.5t99.5 62.5t125 -23q0 39 21 53
q18 11 78.5 13t82.5 -2q59 -7 65 -57q10 -99 12 -234q0 -128 -3 -209q-5 -85 -28 -150q-36 -101 -103 -151zM264 149q10 -3 28 6q63 33 54 105q-7 52 -42 78q-37 28 -63 -13q-4 -7 -8 -16q-8 -21 -10 -54t8 -65.5t33 -40.5z" />
    <glyph glyph-name="h" unicode="h" horiz-adv-x="663" 
d="M217 -13q-74 0 -110 3q-29 2 -50 7h-3q-13 0 -19 13q-2 5 -2 23q0 110 3 333.5t3 338.5q0 12 31 19q2 0 7 -0.5t8 -0.5h64q15 -1 45.5 -2t45.5 -2q8 -2 22 -3.5t18 -3.5t8 -12.5t4 -32.5q0 -117 -6 -189q26 23 53 35q40 16 87 21q45 5 79 -7q42 -17 74.5 -51.5
t45.5 -77.5q13 -44 15 -104q4 -59 -1 -249q-2 -31 -11 -42q-7 -8 -21 -10q-36 -3 -191 -1q-20 2 -25 16q-1 2 -1 17q2 24 4.5 110t1.5 106q-5 88 -27 97q-17 7 -33 -1q-27 -17 -34 -121q-5 -99 -6 -199q0 -12 -10 -18l-3 -3q-6 -5 -66 -9z" />
    <glyph glyph-name="i" unicode="i" horiz-adv-x="307" 
d="M216 535q-56 -4 -91 1q-36 5 -57 16q-21 10 -23 43q-2 22 -2 86q0 1 1.5 5.5t1.5 5.5q0 17 17 20q87 12 191 1l14 -3q10 -4 10 -20q1 -38 -2 -85q-3 -55 -20 -61q-12 -5 -40 -9zM240 -1q-25 -4 -103 -6q-54 0 -86 8q-10 3 -16 10.5t-4 16.5q1 4 0 22l-1 19q0 16 2 80.5
t4.5 134t2.5 80.5q6 95 8 100q3 9 12 12q2 1 6.5 3.5t7.5 3.5q7 1 44 -1.5t40 -2.5q4 0 27 -1t45 -2.5t28 -2.5q11 -2 15.5 -11.5t-0.5 -18.5v-5q-9 -187 -9 -190v-199v-25q-6 -24 -23 -25z" />
    <glyph glyph-name="i" unicode="&#xef;" horiz-adv-x="307" 
d="M216 535q-56 -4 -91 1q-36 5 -57 16q-21 10 -23 43q-2 22 -2 86q0 1 1.5 5.5t1.5 5.5q0 17 17 20q87 12 191 1l14 -3q10 -4 10 -20q1 -38 -2 -85q-3 -55 -20 -61q-12 -5 -40 -9zM240 -1q-25 -4 -103 -6q-54 0 -86 8q-10 3 -16 10.5t-4 16.5q1 4 0 22l-1 19q0 16 2 80.5
t4.5 134t2.5 80.5q6 95 8 100q3 9 12 12q2 1 6.5 3.5t7.5 3.5q7 1 44 -1.5t40 -2.5q4 0 27 -1t45 -2.5t28 -2.5q11 -2 15.5 -11.5t-0.5 -18.5v-5q-9 -187 -9 -190v-199v-25q-6 -24 -23 -25z" />
    <glyph glyph-name="i" unicode="&#xee;" horiz-adv-x="307" 
d="M216 535q-56 -4 -91 1q-36 5 -57 16q-21 10 -23 43q-2 22 -2 86q0 1 1.5 5.5t1.5 5.5q0 17 17 20q87 12 191 1l14 -3q10 -4 10 -20q1 -38 -2 -85q-3 -55 -20 -61q-12 -5 -40 -9zM240 -1q-25 -4 -103 -6q-54 0 -86 8q-10 3 -16 10.5t-4 16.5q1 4 0 22l-1 19q0 16 2 80.5
t4.5 134t2.5 80.5q6 95 8 100q3 9 12 12q2 1 6.5 3.5t7.5 3.5q7 1 44 -1.5t40 -2.5q4 0 27 -1t45 -2.5t28 -2.5q11 -2 15.5 -11.5t-0.5 -18.5v-5q-9 -187 -9 -190v-199v-25q-6 -24 -23 -25z" />
    <glyph glyph-name="i" unicode="&#xed;" horiz-adv-x="307" 
d="M216 535q-56 -4 -91 1q-36 5 -57 16q-21 10 -23 43q-2 22 -2 86q0 1 1.5 5.5t1.5 5.5q0 17 17 20q87 12 191 1l14 -3q10 -4 10 -20q1 -38 -2 -85q-3 -55 -20 -61q-12 -5 -40 -9zM240 -1q-25 -4 -103 -6q-54 0 -86 8q-10 3 -16 10.5t-4 16.5q1 4 0 22l-1 19q0 16 2 80.5
t4.5 134t2.5 80.5q6 95 8 100q3 9 12 12q2 1 6.5 3.5t7.5 3.5q7 1 44 -1.5t40 -2.5q4 0 27 -1t45 -2.5t28 -2.5q11 -2 15.5 -11.5t-0.5 -18.5v-5q-9 -187 -9 -190v-199v-25q-6 -24 -23 -25z" />
    <glyph glyph-name="i" unicode="&#xec;" horiz-adv-x="307" 
d="M216 535q-56 -4 -91 1q-36 5 -57 16q-21 10 -23 43q-2 22 -2 86q0 1 1.5 5.5t1.5 5.5q0 17 17 20q87 12 191 1l14 -3q10 -4 10 -20q1 -38 -2 -85q-3 -55 -20 -61q-12 -5 -40 -9zM240 -1q-25 -4 -103 -6q-54 0 -86 8q-10 3 -16 10.5t-4 16.5q1 4 0 22l-1 19q0 16 2 80.5
t4.5 134t2.5 80.5q6 95 8 100q3 9 12 12q2 1 6.5 3.5t7.5 3.5q7 1 44 -1.5t40 -2.5q4 0 27 -1t45 -2.5t28 -2.5q11 -2 15.5 -11.5t-0.5 -18.5v-5q-9 -187 -9 -190v-199v-25q-6 -24 -23 -25z" />
    <glyph glyph-name="j" unicode="j" horiz-adv-x="338" 
d="M218 545q-36 -14 -94.5 -8t-79.5 36q-21 29 -15 94q5 52 33 55q11 8 36 12q20 2 59 0q46 -4 69 -8q37 -6 54 -24q17 -19 13 -60t-23 -66q-18 -22 -52 -31zM77 -281q-43 -14 -78 -2q-27 7 -44 33q-16 23 -29 66q-10 28 -23 76q-6 29 15 37q3 2 9.5 2t9.5 1
q30 10 55.5 32.5t38.5 50.5q16 36 21 85q3 47 -3 161q0 5 -2 77.5t-3 84.5q-3 9 -3 20q0 12 15 19q5 6 14 8h109q86 0 90 -1q17 -4 22 -18q1 -1 5 -9t5 -13q7 -26 7 -154q2 -185 -11 -259q-23 -138 -115 -227q-55 -55 -105 -70z" />
    <glyph glyph-name="k" unicode="k" horiz-adv-x="641" 
d="M578 -11q-4 -1 -24 -1q-76 4 -115 3l-18 -1q-18 -1 -22 0q-12 2 -20 15l-4 12t-5.5 18.5t-3.5 11.5q-5 19 -22.5 51t-30.5 40q0 -117 -2 -129q-5 -20 -46 -20q-5 0 -38 1.5t-37 1.5q-112 0 -121 2q-6 2 -13.5 8.5t-8.5 12.5q-3 7 -3 37q-3 89 -4 251.5t-2 221.5
q-2 69 1 163q0 9 6 19.5t14 13.5q3 1 17 0l14 -1q46 2 68 2q13 0 28 -0.5t33 -1.5t28 -1q25 0 33 -3q18 -7 22 -13q5 -6 5 -17q9 -163 6 -263q13 14 53.5 64t48.5 64q4 7 15 13.5t18 6.5q11 0 27 -4q47 -7 118 -45q17 -10 20 -24q2 -11 -7 -45q-31 -108 -100 -185
q30 -21 45 -39q71 -86 77 -187q2 -27 -9 -39q-10 -11 -30 -11q-7 0 -11 -3z" />
    <glyph glyph-name="l" unicode="l" horiz-adv-x="343" 
d="M281 -3q-4 0 -85.5 -1.5t-94.5 -0.5q-32 0 -43 8q0 1 -5.5 7.5t-6.5 8.5q-11 25 -11 182q0 215 20 480q0 8 1 11q0 1 2 3.5t2 4.5q-1 9 5.5 16t15.5 6q12 -2 62 4q125 5 153 -9q24 -10 16 -30q-1 -1 -1 -6q-14 -82 -16 -250q-2 -162 8 -298q0 -2 4.5 -52.5t4.5 -59.5
q0 -17 -17 -20q-1 0 -6 -2.5t-8 -1.5z" />
    <glyph glyph-name="m" unicode="m" horiz-adv-x="989" 
d="M246 -14q-8 0 -78.5 -2t-79.5 1q-54 3 -59 21q-6 7 -4 19q3 12 3 63q7 147 4 266q0 31 -4 95q0 34 8 43q0 13 9 19q8 6 22 9q24 7 156 7q20 0 26 -3q3 -1 7 -5t6 -5q6 -3 8.5 -12t2.5 -17t-0.5 -21t-0.5 -16q43 37 106 54q58 15 105 10q37 -5 67 -30q22 -19 48 -69
q70 75 160 84q55 7 97 -10q41 -17 66 -47q21 -25 30 -58q16 -50 16 -146q0 -22 -1.5 -67t-2 -67t0.5 -67q0 -23 -2 -27q-3 -12 -20 -14q-35 -3 -95 -3t-96 -1q-2 0 -15.5 -3t-15.5 -3q-11 0 -17 8.5t-2 18.5t4 68q2 113 -4 152q-2 16 -9.5 35t-18.5 23q-26 10 -42 -37
q-16 -46 -17.5 -110.5t3.5 -113.5q0 -28 -21 -28q-1 0 -6.5 -1.5t-6.5 -1.5q-30 1 -85 -3t-69 -5q-3 0 -16.5 -0.5t-15.5 -0.5q-14 4 -20 18q-1 2 -1 15v105q0 99 -14 152q-10 35 -22 40q-10 4 -22 -8q-19 -21 -29 -63q-10 -52 -8 -157q0 -3 0.5 -23.5t1 -33.5t-0.5 -23
q-2 -9 -8.5 -17t-14.5 -8q-3 0 -7 0.5t-6 0.5z" />
    <glyph glyph-name="n" unicode="n" horiz-adv-x="675" 
d="M619 -10q-9 -10 -67 -10q-8 0 -63 1.5t-62 1.5l-29 3h-2q-1 1 -2 1q-17 0 -19 17v11q4 36 6 108q4 82 -2 132q-2 20 -7 35q-6 19 -15 26q-10 8 -23.5 6t-21.5 -13q-30 -44 -26 -289q4 -10 -2 -19.5t-17 -9.5l-2 -2q-6 -3 -21.5 -3.5t-36 0.5t-22.5 1q-8 1 -63.5 2
t-63.5 2q-11 1 -19.5 8t-8.5 17v5l1 5q4 63 2 151q-6 238 -5 291q0 47 6 54q0 13 10 17q3 2 29 7q67 9 142 -1q46 -4 53 -16q1 -2 1 -3q9 -7 8 -19v-13t0.5 -19.5t0.5 -13.5q15 12 55 31q93 38 180 14q45 -12 80 -50q30 -32 44 -83q14 -54 16 -141q4 -120 -3 -192
q-2 -23 -8 -33q-8 -15 -22 -15z" />
    <glyph glyph-name="n" unicode="&#xf1;" horiz-adv-x="675" 
d="M619 -10q-9 -10 -67 -10q-8 0 -63 1.5t-62 1.5l-29 3h-2q-1 1 -2 1q-17 0 -19 17v11q4 36 6 108q4 82 -2 132q-2 20 -7 35q-6 19 -15 26q-10 8 -23.5 6t-21.5 -13q-30 -44 -26 -289q4 -10 -2 -19.5t-17 -9.5l-2 -2q-6 -3 -21.5 -3.5t-36 0.5t-22.5 1q-8 1 -63.5 2
t-63.5 2q-11 1 -19.5 8t-8.5 17v5l1 5q4 63 2 151q-6 238 -5 291q0 47 6 54q0 13 10 17q3 2 29 7q67 9 142 -1q46 -4 53 -16q1 -2 1 -3q9 -7 8 -19v-13t0.5 -19.5t0.5 -13.5q15 12 55 31q93 38 180 14q45 -12 80 -50q30 -32 44 -83q14 -54 16 -141q4 -120 -3 -192
q-2 -23 -8 -33q-8 -15 -22 -15z" />
    <glyph glyph-name="o" unicode="o" horiz-adv-x="591" 
d="M313 -1q-12 0 -35 -0.5t-37.5 -0.5t-34 1.5t-35.5 4.5q-60 13 -97 56q-28 31 -44 84q-21 72 -11 155.5t49 147.5q20 33 55 57t74 32q6 1 17 2t12 1q80 12 141 8q13 -1 52 -7.5t50 -10.5q51 -16 76 -64q21 -39 25 -103q5 -53 -2 -127q-6 -65 -19 -100q-19 -49 -52 -85
q-32 -33 -68 -43q-27 -8 -116 -8zM275 146q11 -18 31 -22t36 9q22 20 29 63q9 45 2 106q-8 68 -40 73q-2 0 -11.5 0.5t-10.5 0.5q-6 1 -14 -3q-23 -15 -31 -39q-21 -58 -9 -133q6 -37 18 -55z" />
    <glyph glyph-name="o" unicode="&#xf8;" horiz-adv-x="591" 
d="M313 -1q-12 0 -35 -0.5t-37.5 -0.5t-34 1.5t-35.5 4.5q-60 13 -97 56q-28 31 -44 84q-21 72 -11 155.5t49 147.5q20 33 55 57t74 32q6 1 17 2t12 1q80 12 141 8q13 -1 52 -7.5t50 -10.5q51 -16 76 -64q21 -39 25 -103q5 -53 -2 -127q-6 -65 -19 -100q-19 -49 -52 -85
q-32 -33 -68 -43q-27 -8 -116 -8zM275 146q11 -18 31 -22t36 9q22 20 29 63q9 45 2 106q-8 68 -40 73q-2 0 -11.5 0.5t-10.5 0.5q-6 1 -14 -3q-23 -15 -31 -39q-21 -58 -9 -133q6 -37 18 -55z" />
    <glyph glyph-name="o" unicode="&#xf6;" horiz-adv-x="591" 
d="M313 -1q-12 0 -35 -0.5t-37.5 -0.5t-34 1.5t-35.5 4.5q-60 13 -97 56q-28 31 -44 84q-21 72 -11 155.5t49 147.5q20 33 55 57t74 32q6 1 17 2t12 1q80 12 141 8q13 -1 52 -7.5t50 -10.5q51 -16 76 -64q21 -39 25 -103q5 -53 -2 -127q-6 -65 -19 -100q-19 -49 -52 -85
q-32 -33 -68 -43q-27 -8 -116 -8zM275 146q11 -18 31 -22t36 9q22 20 29 63q9 45 2 106q-8 68 -40 73q-2 0 -11.5 0.5t-10.5 0.5q-6 1 -14 -3q-23 -15 -31 -39q-21 -58 -9 -133q6 -37 18 -55z" />
    <glyph glyph-name="o" unicode="&#xf5;" horiz-adv-x="591" 
d="M313 -1q-12 0 -35 -0.5t-37.5 -0.5t-34 1.5t-35.5 4.5q-60 13 -97 56q-28 31 -44 84q-21 72 -11 155.5t49 147.5q20 33 55 57t74 32q6 1 17 2t12 1q80 12 141 8q13 -1 52 -7.5t50 -10.5q51 -16 76 -64q21 -39 25 -103q5 -53 -2 -127q-6 -65 -19 -100q-19 -49 -52 -85
q-32 -33 -68 -43q-27 -8 -116 -8zM275 146q11 -18 31 -22t36 9q22 20 29 63q9 45 2 106q-8 68 -40 73q-2 0 -11.5 0.5t-10.5 0.5q-6 1 -14 -3q-23 -15 -31 -39q-21 -58 -9 -133q6 -37 18 -55z" />
    <glyph glyph-name="o" unicode="&#xf4;" horiz-adv-x="591" 
d="M313 -1q-12 0 -35 -0.5t-37.5 -0.5t-34 1.5t-35.5 4.5q-60 13 -97 56q-28 31 -44 84q-21 72 -11 155.5t49 147.5q20 33 55 57t74 32q6 1 17 2t12 1q80 12 141 8q13 -1 52 -7.5t50 -10.5q51 -16 76 -64q21 -39 25 -103q5 -53 -2 -127q-6 -65 -19 -100q-19 -49 -52 -85
q-32 -33 -68 -43q-27 -8 -116 -8zM275 146q11 -18 31 -22t36 9q22 20 29 63q9 45 2 106q-8 68 -40 73q-2 0 -11.5 0.5t-10.5 0.5q-6 1 -14 -3q-23 -15 -31 -39q-21 -58 -9 -133q6 -37 18 -55z" />
    <glyph glyph-name="o" unicode="&#xf3;" horiz-adv-x="591" 
d="M313 -1q-12 0 -35 -0.5t-37.5 -0.5t-34 1.5t-35.5 4.5q-60 13 -97 56q-28 31 -44 84q-21 72 -11 155.5t49 147.5q20 33 55 57t74 32q6 1 17 2t12 1q80 12 141 8q13 -1 52 -7.5t50 -10.5q51 -16 76 -64q21 -39 25 -103q5 -53 -2 -127q-6 -65 -19 -100q-19 -49 -52 -85
q-32 -33 -68 -43q-27 -8 -116 -8zM275 146q11 -18 31 -22t36 9q22 20 29 63q9 45 2 106q-8 68 -40 73q-2 0 -11.5 0.5t-10.5 0.5q-6 1 -14 -3q-23 -15 -31 -39q-21 -58 -9 -133q6 -37 18 -55z" />
    <glyph glyph-name="o" unicode="&#xf2;" horiz-adv-x="591" 
d="M313 -1q-12 0 -35 -0.5t-37.5 -0.5t-34 1.5t-35.5 4.5q-60 13 -97 56q-28 31 -44 84q-21 72 -11 155.5t49 147.5q20 33 55 57t74 32q6 1 17 2t12 1q80 12 141 8q13 -1 52 -7.5t50 -10.5q51 -16 76 -64q21 -39 25 -103q5 -53 -2 -127q-6 -65 -19 -100q-19 -49 -52 -85
q-32 -33 -68 -43q-27 -8 -116 -8zM275 146q11 -18 31 -22t36 9q22 20 29 63q9 45 2 106q-8 68 -40 73q-2 0 -11.5 0.5t-10.5 0.5q-6 1 -14 -3q-23 -15 -31 -39q-21 -58 -9 -133q6 -37 18 -55z" />
    <glyph glyph-name="p" unicode="p" horiz-adv-x="608" 
d="M213 -259q-86 -8 -156 1q-14 2 -26 12t-12 24q0 26 5 151q6 142 6 556q0 11 1 14q4 16 19 16q25 0 85.5 4t94.5 3q60 0 60 -30v-19q-1 -19 0 -19q20 20 51 28q61 16 114 -5q68 -25 104.5 -97.5t34.5 -152.5q-2 -65 -37 -122.5t-93 -81.5t-117 -19q-48 4 -71 13
q0 -84 2 -126q0 -11 3 -52t2 -64q0 -7 -6 -15t-12 -11q-16 -8 -52 -8zM303 324q-40 -24 -49 -70t16 -79.5t71 -25.5q54 10 71.5 52t-6.5 94q-14 32 -42 40.5t-61 -11.5z" />
    <glyph glyph-name="q" unicode="q" horiz-adv-x="608" 
d="M502 -276q-96 -8 -145 -4q-53 7 -58 47q-6 55 11 272q-35 -22 -68 -30q-78 -21 -141 12q-44 22 -64 58q-43 72 -7 204q39 144 147 202q54 30 111 19q29 -4 55 -24q3 16 9 29t23 19q52 15 130 2q20 -3 46.5 -15.5t33.5 -27.5q9 -21 -9 -162q-1 -9 -8 -73.5t-8 -73.5
q-4 -39 -6 -79t-2 -86.5v-76.5t1.5 -86.5t1.5 -78.5q9 -18 -11.5 -31.5t-41.5 -15.5zM191 183q4 -26 23 -31.5t40 5t35 28.5q18 23 29 51t7.5 53.5t-25.5 32.5q-19 7 -43 2t-37 -20q-41 -51 -29 -121z" />
    <glyph glyph-name="r" unicode="r" horiz-adv-x="573" 
d="M151 -8q-85 0 -104 8q-21 7 -21 80q-1 69 3.5 196t4.5 189q0 44 32 59q13 6 32 8.5t30.5 3t36.5 0t29 -0.5q35 0 50 -11q17 -12 19 -50q32 29 70.5 45.5t79 14t69.5 -29.5q59 -57 76 -173q8 -61 -1 -90q-7 -21 -28 -34q-26 -14 -91 -16t-91 9q-8 3 -11 17t-2 28.5
t-1 26.5q-3 38 -16.5 49.5t-25.5 -5.5t-12 -49q0 -16 -1 -123.5t-1 -122.5q0 -9 -7.5 -16t-16.5 -9h-12q-17 0 -48.5 -2t-41.5 -2z" />
    <glyph glyph-name="s" unicode="s" horiz-adv-x="433" 
d="M250 -7q-200 -7 -212 9q-18 21 -14 124q0 64 33 64q5 0 12 -1t24 -2q45 0 48 12.5t-36 27.5q-40 16 -67.5 55.5t-15.5 105.5q10 54 51.5 99t97.5 61q109 31 186 8q45 -13 45 -77q2 -9 1 -30t-3.5 -42.5t-14 -36t-29.5 -10.5q-44 8 -91 -2q-71 -15 -13 -51
q15 -10 49.5 -27t50.5 -28q43 -30 58 -80t-6.5 -97.5t-75.5 -68.5q-31 -11 -78 -13z" />
    <glyph glyph-name="t" unicode="t" horiz-adv-x="569" 
d="M355 -8q-4 0 -20 -1.5t-27 -2.5t-28.5 -2t-31 -0.5t-28 1.5t-25 4t-16.5 8q-10 8 -17 23q-4 38 -3.5 68t6 95.5t5.5 70.5q-6 0 -52 -0.5t-52 -0.5h-1q-7 0 -11.5 -1t-9 4t-7.5 7t-6 9.5t-5 12t-3.5 13t-2.5 12.5t-2.5 11.5t-1.5 10.5q-10 67 3 141q3 20 13 35.5t28 12.5
h3q17 -2 52.5 0.5t53.5 0.5q0 31 2 87.5t2 74.5q0 9 5.5 17.5t13.5 10.5q70 16 193 -5q24 -4 36 -13q9 -7 12 -19q3 -4 2 -29.5t-2.5 -44t-4.5 -44t-3 -30.5q12 1 53.5 0t52.5 -5q8 -2 17 -14q12 -21 8 -128q-5 -62 -17 -99q-6 -15 -14.5 -19t-27.5 -2q-28 1 -82 -5
q4 -76 7 -114q0 -2 2.5 -34t3 -47t-0.5 -34q-4 -18 -18 -26q-10 -5 -54 -10z" />
    <glyph glyph-name="u" unicode="u" horiz-adv-x="636" 
d="M518 47q-79 -56 -204 -58t-203 63q-62 57 -82 152t-9 199q4 41 10 61t14 30q33 36 205 16q13 -1 27 -11t14 -24q0 -23 -6 -93.5t-3 -108.5q3 -31 15.5 -51t27 -23t28 14t17.5 53q5 40 -4.5 115t-9.5 100q0 8 2.5 14.5t8.5 10.5t11 6.5t14.5 3.5t14.5 1.5t16 0.5h14
q15 1 73 0t73 -4q16 -4 21 -25q12 -62 12 -194q0 -179 -97 -248z" />
    <glyph glyph-name="u" unicode="&#xfc;" horiz-adv-x="636" 
d="M518 47q-79 -56 -204 -58t-203 63q-62 57 -82 152t-9 199q4 41 10 61t14 30q33 36 205 16q13 -1 27 -11t14 -24q0 -23 -6 -93.5t-3 -108.5q3 -31 15.5 -51t27 -23t28 14t17.5 53q5 40 -4.5 115t-9.5 100q0 8 2.5 14.5t8.5 10.5t11 6.5t14.5 3.5t14.5 1.5t16 0.5h14
q15 1 73 0t73 -4q16 -4 21 -25q12 -62 12 -194q0 -179 -97 -248z" />
    <glyph glyph-name="u" unicode="&#xfb;" horiz-adv-x="636" 
d="M518 47q-79 -56 -204 -58t-203 63q-62 57 -82 152t-9 199q4 41 10 61t14 30q33 36 205 16q13 -1 27 -11t14 -24q0 -23 -6 -93.5t-3 -108.5q3 -31 15.5 -51t27 -23t28 14t17.5 53q5 40 -4.5 115t-9.5 100q0 8 2.5 14.5t8.5 10.5t11 6.5t14.5 3.5t14.5 1.5t16 0.5h14
q15 1 73 0t73 -4q16 -4 21 -25q12 -62 12 -194q0 -179 -97 -248z" />
    <glyph glyph-name="u" unicode="&#xfa;" horiz-adv-x="636" 
d="M518 47q-79 -56 -204 -58t-203 63q-62 57 -82 152t-9 199q4 41 10 61t14 30q33 36 205 16q13 -1 27 -11t14 -24q0 -23 -6 -93.5t-3 -108.5q3 -31 15.5 -51t27 -23t28 14t17.5 53q5 40 -4.5 115t-9.5 100q0 8 2.5 14.5t8.5 10.5t11 6.5t14.5 3.5t14.5 1.5t16 0.5h14
q15 1 73 0t73 -4q16 -4 21 -25q12 -62 12 -194q0 -179 -97 -248z" />
    <glyph glyph-name="u" unicode="&#xf9;" horiz-adv-x="636" 
d="M518 47q-79 -56 -204 -58t-203 63q-62 57 -82 152t-9 199q4 41 10 61t14 30q33 36 205 16q13 -1 27 -11t14 -24q0 -23 -6 -93.5t-3 -108.5q3 -31 15.5 -51t27 -23t28 14t17.5 53q5 40 -4.5 115t-9.5 100q0 8 2.5 14.5t8.5 10.5t11 6.5t14.5 3.5t14.5 1.5t16 0.5h14
q15 1 73 0t73 -4q16 -4 21 -25q12 -62 12 -194q0 -179 -97 -248z" />
    <glyph glyph-name="v" unicode="v" horiz-adv-x="609" 
d="M369 -17h-81q-95 2 -138 36q-23 17 -38 46q-27 50 -53 162q-24 96 -44 214q-5 19 -3.5 40.5t17.5 24.5q5 7 27 12q24 5 58 5q116 -4 135 -20q13 -12 20 -60q2 -18 6.5 -76t9.5 -89q9 -71 33 -80q3 -2 9 7q11 18 18 49q7 24 12 53.5t7.5 48.5t6.5 57t5 51q5 36 8 41
q14 15 81 19q59 6 94 -15q21 -12 30 -34q8 -22 4 -78q-10 -86 -32 -177q-19 -80 -36 -120q-21 -53 -45 -75q-14 -11 -37 -22q-36 -16 -74 -20z" />
    <glyph glyph-name="w" unicode="w" horiz-adv-x="933" 
d="M283 -10q-30 -2 -71 1q-40 4 -63 13q-31 13 -51 36q-25 27 -39 66q-31 89 -35 232q0 12 0.5 92t0.5 92q0 30 13.5 39t53.5 13t96 2q5 0 37.5 -1t37.5 -1q12 -1 19.5 -8t9.5 -15.5t4 -24.5q2 -25 0.5 -82t-0.5 -82q0 -21 7 -54.5t23 -29.5q17 5 40 75t40 72q3 1 7 3
q27 8 54.5 10t55 -9.5t38.5 -37.5q9 -22 29 -85q11 -41 24 -47q6 -3 13 1t10 11q4 13 6 39q7 225 10 240q2 12 13.5 19.5t25.5 7.5q6 0 52.5 1.5t75 2t52.5 -2.5q19 -5 27 -15t9 -30q6 -36 4 -93q-2 -90 -12 -178q-15 -111 -53 -177q-25 -43 -66 -64q-30 -17 -88 -23
q-96 -8 -151 28q-54 37 -92 117q-29 -71 -72 -112q-39 -38 -95 -41z" />
    <glyph glyph-name="x" unicode="x" horiz-adv-x="665" 
d="M222 -35q-34 -9 -89 2q-21 3 -52.5 16t-38.5 28q-5 12 1 23l31 31q55 49 113 121q-3 4 -34.5 48.5t-58.5 83t-33 49.5q-10 14 -30 53t-23 52q-3 22 15 35q28 23 172 55q47 8 54 4h4q10 -3 15 -11q57 -125 94 -196q71 168 76 178l8 16q5 13 19 13q4 0 24 -5
q141 -31 143 -32q11 -3 18 -12.5t6 -20.5q-1 -2 -6 -12.5t-5 -11.5q-19 -38 -45 -76t-69 -92.5t-54 -69.5q36 -73 144 -172q20 -18 16.5 -38t-31.5 -27q-6 -1 -33.5 -7.5t-47 -10t-45.5 -6t-46 2.5t-32 17l-75 84q-27 -43 -46 -66q-31 -37 -59 -46z" />
    <glyph glyph-name="y" unicode="y" horiz-adv-x="610" 
d="M499 -195q-26 -27 -60.5 -43.5t-71.5 -21.5t-79 -6.5t-83 0.5q-10 0 -21 6.5t-12 16.5q-3 12 -8.5 39t-8.5 41q-13 73 -13 76q0 19 26 19q72 -2 108.5 13.5t43.5 52.5q1 5 1 64q-45 -31 -85 -42q-68 -17 -126 27t-75 118q-9 39 -15 114.5t4.5 156.5t46.5 89q17 5 42 5
q24 1 144 1q12 -1 17.5 -12t2.5 -24q0 -4 -1.5 -26.5t-2.5 -26.5q-4 -74 0 -124q0 -44 12.5 -60.5t27 1.5t19.5 60q3 28 3.5 56t-1 74.5t-1.5 57.5q0 8 7 16t15 10q3 1 7 1.5t8.5 1t6.5 0.5t6.5 1t6.5 0q6 -1 25.5 -0.5t25.5 1.5q67 4 99 -5q27 -7 37 -32q3 -10 3.5 -37.5
t-0.5 -63t-1 -37.5q-1 -42 1.5 -122t1.5 -144.5t-10 -121.5q-16 -109 -73 -170z" />
    <glyph glyph-name="y" unicode="&#xff;" horiz-adv-x="610" 
d="M499 -195q-26 -27 -60.5 -43.5t-71.5 -21.5t-79 -6.5t-83 0.5q-10 0 -21 6.5t-12 16.5q-3 12 -8.5 39t-8.5 41q-13 73 -13 76q0 19 26 19q72 -2 108.5 13.5t43.5 52.5q1 5 1 64q-45 -31 -85 -42q-68 -17 -126 27t-75 118q-9 39 -15 114.5t4.5 156.5t46.5 89q17 5 42 5
q24 1 144 1q12 -1 17.5 -12t2.5 -24q0 -4 -1.5 -26.5t-2.5 -26.5q-4 -74 0 -124q0 -44 12.5 -60.5t27 1.5t19.5 60q3 28 3.5 56t-1 74.5t-1.5 57.5q0 8 7 16t15 10q3 1 7 1.5t8.5 1t6.5 0.5t6.5 1t6.5 0q6 -1 25.5 -0.5t25.5 1.5q67 4 99 -5q27 -7 37 -32q3 -10 3.5 -37.5
t-0.5 -63t-1 -37.5q-1 -42 1.5 -122t1.5 -144.5t-10 -121.5q-16 -109 -73 -170z" />
    <glyph glyph-name="y" unicode="&#xfd;" horiz-adv-x="610" 
d="M499 -195q-26 -27 -60.5 -43.5t-71.5 -21.5t-79 -6.5t-83 0.5q-10 0 -21 6.5t-12 16.5q-3 12 -8.5 39t-8.5 41q-13 73 -13 76q0 19 26 19q72 -2 108.5 13.5t43.5 52.5q1 5 1 64q-45 -31 -85 -42q-68 -17 -126 27t-75 118q-9 39 -15 114.5t4.5 156.5t46.5 89q17 5 42 5
q24 1 144 1q12 -1 17.5 -12t2.5 -24q0 -4 -1.5 -26.5t-2.5 -26.5q-4 -74 0 -124q0 -44 12.5 -60.5t27 1.5t19.5 60q3 28 3.5 56t-1 74.5t-1.5 57.5q0 8 7 16t15 10q3 1 7 1.5t8.5 1t6.5 0.5t6.5 1t6.5 0q6 -1 25.5 -0.5t25.5 1.5q67 4 99 -5q27 -7 37 -32q3 -10 3.5 -37.5
t-0.5 -63t-1 -37.5q-1 -42 1.5 -122t1.5 -144.5t-10 -121.5q-16 -109 -73 -170z" />
    <glyph glyph-name="z" unicode="z" horiz-adv-x="542" 
d="M202 -8q-13 0 -38 -1t-45 -1t-38 2q-4 2 -10 2q-18 -9 -36 13q-11 15 -14 60.5t1 64.5q4 32 12 45q7 12 33 34q17 12 50.5 33t48.5 32q46 33 78 69q-3 0 -38 -1.5t-58 -2t-51 1.5t-39 8q-5 3 -11.5 12.5t-7.5 16.5q-2 12 -2 134q0 33 15.5 46.5t50.5 18.5q74 15 191 15
t190 -25q19 -7 22 -25q7 -67 3 -118q-4 -61 -29 -98q-11 -17 -25.5 -32t-38.5 -35.5t-31 -27.5q75 0 101 -2q16 -3 22 -29q14 -108 11 -142q-4 -34 -22 -50q-19 -14 -57 -16q-15 0 -119 -1t-119 -1z" />
    <glyph glyph-name="braceleft" unicode="{" horiz-adv-x="380" 
d="M379 -50q-42 -15 -97 -15q-60 -2 -107 15q-38 14 -55 38q-15 19 -19 40q-4 22 -5.5 45t-1 55.5t0.5 45.5q-2 52 -11 76q-7 22 -23 34q-7 5 -22.5 11.5t-21.5 10.5q-8 4 -9.5 13.5t4.5 16.5q8 10 13 12t16.5 4t17.5 4q21 9 33 29q9 15 13 38q2 19 0 95q0 84 22 130
q16 30 54 56q54 35 150 39q1 0 10 1.5t11 1.5l12 -3q14 -2 16 -16.5t-11 -20.5q-45 -21 -61 -47q-13 -22 -19 -61q-4 -28 -4.5 -81t-2.5 -74q-4 -52 -17 -77q-11 -24 -39 -41q23 -11 33 -24q15 -18 23 -54q6 -31 7.5 -90t3.5 -76q4 -35 11 -51q15 -30 59 -32h11.5t10.5 -1
q10 -4 12.5 -14.5t-4.5 -18.5q-6 -12 -14 -14z" />
    <glyph glyph-name="bar" unicode="|" horiz-adv-x="350" 
d="M252 -131q-82 -9 -144 -2q-3 1 -23.5 5t-23.5 4q-9 0 -15.5 6t-6.5 15q-2 4 -2 30q4 81 6.5 171.5t4.5 201.5t4 172q6 264 1 301q0 1 -2.5 11.5t-2.5 12.5q0 5 4 11q0 9 6 15t15 6q122 0 197 -3q24 0 31 -6q9 -7 9 -26q0 -37 -2.5 -104t-2.5 -93q-1 -78 -1.5 -278.5
t-3.5 -308.5q0 -49 -5 -111q-2 -16 -14 -24q-9 -4 -29 -6z" />
    <glyph glyph-name="braceright" unicode="}" horiz-adv-x="384" 
d="M53 -64q-12 -4 -21 -4q-2 0 -6 1.5t-6 1.5q-14 3 -16.5 17.5t10.5 20.5q46 22 61 47q12 20 20 61q5 29 5 82.5t1 72.5q6 53 17 77q11 21 40 41q-21 8 -33 23q-18 21 -23 55q-6 31 -8 88.5t-4 76.5q-2 34 -11 51q-13 31 -59 33q-18 0 -21 1q-10 4 -12.5 14t4.5 18
q3 12 13 15q42 15 98 15q65 0 106 -16q40 -15 56 -37q13 -18 18 -41q4 -21 5.5 -48t1 -48.5t0.5 -48.5q0 -46 10 -76q10 -26 24 -35q7 -5 22.5 -11.5t21.5 -9.5q8 -4 9.5 -13.5t-4.5 -16.5q-8 -10 -13 -12t-16.5 -4t-17.5 -5q-20 -7 -34 -28q-9 -15 -12 -39q-1 -8 -1 -94
q2 -83 -21 -130q-16 -31 -54 -56q-52 -35 -150 -39z" />
    <glyph glyph-name="asciitilde" unicode="~" horiz-adv-x="684" 
d="M508 108q-59 -16 -124 4q-53 17 -134 75q-24 17 -39 14q-8 -2 -18.5 -11.5t-12.5 -16.5q-4 -7 -9 -10q-15 -9 -29 -1q-13 7 -91 52q-22 16 -23 21q-13 6 -11 21q1 4 3.5 8.5t6 10t5.5 8.5q38 62 73 93q23 21 49 30q29 10 58 5q44 -7 85 -37q3 -2 38 -29.5t55 -37.5t32 -5
q12 4 32 22q14 13 40 43q2 3 7 9t8 9.5t8 8.5t9 7.5t8.5 4t9 0.5t8.5 -5q6 -6 9 -12q15 -12 45.5 -38t45.5 -38q11 -7 13 -16q3 -7 0 -15q-40 -84 -73 -119q-37 -42 -84 -55z" />
    <glyph glyph-name="nonbreakingspace" unicode="&#xa0;" horiz-adv-x="300" 
 />
    <glyph glyph-name="cent" unicode="&#xa2;" horiz-adv-x="529" 
d="M357 -46q-6 -1 -24 -1t-39 0.5t-24 0.5h-25q-9 2 -13 9q-9 5 -10 14q-1 2 0.5 14.5t1.5 13.5q2 19 4 53q-73 9 -116 45q-36 29 -58 81q-22 50 -26 139q-2 102 27 180q11 32 36 66t63.5 56t78.5 25q-2 36 -4 56q-3 21 -2 24q1 9 10 14q5 16 22 14q15 -3 45.5 1t45.5 2
q6 -1 12 -7q16 -5 16 -21q0 -45 -3 -88q12 0 36.5 -0.5t37.5 -0.5q11 0 18 -10q1 -2 5.5 -8t5.5 -9q0 -5 1.5 -35t3 -58t2.5 -35q2 -4 2 -13q0 -10 -9.5 -18.5t-19.5 -7.5q-49 8 -106 2q-54 -4 -74 -32q-22 -27 -23.5 -69t19.5 -69q27 -32 168 -25q1 0 15.5 1.5t17.5 0.5
q10 -1 14.5 -11t-0.5 -18q-2 -5 0 -12q1 -7 4 -62t3 -62q1 -7 -4 -14q-2 -2 -4.5 -5.5t-4.5 -5.5t-5 -3q-11 -4 -51.5 -7.5t-57.5 -3.5q0 -3 1 -19.5t2 -31t3 -18.5q4 -10 -1.5 -20t-16.5 -12z" />
    <glyph glyph-name="sterling" unicode="&#xa3;" horiz-adv-x="616" 
d="M107 -11q-48 -11 -51 -10q-10 2 -15 10q-1 3 -4.5 8t-4.5 8q-3 21 -2 74t3 75q2 23 15 31q14 8 24 2q3 -2 28 -2q35 6 53 22q1 1 2 3t2 2q3 1 1 25.5t-2 27.5q-5 0 -29.5 -0.5t-46.5 0t-29 3.5q-9 3 -12 12q-1 2 -1 7v8q-2 9 -2 28q-4 87 11 113q9 16 27 7q2 -1 12 -1h56
q-8 59 7 130q12 58 47 96q40 44 98 60q13 3 84 6q22 1 64 -2.5t61 -3.5q8 0 14 -6t6 -14q0 -2 2 -8t2 -8q0 -6 -0.5 -49t-0.5 -49q0 -2 -1.5 -19.5t-3 -33.5t-2.5 -20q-3 -13 -17.5 -16.5t-27.5 3.5q-23 10 -68 8q-27 -2 -38 -13q-8 -8 -16.5 -32t-9.5 -38q40 1 80 0
q17 0 20 1q11 5 20.5 -2t7.5 -19v-2q0 -16 -12 -112q-2 -12 -7 -17t-15 -5l-1 -1q-5 -5 -19.5 -7t-28 -1t-22.5 0q5 -11 6 -35t2 -31q3 -19 58 -27q49 -7 130 23q9 3 18.5 -1.5t10.5 -14.5q4 -21 5 -83.5t-3 -83.5v-4q1 -9 -3 -15t-15 -8.5t-18.5 -3t-21.5 -1.5
q-32 -1 -91 4.5t-73 6.5q-163 6 -204 3q-28 -1 -59 -8z" />
    <glyph glyph-name="currency" unicode="&#xa4;" horiz-adv-x="481" 
d="M332 57q-13 -2 -20 10q-8 10 -8 12q-2 7 -7.5 30t-9.5 36q-28 1 -82 -1q-1 -4 -10 -15q-14 -20 -28 -46q-9 -20 -21 -22q-14 -2 -53 14t-46 26q-10 18 5 37q5 8 15 22t18 25.5t15 21.5q-31 39 -39 78q-10 57 17 116q-32 45 -39 53l-4 4q-4 3 -5 5q-5 10 -3 20t12 14
q5 2 38 22t38 22q18 7 26 -12q3 -9 11 -17q23 -42 27 -47q74 13 134 8q1 2 7.5 13.5t11.5 20.5t11.5 18.5t11.5 12.5q13 9 22 5q10 -3 33.5 -16.5t29.5 -19.5q19 -17 13 -33q-2 -6 -22.5 -38t-21.5 -35q12 -17 19 -46q15 -55 -2 -106q-11 -33 -31 -55q26 -50 39 -74
q7 -12 0 -22q-2 -12 -13 -17q-9 -4 -44 -13.5t-45 -10.5zM225 275q34 -2 56 3q6 0 6 2q4 4 4 17q1 8 0 31t-5 30h-29.5t-29.5 1q-14 2 -19 -3q-14 -13 -8 -68q0 -8 3 -9q1 -1 5.5 -2t10 -1.5t6.5 -0.5z" />
    <glyph glyph-name="yen" unicode="&#xa5;" horiz-adv-x="745" 
d="M455 -21h-100q-76 2 -107 11q-9 -1 -15.5 5t-6.5 15q0 4 1 29t1 28q-55 5 -167 5q-8 0 -15.5 6t-9.5 14q-3 18 2 102q1 9 10.5 15.5t18.5 6.5q24 0 50.5 0.5t58.5 1.5t50 1q-8 25 -10 28q-1 1 -1.5 3.5t-1.5 4.5t-2 2q-9 0 -76 -2t-77 -2q-16 0 -20 16q-1 7 -1 50
q0 48 2 54q6 16 24 18q6 0 46.5 -1t46.5 -1q-88 215 -107 257q-9 18 -7 26q0 1 2.5 5.5t1.5 5.5q-2 10 3 16t18 8t20 2.5t24 0.5q54 3 109 3q51 0 61 -3q17 -7 12 -26l4 -8q18 -38 40 -99q19 -51 43 -124q55 183 60 215q2 21 8 26q3 13 16 16q3 0 23 -2q24 0 77 1t82 0
q56 -4 65 -12q10 -2 16 -10t2 -17q-12 -27 -65.5 -138.5t-66.5 -137.5q29 0 32 -1q15 -5 17 -21q2 -12 2.5 -47.5t-1.5 -47.5q-3 -20 -23 -20q-12 1 -96 1q-4 -9 -14 -27q78 -4 118 -8q14 0 21 -12q2 -4 2 -14.5t-1 -22.5t-1 -15v-62q0 -11 -8 -17t-18 -2h-8q-12 0 -34.5 1
t-41 1.5t-34.5 0.5q0 -5 2 -39.5t2 -39.5q0 -4 -1 -7t-3.5 -5.5t-5 -4t-7 -2.5t-7.5 -2t-8.5 -1t-8.5 -0.5t-8.5 -0.5h-8.5z" />
    <glyph glyph-name="softhyphen" unicode="&#xad;" 
 />
    <glyph glyph-name="plusminus" unicode="&#xb1;" horiz-adv-x="618" 
d="M390 189q-50 -5 -100 -3q-48 4 -54 11q-7 8 -11 74q-89 6 -143 1q-6 -1 -18 -1q-14 0 -19 13q-3 9 -3 39q-1 57 13 118q0 1 1 6l1 5q5 15 22 15q3 3 16 1.5t16 -1.5q13 0 37 1t43.5 1.5t36.5 0.5q0 8 -1 22.5t-1.5 26.5t-0.5 23q0 1 2 6.5t2 6.5q0 15 13 18q2 1 13 2
t12 1q112 7 116 7q39 -2 39 -25q0 -5 -0.5 -40t-0.5 -40q109 5 143 0q6 -2 17 -13q8 -5 8 -19q1 -11 -4.5 -76t-5.5 -72q0 -10 -7 -16t-16 -4q-1 0 -6 -2l-5 -1q-114 0 -131 1q0 -44 2 -60q2 -10 -6 -18t-20 -9zM562 -7q-7 -15 -22 -13h-3h-470q-13 0 -19 12q-8 3 -11 11
q-2 6 -3 25.5t-1 41v26.5q0 3 -2.5 12t-0.5 14l1 1q0 9 5.5 15.5t13.5 6.5h487q13 5 22.5 -3.5t5.5 -21.5h-1q0 -5 -0.5 -40t-0.5 -40t1 -15t0.5 -17.5t-2.5 -14.5z" />
    <glyph glyph-name="multiply" unicode="&#xd7;" horiz-adv-x="535" 
d="M168 60q-13 -7 -24 -1q-99 57 -115 77q-5 6 -4.5 16.5t6.5 16.5q15 16 42.5 45t49.5 53.5t41 46.5q-5 5 -44 37t-45 37q-2 2 -8 7t-9.5 8t-10 9.5t-9 10t-7 10t-3.5 10t1 9.5q3 7 16 18q59 39 91 58q6 6 17 10q14 4 21 0q4 -1 10 -7q81 -88 85 -92q37 48 81 90q7 5 14 5
q16 0 20 -2q6 -3 21 -17.5t31.5 -31l19.5 -19.5q1 -1 9 -8.5t9 -9.5q9 -11 2 -23l-6 -12q-1 -1 -95 -103q-1 -2 3 -4q29 -30 109 -91q4 -3 11 -10t11 -10q12 -12 4 -26q0 -2 -1 -4q-1 -4 -6.5 -11t-11 -13t-13.5 -13t-10 -9q-56 -51 -64 -54q-13 -5 -25 6q-6 2 -22 16
q-17 17 -46.5 50.5t-39.5 43.5q-7 -8 -27.5 -31t-31.5 -36q-44 -50 -47 -52z" />
    <glyph glyph-name="divide" unicode="&#xf7;" horiz-adv-x="539" 
d="M308 394q-100 0 -120 2q-16 2 -21 11q-3 5 -3 20q-2 42 3 84q1 12 7 21.5t17 8.5q21 -3 114 -3q9 0 17.5 -5t9.5 -13q3 -20 4 -55.5t-4 -55.5q-6 -15 -24 -15zM476 173q-9 -1 -142 -1q-6 0 -45 1.5t-45 1.5q-88 -5 -192 1q-11 0 -19 6q-2 2 -4.5 7.5t-3.5 7.5q-6 9 -6 65
q0 50 3 57q1 3 4 15t6 17q7 12 26 14q11 1 50 1t85 -0.5t50 -0.5q196 -6 249 -15q17 -2 21 -13q2 -5 7 -37q1 -13 1 -51t-1 -51q-2 -19 -21 -19q-11 -6 -23 -6zM319 -6q-9 -6 -31 -8q-92 -3 -112 23q-10 13 -10 48q0 32 9 49q8 17 26 22q5 1 10.5 1.5t12 1t10.5 0.5
q3 0 23.5 1.5t23.5 1.5q28 0 41 -12q13 -13 17.5 -46t-0.5 -52q-6 -22 -20 -30z" />
    <glyph glyph-name="quoteleft" unicode="&#x2018;" horiz-adv-x="224" 
d="M155 441q-14 -3 -53.5 -3t-53.5 5q-7 4 -10 9q-7 12 -7 95q-2 98 -4 146q0 8 6.5 14.5t14.5 8.5q3 0 20.5 1t20.5 2q14 2 44 2.5t44 -2.5h4q9 0 15 -7.5t4 -16.5q-4 -25 -25 -228q-2 -21 -20 -26z" />
    <glyph glyph-name="quoteright" unicode="&#x2019;" horiz-adv-x="224" 
d="M155 441q-14 -3 -53.5 -3t-53.5 5q-7 4 -10 9q-7 12 -7 95q-2 98 -4 146q0 8 6.5 14.5t14.5 8.5q3 0 20.5 1t20.5 2q14 2 44 2.5t44 -2.5h4q9 0 15 -7.5t4 -16.5q-4 -25 -25 -228q-2 -21 -20 -26z" />
    <glyph glyph-name="quotedblleft" unicode="&#x201c;" horiz-adv-x="454" 
d="M155 438q-14 -4 -53.5 -3.5t-53.5 5.5q-6 2 -10 9q-7 12 -7 94q-2 98 -4 147q0 8 6.5 14.5t14.5 8.5q12 2 41 2q63 8 88 0q3 1 4 1q9 0 15 -7.5t4 -16.5q-3 -23 -25 -229q-1 -8 -6.5 -16t-13.5 -9zM385 433q-14 -4 -53.5 -3.5t-53.5 5.5q-7 2 -10 8q-7 12 -7 95
q-2 98 -4 146q0 20 21 24q3 0 20.5 0.5t20.5 1.5q64 8 88 0h4q9 0 14.5 -7t4.5 -17q-4 -24 -25 -228q-2 -22 -20 -25z" />
    <glyph glyph-name="quotedblright" unicode="&#x201d;" horiz-adv-x="454" 
d="M155 438q-14 -4 -53.5 -3.5t-53.5 5.5q-6 2 -10 9q-7 12 -7 94q-2 98 -4 147q0 8 6.5 14.5t14.5 8.5q12 2 41 2q63 8 88 0q3 1 4 1q9 0 15 -7.5t4 -16.5q-3 -23 -25 -229q-1 -8 -6.5 -16t-13.5 -9zM385 433q-14 -4 -53.5 -3.5t-53.5 5.5q-7 2 -10 8q-7 12 -7 95
q-2 98 -4 146q0 20 21 24q3 0 20.5 0.5t20.5 1.5q64 8 88 0h4q9 0 14.5 -7t4.5 -17q-4 -24 -25 -228q-2 -22 -20 -25z" />
    <glyph glyph-name="Euro" unicode="&#x20ac;" horiz-adv-x="621" 
d="M559 -6q-52 -18 -133 -18q-86 0 -154 31q-47 23 -71 56q-43 58 -36 133h-112q-13 0 -18 10q-7 12 -7 27q-8 71 2 87t22 16q7 0 56 -0.5t56 -0.5q0 12 2 36q-40 0 -94 -7q-2 0 -9.5 -1t-8.5 -1q-8 0 -14.5 6t-6.5 14q0 5 -1 43t-1 44q-1 13 12 20q6 12 16 13q3 1 19 1
q1 0 31 3q28 4 68 2q24 88 75 140q34 35 76 55q57 28 127 28q69 0 103 -7q15 6 25 -9q8 -8 7 -17q0 -111 -5 -144q-1 -8 -11 -14q-7 -13 -19 -13q-53 5 -104 -3q-41 -7 -50 -22q67 0 72 -1q8 -2 14.5 -8t6.5 -14q0 -1 -0.5 -3.5t-0.5 -4.5t0.5 -18.5t0.5 -28.5t-1.5 -25.5
t-4.5 -18.5q-10 -16 -26 -9q-10 -1 -24 -0.5t-34.5 1t-23.5 0.5q-1 0 -1 -4q0 -8 -0.5 -24t-0.5 -24q61 2 91 -1q11 -2 15.5 -11.5t-1.5 -18.5q1 -6 0.5 -26.5t-1.5 -26.5q0 -2 -2 -5.5t-2 -5.5q-3 -15 -21 -17q-12 -1 -35 -2.5t-35 -2.5q-4 0 4 -5q1 0 3 -1t3 -2
q26 -15 70 -15q21 0 79 9q11 1 19 -7q10 -3 13 -13q3 -7 3 -33q0 -58 4 -110q0 -15 -14 -20q-3 -9 -12 -12z" />
    <glyph glyph-name="trademark" unicode="&#x2122;" horiz-adv-x="796" 
d="M592 427q-3 -17 -20 -17q-4 0 -67 7q-16 3 -20 22q-12 46 -22 80q0 -2 -2.5 -24t-4.5 -30t-6.5 -23.5t-11.5 -22t-18 -7.5q-21 -3 -64 1q-13 0 -19 3q-7 4 -9 14q0 2 -2 7t-2 8q7 78 35 232q1 7 2 20.5t3 20.5q2 13 14 16q6 8 15 8q4 0 11.5 -2.5t10.5 -2.5q44 0 51 2
q17 2 24 -12q9 -16 17 -34.5t17 -41.5t14 -35q19 32 53 98q4 7 15 11q9 9 37 6q44 0 55 -7q10 0 16 -7q3 -4 5 -14l24 -117q1 -9 15 -72l16 -72q1 -8 -5 -18q-9 -16 -69 -13q-16 0 -24.5 0.5t-20.5 3t-17 9t-4 17.5q-2 5 -8 33.5t-6 29.5q-1 -2 -8 -21t-13 -35t-7 -21z
M233 431q-7 -4 -16 -2q-58 0 -94 3q-27 4 -29 24q-5 7 -3 32q1 18 2.5 53t3.5 53q-3 0 -30 -0.5t-31 0.5q-10 2 -14 11t1 19q1 2 1 14q2 21 4 61q2 19 6 23q2 11 11.5 15.5t19.5 -0.5q58 3 175 -1q3 0 20 -0.5t32 -1.5t20 -3q13 -6 13 -19q0 -18 -10 -103q-2 -15 -17 -18
l-6 -1q-7 -2 -9 -1q-37 3 -45 2q2 -21 4 -65q1 -7 4 -33t3 -41q0 -14 -13 -19q-1 0 -3 -2z" />
    <glyph glyph-name="minus" unicode="&#x2212;" horiz-adv-x="546" 
d="M479 173q-9 -1 -142 -1q-6 0 -45 1.5t-45 1.5q-88 -5 -192 1q-12 0 -19 6q-2 2 -4.5 7.5t-3.5 7.5q-6 9 -6 65q0 50 3 57q1 3 4 15t6 17q7 12 26 14q11 1 50 1t85 -0.5t50 -0.5q196 -6 249 -15q17 -2 21 -13q2 -5 7 -37q1 -13 1 -51t-1 -51q-2 -19 -21 -19q-10 -6 -23 -6
z" />
    <glyph glyph-name="CR" horiz-adv-x="300" 
 />
    </font>
</defs>
</svg>
